G04 #@! TF.FileFunction,Copper,L3,Inr,Mixed*
%FSLAX46Y46*%
G04 Gerber Fmt 4.6, Leading zero omitted, Abs format (unit mm)*
G04 Created by KiCad (PCBNEW 4.0.6) date 05/08/17 11:25:49*
%MOMM*%
%LPD*%
G01*
G04 APERTURE LIST*
%ADD10C,0.100000*%
%ADD11C,0.600000*%
%ADD12C,1.200000*%
%ADD13C,0.800000*%
%ADD14R,1.600000X1.600000*%
%ADD15C,1.600000*%
%ADD16R,1.700000X1.700000*%
%ADD17O,1.700000X1.700000*%
%ADD18C,0.482600*%
%ADD19C,0.900000*%
%ADD20C,0.812800*%
%ADD21C,0.254000*%
%ADD22C,0.381000*%
%ADD23C,0.250000*%
%ADD24C,0.152400*%
%ADD25C,0.152000*%
%ADD26C,2.540000*%
%ADD27C,1.270000*%
G04 APERTURE END LIST*
D10*
D11*
X158648400Y-95427800D03*
X161061400Y-95402400D03*
X161061400Y-93522800D03*
X162712400Y-94361000D03*
X161645600Y-94411800D03*
X160705800Y-94386400D03*
X159639000Y-94437200D03*
X158572200Y-94538800D03*
X158521400Y-93726000D03*
X157632400Y-93726000D03*
X157632400Y-94462600D03*
X156743400Y-94437200D03*
X156743400Y-93573600D03*
X136093200Y-90449400D03*
X136042400Y-88900000D03*
X136093200Y-89687400D03*
X135382000Y-89687400D03*
X136804400Y-89662000D03*
X136804400Y-90474800D03*
X135356600Y-90474800D03*
X136779000Y-88925400D03*
D12*
X144043400Y-83820000D03*
X144805400Y-82651600D03*
D11*
X157988000Y-87909400D03*
X157988000Y-86918800D03*
X157962600Y-85979000D03*
X157962600Y-85140800D03*
X157962600Y-84201000D03*
X157962600Y-83286600D03*
X157962600Y-82346800D03*
X160731200Y-79806800D03*
X159969200Y-79806800D03*
X159156400Y-79806800D03*
X158419800Y-79806800D03*
D13*
X166090600Y-90424000D03*
X164947600Y-91490800D03*
X166090600Y-91490800D03*
X166090600Y-92481400D03*
X164947600Y-92481400D03*
D11*
X156641800Y-92278200D03*
D14*
X124530000Y-75680000D03*
D15*
X121030000Y-75680000D03*
D16*
X178536600Y-96062800D03*
D17*
X178536600Y-93522800D03*
D16*
X183286400Y-45542200D03*
D17*
X185826400Y-45542200D03*
X188366400Y-45542200D03*
D16*
X145030000Y-91680000D03*
D17*
X147570000Y-91680000D03*
D16*
X186030000Y-101680000D03*
D17*
X186030000Y-104220000D03*
X183490000Y-101680000D03*
X183490000Y-104220000D03*
X180950000Y-101680000D03*
X180950000Y-104220000D03*
X178410000Y-101680000D03*
X178410000Y-104220000D03*
X175870000Y-101680000D03*
X175870000Y-104220000D03*
X173330000Y-101680000D03*
X173330000Y-104220000D03*
X170790000Y-101680000D03*
X170790000Y-104220000D03*
X168250000Y-101680000D03*
X168250000Y-104220000D03*
X165710000Y-101680000D03*
X165710000Y-104220000D03*
X163170000Y-101680000D03*
X163170000Y-104220000D03*
X160630000Y-101680000D03*
X160630000Y-104220000D03*
X158090000Y-101680000D03*
X158090000Y-104220000D03*
X155550000Y-101680000D03*
X155550000Y-104220000D03*
X153010000Y-101680000D03*
X153010000Y-104220000D03*
X150470000Y-101680000D03*
X150470000Y-104220000D03*
X147930000Y-101680000D03*
X147930000Y-104220000D03*
X145390000Y-101680000D03*
X145390000Y-104220000D03*
X142850000Y-101680000D03*
X142850000Y-104220000D03*
X140310000Y-101680000D03*
X140310000Y-104220000D03*
X137770000Y-101680000D03*
X137770000Y-104220000D03*
D16*
X193421000Y-104140000D03*
D17*
X190881000Y-104140000D03*
X193421000Y-101600000D03*
X190881000Y-101600000D03*
X193421000Y-99060000D03*
X190881000Y-99060000D03*
X193421000Y-96520000D03*
X190881000Y-96520000D03*
X193421000Y-93980000D03*
X190881000Y-93980000D03*
X193421000Y-91440000D03*
X190881000Y-91440000D03*
X193421000Y-88900000D03*
X190881000Y-88900000D03*
X193421000Y-86360000D03*
X190881000Y-86360000D03*
D16*
X115646200Y-67437000D03*
D17*
X115646200Y-64897000D03*
X115646200Y-62357000D03*
X115646200Y-59817000D03*
X115646200Y-57277000D03*
D16*
X115780000Y-104050000D03*
D17*
X115780000Y-101510000D03*
X115780000Y-98970000D03*
X115780000Y-96430000D03*
X115780000Y-93890000D03*
X115780000Y-91350000D03*
X115780000Y-88810000D03*
D16*
X202311000Y-83566000D03*
D17*
X202311000Y-86106000D03*
D16*
X198882000Y-83566000D03*
D17*
X198882000Y-86106000D03*
D16*
X115530000Y-84680000D03*
D17*
X115530000Y-82140000D03*
X115530000Y-79600000D03*
X115530000Y-77060000D03*
D16*
X171958000Y-39370000D03*
D17*
X174498000Y-39370000D03*
X177038000Y-39370000D03*
X179578000Y-39370000D03*
X182118000Y-39370000D03*
X184658000Y-39370000D03*
X187198000Y-39370000D03*
X189738000Y-39370000D03*
X192278000Y-39370000D03*
D16*
X215030000Y-81680000D03*
D17*
X215030000Y-79140000D03*
X215030000Y-76600000D03*
X215030000Y-74060000D03*
D16*
X215030000Y-70180000D03*
D17*
X215030000Y-67640000D03*
X215030000Y-65100000D03*
X215030000Y-62560000D03*
D16*
X215030000Y-58680000D03*
D17*
X215030000Y-56140000D03*
X215030000Y-53600000D03*
X215030000Y-51060000D03*
D16*
X215030000Y-47180000D03*
D17*
X215030000Y-44640000D03*
X215030000Y-42100000D03*
X215030000Y-39560000D03*
D13*
X200144000Y-96901000D03*
X199144000Y-96901000D03*
X164947600Y-90398600D03*
D11*
X155930600Y-92278200D03*
X157657800Y-79806800D03*
D12*
X143230600Y-82651600D03*
D11*
X135356600Y-88925400D03*
D18*
X135953000Y-52324000D03*
X135636000Y-60071000D03*
D11*
X149733000Y-79781400D03*
X153593800Y-37693600D03*
X146100800Y-38395400D03*
X140462000Y-64643000D03*
X188290200Y-52349400D03*
D18*
X150368000Y-93802200D03*
X183642000Y-67310000D03*
X132080000Y-104521000D03*
D11*
X178832187Y-52721187D03*
D18*
X132588000Y-85217000D03*
X136530000Y-80894000D03*
X189353000Y-60452000D03*
X191180000Y-61060000D03*
X152908879Y-41775000D03*
X157284800Y-45186600D03*
D11*
X151434800Y-37211000D03*
X201599800Y-41079800D03*
X146151600Y-47167800D03*
D19*
X143637000Y-99009200D03*
X142036800Y-99009200D03*
D18*
X133883400Y-92354400D03*
X142494000Y-85902800D03*
X143103600Y-89839800D03*
D11*
X182854600Y-84099400D03*
X165806814Y-61078902D03*
X130937000Y-47371000D03*
X116078000Y-45847000D03*
X128270000Y-39370000D03*
X125730000Y-39370000D03*
X200914000Y-100457000D03*
X212344000Y-105156000D03*
X211074000Y-102108000D03*
X215392000Y-102235000D03*
X201295000Y-96393000D03*
X195707000Y-41275000D03*
X206756000Y-37846000D03*
X128270000Y-48514000D03*
X125688600Y-48539400D03*
X139877800Y-44069000D03*
X146126200Y-40487600D03*
X164871400Y-40335200D03*
X163398200Y-40335200D03*
X161925000Y-40335200D03*
X159867600Y-40360600D03*
X136906000Y-52705000D03*
X139192000Y-52705000D03*
X144653000Y-52705000D03*
X141097000Y-52705000D03*
X146431000Y-52705000D03*
X148336000Y-52705000D03*
X150114000Y-52705000D03*
X151892000Y-52705000D03*
X153670000Y-52705000D03*
X155448000Y-52705000D03*
X157353000Y-52705000D03*
X159131000Y-52705000D03*
X160782000Y-52705000D03*
X162687000Y-52705000D03*
X164465000Y-52705000D03*
X166243000Y-52705000D03*
X168021000Y-52705000D03*
X169926000Y-52705000D03*
X171704000Y-52705000D03*
X173482000Y-52705000D03*
X175260000Y-52705000D03*
X177080000Y-52663000D03*
X180721000Y-52705000D03*
X182499000Y-52705000D03*
X189738000Y-52705000D03*
X191516000Y-52705000D03*
X193167000Y-52705000D03*
X195072000Y-52705000D03*
X196850000Y-52705000D03*
X198755000Y-52705000D03*
X138938000Y-60579000D03*
X140843000Y-60579000D03*
X145034000Y-60579000D03*
X146177000Y-61087000D03*
X149733000Y-61087000D03*
X151638000Y-61087000D03*
X153416000Y-61087000D03*
X155194000Y-61087000D03*
X158750000Y-61087000D03*
X160528000Y-61087000D03*
X162433000Y-61087000D03*
X164211000Y-61087000D03*
X167767000Y-61087000D03*
X169545000Y-61087000D03*
X171450000Y-61087000D03*
X173228000Y-61087000D03*
X175006000Y-61087000D03*
X176784000Y-61087000D03*
X178562000Y-61087000D03*
X180340000Y-61087000D03*
X182118000Y-61087000D03*
X187579000Y-60325000D03*
X192913000Y-61087000D03*
X196596000Y-61087000D03*
X194818000Y-61087000D03*
X189611000Y-67818000D03*
X191516000Y-67818000D03*
X172085000Y-67945000D03*
X170053000Y-67945000D03*
X145161000Y-64643000D03*
X145161000Y-62230000D03*
X136607000Y-61221231D03*
X118491000Y-70485000D03*
X124968000Y-57658000D03*
X216916000Y-86614000D03*
X210058000Y-51054000D03*
X210058000Y-61976000D03*
X210058000Y-73152000D03*
D18*
X210489800Y-90830400D03*
X193802000Y-67691000D03*
X186944000Y-63500000D03*
X187311700Y-52070000D03*
X183134000Y-52070000D03*
X137795000Y-52070000D03*
D11*
X137871200Y-44094400D03*
X181508400Y-86715600D03*
X123047200Y-48260000D03*
X205867000Y-103251000D03*
X208280000Y-103251000D03*
X208788000Y-105156000D03*
X202057000Y-93853000D03*
X183515000Y-59309000D03*
X186182000Y-59309000D03*
X137780000Y-61326000D03*
X140462000Y-61849000D03*
X150317200Y-38862000D03*
X145008600Y-47599600D03*
X141376400Y-47193200D03*
X150342600Y-40395400D03*
X205486000Y-46208179D03*
X204216000Y-46208179D03*
D18*
X155905200Y-90170000D03*
X185343800Y-80492600D03*
X184544400Y-85979000D03*
X195402200Y-83820000D03*
X143731515Y-45402915D03*
D11*
X146812000Y-42240200D03*
X154482802Y-41783000D03*
X143891000Y-43053000D03*
X133159442Y-88425558D03*
X134280000Y-85879997D03*
X134280000Y-86680000D03*
X133780000Y-87430000D03*
X199136000Y-43357800D03*
X201599800Y-43332400D03*
D18*
X183642000Y-56134000D03*
X153035000Y-55880000D03*
D11*
X153136600Y-44983400D03*
X144094200Y-47752000D03*
X142189200Y-47752000D03*
X195757800Y-85115400D03*
D18*
X198780003Y-74828400D03*
X199414606Y-74828400D03*
X200048419Y-74796759D03*
X195834000Y-55651321D03*
X185689580Y-53847774D03*
X200685400Y-74828400D03*
X185055104Y-53860885D03*
X195297541Y-56590311D03*
X198145400Y-74828400D03*
X194183000Y-57023000D03*
X184404000Y-53848000D03*
X197459600Y-74803000D03*
X193548000Y-55651321D03*
X193548397Y-53340661D03*
X202007987Y-48791613D03*
X197789800Y-47853600D03*
X197332600Y-77317600D03*
X192405000Y-55651321D03*
X192405000Y-53810161D03*
X202895200Y-48641000D03*
X196824600Y-47447200D03*
X201193400Y-76911200D03*
X186944000Y-55651321D03*
X186944000Y-53848000D03*
X203784200Y-48793400D03*
X195961000Y-46812200D03*
X201498200Y-77470000D03*
X204393800Y-49352200D03*
X195148198Y-46507400D03*
X201932230Y-77932966D03*
X205232000Y-49352200D03*
X194259200Y-45821600D03*
X201168000Y-79248000D03*
X187960000Y-63500000D03*
X205956679Y-49352200D03*
X195503800Y-45262800D03*
X197636263Y-80110463D03*
X185928000Y-62738000D03*
X181902863Y-52264377D03*
X181609603Y-62738000D03*
X181431759Y-52915595D03*
X180975000Y-62738000D03*
X180086000Y-51943000D03*
X167030400Y-73939400D03*
X179832000Y-62738000D03*
X179543878Y-52928648D03*
X170764200Y-69570600D03*
X170789600Y-70815200D03*
X166116000Y-73939400D03*
X179197000Y-62738000D03*
X178308000Y-51943000D03*
X178054000Y-62738000D03*
X172262801Y-71170800D03*
X172313600Y-69037200D03*
X164185600Y-73914000D03*
X177688891Y-53085823D03*
X177419000Y-62738000D03*
X170078400Y-71272400D03*
X170591248Y-68454722D03*
X163093400Y-73888600D03*
X176504600Y-52120800D03*
X176149000Y-62738000D03*
X175895661Y-53086397D03*
X175514000Y-62738000D03*
X174675800Y-52095400D03*
X174370603Y-62738000D03*
X151688800Y-77724000D03*
X159740600Y-73888600D03*
X174133820Y-53058069D03*
X173736000Y-62738000D03*
X158648400Y-73914000D03*
X172897800Y-52095400D03*
X172592603Y-62738000D03*
X157454600Y-73888600D03*
X172389800Y-53086000D03*
X171958000Y-62738000D03*
X159105600Y-75615800D03*
X160375600Y-75615800D03*
X153136600Y-73888600D03*
X166751000Y-46761400D03*
X154228800Y-73914000D03*
X166725600Y-47599600D03*
X165455600Y-48514000D03*
X156387800Y-73914000D03*
X168681400Y-53187600D03*
X160883600Y-44043600D03*
X159512000Y-44069000D03*
X160301829Y-45601899D03*
X163216771Y-43989171D03*
X159833301Y-45133371D03*
X162665229Y-43437629D03*
X164134800Y-42849800D03*
X158976109Y-46347510D03*
X163525589Y-43205533D03*
X158507581Y-45878982D03*
X166074200Y-43840400D03*
D11*
X156765171Y-47672171D03*
D18*
X165294200Y-43840400D03*
D11*
X156213629Y-47120629D03*
D18*
X138988800Y-91744800D03*
X140360400Y-91744800D03*
X139700000Y-91744800D03*
D20*
X135953000Y-39053000D02*
X135953000Y-52324000D01*
X135953000Y-52324000D02*
X135953000Y-54216800D01*
X134899400Y-98425000D02*
X134899400Y-104089200D01*
X134899400Y-104089200D02*
X134874000Y-104114600D01*
X150241000Y-37338000D02*
X147158200Y-37338000D01*
X147158200Y-37338000D02*
X146100800Y-38395400D01*
X151020401Y-38117401D02*
X150241000Y-37338000D01*
X153593800Y-37693600D02*
X152293674Y-37693600D01*
X152293674Y-37693600D02*
X151869873Y-38117401D01*
X151869873Y-38117401D02*
X151020401Y-38117401D01*
X137160000Y-37896800D02*
X145602200Y-37896800D01*
X145602200Y-37896800D02*
X146100800Y-38395400D01*
X135636000Y-60071000D02*
X135255000Y-60452000D01*
X135255000Y-60452000D02*
X135255000Y-61976000D01*
X135255000Y-61976000D02*
X135763000Y-62484000D01*
X135763000Y-62484000D02*
X139319000Y-62484000D01*
X140462000Y-63627000D02*
X140462000Y-64643000D01*
X139319000Y-62484000D02*
X140462000Y-63627000D01*
X136964799Y-38092001D02*
X136913999Y-38092001D01*
X135953000Y-54495200D02*
X135953000Y-59754000D01*
X136913999Y-38092001D02*
X135953000Y-39053000D01*
X137160000Y-37896800D02*
X136964799Y-38092001D01*
X135953000Y-54216800D02*
X135940800Y-54229000D01*
X135940800Y-54229000D02*
X135940800Y-54483000D01*
X135940800Y-54483000D02*
X135953000Y-54495200D01*
X135953000Y-59754000D02*
X135636000Y-60071000D01*
X136435801Y-105676401D02*
X183642000Y-105676401D01*
X183642000Y-105676401D02*
X184573599Y-105676401D01*
X183490000Y-105524401D02*
X183642000Y-105676401D01*
X183490000Y-104220000D02*
X183490000Y-105524401D01*
X183490000Y-104220000D02*
X186030000Y-104220000D01*
X149733000Y-79781400D02*
X149733000Y-80205664D01*
X149733000Y-80205664D02*
X149906410Y-80379074D01*
X149906410Y-80379074D02*
X149906410Y-89386990D01*
X149906410Y-89386990D02*
X149250400Y-90043000D01*
X149250400Y-90043000D02*
X149250400Y-94919800D01*
X149250400Y-94919800D02*
X147421600Y-96748600D01*
X147421600Y-96748600D02*
X136575800Y-96748600D01*
X136575800Y-96748600D02*
X134899400Y-98425000D01*
X184573599Y-105676401D02*
X186030000Y-104220000D01*
X134874000Y-104114600D02*
X136435801Y-105676401D01*
X140512800Y-79502000D02*
X140792200Y-79781400D01*
X140792200Y-79781400D02*
X149733000Y-79781400D01*
X140512800Y-78359000D02*
X140512800Y-79502000D01*
X140512800Y-73009156D02*
X140512800Y-78359000D01*
X140462000Y-64643000D02*
X140462000Y-72958356D01*
X140462000Y-72958356D02*
X140512800Y-73009156D01*
D21*
X150342600Y-38887400D02*
X150317200Y-38862000D01*
X150342600Y-40395400D02*
X150342600Y-38887400D01*
X144327601Y-46893201D02*
X145008600Y-47574200D01*
X145008600Y-47574200D02*
X145008600Y-47599600D01*
X141376400Y-47193200D02*
X141676399Y-46893201D01*
X141676399Y-46893201D02*
X144327601Y-46893201D01*
D22*
X215030000Y-81680000D02*
X216261000Y-81680000D01*
X205785999Y-45908180D02*
X205486000Y-46208179D01*
X210893678Y-40800501D02*
X205785999Y-45908180D01*
X217297000Y-80644000D02*
X217297000Y-42602098D01*
X216261000Y-81680000D02*
X217297000Y-80644000D01*
X215495403Y-40800501D02*
X210893678Y-40800501D01*
X217297000Y-42602098D02*
X215495403Y-40800501D01*
X204515999Y-46508178D02*
X204216000Y-46208179D01*
X216662000Y-44196000D02*
X215758501Y-43292501D01*
X216662000Y-69779000D02*
X216662000Y-44196000D01*
X216261000Y-70180000D02*
X216662000Y-69779000D01*
X205632821Y-47625000D02*
X204515999Y-46508178D01*
X211723499Y-43292501D02*
X207391000Y-47625000D01*
X215030000Y-70180000D02*
X216261000Y-70180000D01*
X215758501Y-43292501D02*
X211723499Y-43292501D01*
X207391000Y-47625000D02*
X205632821Y-47625000D01*
D21*
X155905200Y-90170000D02*
X156260800Y-89814400D01*
X185166000Y-86233000D02*
X185115200Y-86182200D01*
X184785000Y-95707200D02*
X185166000Y-95326200D01*
X156260800Y-89814400D02*
X163449000Y-89814400D01*
X185166000Y-95326200D02*
X185166000Y-86233000D01*
X163449000Y-89814400D02*
X163677600Y-89585800D01*
X163677600Y-89585800D02*
X163677600Y-86690200D01*
X171805600Y-86614000D02*
X171805600Y-94386400D01*
X163677600Y-86690200D02*
X164160200Y-86207600D01*
X184747600Y-86182200D02*
X184544400Y-85979000D01*
X164160200Y-86207600D02*
X171399200Y-86207600D01*
X171399200Y-86207600D02*
X171805600Y-86614000D01*
X171805600Y-94386400D02*
X172119001Y-94699801D01*
X172119001Y-94699801D02*
X179840601Y-94699801D01*
X179840601Y-94699801D02*
X180848000Y-95707200D01*
X185115200Y-86182200D02*
X184747600Y-86182200D01*
X180848000Y-95707200D02*
X184785000Y-95707200D01*
X185102501Y-80733899D02*
X185343800Y-80492600D01*
X184544400Y-81292000D02*
X185102501Y-80733899D01*
X184544400Y-85979000D02*
X184544400Y-81292000D01*
X197408800Y-84124800D02*
X197104000Y-83820000D01*
X197104000Y-83820000D02*
X195402200Y-83820000D01*
X197408800Y-84734400D02*
X197408800Y-84124800D01*
X197651399Y-84976999D02*
X197408800Y-84734400D01*
X200634600Y-84683600D02*
X200341201Y-84976999D01*
X200341201Y-84976999D02*
X197651399Y-84976999D01*
X200634600Y-84138400D02*
X200634600Y-84683600D01*
X202311000Y-83566000D02*
X201207000Y-83566000D01*
X201207000Y-83566000D02*
X200634600Y-84138400D01*
X143731515Y-45402915D02*
X142811915Y-45402915D01*
X142811915Y-45402915D02*
X142316200Y-44907200D01*
X142316200Y-44907200D02*
X142316200Y-42519600D01*
X142316200Y-42519600D02*
X142595600Y-42240200D01*
X142595600Y-42240200D02*
X145592800Y-42240200D01*
X145592800Y-42240200D02*
X146812000Y-42240200D01*
X153212802Y-43053000D02*
X154182803Y-42082999D01*
X154182803Y-42082999D02*
X154482802Y-41783000D01*
X143891000Y-43053000D02*
X153212802Y-43053000D01*
D23*
X133159442Y-88425558D02*
X132280000Y-89305000D01*
X132280000Y-89305000D02*
X132280000Y-102930000D01*
X132280000Y-102930000D02*
X131160000Y-104050000D01*
X131160000Y-104050000D02*
X115780000Y-104050000D01*
X134280000Y-85879997D02*
X133507181Y-85879997D01*
X133507181Y-85879997D02*
X130879980Y-88507198D01*
X130879980Y-88507198D02*
X130879980Y-102080020D01*
X130879980Y-102080020D02*
X130480010Y-102479990D01*
X130480010Y-102479990D02*
X119926400Y-102479990D01*
X119926400Y-102479990D02*
X117280000Y-99833590D01*
X117280000Y-99833590D02*
X117280000Y-97930000D01*
X117280000Y-97930000D02*
X115780000Y-96430000D01*
X117689002Y-101680000D02*
X117689002Y-100879002D01*
X117689002Y-100879002D02*
X115780000Y-98970000D01*
X131007180Y-102930000D02*
X118939002Y-102930000D01*
X118939002Y-102930000D02*
X117689002Y-101680000D01*
X131329990Y-102607190D02*
X131007180Y-102930000D01*
X131329990Y-88693598D02*
X131329990Y-102607190D01*
X134280000Y-86680000D02*
X133343588Y-86680000D01*
X133343588Y-86680000D02*
X131329990Y-88693598D01*
X131143590Y-103430000D02*
X117700000Y-103430000D01*
X117700000Y-103430000D02*
X115780000Y-101510000D01*
X131780000Y-102793590D02*
X131143590Y-103430000D01*
X133780000Y-87430000D02*
X133229998Y-87430000D01*
X133229998Y-87430000D02*
X131780000Y-88879998D01*
X131780000Y-88879998D02*
X131780000Y-102793590D01*
D21*
X199161400Y-43332400D02*
X199136000Y-43357800D01*
X201599800Y-43332400D02*
X199161400Y-43332400D01*
X185293000Y-51943000D02*
X185826400Y-51409600D01*
X185826400Y-51409600D02*
X185826400Y-45542200D01*
X184531000Y-51943000D02*
X185293000Y-51943000D01*
X183883299Y-52590701D02*
X184531000Y-51943000D01*
X183642000Y-56134000D02*
X183883299Y-55892701D01*
X183883299Y-55892701D02*
X183883299Y-52590701D01*
X153035000Y-52412038D02*
X153035000Y-55880000D01*
X153136600Y-44983400D02*
X153136600Y-52310438D01*
X153136600Y-52310438D02*
X153035000Y-52412038D01*
X142189200Y-47752000D02*
X144094200Y-47752000D01*
X196057799Y-85415399D02*
X195757800Y-85115400D01*
X196748400Y-86106000D02*
X196057799Y-85415399D01*
X198882000Y-86106000D02*
X196748400Y-86106000D01*
D24*
X198780003Y-74828400D02*
X198780003Y-74487151D01*
X198780003Y-74487151D02*
X198626351Y-74333499D01*
X198626351Y-74333499D02*
X197234239Y-74333499D01*
X183057410Y-97790390D02*
X179857010Y-97790390D01*
X197234239Y-74333499D02*
X196926200Y-74641538D01*
X186437563Y-95477037D02*
X186410990Y-95503610D01*
X195249020Y-80467980D02*
X193827920Y-80467980D01*
X196926200Y-74641538D02*
X196926200Y-75041349D01*
X149391799Y-101162463D02*
X149391799Y-102197537D01*
X186876900Y-83464400D02*
X186842400Y-83464400D01*
X196926200Y-75041349D02*
X198287270Y-76402419D01*
X198272400Y-78105000D02*
X198247000Y-78105000D01*
X186437563Y-83869237D02*
X186437563Y-95477037D01*
X198679190Y-77698210D02*
X198272400Y-78105000D01*
X186410990Y-95503610D02*
X186410990Y-96825710D01*
X198287270Y-76402419D02*
X198525619Y-76402419D01*
X198525619Y-76402419D02*
X198679190Y-76555990D01*
X186842400Y-83464400D02*
X186437563Y-83869237D01*
X188832310Y-81508990D02*
X186876900Y-83464400D01*
X198679190Y-76555990D02*
X198679190Y-77698210D01*
X198247000Y-78105000D02*
X198068810Y-78283190D01*
X156780972Y-100101790D02*
X151617710Y-100101790D01*
X184234650Y-96902950D02*
X183347600Y-97790000D01*
X198068810Y-78283190D02*
X197433810Y-78283190D01*
X178966840Y-98680560D02*
X158202202Y-98680560D01*
X197433810Y-78283190D02*
X195249020Y-80467980D01*
X151931799Y-102758201D02*
X153010000Y-101680000D01*
X193827920Y-80467980D02*
X192786910Y-81508990D01*
X192786910Y-81508990D02*
X188832310Y-81508990D01*
X186410990Y-96825710D02*
X186333750Y-96902950D01*
X158202202Y-98680560D02*
X156780972Y-100101790D01*
X186333750Y-96902950D02*
X184234650Y-96902950D01*
X183347600Y-97790000D02*
X183057800Y-97790000D01*
X183057800Y-97790000D02*
X183057410Y-97790390D01*
X179857010Y-97790390D02*
X178966840Y-98680560D01*
X149391799Y-102197537D02*
X149952463Y-102758201D01*
X151617710Y-100101790D02*
X151567300Y-100152200D01*
X151567300Y-100152200D02*
X150402062Y-100152200D01*
X150402062Y-100152200D02*
X149391799Y-101162463D01*
X149952463Y-102758201D02*
X151931799Y-102758201D01*
X197968900Y-77952600D02*
X197967600Y-77952600D01*
X199414606Y-74828400D02*
X199414606Y-74487151D01*
X198372828Y-76706828D02*
X198374780Y-76708780D01*
X193703000Y-80162400D02*
X192660819Y-81204581D01*
X199414606Y-74487151D02*
X198956545Y-74029090D01*
X197108149Y-74029089D02*
X196621790Y-74515448D01*
X198956545Y-74029090D02*
X197108149Y-74029089D01*
X196621790Y-74515448D02*
X196621791Y-75167440D01*
X186133153Y-83716447D02*
X186133153Y-93901847D01*
X178839450Y-98376150D02*
X158076112Y-98376150D01*
X197307720Y-77978780D02*
X195124100Y-80162400D01*
X198374780Y-77546720D02*
X197968900Y-77952600D01*
X196621791Y-75167440D02*
X198161179Y-76706828D01*
X179730010Y-97485590D02*
X178839450Y-98376150D01*
X198161179Y-76706828D02*
X198372828Y-76706828D01*
X197967600Y-77952600D02*
X197941420Y-77978780D01*
X198374780Y-76708780D02*
X198374780Y-77546720D01*
X197941420Y-77978780D02*
X197307720Y-77978780D01*
X195124100Y-80162400D02*
X193703000Y-80162400D01*
X192660819Y-81204581D02*
X188645019Y-81204581D01*
X186106580Y-95376220D02*
X186106580Y-96598540D01*
X188645019Y-81204581D02*
X186133153Y-83716447D01*
X186133153Y-93901847D02*
X186105800Y-93929200D01*
X184108560Y-96598540D02*
X183221510Y-97485590D01*
X186105800Y-93929200D02*
X186105800Y-95375440D01*
X186105800Y-95375440D02*
X186106580Y-95376220D01*
X186106580Y-96598540D02*
X184108560Y-96598540D01*
X183221510Y-97485590D02*
X179730010Y-97485590D01*
X150326382Y-99797380D02*
X149087390Y-101036372D01*
X158076112Y-98376150D02*
X156654882Y-99797380D01*
X156654882Y-99797380D02*
X150326382Y-99797380D01*
X149087390Y-101036372D02*
X149087389Y-102323627D01*
X149087389Y-102323627D02*
X149826372Y-103062610D01*
X149826372Y-103062610D02*
X151852610Y-103062610D01*
X151852610Y-103062610D02*
X153010000Y-104220000D01*
X183490000Y-101680000D02*
X185424200Y-99745800D01*
X197612000Y-82725238D02*
X198523838Y-81813400D01*
X200482200Y-73914000D02*
X200048419Y-74347781D01*
X185424200Y-99745800D02*
X187960000Y-99745800D01*
X187960000Y-99745800D02*
X189204600Y-98501200D01*
X189204600Y-98501200D02*
X189204600Y-85013800D01*
X203098400Y-81534000D02*
X203098400Y-74726800D01*
X197612000Y-82981800D02*
X197612000Y-82725238D01*
X189204600Y-85013800D02*
X189813610Y-84404790D01*
X198523838Y-81813400D02*
X202819000Y-81813400D01*
X189813610Y-84404790D02*
X193953810Y-84404790D01*
X193953810Y-84404790D02*
X195021200Y-83337400D01*
X203098400Y-74726800D02*
X202285600Y-73914000D01*
X195021200Y-83337400D02*
X197256400Y-83337400D01*
X197256400Y-83337400D02*
X197612000Y-82981800D01*
X202819000Y-81813400D02*
X203098400Y-81534000D01*
X202285600Y-73914000D02*
X200482200Y-73914000D01*
X200048419Y-74347781D02*
X200048419Y-74796759D01*
X185689580Y-53847774D02*
X185689580Y-55091752D01*
X195492751Y-55651321D02*
X195834000Y-55651321D01*
X186718651Y-56120823D02*
X193773362Y-56120823D01*
X193773362Y-56120823D02*
X194242864Y-55651321D01*
X185689580Y-55091752D02*
X186718651Y-56120823D01*
X194242864Y-55651321D02*
X195492751Y-55651321D01*
X180950000Y-101680000D02*
X182198400Y-100431600D01*
X182198400Y-100431600D02*
X184150000Y-100431600D01*
X186359800Y-99441000D02*
X187834300Y-99441000D01*
X184150000Y-100431600D02*
X185140210Y-99441390D01*
X185140210Y-99441390D02*
X186359410Y-99441390D01*
X194895109Y-83032991D02*
X196873747Y-83032991D01*
X202793990Y-74854190D02*
X202158210Y-74218410D01*
X186359410Y-99441390D02*
X186359800Y-99441000D01*
X187834300Y-99441000D02*
X188772800Y-98502500D01*
X198397748Y-81508990D02*
X202615410Y-81508990D01*
X188900190Y-98348410D02*
X188900191Y-84887709D01*
X188772800Y-98502500D02*
X188772800Y-98475800D01*
X188772800Y-98475800D02*
X188900190Y-98348410D01*
X189687520Y-84100380D02*
X193827720Y-84100380D01*
X196873747Y-83032991D02*
X198397748Y-81508990D01*
X193827720Y-84100380D02*
X194895109Y-83032991D01*
X188900191Y-84887709D02*
X189687520Y-84100380D01*
X202615410Y-81508990D02*
X202793990Y-81330410D01*
X202793990Y-81330410D02*
X202793990Y-74854190D01*
X202158210Y-74218410D02*
X200710800Y-74218410D01*
X200710800Y-74218410D02*
X200685400Y-74243810D01*
X200685400Y-74243810D02*
X200685400Y-74828400D01*
X185055104Y-54202134D02*
X185055104Y-53860885D01*
X185055104Y-54887776D02*
X185055104Y-54202134D01*
X186682328Y-56515000D02*
X185055104Y-54887776D01*
X195297541Y-56590311D02*
X194956292Y-56590311D01*
X194880981Y-56515000D02*
X186682328Y-56515000D01*
X194956292Y-56590311D02*
X194880981Y-56515000D01*
X188595781Y-98222319D02*
X188595781Y-84759023D01*
X178410000Y-101680000D02*
X179063604Y-101680000D01*
X179063604Y-101680000D02*
X180642593Y-100101011D01*
X188595781Y-84759023D02*
X189558834Y-83795970D01*
X202234800Y-81178400D02*
X202401731Y-81011469D01*
X180642593Y-100101011D02*
X184050091Y-100101011D01*
X184050091Y-100101011D02*
X185040303Y-99110800D01*
X194769021Y-82728581D02*
X196747657Y-82728581D01*
X185040303Y-99110800D02*
X187707300Y-99110800D01*
X202158600Y-75793600D02*
X198769351Y-75793600D01*
X202401731Y-81011469D02*
X202401731Y-76036731D01*
X198297838Y-81178400D02*
X202234800Y-81178400D01*
X187707300Y-99110800D02*
X188595781Y-98222319D01*
X189558834Y-83795970D02*
X193701630Y-83795970D01*
X193701630Y-83795970D02*
X194769021Y-82728581D01*
X196747657Y-82728581D02*
X198297838Y-81178400D01*
X198145400Y-75169649D02*
X198145400Y-74828400D01*
X202401731Y-76036731D02*
X202158600Y-75793600D01*
X198769351Y-75793600D02*
X198145400Y-75169649D01*
X186556238Y-56819410D02*
X193979410Y-56819410D01*
X193979410Y-56819410D02*
X194183000Y-57023000D01*
X184404000Y-53848000D02*
X184404000Y-54667172D01*
X184404000Y-54667172D02*
X186556238Y-56819410D01*
X184360740Y-97207360D02*
X186459840Y-97207360D01*
X193878200Y-80848200D02*
X193884700Y-80848200D01*
X192913000Y-81813400D02*
X193878200Y-80848200D01*
X150470000Y-101680000D02*
X151743800Y-100406200D01*
X197603264Y-78587600D02*
X198221600Y-78587600D01*
X151743800Y-100406200D02*
X156907062Y-100406200D01*
X156907062Y-100406200D02*
X158328292Y-98984970D01*
X188958400Y-81813400D02*
X192913000Y-81813400D01*
X158328292Y-98984970D02*
X179094230Y-98984970D01*
X183473300Y-98094800D02*
X184360740Y-97207360D01*
X179094230Y-98984970D02*
X179984400Y-98094800D01*
X179984400Y-98094800D02*
X183473300Y-98094800D01*
X186459840Y-97207360D02*
X186715400Y-96951800D01*
X186715400Y-96951800D02*
X186715400Y-95631000D01*
X198653010Y-76098010D02*
X198413361Y-76098010D01*
X186741973Y-84029827D02*
X188958400Y-81813400D01*
X186741972Y-95604428D02*
X186741973Y-84029827D01*
X186715400Y-95631000D02*
X186741972Y-95604428D01*
X193884700Y-80848200D02*
X193960510Y-80772390D01*
X195418474Y-80772390D02*
X197603264Y-78587600D01*
X193960510Y-80772390D02*
X195418474Y-80772390D01*
X198221600Y-78587600D02*
X198983600Y-77825600D01*
X198983600Y-77825600D02*
X198983600Y-76428600D01*
X198983600Y-76428600D02*
X198653010Y-76098010D01*
X198413361Y-76098010D02*
X197459600Y-75144249D01*
X197459600Y-75144249D02*
X197459600Y-74803000D01*
X193548397Y-55650924D02*
X193548000Y-55651321D01*
X193548397Y-53340661D02*
X193548397Y-55650924D01*
X198131049Y-47853600D02*
X197789800Y-47853600D01*
X201069974Y-47853600D02*
X198131049Y-47853600D01*
X202007987Y-48791613D02*
X201069974Y-47853600D01*
X197332600Y-77317600D02*
X197091301Y-77558899D01*
X193577300Y-79857600D02*
X192534729Y-80900171D01*
X197091301Y-77558899D02*
X197091301Y-77764699D01*
X185544270Y-96294130D02*
X183982470Y-96294130D01*
X197091301Y-77764699D02*
X194998400Y-79857600D01*
X194998400Y-79857600D02*
X193577300Y-79857600D01*
X185801000Y-96037400D02*
X185544270Y-96294130D01*
X192534729Y-80900171D02*
X188517629Y-80900171D01*
X185801000Y-83616800D02*
X185801000Y-96037400D01*
X150117030Y-99492970D02*
X147930000Y-101680000D01*
X188517629Y-80900171D02*
X185801000Y-83616800D01*
X183095420Y-97181180D02*
X179603920Y-97181180D01*
X183982470Y-96294130D02*
X183095420Y-97181180D01*
X179603920Y-97181180D02*
X178713360Y-98071740D01*
X178713360Y-98071740D02*
X157950022Y-98071740D01*
X156528792Y-99492970D02*
X150117030Y-99492970D01*
X157950022Y-98071740D02*
X156528792Y-99492970D01*
X192405000Y-53810161D02*
X192405000Y-55651321D01*
X201460101Y-47205901D02*
X197065899Y-47205901D01*
X202895200Y-48641000D02*
X201460101Y-47205901D01*
X197065899Y-47205901D02*
X196824600Y-47447200D01*
X155550000Y-104220000D02*
X156707389Y-103062611D01*
X156707389Y-103062611D02*
X156707390Y-101036372D01*
X186765030Y-97511770D02*
X187046382Y-97230418D01*
X156707390Y-101036372D02*
X158454382Y-99289380D01*
X179221620Y-99289380D02*
X180086000Y-98425000D01*
X195544564Y-81076800D02*
X197551164Y-79070200D01*
X158454382Y-99289380D02*
X179221620Y-99289380D01*
X200638500Y-76911200D02*
X201041000Y-76911200D01*
X194086600Y-81076800D02*
X195544564Y-81076800D01*
X187046382Y-97230418D02*
X187046382Y-84155918D01*
X180086000Y-98425000D02*
X181356000Y-98425000D01*
X181356000Y-98425000D02*
X181356780Y-98425780D01*
X181356780Y-98425780D02*
X183572820Y-98425780D01*
X183572820Y-98425780D02*
X184486830Y-97511770D01*
X184486830Y-97511770D02*
X186765030Y-97511770D01*
X187046382Y-84155918D02*
X189032520Y-82169780D01*
X189032520Y-82169780D02*
X192993620Y-82169780D01*
X198479500Y-79070200D02*
X200638500Y-76911200D01*
X192993620Y-82169780D02*
X194086600Y-81076800D01*
X197551164Y-79070200D02*
X198479500Y-79070200D01*
X201041000Y-76911200D02*
X201193400Y-76911200D01*
X186944000Y-53848000D02*
X186944000Y-55651321D01*
X203784200Y-48793400D02*
X201803000Y-46812200D01*
X196302249Y-46812200D02*
X195961000Y-46812200D01*
X201803000Y-46812200D02*
X196302249Y-46812200D01*
X184612920Y-97816180D02*
X187095620Y-97816180D01*
X193119710Y-82474190D02*
X194211909Y-81381991D01*
X157011799Y-103141799D02*
X157011799Y-101162463D01*
X158090000Y-104220000D02*
X157011799Y-103141799D01*
X197166762Y-79885102D02*
X197549864Y-79502000D01*
X157011799Y-101162463D02*
X158580472Y-99593790D01*
X158580472Y-99593790D02*
X179374410Y-99593790D01*
X180238010Y-98730190D02*
X183698910Y-98730190D01*
X179374410Y-99593790D02*
X180238010Y-98730190D01*
X183698910Y-98730190D02*
X184612920Y-97816180D01*
X189158610Y-82474190D02*
X193119710Y-82474190D01*
X187095620Y-97816180D02*
X187350790Y-97561010D01*
X201472800Y-77470000D02*
X201498200Y-77470000D01*
X187350790Y-97561010D02*
X187350791Y-84282009D01*
X187350791Y-84282009D02*
X189158610Y-82474190D01*
X194211909Y-81381991D02*
X195859009Y-81381991D01*
X197166762Y-80074238D02*
X197166762Y-79885102D01*
X195859009Y-81381991D02*
X197166762Y-80074238D01*
X197549864Y-79502000D02*
X198478200Y-79502000D01*
X198478200Y-79502000D02*
X200510200Y-77470000D01*
X200510200Y-77470000D02*
X201472800Y-77470000D01*
X195389497Y-46266101D02*
X195148198Y-46507400D01*
X204393800Y-49352200D02*
X204393800Y-48543300D01*
X204393800Y-48543300D02*
X202116601Y-46266101D01*
X202116601Y-46266101D02*
X195389497Y-46266101D01*
X161708201Y-100601799D02*
X163817701Y-100601799D01*
X196419500Y-81991200D02*
X200432700Y-77978000D01*
X160630000Y-101680000D02*
X161708201Y-100601799D01*
X193269900Y-83185000D02*
X194463700Y-81991200D01*
X163817701Y-100601799D02*
X164191100Y-100228400D01*
X164191100Y-100228400D02*
X179654200Y-100228400D01*
X179654200Y-100228400D02*
X180517800Y-99364800D01*
X180517800Y-99364800D02*
X183925300Y-99364800D01*
X194463700Y-81991200D02*
X196419500Y-81991200D01*
X201887196Y-77978000D02*
X201932230Y-77932966D01*
X183925300Y-99364800D02*
X184865100Y-98425000D01*
X184865100Y-98425000D02*
X187478700Y-98425000D01*
X187478700Y-98425000D02*
X187985790Y-97917910D01*
X187985790Y-97917910D02*
X187985791Y-84508009D01*
X187985791Y-84508009D02*
X189308800Y-83185000D01*
X200432700Y-77978000D02*
X201887196Y-77978000D01*
X189308800Y-83185000D02*
X193269900Y-83185000D01*
X194600449Y-45821600D02*
X194259200Y-45821600D01*
X205232000Y-49352200D02*
X205232000Y-48920400D01*
X202133200Y-45821600D02*
X194600449Y-45821600D01*
X205232000Y-48920400D02*
X202133200Y-45821600D01*
X163170000Y-101680000D02*
X164296203Y-100553799D01*
X184914210Y-98806390D02*
X187527810Y-98806390D01*
X164296203Y-100553799D02*
X179759303Y-100553799D01*
X193575539Y-83491561D02*
X194694900Y-82372200D01*
X188290200Y-98044000D02*
X188290201Y-84634101D01*
X179759303Y-100553799D02*
X180516502Y-99796600D01*
X180516502Y-99796600D02*
X183924000Y-99796600D01*
X198018402Y-80822800D02*
X201930000Y-80822800D01*
X183924000Y-99796600D02*
X184914210Y-98806390D01*
X201509249Y-79248000D02*
X201168000Y-79248000D01*
X187527810Y-98806390D02*
X188290200Y-98044000D01*
X202097321Y-79440721D02*
X201904600Y-79248000D01*
X202097321Y-80655479D02*
X202097321Y-79440721D01*
X188290201Y-84634101D02*
X189432741Y-83491561D01*
X201904600Y-79248000D02*
X201509249Y-79248000D01*
X189432741Y-83491561D02*
X193575539Y-83491561D01*
X194694900Y-82372200D02*
X196469000Y-82372200D01*
X196469000Y-82372200D02*
X198018402Y-80822800D01*
X201930000Y-80822800D02*
X202097321Y-80655479D01*
D25*
X193421000Y-101600000D02*
X198628000Y-96393000D01*
X204419200Y-91821000D02*
X208661000Y-87579200D01*
X198628000Y-96393000D02*
X198628000Y-91821000D01*
X198628000Y-91821000D02*
X204419200Y-91821000D01*
X208661000Y-87579200D02*
X208661000Y-80518000D01*
D24*
X208661000Y-80518000D02*
X208661000Y-71247000D01*
X208661000Y-71247000D02*
X207010000Y-69596000D01*
X207010000Y-69596000D02*
X188595000Y-69596000D01*
X188595000Y-69596000D02*
X187960000Y-68961000D01*
X187960000Y-68961000D02*
X187960000Y-63500000D01*
X205956679Y-49010951D02*
X205956679Y-49352200D01*
X202208528Y-45262800D02*
X205956679Y-49010951D01*
X195503800Y-45262800D02*
X202208528Y-45262800D01*
X158090000Y-101680000D02*
X159871800Y-99898200D01*
X159871800Y-99898200D02*
X165938200Y-99898200D01*
X187223010Y-98120590D02*
X187655200Y-97688400D01*
X165963990Y-99923990D02*
X179501410Y-99923990D01*
X165938200Y-99898200D02*
X165963990Y-99923990D01*
X179501410Y-99923990D02*
X180390800Y-99034600D01*
X180390800Y-99034600D02*
X183825000Y-99034600D01*
X183825000Y-99034600D02*
X184739010Y-98120590D01*
X184739010Y-98120590D02*
X187223010Y-98120590D01*
X187655200Y-97688400D02*
X187655200Y-84408100D01*
X187655200Y-84408100D02*
X189208500Y-82854800D01*
X190220600Y-82854800D02*
X190296800Y-82778600D01*
X189208500Y-82854800D02*
X190220600Y-82854800D01*
X190296800Y-82778600D02*
X193245800Y-82778600D01*
X193245800Y-82778600D02*
X194338000Y-81686400D01*
X194338000Y-81686400D02*
X196060326Y-81686400D01*
X196060326Y-81686400D02*
X197636263Y-80110463D01*
D25*
X190881000Y-101600000D02*
X191959001Y-100521999D01*
X208280000Y-87426800D02*
X208280000Y-80772000D01*
X191959001Y-100521999D02*
X193554443Y-100521999D01*
X193554443Y-100521999D02*
X198247000Y-95829442D01*
X198247000Y-95829442D02*
X198247000Y-91440000D01*
X198247000Y-91440000D02*
X204266800Y-91440000D01*
X204266800Y-91440000D02*
X208280000Y-87426800D01*
D24*
X208280000Y-80772000D02*
X208280000Y-71374000D01*
X208280000Y-71374000D02*
X206806410Y-69900410D01*
X206806410Y-69900410D02*
X188468909Y-69900409D01*
X188468909Y-69900409D02*
X188418500Y-69850000D01*
X188418500Y-69850000D02*
X186436000Y-69850000D01*
X186436000Y-69850000D02*
X185928000Y-69342000D01*
X185928000Y-69342000D02*
X185928000Y-62738000D01*
X147930000Y-104220000D02*
X146851799Y-103141799D01*
X153898600Y-78663800D02*
X154279600Y-78282800D01*
X154279600Y-78282800D02*
X168198800Y-78282800D01*
X146851799Y-103141799D02*
X146851799Y-101162463D01*
X146851799Y-101162463D02*
X147811262Y-100203000D01*
X147811262Y-100203000D02*
X148976500Y-100203000D01*
X168732200Y-77749400D02*
X168732200Y-73939400D01*
X148976500Y-100203000D02*
X149992500Y-99187000D01*
X149992500Y-99187000D02*
X153263600Y-99187000D01*
X168198800Y-78282800D02*
X168732200Y-77749400D01*
X153263600Y-99187000D02*
X153898600Y-98552000D01*
X153898600Y-98552000D02*
X153898600Y-78663800D01*
X181902863Y-52264377D02*
X181902863Y-56806337D01*
X181635400Y-57073800D02*
X170307000Y-57073800D01*
X181902863Y-56806337D02*
X181635400Y-57073800D01*
X170307000Y-57073800D02*
X170121201Y-57259599D01*
X170121201Y-57259599D02*
X170121201Y-63660399D01*
X170121201Y-63660399D02*
X168732200Y-65049400D01*
X168732200Y-65049400D02*
X168732200Y-73598151D01*
X168732200Y-73598151D02*
X168732200Y-73939400D01*
D25*
X193421000Y-99060000D02*
X197866000Y-94615000D01*
X197866000Y-94615000D02*
X197866000Y-91059000D01*
X197866000Y-91059000D02*
X204190600Y-91059000D01*
X204190600Y-91059000D02*
X207899000Y-87350600D01*
X207899000Y-87350600D02*
X207899000Y-80391000D01*
D24*
X207899000Y-80391000D02*
X207899000Y-80518000D01*
X181609603Y-62738000D02*
X181609603Y-69722603D01*
X181609603Y-69722603D02*
X182091817Y-70204817D01*
X182091817Y-70204817D02*
X206525319Y-70204817D01*
X206525319Y-70204817D02*
X207899000Y-71578498D01*
X207899000Y-71578498D02*
X207899000Y-80391000D01*
X145390000Y-101680000D02*
X146239999Y-100830001D01*
X153136210Y-98882590D02*
X153594190Y-98424610D01*
X146239999Y-100830001D02*
X146753761Y-100830001D01*
X146753761Y-100830001D02*
X147685172Y-99898590D01*
X147685172Y-99898590D02*
X148564210Y-99898590D01*
X153594191Y-78537709D02*
X154153510Y-77978390D01*
X148564210Y-99898590D02*
X148564600Y-99898200D01*
X148564600Y-99898200D02*
X148850800Y-99898200D01*
X153594190Y-98424610D02*
X153594191Y-78537709D01*
X148850800Y-99898200D02*
X149866410Y-98882590D01*
X167513000Y-77901800D02*
X167844724Y-77570076D01*
X149866410Y-98882590D02*
X153136210Y-98882590D01*
X154153510Y-77978390D02*
X167513000Y-77978390D01*
X167513000Y-77978390D02*
X167513000Y-77901800D01*
X167844724Y-77570076D02*
X167844724Y-73951952D01*
X181431759Y-52915595D02*
X181431759Y-56540841D01*
X181203600Y-56769000D02*
X170181300Y-56769000D01*
X181431759Y-56540841D02*
X181203600Y-56769000D01*
X169816791Y-57133509D02*
X169816791Y-59962431D01*
X170181300Y-56769000D02*
X169816791Y-57133509D01*
X169816791Y-59962431D02*
X167844724Y-61934498D01*
X167844724Y-61934498D02*
X167844724Y-73610703D01*
X167844724Y-73610703D02*
X167844724Y-73951952D01*
D25*
X190881000Y-99060000D02*
X192342999Y-97598001D01*
X192342999Y-97598001D02*
X193938441Y-97598001D01*
X193938441Y-97598001D02*
X197485000Y-94051442D01*
X197485000Y-94051442D02*
X197485000Y-90678000D01*
X207518000Y-87249000D02*
X207518000Y-80645000D01*
X197485000Y-90678000D02*
X204089000Y-90678000D01*
X204089000Y-90678000D02*
X207518000Y-87249000D01*
X207518000Y-80645000D02*
X207518000Y-80518000D01*
D24*
X180975000Y-62738000D02*
X180975000Y-69977000D01*
X180975000Y-69977000D02*
X181507227Y-70509227D01*
X181507227Y-70509227D02*
X206117232Y-70509228D01*
X206117232Y-70509228D02*
X207491821Y-71883819D01*
X207491821Y-80618821D02*
X207518000Y-80645000D01*
X207491821Y-71883819D02*
X207491821Y-80618821D01*
X180111400Y-52309649D02*
X180086000Y-52284249D01*
X180111400Y-56413400D02*
X180111400Y-52309649D01*
X169512381Y-57007419D02*
X170081000Y-56438800D01*
X168503600Y-60502800D02*
X169512381Y-59494019D01*
X180086000Y-52284249D02*
X180086000Y-51943000D01*
X167498422Y-60502800D02*
X168503600Y-60502800D01*
X169512381Y-59494019D02*
X169512381Y-57007419D01*
X167030400Y-60970822D02*
X167498422Y-60502800D01*
X170081000Y-56438800D02*
X180086000Y-56438800D01*
X167030400Y-73939400D02*
X167030400Y-60970822D01*
X180086000Y-56438800D02*
X180111400Y-56413400D01*
X203755860Y-90347010D02*
X203937390Y-90347010D01*
X203937390Y-90347010D02*
X207137000Y-87147400D01*
X207137000Y-87147400D02*
X207137000Y-86965870D01*
D25*
X207137000Y-86965870D02*
X207137000Y-80518000D01*
X197104000Y-90347010D02*
X203755860Y-90347010D01*
X197104000Y-92837000D02*
X197104000Y-90347010D01*
X193421000Y-96520000D02*
X197104000Y-92837000D01*
D24*
X179832000Y-62738000D02*
X179832000Y-70358000D01*
X179832000Y-70358000D02*
X180287640Y-70813638D01*
X180287640Y-70813638D02*
X205991140Y-70813638D01*
X205991140Y-70813638D02*
X207187411Y-72009909D01*
X207187411Y-72009909D02*
X207187411Y-80213589D01*
X207187411Y-80213589D02*
X207137000Y-80264000D01*
X207137000Y-80264000D02*
X207137000Y-80518000D01*
X179543878Y-53269897D02*
X179543878Y-52928648D01*
X169207971Y-59367929D02*
X169207971Y-56881329D01*
X169207971Y-56881329D02*
X169954909Y-56134391D01*
X166116000Y-73939400D02*
X166370000Y-73685400D01*
X167372331Y-60198391D02*
X168377510Y-60198390D01*
X169954909Y-56134391D02*
X179324000Y-56134390D01*
X168377510Y-60198390D02*
X169207971Y-59367929D01*
X179324000Y-56134390D02*
X179543878Y-55914512D01*
X179543878Y-55914512D02*
X179543878Y-53269897D01*
X166370000Y-73685400D02*
X166370000Y-61200722D01*
X166370000Y-61200722D02*
X167372331Y-60198391D01*
X170789600Y-69596000D02*
X170764200Y-69570600D01*
X170789600Y-70815200D02*
X170789600Y-69596000D01*
D25*
X193938441Y-95058001D02*
X196631444Y-92364998D01*
X203756935Y-89916000D02*
X206756000Y-86916935D01*
X206756000Y-86916935D02*
X206756000Y-80264000D01*
X196723000Y-89916000D02*
X203756935Y-89916000D01*
X196631444Y-90007556D02*
X196723000Y-89916000D01*
X196631444Y-92364998D02*
X196631444Y-90007556D01*
X192342999Y-95058001D02*
X193938441Y-95058001D01*
X190881000Y-96520000D02*
X192342999Y-95058001D01*
D24*
X179197000Y-62738000D02*
X179197000Y-70866000D01*
X179197000Y-70866000D02*
X179909500Y-70866000D01*
X179909500Y-70866000D02*
X180163500Y-71120000D01*
X180163500Y-71120000D02*
X205867000Y-71120000D01*
X205867000Y-71120000D02*
X206756000Y-72009000D01*
X206756000Y-72009000D02*
X206756000Y-80264000D01*
X167182018Y-59893982D02*
X168147218Y-59893982D01*
X178070401Y-52812179D02*
X178070401Y-52521848D01*
X179220111Y-53961889D02*
X178070401Y-52812179D01*
X165379499Y-60502701D02*
X166573299Y-60502701D01*
X179220111Y-55577489D02*
X179220111Y-53961889D01*
X178993800Y-55803800D02*
X179220111Y-55577489D01*
X169855000Y-55803800D02*
X178993800Y-55803800D01*
X168859200Y-56799600D02*
X169855000Y-55803800D01*
X168859200Y-59182000D02*
X168859200Y-56799600D01*
X178308000Y-52284249D02*
X178308000Y-51943000D01*
X164795200Y-77622400D02*
X165125400Y-77292200D01*
X153187400Y-78514000D02*
X154079000Y-77622400D01*
X168147218Y-59893982D02*
X168859200Y-59182000D01*
X165125400Y-60756800D02*
X165379499Y-60502701D01*
X146627671Y-100525591D02*
X147559082Y-99594180D01*
X165125400Y-77292200D02*
X165125400Y-60756800D01*
X154079000Y-77622400D02*
X164795200Y-77622400D01*
X153187400Y-98247200D02*
X153187400Y-78514000D01*
X148725100Y-99593400D02*
X149791900Y-98526600D01*
X148438900Y-99593400D02*
X148725100Y-99593400D01*
X148438120Y-99594180D02*
X148438900Y-99593400D01*
X178070401Y-52521848D02*
X178308000Y-52284249D01*
X144145000Y-102925000D02*
X144145000Y-101329262D01*
X144948671Y-100525591D02*
X146627671Y-100525591D01*
X149791900Y-98526600D02*
X152908000Y-98526600D01*
X144145000Y-101329262D02*
X144948671Y-100525591D01*
X147559082Y-99594180D02*
X148438120Y-99594180D01*
X142850000Y-104220000D02*
X144145000Y-102925000D01*
X152908000Y-98526600D02*
X153187400Y-98247200D01*
X166573299Y-60502701D02*
X167182018Y-59893982D01*
D25*
X206248000Y-86868000D02*
X206248000Y-80264000D01*
X193421000Y-93980000D02*
X195961000Y-91440000D01*
X195961000Y-91440000D02*
X195961000Y-90170000D01*
X205940040Y-87152986D02*
X206248000Y-86845026D01*
X195961000Y-90170000D02*
X196596000Y-89535000D01*
X196596000Y-89535000D02*
X203708000Y-89535000D01*
X203708000Y-89535000D02*
X205940040Y-87302960D01*
X205940040Y-87302960D02*
X205940040Y-87152986D01*
D24*
X178054000Y-62738000D02*
X178054000Y-70993000D01*
X178054000Y-70993000D02*
X178485410Y-71424410D01*
X206248000Y-72263000D02*
X206248000Y-80264000D01*
X178485410Y-71424410D02*
X205409410Y-71424410D01*
X205409410Y-71424410D02*
X206248000Y-72263000D01*
X172313600Y-69037200D02*
X172313600Y-71120001D01*
X172313600Y-71120001D02*
X172262801Y-71170800D01*
X177688891Y-53085823D02*
X177688891Y-55330709D01*
X177520210Y-55499390D02*
X169728910Y-55499390D01*
X167994428Y-59589572D02*
X167029228Y-59589572D01*
X177688891Y-55330709D02*
X177520210Y-55499390D01*
X169728910Y-55499390D02*
X168554790Y-56673510D01*
X164820990Y-72821410D02*
X164185600Y-73456800D01*
X168554790Y-56673510D02*
X168554790Y-59029210D01*
X168554790Y-59029210D02*
X167994428Y-59589572D01*
X167029228Y-59589572D02*
X166420800Y-60198000D01*
X166420800Y-60198000D02*
X165253700Y-60198000D01*
X165253700Y-60198000D02*
X164820990Y-60630710D01*
X164820990Y-60630710D02*
X164820990Y-72821410D01*
X164185600Y-73456800D02*
X164185600Y-73914000D01*
D25*
X205866859Y-86796233D02*
X205866859Y-86795951D01*
X203483692Y-89179400D02*
X205866859Y-86796233D01*
X190881000Y-93980000D02*
X192342999Y-92518001D01*
X195580000Y-89710936D02*
X196111536Y-89179400D01*
X195580000Y-90876442D02*
X195580000Y-89710936D01*
X196111536Y-89179400D02*
X203483692Y-89179400D01*
X193938441Y-92518001D02*
X195580000Y-90876442D01*
X192342999Y-92518001D02*
X193938441Y-92518001D01*
X205866859Y-86795951D02*
X205867000Y-86796091D01*
D24*
X205867000Y-72390000D02*
X205867000Y-86795810D01*
X205867000Y-86795810D02*
X205866859Y-86795951D01*
X177419000Y-62738000D02*
X177419000Y-70788500D01*
X177419000Y-70788500D02*
X178359320Y-71728820D01*
X178359320Y-71728820D02*
X205205820Y-71728820D01*
X205205820Y-71728820D02*
X205867000Y-72390000D01*
X170078400Y-68967570D02*
X170078400Y-70931151D01*
X170591248Y-68454722D02*
X170078400Y-68967570D01*
X170078400Y-70931151D02*
X170078400Y-71272400D01*
X164508000Y-56548200D02*
X163093400Y-57962800D01*
X163093400Y-57962800D02*
X163093400Y-73888600D01*
X168249600Y-56548200D02*
X164508000Y-56548200D01*
X173990000Y-55194200D02*
X169603600Y-55194200D01*
X169603600Y-55194200D02*
X168249600Y-56548200D01*
X176199800Y-55194200D02*
X173990000Y-55194200D01*
X176403000Y-54991000D02*
X176199800Y-55194200D01*
X176403000Y-52654200D02*
X176403000Y-54991000D01*
X176504600Y-52552600D02*
X176403000Y-52654200D01*
X176504600Y-52400200D02*
X176504600Y-52552600D01*
X176504600Y-52120800D02*
X176504600Y-52400200D01*
D25*
X203437127Y-88796030D02*
X205230619Y-87002538D01*
X193421000Y-91440000D02*
X196064969Y-88796031D01*
X196064969Y-88796031D02*
X203437127Y-88796030D01*
X205230619Y-87002538D02*
X205230619Y-87002255D01*
X205230619Y-87002255D02*
X205486000Y-86746874D01*
X205486000Y-86746874D02*
X205486000Y-85496400D01*
X205486000Y-85496400D02*
X205486000Y-72771000D01*
D24*
X176149000Y-62738000D02*
X177114590Y-63703590D01*
X177546000Y-71882000D02*
X178082000Y-71882000D01*
X177114590Y-63703590D02*
X177114590Y-71450590D01*
X177114590Y-71450590D02*
X177546000Y-71882000D01*
X178082000Y-71882000D02*
X178233230Y-72033230D01*
X178233230Y-72033230D02*
X204748230Y-72033230D01*
X204748230Y-72033230D02*
X205486000Y-72771000D01*
X152679400Y-98221800D02*
X152679400Y-98196400D01*
X175895661Y-53427646D02*
X175895661Y-53086397D01*
X152679400Y-98196400D02*
X152857200Y-98018600D01*
X152857200Y-98018600D02*
X152857200Y-78413700D01*
X152857200Y-78413700D02*
X154054900Y-77216000D01*
X175793010Y-54889790D02*
X175895000Y-54787800D01*
X161856799Y-58768901D02*
X164415500Y-56210200D01*
X161874200Y-76860400D02*
X161874200Y-73863200D01*
X175895000Y-54787800D02*
X175895000Y-53428307D01*
X169477509Y-54889791D02*
X175793010Y-54889790D01*
X154054900Y-77216000D02*
X161518600Y-77216000D01*
X161518600Y-77216000D02*
X161874200Y-76860400D01*
X161874200Y-73863200D02*
X161856799Y-73845799D01*
X175895000Y-53428307D02*
X175895661Y-53427646D01*
X164415500Y-56210200D02*
X168157100Y-56210200D01*
X161856799Y-73845799D02*
X161856799Y-58768901D01*
X168157100Y-56210200D02*
X169477509Y-54889791D01*
X152679400Y-98221800D02*
X152730200Y-98171000D01*
X149666200Y-98221800D02*
X152679400Y-98221800D01*
X146519762Y-100203000D02*
X147433771Y-99288991D01*
X147433771Y-99288991D02*
X148599009Y-99288991D01*
X148599009Y-99288991D02*
X149666200Y-98221800D01*
X145059400Y-100203000D02*
X146519762Y-100203000D01*
X144840762Y-100203000D02*
X145059400Y-100203000D01*
X142850000Y-101680000D02*
X143363762Y-101680000D01*
X143363762Y-101680000D02*
X144840762Y-100203000D01*
D25*
X175514000Y-63079249D02*
X175514000Y-62738000D01*
X204213056Y-72337840D02*
X177571624Y-72337840D01*
X175514000Y-70280216D02*
X175514000Y-63079249D01*
X204926608Y-86876613D02*
X204926608Y-86851576D01*
X192252600Y-90068400D02*
X194132200Y-90068400D01*
X205079600Y-73204384D02*
X204213056Y-72337840D01*
X204926608Y-86851576D02*
X205079600Y-86698584D01*
X195708580Y-88492020D02*
X203311201Y-88492020D01*
X205079600Y-86698584D02*
X205079600Y-73204384D01*
X190881000Y-91440000D02*
X192252600Y-90068400D01*
X177571624Y-72337840D02*
X175514000Y-70280216D01*
X203311201Y-88492020D02*
X204926608Y-86876613D01*
X194132200Y-90068400D02*
X195708580Y-88492020D01*
D24*
X140310000Y-104220000D02*
X141512081Y-104220000D01*
X147307681Y-98984581D02*
X148472919Y-98984581D01*
X144714672Y-99898590D02*
X146393672Y-99898590D01*
X141655800Y-101278462D02*
X142401062Y-100533200D01*
X141512081Y-104220000D02*
X141655800Y-104076281D01*
X152298010Y-97917390D02*
X152527000Y-97688400D01*
X160731200Y-76860400D02*
X161104201Y-76487399D01*
X149540110Y-97917390D02*
X152298010Y-97917390D01*
X141655800Y-104076281D02*
X141655800Y-101278462D01*
X142401062Y-100533200D02*
X144080062Y-100533200D01*
X144080062Y-100533200D02*
X144714672Y-99898590D01*
X174675800Y-54533800D02*
X174675800Y-52095400D01*
X152527000Y-78313400D02*
X153980000Y-76860400D01*
X161104201Y-59088399D02*
X164286810Y-55905790D01*
X146393672Y-99898590D02*
X147307681Y-98984581D01*
X148472919Y-98984581D02*
X149540110Y-97917390D01*
X164286810Y-55905790D02*
X168031010Y-55905790D01*
X152527000Y-97688400D02*
X152527000Y-78313400D01*
X172770800Y-54584600D02*
X172771580Y-54585380D01*
X172771580Y-54585380D02*
X174624220Y-54585380D01*
X153980000Y-76860400D02*
X160731200Y-76860400D01*
X161104201Y-76487399D02*
X161104201Y-59088399D01*
X174624220Y-54585380D02*
X174675800Y-54533800D01*
X168031010Y-55905790D02*
X169352202Y-54584600D01*
X169352202Y-54584600D02*
X172770800Y-54584600D01*
D25*
X204622259Y-86751027D02*
X204622259Y-86750746D01*
X203185276Y-88188010D02*
X204622259Y-86751027D01*
X195032999Y-88050001D02*
X195171008Y-88188010D01*
X194270999Y-88050001D02*
X195032999Y-88050001D01*
X193421000Y-88900000D02*
X194270999Y-88050001D01*
X195171008Y-88188010D02*
X203185276Y-88188010D01*
D24*
X204622400Y-74650600D02*
X204622400Y-86750605D01*
D25*
X204622259Y-86750746D02*
X204622400Y-86750886D01*
D24*
X204597000Y-73152000D02*
X204597000Y-74625200D01*
X204597000Y-74625200D02*
X204622400Y-74650600D01*
X204622400Y-86750605D02*
X204622259Y-86750746D01*
X174370603Y-62738000D02*
X174370603Y-71881603D01*
X175131050Y-72642050D02*
X201928050Y-72642050D01*
X174370603Y-71881603D02*
X175131050Y-72642050D01*
X201928050Y-72642050D02*
X201930000Y-72644000D01*
X201930000Y-72644000D02*
X204089000Y-72644000D01*
X204089000Y-72644000D02*
X204597000Y-73152000D01*
X151636829Y-78206600D02*
X151636829Y-77775971D01*
X151636829Y-77775971D02*
X151688800Y-77724000D01*
X151636829Y-97181571D02*
X151511000Y-97307400D01*
X151636829Y-78206600D02*
X151636829Y-97181571D01*
X142149662Y-99923600D02*
X141819462Y-100253800D01*
X151511000Y-97307400D02*
X149200900Y-97307400D01*
X138972081Y-104220000D02*
X137770000Y-104220000D01*
X149200900Y-97307400D02*
X148972300Y-97536000D01*
X144463272Y-99288990D02*
X144412862Y-99339400D01*
X146142272Y-99288990D02*
X144463272Y-99288990D01*
X148972300Y-97536000D02*
X148945600Y-97536000D01*
X148945600Y-97536000D02*
X148336000Y-98145600D01*
X148336000Y-98145600D02*
X147285662Y-98145600D01*
X147285662Y-98145600D02*
X146142272Y-99288990D01*
X144412862Y-99339400D02*
X144373600Y-99339400D01*
X144373600Y-99339400D02*
X143789400Y-99923600D01*
X143789400Y-99923600D02*
X142149662Y-99923600D01*
X141819462Y-100253800D02*
X140131800Y-100253800D01*
X140131800Y-100253800D02*
X139231799Y-101153801D01*
X139231799Y-101153801D02*
X139231799Y-103960282D01*
X139231799Y-103960282D02*
X138972081Y-104220000D01*
X162993100Y-56769000D02*
X159740600Y-60021500D01*
X159740600Y-60021500D02*
X159740600Y-73888600D01*
X164160719Y-55601381D02*
X162993100Y-56769000D01*
X164414200Y-55575200D02*
X164287200Y-55575200D01*
X164287200Y-55575200D02*
X164261020Y-55601380D01*
X164261020Y-55601380D02*
X164160719Y-55601381D01*
X167931100Y-55575200D02*
X164414200Y-55575200D01*
X169225327Y-54280973D02*
X167931100Y-55575200D01*
X172896890Y-54280190D02*
X169226112Y-54280190D01*
X169226112Y-54280190D02*
X169225327Y-54280973D01*
X174133820Y-54238750D02*
X174092380Y-54280190D01*
X174092380Y-54280190D02*
X172896890Y-54280190D01*
X174133820Y-53058069D02*
X174133820Y-54238750D01*
D25*
X196498131Y-87883999D02*
X202971401Y-87883800D01*
X202971401Y-87883800D02*
X202971401Y-87883999D01*
D24*
X204216000Y-73381770D02*
X204165200Y-73432570D01*
X204165200Y-86690200D02*
X202971600Y-87883800D01*
X204165200Y-73432570D02*
X204165200Y-86690200D01*
X202971600Y-87883800D02*
X202971401Y-87883800D01*
D25*
X190881000Y-88900000D02*
X192342999Y-87438001D01*
X192342999Y-87438001D02*
X196052133Y-87438001D01*
X196052133Y-87438001D02*
X196498131Y-87883999D01*
D24*
X173736000Y-62738000D02*
X173494701Y-62979299D01*
X173494701Y-62979299D02*
X173494701Y-72402701D01*
X173494701Y-72402701D02*
X174038460Y-72946460D01*
X174038460Y-72946460D02*
X201801960Y-72946460D01*
X201801960Y-72946460D02*
X201803910Y-72948410D01*
X201803910Y-72948410D02*
X203758410Y-72948410D01*
X203758410Y-72948410D02*
X204191770Y-73381770D01*
D25*
X168986200Y-53949600D02*
X168985916Y-53949600D01*
X168985916Y-53949600D02*
X167665010Y-55270506D01*
X167665010Y-55270506D02*
X167665010Y-55270790D01*
D24*
X172897800Y-52095400D02*
X172897800Y-53771800D01*
X162586180Y-56692020D02*
X159326201Y-59951999D01*
X172897800Y-53771800D02*
X172720000Y-53949600D01*
X162586180Y-56642000D02*
X162586180Y-56692020D01*
X172720000Y-53949600D02*
X168986200Y-53949600D01*
X167665010Y-55270790D02*
X163957390Y-55270790D01*
X163957390Y-55270790D02*
X162586180Y-56642000D01*
X159326201Y-59951999D02*
X159326201Y-72753599D01*
X159326201Y-72753599D02*
X158648400Y-73431400D01*
X158648400Y-73431400D02*
X158648400Y-73914000D01*
X172592603Y-62738000D02*
X172859301Y-63004698D01*
X196781609Y-87536209D02*
X196580557Y-87536209D01*
X172859301Y-63004698D02*
X172859301Y-72197801D01*
X172859301Y-72197801D02*
X173940500Y-73279000D01*
X173940500Y-73279000D02*
X199771000Y-73279000D01*
X203835000Y-86436200D02*
X202717400Y-87553800D01*
X199771000Y-73279000D02*
X199797180Y-73252820D01*
X203835000Y-74041000D02*
X203835000Y-86436200D01*
X199797180Y-73252820D02*
X203046820Y-73252820D01*
X202717400Y-87553800D02*
X196799200Y-87553800D01*
X203046820Y-73252820D02*
X203835000Y-74041000D01*
X196799200Y-87553800D02*
X196781609Y-87536209D01*
D25*
X195404066Y-86360000D02*
X196580275Y-87536209D01*
X193421000Y-86360000D02*
X195404066Y-86360000D01*
X196580275Y-87536209D02*
X196580557Y-87536209D01*
X196580557Y-87536209D02*
X196580076Y-87536011D01*
D24*
X162458400Y-56311800D02*
X157480000Y-61290200D01*
X157480000Y-61290200D02*
X157480000Y-73863200D01*
X157480000Y-73863200D02*
X157454600Y-73888600D01*
X163803820Y-54966380D02*
X162458400Y-56311800D01*
X168860110Y-53645190D02*
X167538920Y-54966380D01*
X167538920Y-54966380D02*
X163803820Y-54966380D01*
X172171859Y-53645190D02*
X168860110Y-53645190D01*
X172389800Y-53086000D02*
X172389800Y-53427249D01*
X172389800Y-53427249D02*
X172171859Y-53645190D01*
X203352400Y-84836000D02*
X203403200Y-84785200D01*
X171508799Y-63187201D02*
X171716701Y-62979299D01*
X196706001Y-87130401D02*
X196807801Y-87232201D01*
X171513101Y-70564439D02*
X171508799Y-70560137D01*
X171508799Y-70560137D02*
X171508799Y-63187201D01*
X202590400Y-73583800D02*
X172542200Y-73583800D01*
X172542200Y-73583800D02*
X171513101Y-72554701D01*
X203403200Y-84785200D02*
X203403200Y-74396600D01*
X196807801Y-87232201D02*
X200473599Y-87232201D01*
X201914222Y-84836000D02*
X203352400Y-84836000D01*
X201091800Y-86614000D02*
X201091800Y-85658422D01*
X200473599Y-87232201D02*
X201091800Y-86614000D01*
X171716701Y-62979299D02*
X171958000Y-62738000D01*
X203403200Y-74396600D02*
X202590400Y-73583800D01*
X201091800Y-85658422D02*
X201914222Y-84836000D01*
X171513101Y-72554701D02*
X171513101Y-70564439D01*
D25*
X190881000Y-86360000D02*
X190881000Y-85157919D01*
X194284600Y-84709000D02*
X196706001Y-87130401D01*
X190881000Y-85157919D02*
X191329919Y-84709000D01*
X191329919Y-84709000D02*
X194284600Y-84709000D01*
D24*
X160375600Y-75615800D02*
X159105600Y-75615800D01*
X166751000Y-46761400D02*
X164668200Y-46761400D01*
X164668200Y-46761400D02*
X162110799Y-49318801D01*
X162110799Y-49318801D02*
X162110799Y-53306601D01*
X162110799Y-53306601D02*
X162102800Y-53314600D01*
X162102800Y-53314600D02*
X162102800Y-54763700D01*
X162102800Y-54763700D02*
X156355701Y-60510799D01*
X156355701Y-60510799D02*
X154917423Y-60510799D01*
X154917423Y-60510799D02*
X153136600Y-62291622D01*
X153136600Y-62291622D02*
X153136600Y-73888600D01*
X166725600Y-47599600D02*
X165675138Y-47599600D01*
X154228800Y-63068200D02*
X154228800Y-73914000D01*
X165675138Y-47599600D02*
X163525200Y-49749538D01*
X163525200Y-49749538D02*
X163525200Y-53771800D01*
X163525200Y-53771800D02*
X154228800Y-63068200D01*
X152171400Y-97383600D02*
X152171400Y-78181200D01*
X140310000Y-101680000D02*
X140823762Y-101680000D01*
X154940000Y-76555600D02*
X155244800Y-76250800D01*
X140823762Y-101680000D02*
X142275362Y-100228400D01*
X143954362Y-100228400D02*
X144589362Y-99593400D01*
X142275362Y-100228400D02*
X143954362Y-100228400D01*
X149325820Y-97612980D02*
X151942020Y-97612980D01*
X144589362Y-99593400D02*
X146268362Y-99593400D01*
X146268362Y-99593400D02*
X147258962Y-98602800D01*
X147258962Y-98602800D02*
X148336000Y-98602800D01*
X148336000Y-98602800D02*
X149325820Y-97612980D01*
X151942020Y-97612980D02*
X152171400Y-97383600D01*
X152171400Y-78181200D02*
X153797000Y-76555600D01*
X155244800Y-62664400D02*
X163654800Y-54254400D01*
X153797000Y-76555600D02*
X154940000Y-76555600D01*
X165041201Y-53779799D02*
X165041201Y-48928399D01*
X165041201Y-48928399D02*
X165455600Y-48514000D01*
X155244800Y-76250800D02*
X155244800Y-62664400D01*
X163654800Y-54254400D02*
X164566600Y-54254400D01*
X164566600Y-54254400D02*
X165041201Y-53779799D01*
X168681400Y-53187600D02*
X167233600Y-54635400D01*
X167233600Y-54635400D02*
X163704300Y-54635400D01*
X163704300Y-54635400D02*
X157175590Y-61164110D01*
X157175590Y-61164110D02*
X157175590Y-72643610D01*
X157175590Y-72643610D02*
X156387800Y-73431400D01*
X156387800Y-73431400D02*
X156387800Y-73914000D01*
X159512000Y-44069000D02*
X160858200Y-44069000D01*
X160858200Y-44069000D02*
X160883600Y-44043600D01*
X160909000Y-44069000D02*
X160883600Y-44043600D01*
D25*
X160301829Y-45601899D02*
X160438358Y-45465370D01*
X160438358Y-45465370D02*
X161423789Y-45465370D01*
X161423789Y-45465370D02*
X162899988Y-43989171D01*
X162899988Y-43989171D02*
X163216771Y-43989171D01*
X159833301Y-45133371D02*
X160075791Y-45133371D01*
X160075791Y-45133371D02*
X160076564Y-45132598D01*
X160076564Y-45132598D02*
X161287043Y-45132598D01*
X161287043Y-45132598D02*
X162665229Y-43754412D01*
X162665229Y-43754412D02*
X162665229Y-43437629D01*
X164134800Y-43191049D02*
X164134800Y-42849800D01*
X159217408Y-46588809D02*
X161199791Y-46588809D01*
X158976109Y-46347510D02*
X159217408Y-46588809D01*
X161199791Y-46588809D02*
X161699400Y-46089200D01*
X161699400Y-46089200D02*
X162730358Y-46089200D01*
X164134800Y-44684758D02*
X164134800Y-43191049D01*
X162730358Y-46089200D02*
X164134800Y-44684758D01*
X163690898Y-44659144D02*
X163690898Y-43712091D01*
X158748880Y-45637683D02*
X159643047Y-45637683D01*
X161247894Y-46071200D02*
X161561894Y-45757200D01*
X158507581Y-45878982D02*
X158748880Y-45637683D01*
X159643047Y-45637683D02*
X160076564Y-46071200D01*
X163690898Y-43712091D02*
X163525589Y-43546782D01*
X162592842Y-45757200D02*
X163690898Y-44659144D01*
X160076564Y-46071200D02*
X161247894Y-46071200D01*
X161561894Y-45757200D02*
X162592842Y-45757200D01*
X163525589Y-43546782D02*
X163525589Y-43205533D01*
X156765171Y-47672171D02*
X156606779Y-47513779D01*
X156606779Y-47513779D02*
X156685158Y-47435400D01*
X165850199Y-44064401D02*
X166074200Y-43840400D01*
X156685158Y-47435400D02*
X163187559Y-47435400D01*
X163187559Y-47435400D02*
X165850199Y-44772760D01*
X165850199Y-44772760D02*
X165850199Y-44064401D01*
X163050041Y-47103400D02*
X165518201Y-44635240D01*
X156213629Y-47120629D02*
X156372021Y-47279021D01*
X156372021Y-47279021D02*
X156547642Y-47103400D01*
X156547642Y-47103400D02*
X163050041Y-47103400D01*
X165518201Y-44635240D02*
X165518201Y-44064401D01*
X165518201Y-44064401D02*
X165294200Y-43840400D01*
D21*
X144043400Y-83820000D02*
X144043400Y-83413600D01*
X144043400Y-83413600D02*
X144805400Y-82651600D01*
X143230600Y-82651600D02*
X143230600Y-83007200D01*
X143230600Y-83007200D02*
X144043400Y-83820000D01*
D26*
X143449200Y-83134200D02*
X147548600Y-83134200D01*
X139700000Y-83180000D02*
X143403400Y-83180000D01*
X143403400Y-83180000D02*
X143449200Y-83134200D01*
D27*
X139700000Y-91744800D02*
X138988800Y-91744800D01*
X139700000Y-91744800D02*
X140360400Y-91744800D01*
D26*
X127280000Y-83180000D02*
X139700000Y-83180000D01*
D27*
X139700000Y-83180000D02*
X139700000Y-91744800D01*
D26*
X124530000Y-75680000D02*
X124530000Y-80430000D01*
X124530000Y-80430000D02*
X127280000Y-83180000D01*
D21*
G36*
X171323000Y-90043000D02*
X166624000Y-90043000D01*
X166574590Y-90053006D01*
X166532965Y-90081447D01*
X166505685Y-90123841D01*
X166497000Y-90170000D01*
X166497000Y-92837000D01*
X155930600Y-92837000D01*
X155930600Y-92506800D01*
X155920594Y-92457390D01*
X155892153Y-92415765D01*
X155849759Y-92388485D01*
X155803600Y-92379800D01*
X154330400Y-92379800D01*
X154330400Y-92176600D01*
X164338000Y-92176600D01*
X164387410Y-92166594D01*
X164429035Y-92138153D01*
X164456315Y-92095759D01*
X164465000Y-92049600D01*
X164465000Y-86995000D01*
X171323000Y-86995000D01*
X171323000Y-90043000D01*
X171323000Y-90043000D01*
G37*
X171323000Y-90043000D02*
X166624000Y-90043000D01*
X166574590Y-90053006D01*
X166532965Y-90081447D01*
X166505685Y-90123841D01*
X166497000Y-90170000D01*
X166497000Y-92837000D01*
X155930600Y-92837000D01*
X155930600Y-92506800D01*
X155920594Y-92457390D01*
X155892153Y-92415765D01*
X155849759Y-92388485D01*
X155803600Y-92379800D01*
X154330400Y-92379800D01*
X154330400Y-92176600D01*
X164338000Y-92176600D01*
X164387410Y-92166594D01*
X164429035Y-92138153D01*
X164456315Y-92095759D01*
X164465000Y-92049600D01*
X164465000Y-86995000D01*
X171323000Y-86995000D01*
X171323000Y-90043000D01*
G36*
X161138949Y-79552007D02*
X161163000Y-81788715D01*
X161163000Y-89154000D01*
X157378400Y-89154000D01*
X157378400Y-79528206D01*
X161138949Y-79552007D01*
X161138949Y-79552007D01*
G37*
X161138949Y-79552007D02*
X161163000Y-81788715D01*
X161163000Y-89154000D01*
X157378400Y-89154000D01*
X157378400Y-79528206D01*
X161138949Y-79552007D01*
M02*
