M48
;DRILL file {KiCad 4.0.6} date 05/08/17 11:25:57
;FORMAT={-:-/ absolute / metric / decimal}
FMAT,2
METRIC,TZ
T1C0.300
T2C0.330
T3C0.400
T4C0.500
T5C0.600
T6C0.800
T7C1.000
%
G90
G05
M71
T1
X135.357Y-88.925
X135.357Y-90.475
X135.382Y-89.687
X136.042Y-88.9
X136.093Y-89.687
X136.093Y-90.449
X136.779Y-88.925
X136.804Y-89.662
X136.804Y-90.475
X155.931Y-92.278
X156.642Y-92.278
X156.743Y-93.574
X156.743Y-94.437
X157.632Y-93.726
X157.632Y-94.463
X157.658Y-79.807
X157.963Y-82.347
X157.963Y-83.287
X157.963Y-84.201
X157.963Y-85.141
X157.963Y-85.979
X157.988Y-86.919
X157.988Y-87.909
X158.42Y-79.807
X158.521Y-93.726
X158.572Y-94.539
X158.648Y-95.428
X159.156Y-79.807
X159.639Y-94.437
X159.969Y-79.807
X160.706Y-94.386
X160.731Y-79.807
X161.061Y-93.523
X161.061Y-95.402
X161.646Y-94.412
X162.712Y-94.361
T2
X132.08Y-104.521
X132.588Y-85.217
X133.883Y-92.354
X135.636Y-60.071
X135.953Y-52.324
X136.53Y-80.894
X137.795Y-52.07
X138.989Y-91.745
X139.7Y-91.745
X140.36Y-91.745
X142.494Y-85.903
X143.104Y-89.84
X143.732Y-45.403
X150.368Y-93.802
X151.689Y-77.724
X152.909Y-41.775
X153.035Y-55.88
X153.137Y-73.889
X154.229Y-73.914
X155.905Y-90.17
X156.388Y-73.914
X157.285Y-45.187
X157.455Y-73.889
X158.508Y-45.879
X158.648Y-73.914
X158.976Y-46.348
X159.106Y-75.616
X159.512Y-44.069
X159.741Y-73.889
X159.833Y-45.133
X160.302Y-45.602
X160.376Y-75.616
X160.884Y-44.044
X162.665Y-43.438
X163.093Y-73.889
X163.217Y-43.989
X163.526Y-43.206
X164.135Y-42.85
X164.186Y-73.914
X165.294Y-43.84
X165.456Y-48.514
X166.074Y-43.84
X166.116Y-73.939
X166.726Y-47.6
X166.751Y-46.761
X167.03Y-73.939
X168.681Y-53.188
X170.078Y-71.272
X170.591Y-68.455
X170.764Y-69.571
X170.79Y-70.815
X171.958Y-62.738
X172.263Y-71.171
X172.314Y-69.037
X172.39Y-53.086
X172.593Y-62.738
X172.898Y-52.095
X173.736Y-62.738
X174.134Y-53.058
X174.371Y-62.738
X174.676Y-52.095
X175.514Y-62.738
X175.896Y-53.086
X176.149Y-62.738
X176.505Y-52.121
X177.419Y-62.738
X177.689Y-53.086
X178.054Y-62.738
X178.308Y-51.943
X179.197Y-62.738
X179.544Y-52.929
X179.832Y-62.738
X180.086Y-51.943
X180.975Y-62.738
X181.432Y-52.916
X181.61Y-62.738
X181.903Y-52.264
X183.134Y-52.07
X183.642Y-56.134
X183.642Y-67.31
X184.404Y-53.848
X184.544Y-85.979
X185.055Y-53.861
X185.344Y-80.493
X185.69Y-53.848
X185.928Y-62.738
X186.944Y-53.848
X186.944Y-55.651
X186.944Y-63.5
X187.312Y-52.07
X187.96Y-63.5
X189.353Y-60.452
X191.18Y-61.06
X192.405Y-53.81
X192.405Y-55.651
X193.548Y-55.651
X193.548Y-53.341
X193.802Y-67.691
X194.183Y-57.023
X194.259Y-45.822
X195.148Y-46.507
X195.298Y-56.59
X195.402Y-83.82
X195.504Y-45.263
X195.834Y-55.651
X195.961Y-46.812
X196.825Y-47.447
X197.333Y-77.318
X197.46Y-74.803
X197.636Y-80.11
X197.79Y-47.854
X198.145Y-74.828
X198.78Y-74.828
X199.415Y-74.828
X200.048Y-74.797
X200.685Y-74.828
X201.168Y-79.248
X201.193Y-76.911
X201.498Y-77.47
X201.932Y-77.933
X202.008Y-48.792
X202.895Y-48.641
X203.784Y-48.793
X204.394Y-49.352
X205.232Y-49.352
X205.957Y-49.352
X210.49Y-90.83
T3
X116.078Y-45.847
X118.491Y-70.485
X123.047Y-48.26
X124.968Y-57.658
X125.689Y-48.539
X125.73Y-39.37
X128.27Y-39.37
X128.27Y-48.514
X130.937Y-47.371
X133.159Y-88.426
X133.78Y-87.43
X134.28Y-85.88
X134.28Y-86.68
X136.607Y-61.221
X136.906Y-52.705
X137.78Y-61.326
X137.871Y-44.094
X138.938Y-60.579
X139.192Y-52.705
X139.878Y-44.069
X140.462Y-61.849
X140.462Y-64.643
X140.843Y-60.579
X141.097Y-52.705
X141.376Y-47.193
X142.189Y-47.752
X143.891Y-43.053
X144.094Y-47.752
X144.653Y-52.705
X145.009Y-47.6
X145.034Y-60.579
X145.161Y-62.23
X145.161Y-64.643
X146.101Y-38.395
X146.126Y-40.488
X146.152Y-47.168
X146.177Y-61.087
X146.431Y-52.705
X146.812Y-42.24
X148.336Y-52.705
X149.733Y-61.087
X149.733Y-79.781
X150.114Y-52.705
X150.317Y-38.862
X150.343Y-40.395
X151.435Y-37.211
X151.638Y-61.087
X151.892Y-52.705
X153.137Y-44.983
X153.416Y-61.087
X153.594Y-37.694
X153.67Y-52.705
X154.483Y-41.783
X155.194Y-61.087
X155.448Y-52.705
X156.214Y-47.121
X156.765Y-47.672
X157.353Y-52.705
X158.75Y-61.087
X159.131Y-52.705
X159.868Y-40.361
X160.528Y-61.087
X160.782Y-52.705
X161.925Y-40.335
X162.433Y-61.087
X162.687Y-52.705
X163.398Y-40.335
X164.211Y-61.087
X164.465Y-52.705
X164.871Y-40.335
X164.948Y-90.399
X164.948Y-91.491
X164.948Y-92.481
X165.807Y-61.079
X166.091Y-90.424
X166.091Y-91.491
X166.091Y-92.481
X166.243Y-52.705
X167.767Y-61.087
X168.021Y-52.705
X169.545Y-61.087
X169.926Y-52.705
X170.053Y-67.945
X171.45Y-61.087
X171.704Y-52.705
X172.085Y-67.945
X173.228Y-61.087
X173.482Y-52.705
X175.006Y-61.087
X175.26Y-52.705
X176.784Y-61.087
X177.08Y-52.663
X178.562Y-61.087
X178.832Y-52.721
X180.34Y-61.087
X180.721Y-52.705
X181.508Y-86.716
X182.118Y-61.087
X182.499Y-52.705
X182.855Y-84.099
X183.515Y-59.309
X186.182Y-59.309
X187.579Y-60.325
X188.29Y-52.349
X189.611Y-67.818
X189.738Y-52.705
X191.516Y-52.705
X191.516Y-67.818
X192.913Y-61.087
X193.167Y-52.705
X194.818Y-61.087
X195.072Y-52.705
X195.707Y-41.275
X195.758Y-85.115
X196.596Y-61.087
X196.85Y-52.705
X198.755Y-52.705
X199.136Y-43.358
X200.914Y-100.457
X201.295Y-96.393
X201.6Y-41.08
X201.6Y-43.332
X202.057Y-93.853
X204.216Y-46.208
X205.486Y-46.208
X205.867Y-103.251
X206.756Y-37.846
X208.28Y-103.251
X208.788Y-105.156
X210.058Y-51.054
X210.058Y-61.976
X210.058Y-73.152
X211.074Y-102.108
X212.344Y-105.156
X215.392Y-102.235
X216.916Y-86.614
T4
X199.144Y-96.901
X200.144Y-96.901
T5
X142.037Y-99.009
X143.231Y-82.652
X143.637Y-99.009
X144.043Y-83.82
X144.805Y-82.652
T6
X121.03Y-75.68
X124.53Y-75.68
T7
X115.53Y-77.06
X115.53Y-79.6
X115.53Y-82.14
X115.53Y-84.68
X115.646Y-57.277
X115.646Y-59.817
X115.646Y-62.357
X115.646Y-64.897
X115.646Y-67.437
X115.78Y-88.81
X115.78Y-91.35
X115.78Y-93.89
X115.78Y-96.43
X115.78Y-98.97
X115.78Y-101.51
X115.78Y-104.05
X137.77Y-101.68
X137.77Y-104.22
X140.31Y-101.68
X140.31Y-104.22
X142.85Y-101.68
X142.85Y-104.22
X145.03Y-91.68
X145.39Y-101.68
X145.39Y-104.22
X147.57Y-91.68
X147.93Y-101.68
X147.93Y-104.22
X150.47Y-101.68
X150.47Y-104.22
X153.01Y-101.68
X153.01Y-104.22
X155.55Y-101.68
X155.55Y-104.22
X158.09Y-101.68
X158.09Y-104.22
X160.63Y-101.68
X160.63Y-104.22
X163.17Y-101.68
X163.17Y-104.22
X165.71Y-101.68
X165.71Y-104.22
X168.25Y-101.68
X168.25Y-104.22
X170.79Y-101.68
X170.79Y-104.22
X171.958Y-39.37
X173.33Y-101.68
X173.33Y-104.22
X174.498Y-39.37
X175.87Y-101.68
X175.87Y-104.22
X177.038Y-39.37
X178.41Y-101.68
X178.41Y-104.22
X178.537Y-93.523
X178.537Y-96.063
X179.578Y-39.37
X180.95Y-101.68
X180.95Y-104.22
X182.118Y-39.37
X183.286Y-45.542
X183.49Y-101.68
X183.49Y-104.22
X184.658Y-39.37
X185.826Y-45.542
X186.03Y-101.68
X186.03Y-104.22
X187.198Y-39.37
X188.366Y-45.542
X189.738Y-39.37
X190.881Y-86.36
X190.881Y-88.9
X190.881Y-91.44
X190.881Y-93.98
X190.881Y-96.52
X190.881Y-99.06
X190.881Y-101.6
X190.881Y-104.14
X192.278Y-39.37
X193.421Y-86.36
X193.421Y-88.9
X193.421Y-91.44
X193.421Y-93.98
X193.421Y-96.52
X193.421Y-99.06
X193.421Y-101.6
X193.421Y-104.14
X198.882Y-83.566
X198.882Y-86.106
X202.311Y-83.566
X202.311Y-86.106
X215.03Y-39.56
X215.03Y-42.1
X215.03Y-44.64
X215.03Y-47.18
X215.03Y-51.06
X215.03Y-53.6
X215.03Y-56.14
X215.03Y-58.68
X215.03Y-62.56
X215.03Y-65.1
X215.03Y-67.64
X215.03Y-70.18
X215.03Y-74.06
X215.03Y-76.6
X215.03Y-79.14
X215.03Y-81.68
T0
M30
