G04 #@! TF.FileFunction,Paste,Top*
%FSLAX46Y46*%
G04 Gerber Fmt 4.6, Leading zero omitted, Abs format (unit mm)*
G04 Created by KiCad (PCBNEW 4.0.6) date 05/08/17 11:25:49*
%MOMM*%
%LPD*%
G01*
G04 APERTURE LIST*
%ADD10C,0.100000*%
%ADD11R,0.250000X1.000000*%
%ADD12R,1.000000X1.340000*%
%ADD13R,1.250000X1.000000*%
%ADD14R,1.000000X1.250000*%
%ADD15R,0.750000X0.800000*%
%ADD16R,0.800000X0.750000*%
%ADD17R,2.300000X2.500000*%
%ADD18R,0.450000X0.700000*%
%ADD19R,2.500000X1.800000*%
%ADD20R,3.500000X2.000000*%
%ADD21R,7.000000X7.000000*%
%ADD22R,0.650000X1.060000*%
%ADD23R,1.600000X3.500000*%
%ADD24R,3.800000X2.000000*%
%ADD25R,1.500000X2.000000*%
%ADD26R,1.060000X0.400000*%
%ADD27R,0.730000X0.300000*%
%ADD28R,0.300000X0.730000*%
%ADD29R,0.750000X0.750000*%
%ADD30R,0.600000X1.200000*%
%ADD31R,1.200000X0.600000*%
%ADD32R,0.800000X0.900000*%
%ADD33R,0.600000X1.500000*%
%ADD34R,3.200000X2.500000*%
%ADD35R,0.500000X0.900000*%
%ADD36R,0.900000X0.500000*%
%ADD37R,1.300000X0.700000*%
%ADD38R,0.650000X1.220000*%
%ADD39R,0.700000X0.450000*%
%ADD40R,0.350000X2.000000*%
%ADD41R,4.500000X4.600000*%
G04 APERTURE END LIST*
D10*
D11*
X165885000Y-41598000D03*
X165385000Y-41598000D03*
X164885000Y-41598000D03*
X164385000Y-41598000D03*
X163885000Y-41598000D03*
X163385000Y-41598000D03*
X162885000Y-41598000D03*
X162385000Y-41598000D03*
X161885000Y-41598000D03*
X161385000Y-41598000D03*
X160885000Y-41598000D03*
X160385000Y-41598000D03*
X159885000Y-41598000D03*
X159385000Y-41598000D03*
X158885000Y-41598000D03*
X158385000Y-41598000D03*
X157885000Y-41598000D03*
X157385000Y-41598000D03*
X156885000Y-41598000D03*
X156385000Y-41598000D03*
D12*
X168275000Y-39878000D03*
X153995000Y-39878000D03*
D13*
X162306000Y-91456000D03*
X162306000Y-93456000D03*
D14*
X125688600Y-50266600D03*
X123688600Y-50266600D03*
D13*
X159766000Y-91456000D03*
X159766000Y-93456000D03*
D15*
X157734000Y-92952000D03*
X157734000Y-91452000D03*
D13*
X125747200Y-42688000D03*
X125747200Y-40688000D03*
D15*
X150368000Y-90944000D03*
X150368000Y-92444000D03*
D14*
X139887200Y-45516800D03*
X137887200Y-45516800D03*
D16*
X153912000Y-94767400D03*
X152412000Y-94767400D03*
D13*
X128247200Y-42688000D03*
X128247200Y-40688000D03*
X159766000Y-97520000D03*
X159766000Y-95520000D03*
X162306000Y-97520000D03*
X162306000Y-95520000D03*
X157480000Y-97520000D03*
X157480000Y-95520000D03*
D15*
X131030000Y-90430000D03*
X131030000Y-88930000D03*
D14*
X121280000Y-81430000D03*
X119280000Y-81430000D03*
D13*
X146030000Y-95680000D03*
X146030000Y-97680000D03*
X144030000Y-95680000D03*
X144030000Y-97680000D03*
X142030000Y-95680000D03*
X142030000Y-97680000D03*
D14*
X189030000Y-62180000D03*
X187030000Y-62180000D03*
D13*
X128247200Y-45188000D03*
X128247200Y-47188000D03*
D14*
X142030000Y-62180000D03*
X144030000Y-62180000D03*
X142030000Y-64680000D03*
X144030000Y-64680000D03*
D13*
X125747200Y-45188000D03*
X125747200Y-47188000D03*
D15*
X200279000Y-95365000D03*
X200279000Y-93865000D03*
X198501000Y-95365000D03*
X198501000Y-93865000D03*
D16*
X211189000Y-105156000D03*
X209689000Y-105156000D03*
D14*
X171770800Y-42316400D03*
X173770800Y-42316400D03*
D15*
X145008600Y-40475600D03*
X145008600Y-38975600D03*
X151409400Y-38886000D03*
X151409400Y-40386000D03*
X195707000Y-40120000D03*
X195707000Y-38620000D03*
D13*
X215530000Y-86680000D03*
X215530000Y-84680000D03*
D14*
X210030000Y-71680000D03*
X212030000Y-71680000D03*
X210030000Y-60680000D03*
X212030000Y-60680000D03*
X210030000Y-49680000D03*
X212030000Y-49680000D03*
D13*
X213530000Y-86680000D03*
X213530000Y-84680000D03*
D14*
X210030000Y-69180000D03*
X212030000Y-69180000D03*
X210030000Y-58180000D03*
X212030000Y-58180000D03*
X210030000Y-47180000D03*
X212030000Y-47180000D03*
D17*
X120954800Y-60519200D03*
X120954800Y-56219200D03*
D18*
X185308000Y-82947000D03*
X184008000Y-82947000D03*
X184658000Y-84947000D03*
D19*
X139030000Y-95680000D03*
X135030000Y-95680000D03*
D20*
X147580000Y-83140000D03*
X147580000Y-87720000D03*
D21*
X154980000Y-85440000D03*
D22*
X144939800Y-45941200D03*
X145889800Y-45941200D03*
X146839800Y-45941200D03*
X146839800Y-43741200D03*
X144939800Y-43741200D03*
X145889800Y-43741200D03*
D23*
X123928200Y-65430400D03*
X119048200Y-65430400D03*
D24*
X120747200Y-39538000D03*
D25*
X120747200Y-45838000D03*
X123047200Y-45838000D03*
X118447200Y-45838000D03*
D26*
X154770000Y-92928000D03*
X154770000Y-92278000D03*
X154770000Y-91618000D03*
X154770000Y-90968000D03*
X152570000Y-90968000D03*
X152570000Y-91618000D03*
X152570000Y-92278000D03*
X152570000Y-92928000D03*
D24*
X133247200Y-39538000D03*
D25*
X133247200Y-45838000D03*
X135547200Y-45838000D03*
X130947200Y-45838000D03*
D27*
X134065000Y-88680000D03*
X134065000Y-89180000D03*
X134065000Y-89680000D03*
X134065000Y-90180000D03*
X134065000Y-90680000D03*
D28*
X135030000Y-91645000D03*
X135530000Y-91645000D03*
X136030000Y-91645000D03*
X136530000Y-91645000D03*
X137030000Y-91645000D03*
D27*
X137995000Y-90680000D03*
X137995000Y-90180000D03*
X137995000Y-89680000D03*
X137995000Y-89180000D03*
X137995000Y-88680000D03*
D28*
X137030000Y-87715000D03*
X136530000Y-87715000D03*
X136030000Y-87715000D03*
X135530000Y-87715000D03*
X135030000Y-87715000D03*
D29*
X136655000Y-90305000D03*
X136655000Y-89055000D03*
X135405000Y-90305000D03*
X135405000Y-89055000D03*
D30*
X204230000Y-101930000D03*
X205030000Y-101930000D03*
X205830000Y-101930000D03*
X206630000Y-101930000D03*
X207430000Y-101930000D03*
X208230000Y-101930000D03*
X209030000Y-101930000D03*
X209830000Y-101930000D03*
D31*
X211280000Y-100480000D03*
X211280000Y-99680000D03*
X211280000Y-98880000D03*
X211280000Y-98080000D03*
X211280000Y-97280000D03*
X211280000Y-96480000D03*
X211280000Y-95680000D03*
X211280000Y-94880000D03*
D30*
X209830000Y-93430000D03*
X209030000Y-93430000D03*
X208230000Y-93430000D03*
X207430000Y-93430000D03*
X206630000Y-93430000D03*
X205830000Y-93430000D03*
X205030000Y-93430000D03*
X204230000Y-93430000D03*
D31*
X202780000Y-94880000D03*
X202780000Y-95680000D03*
X202780000Y-96480000D03*
X202780000Y-97280000D03*
X202780000Y-98080000D03*
X202780000Y-98880000D03*
X202780000Y-99680000D03*
X202780000Y-100480000D03*
D32*
X147309800Y-40395400D03*
X149209800Y-40395400D03*
X148259800Y-38395400D03*
D33*
X206781400Y-39540200D03*
X205511400Y-39540200D03*
X204241400Y-39540200D03*
X202971400Y-39540200D03*
X201701400Y-39540200D03*
X200431400Y-39540200D03*
X199161400Y-39540200D03*
X197891400Y-39540200D03*
X197891400Y-44940200D03*
X199161400Y-44940200D03*
X200431400Y-44940200D03*
X201701400Y-44940200D03*
X202971400Y-44940200D03*
X204241400Y-44940200D03*
X205511400Y-44940200D03*
X206781400Y-44940200D03*
D34*
X169418000Y-88406000D03*
X169418000Y-96506000D03*
X124030000Y-97730000D03*
X124030000Y-89630000D03*
D35*
X184544400Y-87096600D03*
X183044400Y-87096600D03*
X143030000Y-87930000D03*
X144530000Y-87930000D03*
D36*
X181483000Y-83628800D03*
X181483000Y-85128800D03*
X162306000Y-86372000D03*
X162306000Y-87872000D03*
D35*
X122780000Y-70180000D03*
X124280000Y-70180000D03*
X119280000Y-70180000D03*
X120780000Y-70180000D03*
D36*
X198577200Y-90791600D03*
X198577200Y-92291600D03*
X132530000Y-85930000D03*
X132530000Y-84430000D03*
X131030000Y-86930000D03*
X131030000Y-85430000D03*
X141198600Y-87414800D03*
X141198600Y-85914800D03*
D35*
X152412000Y-96520000D03*
X153912000Y-96520000D03*
D36*
X150368000Y-95262000D03*
X150368000Y-96762000D03*
X136530000Y-83430000D03*
X136530000Y-84930000D03*
X138030000Y-83430000D03*
X138030000Y-84930000D03*
D35*
X127280000Y-86180000D03*
X128780000Y-86180000D03*
X127280000Y-84180000D03*
X128780000Y-84180000D03*
D37*
X124530000Y-84230000D03*
X124530000Y-86130000D03*
X122030000Y-84230000D03*
X122030000Y-86130000D03*
D36*
X165963600Y-65429000D03*
X165963600Y-66929000D03*
D35*
X187897200Y-42926000D03*
X186397200Y-42926000D03*
X208153000Y-105156000D03*
X206653000Y-105156000D03*
X202934000Y-103680000D03*
X201434000Y-103680000D03*
X202934000Y-105180000D03*
X201434000Y-105180000D03*
D36*
X193802000Y-65467800D03*
X193802000Y-66967800D03*
D35*
X198894000Y-98680000D03*
X200394000Y-98680000D03*
D36*
X168046400Y-66942400D03*
X168046400Y-65442400D03*
D35*
X139585000Y-41300400D03*
X141085000Y-41300400D03*
D36*
X206019400Y-91428000D03*
X206019400Y-89928000D03*
D35*
X214280000Y-98180000D03*
X212780000Y-98180000D03*
X214280000Y-99680000D03*
X212780000Y-99680000D03*
D36*
X213030000Y-92930000D03*
X213030000Y-94430000D03*
X214530000Y-92930000D03*
X214530000Y-94430000D03*
X207530000Y-89930000D03*
X207530000Y-91430000D03*
X209030000Y-89930000D03*
X209030000Y-91430000D03*
X203030000Y-89930000D03*
X203030000Y-91430000D03*
X204530000Y-89930000D03*
X204530000Y-91430000D03*
D35*
X212928200Y-102235000D03*
X214428200Y-102235000D03*
D36*
X189530000Y-65430000D03*
X189530000Y-66930000D03*
X170030000Y-65430000D03*
X170030000Y-66930000D03*
X191530000Y-65430000D03*
X191530000Y-66930000D03*
X172030000Y-65430000D03*
X172030000Y-66930000D03*
X156235400Y-43686600D03*
X156235400Y-45186600D03*
X149148800Y-43268200D03*
X149148800Y-44768200D03*
X151384000Y-42201400D03*
X151384000Y-43701400D03*
D38*
X127950000Y-57618000D03*
X127000000Y-57618000D03*
X126050000Y-57618000D03*
X126050000Y-60238000D03*
X127000000Y-60238000D03*
X127950000Y-60238000D03*
D39*
X191024000Y-81900000D03*
X191024000Y-83200000D03*
X193024000Y-82550000D03*
D18*
X187111400Y-66513200D03*
X185811400Y-66513200D03*
X186461400Y-68513200D03*
X182336200Y-66538600D03*
X181036200Y-66538600D03*
X181686200Y-68538600D03*
X154711400Y-42926000D03*
X153411400Y-42926000D03*
X154061400Y-44926000D03*
D39*
X141138400Y-38313600D03*
X141138400Y-39613600D03*
X143138400Y-38963600D03*
D13*
X132030000Y-102680000D03*
X132030000Y-100680000D03*
D37*
X132030000Y-99130000D03*
X132030000Y-97230000D03*
D14*
X142280000Y-92930000D03*
X140280000Y-92930000D03*
D36*
X142011400Y-89928000D03*
X142011400Y-91428000D03*
D40*
X183080000Y-50580000D03*
X198680000Y-50580000D03*
D41*
X199580000Y-66680000D03*
X134480000Y-66680000D03*
D40*
X198380000Y-58779999D03*
X198080000Y-50580000D03*
X197780000Y-58779999D03*
X197480000Y-50580000D03*
X197180000Y-58779999D03*
X196880000Y-50580000D03*
X196580000Y-58779999D03*
X196280000Y-50580000D03*
X195980000Y-58779999D03*
X195680000Y-50580000D03*
X195380000Y-58779999D03*
X195080000Y-50580000D03*
X194780000Y-58779999D03*
X194480000Y-50580000D03*
X194180000Y-58779999D03*
X193880000Y-50580000D03*
X193580000Y-58779999D03*
X193280000Y-50580000D03*
X192980000Y-58779999D03*
X192680000Y-50580000D03*
X192380000Y-58779999D03*
X192080000Y-50580000D03*
X191780000Y-58779999D03*
X191480000Y-50580000D03*
X191180000Y-58779999D03*
X190880000Y-50580000D03*
X190580000Y-58779999D03*
X190280000Y-50580000D03*
X189980000Y-58779999D03*
X189680000Y-50580000D03*
X189380000Y-58779999D03*
X189080000Y-50580000D03*
X188780000Y-58779999D03*
X188480000Y-50580000D03*
X188180000Y-58779999D03*
X187880000Y-50580000D03*
X187580000Y-58779999D03*
X187280000Y-50580000D03*
X186980000Y-58779999D03*
X182780000Y-58779999D03*
X182480000Y-50580000D03*
X182180000Y-58779999D03*
X181880000Y-50580000D03*
X181580000Y-58779999D03*
X181280000Y-50580000D03*
X180980000Y-58779999D03*
X180680000Y-50580000D03*
X180380000Y-58779999D03*
X180080000Y-50580000D03*
X179780000Y-58779999D03*
X179480000Y-50580000D03*
X179180000Y-58779999D03*
X178880000Y-50580000D03*
X178580000Y-58779999D03*
X178280000Y-50580000D03*
X177980000Y-58779999D03*
X177680000Y-50580000D03*
X177380000Y-58779999D03*
X177080000Y-50580000D03*
X176780000Y-58779999D03*
X176480000Y-50580000D03*
X176180000Y-58779999D03*
X175880000Y-50580000D03*
X175580000Y-58779999D03*
X175280000Y-50580000D03*
X174980000Y-58779999D03*
X174680000Y-50580000D03*
X174380000Y-58779999D03*
X174080000Y-50580000D03*
X173780000Y-58779999D03*
X173480000Y-50580000D03*
X173180000Y-58779999D03*
X172880000Y-50580000D03*
X172580000Y-58779999D03*
X172280000Y-50580000D03*
X171980000Y-58779999D03*
X171680000Y-50580000D03*
X171380000Y-58779999D03*
X171080000Y-50580000D03*
X170780000Y-58779999D03*
X170480000Y-50580000D03*
X170180000Y-58779999D03*
X169880000Y-50580000D03*
X169580000Y-58779999D03*
X169280000Y-50580000D03*
X168980000Y-58779999D03*
X168680000Y-50580000D03*
X168380000Y-58779999D03*
X168080000Y-50580000D03*
X167780000Y-58779999D03*
X167480000Y-50580000D03*
X167180000Y-58779999D03*
X166880000Y-50580000D03*
X166580000Y-58779999D03*
X166280000Y-50580000D03*
X165980000Y-58779999D03*
X165680000Y-50580000D03*
X165380000Y-58779999D03*
X165080000Y-50580000D03*
X164780000Y-58779999D03*
X164480000Y-50580000D03*
X164180000Y-58779999D03*
X163880000Y-50580000D03*
X163580000Y-58779999D03*
X163280000Y-50580000D03*
X162980000Y-58779999D03*
X162680000Y-50580000D03*
X162380000Y-58779999D03*
X162080000Y-50580000D03*
X161780000Y-58779999D03*
X161480000Y-50580000D03*
X161180000Y-58779999D03*
X160880000Y-50580000D03*
X160580000Y-58779999D03*
X160280000Y-50580000D03*
X159980000Y-58779999D03*
X159680000Y-50580000D03*
X159380000Y-58779999D03*
X159080000Y-50580000D03*
X158780000Y-58779999D03*
X158480000Y-50580000D03*
X158180000Y-58779999D03*
X157880000Y-50580000D03*
X157580000Y-58779999D03*
X157280000Y-50580000D03*
X156980000Y-58779999D03*
X156680000Y-50580000D03*
X156380000Y-58779999D03*
X156080000Y-50580000D03*
X155780000Y-58779999D03*
X155480000Y-50580000D03*
X155180000Y-58779999D03*
X154880000Y-50580000D03*
X154580000Y-58779999D03*
X154280000Y-50580000D03*
X153980000Y-58779999D03*
X153680000Y-50580000D03*
X153380000Y-58779999D03*
X153080000Y-50580000D03*
X152780000Y-58779999D03*
X152480000Y-50580000D03*
X152180000Y-58779999D03*
X151880000Y-50580000D03*
X151580000Y-58779999D03*
X151280000Y-50580000D03*
X150980000Y-58779999D03*
X150680000Y-50580000D03*
X150380000Y-58779999D03*
X150080000Y-50580000D03*
X149780000Y-58779999D03*
X149480000Y-50580000D03*
X149180000Y-58779999D03*
X148880000Y-50580000D03*
X148580000Y-58779999D03*
X148280000Y-50580000D03*
X147980000Y-58779999D03*
X147680000Y-50580000D03*
X147380000Y-58779999D03*
X147080000Y-50580000D03*
X146780000Y-58779999D03*
X146480000Y-50580000D03*
X146180000Y-58779999D03*
X145880000Y-50580000D03*
X145580000Y-58779999D03*
X145280000Y-50580000D03*
X144980000Y-58779999D03*
X144680000Y-50580000D03*
X144380000Y-58779999D03*
X144080000Y-50580000D03*
X143780000Y-58779999D03*
X143480000Y-50580000D03*
X143180000Y-58779999D03*
X142880000Y-50580000D03*
X142580000Y-58779999D03*
X142280000Y-50580000D03*
X141980000Y-58779999D03*
X141680000Y-50580000D03*
X141380000Y-58779999D03*
X141080000Y-50580000D03*
X140780000Y-58779999D03*
X140480000Y-50580000D03*
X140180000Y-58779999D03*
X139880000Y-50580000D03*
X139580000Y-58779999D03*
X139280000Y-50580000D03*
X138980000Y-58779999D03*
X138680000Y-50580000D03*
X138380000Y-58779999D03*
X138080000Y-50580000D03*
X137780000Y-58779999D03*
X137480000Y-50580000D03*
X137180000Y-58779999D03*
X136880000Y-50580000D03*
X136580000Y-58779999D03*
X136280000Y-50580000D03*
X135980000Y-58779999D03*
X135680000Y-50580000D03*
X135380000Y-58779999D03*
M02*
