G04 #@! TF.FileFunction,Drawing*
%FSLAX46Y46*%
G04 Gerber Fmt 4.6, Leading zero omitted, Abs format (unit mm)*
G04 Created by KiCad (PCBNEW 4.0.6) date 05/08/17 11:25:49*
%MOMM*%
%LPD*%
G01*
G04 APERTURE LIST*
%ADD10C,0.100000*%
%ADD11C,0.200000*%
%ADD12C,0.300000*%
G04 APERTURE END LIST*
D10*
D11*
X217030000Y-105680000D02*
X217030000Y-37680000D01*
X114030000Y-105680000D02*
X217030000Y-105680000D01*
X114030000Y-37680000D02*
X114030000Y-105680000D01*
X217030000Y-37680000D02*
X114030000Y-37680000D01*
D12*
X159458573Y-32008571D02*
X158601430Y-32008571D01*
X159030002Y-32008571D02*
X159030002Y-30508571D01*
X158887145Y-30722857D01*
X158744287Y-30865714D01*
X158601430Y-30937143D01*
X160387144Y-30508571D02*
X160530001Y-30508571D01*
X160672858Y-30580000D01*
X160744287Y-30651429D01*
X160815716Y-30794286D01*
X160887144Y-31080000D01*
X160887144Y-31437143D01*
X160815716Y-31722857D01*
X160744287Y-31865714D01*
X160672858Y-31937143D01*
X160530001Y-32008571D01*
X160387144Y-32008571D01*
X160244287Y-31937143D01*
X160172858Y-31865714D01*
X160101430Y-31722857D01*
X160030001Y-31437143D01*
X160030001Y-31080000D01*
X160101430Y-30794286D01*
X160172858Y-30651429D01*
X160244287Y-30580000D01*
X160387144Y-30508571D01*
X162244287Y-30508571D02*
X161530001Y-30508571D01*
X161458572Y-31222857D01*
X161530001Y-31151429D01*
X161672858Y-31080000D01*
X162030001Y-31080000D01*
X162172858Y-31151429D01*
X162244287Y-31222857D01*
X162315715Y-31365714D01*
X162315715Y-31722857D01*
X162244287Y-31865714D01*
X162172858Y-31937143D01*
X162030001Y-32008571D01*
X161672858Y-32008571D01*
X161530001Y-31937143D01*
X161458572Y-31865714D01*
X163030000Y-31937143D02*
X163030000Y-32008571D01*
X162958572Y-32151429D01*
X162887143Y-32222857D01*
X163958572Y-30508571D02*
X164101429Y-30508571D01*
X164244286Y-30580000D01*
X164315715Y-30651429D01*
X164387144Y-30794286D01*
X164458572Y-31080000D01*
X164458572Y-31437143D01*
X164387144Y-31722857D01*
X164315715Y-31865714D01*
X164244286Y-31937143D01*
X164101429Y-32008571D01*
X163958572Y-32008571D01*
X163815715Y-31937143D01*
X163744286Y-31865714D01*
X163672858Y-31722857D01*
X163601429Y-31437143D01*
X163601429Y-31080000D01*
X163672858Y-30794286D01*
X163744286Y-30651429D01*
X163815715Y-30580000D01*
X163958572Y-30508571D01*
X165387143Y-30508571D02*
X165530000Y-30508571D01*
X165672857Y-30580000D01*
X165744286Y-30651429D01*
X165815715Y-30794286D01*
X165887143Y-31080000D01*
X165887143Y-31437143D01*
X165815715Y-31722857D01*
X165744286Y-31865714D01*
X165672857Y-31937143D01*
X165530000Y-32008571D01*
X165387143Y-32008571D01*
X165244286Y-31937143D01*
X165172857Y-31865714D01*
X165101429Y-31722857D01*
X165030000Y-31437143D01*
X165030000Y-31080000D01*
X165101429Y-30794286D01*
X165172857Y-30651429D01*
X165244286Y-30580000D01*
X165387143Y-30508571D01*
X166815714Y-30508571D02*
X166958571Y-30508571D01*
X167101428Y-30580000D01*
X167172857Y-30651429D01*
X167244286Y-30794286D01*
X167315714Y-31080000D01*
X167315714Y-31437143D01*
X167244286Y-31722857D01*
X167172857Y-31865714D01*
X167101428Y-31937143D01*
X166958571Y-32008571D01*
X166815714Y-32008571D01*
X166672857Y-31937143D01*
X166601428Y-31865714D01*
X166530000Y-31722857D01*
X166458571Y-31437143D01*
X166458571Y-31080000D01*
X166530000Y-30794286D01*
X166601428Y-30651429D01*
X166672857Y-30580000D01*
X166815714Y-30508571D01*
X169101428Y-32008571D02*
X169101428Y-31008571D01*
X169101428Y-31151429D02*
X169172856Y-31080000D01*
X169315714Y-31008571D01*
X169529999Y-31008571D01*
X169672856Y-31080000D01*
X169744285Y-31222857D01*
X169744285Y-32008571D01*
X169744285Y-31222857D02*
X169815714Y-31080000D01*
X169958571Y-31008571D01*
X170172856Y-31008571D01*
X170315714Y-31080000D01*
X170387142Y-31222857D01*
X170387142Y-32008571D01*
X171101428Y-32008571D02*
X171101428Y-31008571D01*
X171101428Y-31151429D02*
X171172856Y-31080000D01*
X171315714Y-31008571D01*
X171529999Y-31008571D01*
X171672856Y-31080000D01*
X171744285Y-31222857D01*
X171744285Y-32008571D01*
X171744285Y-31222857D02*
X171815714Y-31080000D01*
X171958571Y-31008571D01*
X172172856Y-31008571D01*
X172315714Y-31080000D01*
X172387142Y-31222857D01*
X172387142Y-32008571D01*
X113030000Y-32680000D02*
X218030000Y-32680000D01*
X113030000Y-36680000D02*
X113030000Y-29980000D01*
X218030000Y-36680000D02*
X218030000Y-29980000D01*
X218030000Y-32680000D02*
X216903496Y-33266421D01*
X218030000Y-32680000D02*
X216903496Y-32093579D01*
X113030000Y-32680000D02*
X114156504Y-33266421D01*
X113030000Y-32680000D02*
X114156504Y-32093579D01*
X106858571Y-77965713D02*
X106858571Y-76965713D01*
X108358571Y-77608570D01*
X106858571Y-76108571D02*
X106858571Y-75965714D01*
X106930000Y-75822857D01*
X107001429Y-75751428D01*
X107144286Y-75679999D01*
X107430000Y-75608571D01*
X107787143Y-75608571D01*
X108072857Y-75679999D01*
X108215714Y-75751428D01*
X108287143Y-75822857D01*
X108358571Y-75965714D01*
X108358571Y-76108571D01*
X108287143Y-76251428D01*
X108215714Y-76322857D01*
X108072857Y-76394285D01*
X107787143Y-76465714D01*
X107430000Y-76465714D01*
X107144286Y-76394285D01*
X107001429Y-76322857D01*
X106930000Y-76251428D01*
X106858571Y-76108571D01*
X108287143Y-74894286D02*
X108358571Y-74894286D01*
X108501429Y-74965714D01*
X108572857Y-75037143D01*
X106858571Y-73965714D02*
X106858571Y-73822857D01*
X106930000Y-73680000D01*
X107001429Y-73608571D01*
X107144286Y-73537142D01*
X107430000Y-73465714D01*
X107787143Y-73465714D01*
X108072857Y-73537142D01*
X108215714Y-73608571D01*
X108287143Y-73680000D01*
X108358571Y-73822857D01*
X108358571Y-73965714D01*
X108287143Y-74108571D01*
X108215714Y-74180000D01*
X108072857Y-74251428D01*
X107787143Y-74322857D01*
X107430000Y-74322857D01*
X107144286Y-74251428D01*
X107001429Y-74180000D01*
X106930000Y-74108571D01*
X106858571Y-73965714D01*
X106858571Y-72537143D02*
X106858571Y-72394286D01*
X106930000Y-72251429D01*
X107001429Y-72180000D01*
X107144286Y-72108571D01*
X107430000Y-72037143D01*
X107787143Y-72037143D01*
X108072857Y-72108571D01*
X108215714Y-72180000D01*
X108287143Y-72251429D01*
X108358571Y-72394286D01*
X108358571Y-72537143D01*
X108287143Y-72680000D01*
X108215714Y-72751429D01*
X108072857Y-72822857D01*
X107787143Y-72894286D01*
X107430000Y-72894286D01*
X107144286Y-72822857D01*
X107001429Y-72751429D01*
X106930000Y-72680000D01*
X106858571Y-72537143D01*
X106858571Y-71108572D02*
X106858571Y-70965715D01*
X106930000Y-70822858D01*
X107001429Y-70751429D01*
X107144286Y-70680000D01*
X107430000Y-70608572D01*
X107787143Y-70608572D01*
X108072857Y-70680000D01*
X108215714Y-70751429D01*
X108287143Y-70822858D01*
X108358571Y-70965715D01*
X108358571Y-71108572D01*
X108287143Y-71251429D01*
X108215714Y-71322858D01*
X108072857Y-71394286D01*
X107787143Y-71465715D01*
X107430000Y-71465715D01*
X107144286Y-71394286D01*
X107001429Y-71322858D01*
X106930000Y-71251429D01*
X106858571Y-71108572D01*
X108358571Y-68822858D02*
X107358571Y-68822858D01*
X107501429Y-68822858D02*
X107430000Y-68751430D01*
X107358571Y-68608572D01*
X107358571Y-68394287D01*
X107430000Y-68251430D01*
X107572857Y-68180001D01*
X108358571Y-68180001D01*
X107572857Y-68180001D02*
X107430000Y-68108572D01*
X107358571Y-67965715D01*
X107358571Y-67751430D01*
X107430000Y-67608572D01*
X107572857Y-67537144D01*
X108358571Y-67537144D01*
X108358571Y-66822858D02*
X107358571Y-66822858D01*
X107501429Y-66822858D02*
X107430000Y-66751430D01*
X107358571Y-66608572D01*
X107358571Y-66394287D01*
X107430000Y-66251430D01*
X107572857Y-66180001D01*
X108358571Y-66180001D01*
X107572857Y-66180001D02*
X107430000Y-66108572D01*
X107358571Y-65965715D01*
X107358571Y-65751430D01*
X107430000Y-65608572D01*
X107572857Y-65537144D01*
X108358571Y-65537144D01*
X109030000Y-106680000D02*
X109030000Y-36680000D01*
X113030000Y-106680000D02*
X106330000Y-106680000D01*
X113030000Y-36680000D02*
X106330000Y-36680000D01*
X109030000Y-36680000D02*
X109616421Y-37806504D01*
X109030000Y-36680000D02*
X108443579Y-37806504D01*
X109030000Y-106680000D02*
X109616421Y-105553496D01*
X109030000Y-106680000D02*
X108443579Y-105553496D01*
M02*
