G04 #@! TF.FileFunction,Legend,Top*
%FSLAX46Y46*%
G04 Gerber Fmt 4.6, Leading zero omitted, Abs format (unit mm)*
G04 Created by KiCad (PCBNEW 4.0.6) date 05/08/17 11:25:49*
%MOMM*%
%LPD*%
G01*
G04 APERTURE LIST*
%ADD10C,0.100000*%
%ADD11C,0.150000*%
%ADD12C,0.120000*%
%ADD13C,0.010000*%
G04 APERTURE END LIST*
D10*
D11*
X166135000Y-42323000D02*
X156135000Y-42323000D01*
X166135000Y-40873000D02*
X156135000Y-40873000D01*
X166135000Y-40873000D02*
X166135000Y-39058000D01*
X156135000Y-40873000D02*
X156135000Y-39058000D01*
X166135000Y-39058000D02*
X169225000Y-39058000D01*
X156135000Y-39058000D02*
X153045000Y-39058000D01*
X169225000Y-39058000D02*
X169225000Y-40848000D01*
X153045000Y-39058000D02*
X153045000Y-40848000D01*
X169225000Y-40848000D02*
X166135000Y-40848000D01*
X153045000Y-40848000D02*
X156135000Y-40848000D01*
X166135000Y-40848000D02*
X166135000Y-42323000D01*
X156135000Y-40848000D02*
X156135000Y-42323000D01*
D12*
X163156000Y-92956000D02*
X163156000Y-91956000D01*
X161456000Y-91956000D02*
X161456000Y-92956000D01*
X124188600Y-51116600D02*
X125188600Y-51116600D01*
X125188600Y-49416600D02*
X124188600Y-49416600D01*
X160616000Y-92956000D02*
X160616000Y-91956000D01*
X158916000Y-91956000D02*
X158916000Y-92956000D01*
X157134000Y-92552000D02*
X157134000Y-91852000D01*
X158334000Y-91852000D02*
X158334000Y-92552000D01*
X124897200Y-41188000D02*
X124897200Y-42188000D01*
X126597200Y-42188000D02*
X126597200Y-41188000D01*
X150968000Y-91344000D02*
X150968000Y-92044000D01*
X149768000Y-92044000D02*
X149768000Y-91344000D01*
X126870000Y-75680000D02*
G75*
G03X126870000Y-75680000I-4090000J0D01*
G01*
X122780000Y-79730000D02*
X122780000Y-71630000D01*
X122740000Y-79730000D02*
X122740000Y-71630000D01*
X122700000Y-79730000D02*
X122700000Y-71630000D01*
X122660000Y-79729000D02*
X122660000Y-71631000D01*
X122620000Y-79727000D02*
X122620000Y-71633000D01*
X122580000Y-79726000D02*
X122580000Y-71634000D01*
X122540000Y-79723000D02*
X122540000Y-71637000D01*
X122500000Y-79721000D02*
X122500000Y-71639000D01*
X122460000Y-79718000D02*
X122460000Y-71642000D01*
X122420000Y-79715000D02*
X122420000Y-71645000D01*
X122380000Y-79711000D02*
X122380000Y-71649000D01*
X122340000Y-79707000D02*
X122340000Y-71653000D01*
X122300000Y-79702000D02*
X122300000Y-71658000D01*
X122260000Y-79697000D02*
X122260000Y-71663000D01*
X122220000Y-79692000D02*
X122220000Y-71668000D01*
X122180000Y-79686000D02*
X122180000Y-71674000D01*
X122140000Y-79680000D02*
X122140000Y-71680000D01*
X122100000Y-79674000D02*
X122100000Y-71686000D01*
X122059000Y-79667000D02*
X122059000Y-71693000D01*
X122019000Y-79659000D02*
X122019000Y-71701000D01*
X121979000Y-79651000D02*
X121979000Y-76660000D01*
X121979000Y-74700000D02*
X121979000Y-71709000D01*
X121939000Y-79643000D02*
X121939000Y-76660000D01*
X121939000Y-74700000D02*
X121939000Y-71717000D01*
X121899000Y-79635000D02*
X121899000Y-76660000D01*
X121899000Y-74700000D02*
X121899000Y-71725000D01*
X121859000Y-79626000D02*
X121859000Y-76660000D01*
X121859000Y-74700000D02*
X121859000Y-71734000D01*
X121819000Y-79616000D02*
X121819000Y-76660000D01*
X121819000Y-74700000D02*
X121819000Y-71744000D01*
X121779000Y-79606000D02*
X121779000Y-76660000D01*
X121779000Y-74700000D02*
X121779000Y-71754000D01*
X121739000Y-79596000D02*
X121739000Y-76660000D01*
X121739000Y-74700000D02*
X121739000Y-71764000D01*
X121699000Y-79585000D02*
X121699000Y-76660000D01*
X121699000Y-74700000D02*
X121699000Y-71775000D01*
X121659000Y-79574000D02*
X121659000Y-76660000D01*
X121659000Y-74700000D02*
X121659000Y-71786000D01*
X121619000Y-79563000D02*
X121619000Y-76660000D01*
X121619000Y-74700000D02*
X121619000Y-71797000D01*
X121579000Y-79550000D02*
X121579000Y-76660000D01*
X121579000Y-74700000D02*
X121579000Y-71810000D01*
X121539000Y-79538000D02*
X121539000Y-76660000D01*
X121539000Y-74700000D02*
X121539000Y-71822000D01*
X121499000Y-79525000D02*
X121499000Y-76660000D01*
X121499000Y-74700000D02*
X121499000Y-71835000D01*
X121459000Y-79512000D02*
X121459000Y-76660000D01*
X121459000Y-74700000D02*
X121459000Y-71848000D01*
X121419000Y-79498000D02*
X121419000Y-76660000D01*
X121419000Y-74700000D02*
X121419000Y-71862000D01*
X121379000Y-79483000D02*
X121379000Y-76660000D01*
X121379000Y-74700000D02*
X121379000Y-71877000D01*
X121339000Y-79469000D02*
X121339000Y-76660000D01*
X121339000Y-74700000D02*
X121339000Y-71891000D01*
X121299000Y-79453000D02*
X121299000Y-76660000D01*
X121299000Y-74700000D02*
X121299000Y-71907000D01*
X121259000Y-79438000D02*
X121259000Y-76660000D01*
X121259000Y-74700000D02*
X121259000Y-71922000D01*
X121219000Y-79421000D02*
X121219000Y-76660000D01*
X121219000Y-74700000D02*
X121219000Y-71939000D01*
X121179000Y-79405000D02*
X121179000Y-76660000D01*
X121179000Y-74700000D02*
X121179000Y-71955000D01*
X121139000Y-79387000D02*
X121139000Y-76660000D01*
X121139000Y-74700000D02*
X121139000Y-71973000D01*
X121099000Y-79370000D02*
X121099000Y-76660000D01*
X121099000Y-74700000D02*
X121099000Y-71990000D01*
X121059000Y-79351000D02*
X121059000Y-76660000D01*
X121059000Y-74700000D02*
X121059000Y-72009000D01*
X121019000Y-79332000D02*
X121019000Y-76660000D01*
X121019000Y-74700000D02*
X121019000Y-72028000D01*
X120979000Y-79313000D02*
X120979000Y-76660000D01*
X120979000Y-74700000D02*
X120979000Y-72047000D01*
X120939000Y-79293000D02*
X120939000Y-76660000D01*
X120939000Y-74700000D02*
X120939000Y-72067000D01*
X120899000Y-79273000D02*
X120899000Y-76660000D01*
X120899000Y-74700000D02*
X120899000Y-72087000D01*
X120859000Y-79252000D02*
X120859000Y-76660000D01*
X120859000Y-74700000D02*
X120859000Y-72108000D01*
X120819000Y-79230000D02*
X120819000Y-76660000D01*
X120819000Y-74700000D02*
X120819000Y-72130000D01*
X120779000Y-79208000D02*
X120779000Y-76660000D01*
X120779000Y-74700000D02*
X120779000Y-72152000D01*
X120739000Y-79185000D02*
X120739000Y-76660000D01*
X120739000Y-74700000D02*
X120739000Y-72175000D01*
X120699000Y-79162000D02*
X120699000Y-76660000D01*
X120699000Y-74700000D02*
X120699000Y-72198000D01*
X120659000Y-79138000D02*
X120659000Y-76660000D01*
X120659000Y-74700000D02*
X120659000Y-72222000D01*
X120619000Y-79114000D02*
X120619000Y-76660000D01*
X120619000Y-74700000D02*
X120619000Y-72246000D01*
X120579000Y-79088000D02*
X120579000Y-76660000D01*
X120579000Y-74700000D02*
X120579000Y-72272000D01*
X120539000Y-79063000D02*
X120539000Y-76660000D01*
X120539000Y-74700000D02*
X120539000Y-72297000D01*
X120499000Y-79036000D02*
X120499000Y-76660000D01*
X120499000Y-74700000D02*
X120499000Y-72324000D01*
X120459000Y-79009000D02*
X120459000Y-76660000D01*
X120459000Y-74700000D02*
X120459000Y-72351000D01*
X120419000Y-78981000D02*
X120419000Y-76660000D01*
X120419000Y-74700000D02*
X120419000Y-72379000D01*
X120379000Y-78952000D02*
X120379000Y-76660000D01*
X120379000Y-74700000D02*
X120379000Y-72408000D01*
X120339000Y-78923000D02*
X120339000Y-76660000D01*
X120339000Y-74700000D02*
X120339000Y-72437000D01*
X120299000Y-78893000D02*
X120299000Y-76660000D01*
X120299000Y-74700000D02*
X120299000Y-72467000D01*
X120259000Y-78862000D02*
X120259000Y-76660000D01*
X120259000Y-74700000D02*
X120259000Y-72498000D01*
X120219000Y-78830000D02*
X120219000Y-76660000D01*
X120219000Y-74700000D02*
X120219000Y-72530000D01*
X120179000Y-78798000D02*
X120179000Y-76660000D01*
X120179000Y-74700000D02*
X120179000Y-72562000D01*
X120139000Y-78764000D02*
X120139000Y-76660000D01*
X120139000Y-74700000D02*
X120139000Y-72596000D01*
X120099000Y-78730000D02*
X120099000Y-76660000D01*
X120099000Y-74700000D02*
X120099000Y-72630000D01*
X120059000Y-78695000D02*
X120059000Y-76660000D01*
X120059000Y-74700000D02*
X120059000Y-72665000D01*
X120019000Y-78659000D02*
X120019000Y-72701000D01*
X119979000Y-78622000D02*
X119979000Y-72738000D01*
X119939000Y-78584000D02*
X119939000Y-72776000D01*
X119899000Y-78545000D02*
X119899000Y-72815000D01*
X119859000Y-78504000D02*
X119859000Y-72856000D01*
X119819000Y-78463000D02*
X119819000Y-72897000D01*
X119779000Y-78420000D02*
X119779000Y-72940000D01*
X119739000Y-78377000D02*
X119739000Y-72983000D01*
X119699000Y-78332000D02*
X119699000Y-73028000D01*
X119659000Y-78285000D02*
X119659000Y-73075000D01*
X119619000Y-78237000D02*
X119619000Y-73123000D01*
X119579000Y-78188000D02*
X119579000Y-73172000D01*
X119539000Y-78137000D02*
X119539000Y-73223000D01*
X119499000Y-78084000D02*
X119499000Y-73276000D01*
X119459000Y-78029000D02*
X119459000Y-73331000D01*
X119419000Y-77973000D02*
X119419000Y-73387000D01*
X119379000Y-77914000D02*
X119379000Y-73446000D01*
X119339000Y-77853000D02*
X119339000Y-73507000D01*
X119299000Y-77789000D02*
X119299000Y-73571000D01*
X119259000Y-77723000D02*
X119259000Y-73637000D01*
X119219000Y-77654000D02*
X119219000Y-73706000D01*
X119179000Y-77582000D02*
X119179000Y-73778000D01*
X119139000Y-77506000D02*
X119139000Y-73854000D01*
X119099000Y-77425000D02*
X119099000Y-73935000D01*
X119059000Y-77340000D02*
X119059000Y-74020000D01*
X119019000Y-77250000D02*
X119019000Y-74110000D01*
X118979000Y-77153000D02*
X118979000Y-74207000D01*
X118939000Y-77049000D02*
X118939000Y-74311000D01*
X118899000Y-76934000D02*
X118899000Y-74426000D01*
X118859000Y-76807000D02*
X118859000Y-74553000D01*
X118819000Y-76663000D02*
X118819000Y-74697000D01*
X118779000Y-76494000D02*
X118779000Y-74866000D01*
X118739000Y-76278000D02*
X118739000Y-75082000D01*
X118699000Y-75926000D02*
X118699000Y-75434000D01*
X126730000Y-75680000D02*
X125530000Y-75680000D01*
X126130000Y-76330000D02*
X126130000Y-75030000D01*
X138387200Y-46366800D02*
X139387200Y-46366800D01*
X139387200Y-44666800D02*
X138387200Y-44666800D01*
X153512000Y-95367400D02*
X152812000Y-95367400D01*
X152812000Y-94167400D02*
X153512000Y-94167400D01*
X127397200Y-41188000D02*
X127397200Y-42188000D01*
X129097200Y-42188000D02*
X129097200Y-41188000D01*
X158916000Y-96020000D02*
X158916000Y-97020000D01*
X160616000Y-97020000D02*
X160616000Y-96020000D01*
X161456000Y-96020000D02*
X161456000Y-97020000D01*
X163156000Y-97020000D02*
X163156000Y-96020000D01*
X156630000Y-96020000D02*
X156630000Y-97020000D01*
X158330000Y-97020000D02*
X158330000Y-96020000D01*
X130430000Y-90030000D02*
X130430000Y-89330000D01*
X131630000Y-89330000D02*
X131630000Y-90030000D01*
X119780000Y-82280000D02*
X120780000Y-82280000D01*
X120780000Y-80580000D02*
X119780000Y-80580000D01*
X146880000Y-97180000D02*
X146880000Y-96180000D01*
X145180000Y-96180000D02*
X145180000Y-97180000D01*
X144880000Y-97180000D02*
X144880000Y-96180000D01*
X143180000Y-96180000D02*
X143180000Y-97180000D01*
X142880000Y-97180000D02*
X142880000Y-96180000D01*
X141180000Y-96180000D02*
X141180000Y-97180000D01*
X187530000Y-63030000D02*
X188530000Y-63030000D01*
X188530000Y-61330000D02*
X187530000Y-61330000D01*
X129097200Y-46688000D02*
X129097200Y-45688000D01*
X127397200Y-45688000D02*
X127397200Y-46688000D01*
X143530000Y-61330000D02*
X142530000Y-61330000D01*
X142530000Y-63030000D02*
X143530000Y-63030000D01*
X143530000Y-63830000D02*
X142530000Y-63830000D01*
X142530000Y-65530000D02*
X143530000Y-65530000D01*
X126597200Y-46688000D02*
X126597200Y-45688000D01*
X124897200Y-45688000D02*
X124897200Y-46688000D01*
X199679000Y-94965000D02*
X199679000Y-94265000D01*
X200879000Y-94265000D02*
X200879000Y-94965000D01*
X197901000Y-94965000D02*
X197901000Y-94265000D01*
X199101000Y-94265000D02*
X199101000Y-94965000D01*
X210789000Y-105756000D02*
X210089000Y-105756000D01*
X210089000Y-104556000D02*
X210789000Y-104556000D01*
X173270800Y-41466400D02*
X172270800Y-41466400D01*
X172270800Y-43166400D02*
X173270800Y-43166400D01*
X144408600Y-40075600D02*
X144408600Y-39375600D01*
X145608600Y-39375600D02*
X145608600Y-40075600D01*
X152009400Y-39286000D02*
X152009400Y-39986000D01*
X150809400Y-39986000D02*
X150809400Y-39286000D01*
X195107000Y-39720000D02*
X195107000Y-39020000D01*
X196307000Y-39020000D02*
X196307000Y-39720000D01*
X214680000Y-85180000D02*
X214680000Y-86180000D01*
X216380000Y-86180000D02*
X216380000Y-85180000D01*
X211530000Y-70830000D02*
X210530000Y-70830000D01*
X210530000Y-72530000D02*
X211530000Y-72530000D01*
X211530000Y-59830000D02*
X210530000Y-59830000D01*
X210530000Y-61530000D02*
X211530000Y-61530000D01*
X211530000Y-48830000D02*
X210530000Y-48830000D01*
X210530000Y-50530000D02*
X211530000Y-50530000D01*
X212680000Y-85180000D02*
X212680000Y-86180000D01*
X214380000Y-86180000D02*
X214380000Y-85180000D01*
X211530000Y-68330000D02*
X210530000Y-68330000D01*
X210530000Y-70030000D02*
X211530000Y-70030000D01*
X211530000Y-57330000D02*
X210530000Y-57330000D01*
X210530000Y-59030000D02*
X211530000Y-59030000D01*
X211530000Y-46330000D02*
X210530000Y-46330000D01*
X210530000Y-48030000D02*
X211530000Y-48030000D01*
X118804800Y-61919200D02*
X123104800Y-61919200D01*
X123104800Y-61919200D02*
X123104800Y-56219200D01*
X118804800Y-61919200D02*
X118804800Y-56219200D01*
X184158000Y-84677000D02*
X183498000Y-84677000D01*
X185818000Y-84677000D02*
X185158000Y-84677000D01*
X185818000Y-84677000D02*
X185818000Y-82647000D01*
X183498000Y-83267000D02*
X183498000Y-84677000D01*
X140430000Y-97330000D02*
X140430000Y-94030000D01*
X140430000Y-94030000D02*
X135030000Y-94030000D01*
X140430000Y-97330000D02*
X135030000Y-97330000D01*
X149880000Y-82390000D02*
X149880000Y-82040000D01*
X149880000Y-82040000D02*
X151380000Y-82040000D01*
X149880000Y-87040000D02*
X149880000Y-83840000D01*
X151380000Y-88840000D02*
X149880000Y-88840000D01*
X149880000Y-88840000D02*
X149880000Y-88440000D01*
X147499800Y-45741200D02*
X147499800Y-43941200D01*
X144279800Y-43941200D02*
X144279800Y-46391200D01*
X123218200Y-63550400D02*
X119758200Y-63550400D01*
X123218200Y-67310400D02*
X119758200Y-67310400D01*
X124157200Y-40778000D02*
X122897200Y-40778000D01*
X117337200Y-40778000D02*
X118597200Y-40778000D01*
X124157200Y-44538000D02*
X124157200Y-40778000D01*
X117337200Y-46788000D02*
X117337200Y-40778000D01*
X154570000Y-90338000D02*
X152770000Y-90338000D01*
X152770000Y-93558000D02*
X155220000Y-93558000D01*
X136657200Y-40778000D02*
X135397200Y-40778000D01*
X129837200Y-40778000D02*
X131097200Y-40778000D01*
X136657200Y-44538000D02*
X136657200Y-40778000D01*
X129837200Y-46788000D02*
X129837200Y-40778000D01*
D11*
X138180000Y-87530000D02*
X138180000Y-88305000D01*
X133880000Y-91830000D02*
X133880000Y-91055000D01*
X138180000Y-91830000D02*
X138180000Y-91055000D01*
X133880000Y-87530000D02*
X134655000Y-87530000D01*
X133880000Y-91830000D02*
X134655000Y-91830000D01*
X138180000Y-91830000D02*
X137405000Y-91830000D01*
X138180000Y-87530000D02*
X137405000Y-87530000D01*
X203405000Y-101305000D02*
X203630000Y-101305000D01*
X203405000Y-94055000D02*
X203705000Y-94055000D01*
X210655000Y-94055000D02*
X210355000Y-94055000D01*
X210655000Y-101305000D02*
X210355000Y-101305000D01*
X203405000Y-101305000D02*
X203405000Y-101005000D01*
X210655000Y-101305000D02*
X210655000Y-101005000D01*
X210655000Y-94055000D02*
X210655000Y-94355000D01*
X203405000Y-94055000D02*
X203405000Y-94355000D01*
X203630000Y-101305000D02*
X203630000Y-102530000D01*
D12*
X149839800Y-38635400D02*
X148909800Y-38635400D01*
X146679800Y-38635400D02*
X147609800Y-38635400D01*
X146679800Y-38635400D02*
X146679800Y-40795400D01*
X149839800Y-38635400D02*
X149839800Y-40095400D01*
D11*
X207411400Y-40165200D02*
X207386400Y-40165200D01*
X207411400Y-44315200D02*
X207306400Y-44315200D01*
X197261400Y-44315200D02*
X197366400Y-44315200D01*
X197261400Y-40165200D02*
X197366400Y-40165200D01*
X207411400Y-40165200D02*
X207411400Y-44315200D01*
X197261400Y-40165200D02*
X197261400Y-44315200D01*
X207386400Y-40165200D02*
X207386400Y-38790200D01*
D12*
X179926600Y-94792800D02*
X179926600Y-92132800D01*
X179926600Y-92132800D02*
X177146600Y-92132800D01*
X177146600Y-92132800D02*
X177146600Y-94792800D01*
X177146600Y-94792800D02*
X179926600Y-94792800D01*
X179926600Y-96062800D02*
X179926600Y-97452800D01*
X179926600Y-97452800D02*
X178536600Y-97452800D01*
X184556400Y-46932200D02*
X189756400Y-46932200D01*
X189756400Y-46932200D02*
X189756400Y-44152200D01*
X189756400Y-44152200D02*
X184556400Y-44152200D01*
X184556400Y-44152200D02*
X184556400Y-46932200D01*
X183286400Y-46932200D02*
X181896400Y-46932200D01*
X181896400Y-46932200D02*
X181896400Y-45542200D01*
X146300000Y-93070000D02*
X148960000Y-93070000D01*
X148960000Y-93070000D02*
X148960000Y-90290000D01*
X148960000Y-90290000D02*
X146300000Y-90290000D01*
X146300000Y-90290000D02*
X146300000Y-93070000D01*
X145030000Y-93070000D02*
X143640000Y-93070000D01*
X143640000Y-93070000D02*
X143640000Y-91680000D01*
D11*
X174618000Y-97656000D02*
X171518000Y-97656000D01*
X174618000Y-87256000D02*
X171518000Y-87256000D01*
X164218000Y-97656000D02*
X167318000Y-97656000D01*
X164218000Y-87256000D02*
X167318000Y-87256000D01*
X174618000Y-87256000D02*
X174618000Y-97656000D01*
X164218000Y-87256000D02*
X164218000Y-97656000D01*
X118830000Y-88480000D02*
X121930000Y-88480000D01*
X118830000Y-98880000D02*
X121930000Y-98880000D01*
X129230000Y-88480000D02*
X126130000Y-88480000D01*
X129230000Y-98880000D02*
X126130000Y-98880000D01*
X118830000Y-98880000D02*
X118830000Y-88480000D01*
X129230000Y-98880000D02*
X129230000Y-88480000D01*
D12*
X183294400Y-86416600D02*
X184294400Y-86416600D01*
X184294400Y-87776600D02*
X183294400Y-87776600D01*
X144280000Y-88610000D02*
X143280000Y-88610000D01*
X143280000Y-87250000D02*
X144280000Y-87250000D01*
X180803000Y-84878800D02*
X180803000Y-83878800D01*
X182163000Y-83878800D02*
X182163000Y-84878800D01*
X161626000Y-87622000D02*
X161626000Y-86622000D01*
X162986000Y-86622000D02*
X162986000Y-87622000D01*
X124030000Y-70860000D02*
X123030000Y-70860000D01*
X123030000Y-69500000D02*
X124030000Y-69500000D01*
X120530000Y-70860000D02*
X119530000Y-70860000D01*
X119530000Y-69500000D02*
X120530000Y-69500000D01*
X197897200Y-92041600D02*
X197897200Y-91041600D01*
X199257200Y-91041600D02*
X199257200Y-92041600D01*
X133210000Y-84680000D02*
X133210000Y-85680000D01*
X131850000Y-85680000D02*
X131850000Y-84680000D01*
X131710000Y-85680000D02*
X131710000Y-86680000D01*
X130350000Y-86680000D02*
X130350000Y-85680000D01*
X141878600Y-86164800D02*
X141878600Y-87164800D01*
X140518600Y-87164800D02*
X140518600Y-86164800D01*
X153662000Y-97200000D02*
X152662000Y-97200000D01*
X152662000Y-95840000D02*
X153662000Y-95840000D01*
X149688000Y-96512000D02*
X149688000Y-95512000D01*
X151048000Y-95512000D02*
X151048000Y-96512000D01*
X135850000Y-84680000D02*
X135850000Y-83680000D01*
X137210000Y-83680000D02*
X137210000Y-84680000D01*
X137350000Y-84680000D02*
X137350000Y-83680000D01*
X138710000Y-83680000D02*
X138710000Y-84680000D01*
X128530000Y-86860000D02*
X127530000Y-86860000D01*
X127530000Y-85500000D02*
X128530000Y-85500000D01*
X128530000Y-84860000D02*
X127530000Y-84860000D01*
X127530000Y-83500000D02*
X128530000Y-83500000D01*
X123650000Y-85780000D02*
X123650000Y-84580000D01*
X125410000Y-84580000D02*
X125410000Y-85780000D01*
X121150000Y-85780000D02*
X121150000Y-84580000D01*
X122910000Y-84580000D02*
X122910000Y-85780000D01*
X165283600Y-66679000D02*
X165283600Y-65679000D01*
X166643600Y-65679000D02*
X166643600Y-66679000D01*
X186647200Y-42246000D02*
X187647200Y-42246000D01*
X187647200Y-43606000D02*
X186647200Y-43606000D01*
X206903000Y-104476000D02*
X207903000Y-104476000D01*
X207903000Y-105836000D02*
X206903000Y-105836000D01*
X201684000Y-103000000D02*
X202684000Y-103000000D01*
X202684000Y-104360000D02*
X201684000Y-104360000D01*
X201684000Y-104500000D02*
X202684000Y-104500000D01*
X202684000Y-105860000D02*
X201684000Y-105860000D01*
X193122000Y-66717800D02*
X193122000Y-65717800D01*
X194482000Y-65717800D02*
X194482000Y-66717800D01*
X200144000Y-99360000D02*
X199144000Y-99360000D01*
X199144000Y-98000000D02*
X200144000Y-98000000D01*
X168726400Y-65692400D02*
X168726400Y-66692400D01*
X167366400Y-66692400D02*
X167366400Y-65692400D01*
X140835000Y-41980400D02*
X139835000Y-41980400D01*
X139835000Y-40620400D02*
X140835000Y-40620400D01*
X206699400Y-90178000D02*
X206699400Y-91178000D01*
X205339400Y-91178000D02*
X205339400Y-90178000D01*
X213030000Y-97500000D02*
X214030000Y-97500000D01*
X214030000Y-98860000D02*
X213030000Y-98860000D01*
X213030000Y-99000000D02*
X214030000Y-99000000D01*
X214030000Y-100360000D02*
X213030000Y-100360000D01*
X212350000Y-94180000D02*
X212350000Y-93180000D01*
X213710000Y-93180000D02*
X213710000Y-94180000D01*
X213850000Y-94180000D02*
X213850000Y-93180000D01*
X215210000Y-93180000D02*
X215210000Y-94180000D01*
X206850000Y-91180000D02*
X206850000Y-90180000D01*
X208210000Y-90180000D02*
X208210000Y-91180000D01*
X208350000Y-91180000D02*
X208350000Y-90180000D01*
X209710000Y-90180000D02*
X209710000Y-91180000D01*
X202350000Y-91180000D02*
X202350000Y-90180000D01*
X203710000Y-90180000D02*
X203710000Y-91180000D01*
X203850000Y-91180000D02*
X203850000Y-90180000D01*
X205210000Y-90180000D02*
X205210000Y-91180000D01*
X214178200Y-102915000D02*
X213178200Y-102915000D01*
X213178200Y-101555000D02*
X214178200Y-101555000D01*
X188850000Y-66680000D02*
X188850000Y-65680000D01*
X190210000Y-65680000D02*
X190210000Y-66680000D01*
X169350000Y-66680000D02*
X169350000Y-65680000D01*
X170710000Y-65680000D02*
X170710000Y-66680000D01*
X190850000Y-66680000D02*
X190850000Y-65680000D01*
X192210000Y-65680000D02*
X192210000Y-66680000D01*
X171350000Y-66680000D02*
X171350000Y-65680000D01*
X172710000Y-65680000D02*
X172710000Y-66680000D01*
X155555400Y-44936600D02*
X155555400Y-43936600D01*
X156915400Y-43936600D02*
X156915400Y-44936600D01*
X148468800Y-44518200D02*
X148468800Y-43518200D01*
X149828800Y-43518200D02*
X149828800Y-44518200D01*
X150704000Y-43451400D02*
X150704000Y-42451400D01*
X152064000Y-42451400D02*
X152064000Y-43451400D01*
X125440000Y-58048000D02*
X125440000Y-59808000D01*
X128510000Y-59808000D02*
X128510000Y-57378000D01*
X192754000Y-83050000D02*
X192754000Y-83710000D01*
X192754000Y-81390000D02*
X192754000Y-82050000D01*
X192754000Y-81390000D02*
X190724000Y-81390000D01*
X191344000Y-83710000D02*
X192754000Y-83710000D01*
X185961400Y-68243200D02*
X185301400Y-68243200D01*
X187621400Y-68243200D02*
X186961400Y-68243200D01*
X187621400Y-68243200D02*
X187621400Y-66213200D01*
X185301400Y-66833200D02*
X185301400Y-68243200D01*
X181186200Y-68268600D02*
X180526200Y-68268600D01*
X182846200Y-68268600D02*
X182186200Y-68268600D01*
X182846200Y-68268600D02*
X182846200Y-66238600D01*
X180526200Y-66858600D02*
X180526200Y-68268600D01*
X153561400Y-44656000D02*
X152901400Y-44656000D01*
X155221400Y-44656000D02*
X154561400Y-44656000D01*
X155221400Y-44656000D02*
X155221400Y-42626000D01*
X152901400Y-43246000D02*
X152901400Y-44656000D01*
X142868400Y-39463600D02*
X142868400Y-40123600D01*
X142868400Y-37803600D02*
X142868400Y-38463600D01*
X142868400Y-37803600D02*
X140838400Y-37803600D01*
X141458400Y-40123600D02*
X142868400Y-40123600D01*
X184760000Y-100290000D02*
X136380000Y-100290000D01*
X136380000Y-100290000D02*
X136380000Y-105610000D01*
X136380000Y-105610000D02*
X187420000Y-105610000D01*
X187420000Y-105610000D02*
X187420000Y-102950000D01*
X187420000Y-102950000D02*
X184760000Y-102950000D01*
X184760000Y-102950000D02*
X184760000Y-100290000D01*
X186030000Y-100290000D02*
X187420000Y-100290000D01*
X187420000Y-100290000D02*
X187420000Y-101680000D01*
X194811000Y-102870000D02*
X194811000Y-84970000D01*
X194811000Y-84970000D02*
X189491000Y-84970000D01*
X189491000Y-84970000D02*
X189491000Y-105530000D01*
X189491000Y-105530000D02*
X192151000Y-105530000D01*
X192151000Y-105530000D02*
X192151000Y-102870000D01*
X192151000Y-102870000D02*
X194811000Y-102870000D01*
X194811000Y-104140000D02*
X194811000Y-105530000D01*
X194811000Y-105530000D02*
X193421000Y-105530000D01*
X117036200Y-66167000D02*
X117036200Y-55887000D01*
X117036200Y-55887000D02*
X114256200Y-55887000D01*
X114256200Y-55887000D02*
X114256200Y-66167000D01*
X114256200Y-66167000D02*
X117036200Y-66167000D01*
X117036200Y-67437000D02*
X117036200Y-68827000D01*
X117036200Y-68827000D02*
X115646200Y-68827000D01*
X117170000Y-102780000D02*
X117170000Y-87420000D01*
X117170000Y-87420000D02*
X114390000Y-87420000D01*
X114390000Y-87420000D02*
X114390000Y-102780000D01*
X114390000Y-102780000D02*
X117170000Y-102780000D01*
X117170000Y-104050000D02*
X117170000Y-105440000D01*
X117170000Y-105440000D02*
X115780000Y-105440000D01*
X200921000Y-84836000D02*
X200921000Y-87496000D01*
X200921000Y-87496000D02*
X203701000Y-87496000D01*
X203701000Y-87496000D02*
X203701000Y-84836000D01*
X203701000Y-84836000D02*
X200921000Y-84836000D01*
X200921000Y-83566000D02*
X200921000Y-82176000D01*
X200921000Y-82176000D02*
X202311000Y-82176000D01*
X197492000Y-84836000D02*
X197492000Y-87496000D01*
X197492000Y-87496000D02*
X200272000Y-87496000D01*
X200272000Y-87496000D02*
X200272000Y-84836000D01*
X200272000Y-84836000D02*
X197492000Y-84836000D01*
X197492000Y-83566000D02*
X197492000Y-82176000D01*
X197492000Y-82176000D02*
X198882000Y-82176000D01*
X116920000Y-83410000D02*
X116920000Y-75670000D01*
X116920000Y-75670000D02*
X114140000Y-75670000D01*
X114140000Y-75670000D02*
X114140000Y-83410000D01*
X114140000Y-83410000D02*
X116920000Y-83410000D01*
X116920000Y-84680000D02*
X116920000Y-86070000D01*
X116920000Y-86070000D02*
X115530000Y-86070000D01*
X173228000Y-40700000D02*
X193608000Y-40700000D01*
X193608000Y-40700000D02*
X193608000Y-38040000D01*
X193608000Y-38040000D02*
X173228000Y-38040000D01*
X173228000Y-38040000D02*
X173228000Y-40700000D01*
X171958000Y-40700000D02*
X170628000Y-40700000D01*
X170628000Y-40700000D02*
X170628000Y-39370000D01*
X216420000Y-80410000D02*
X216420000Y-72670000D01*
X216420000Y-72670000D02*
X213640000Y-72670000D01*
X213640000Y-72670000D02*
X213640000Y-80410000D01*
X213640000Y-80410000D02*
X216420000Y-80410000D01*
X216420000Y-81680000D02*
X216420000Y-83070000D01*
X216420000Y-83070000D02*
X215030000Y-83070000D01*
X216420000Y-68910000D02*
X216420000Y-61170000D01*
X216420000Y-61170000D02*
X213640000Y-61170000D01*
X213640000Y-61170000D02*
X213640000Y-68910000D01*
X213640000Y-68910000D02*
X216420000Y-68910000D01*
X216420000Y-70180000D02*
X216420000Y-71570000D01*
X216420000Y-71570000D02*
X215030000Y-71570000D01*
X216420000Y-57410000D02*
X216420000Y-49670000D01*
X216420000Y-49670000D02*
X213640000Y-49670000D01*
X213640000Y-49670000D02*
X213640000Y-57410000D01*
X213640000Y-57410000D02*
X216420000Y-57410000D01*
X216420000Y-58680000D02*
X216420000Y-60070000D01*
X216420000Y-60070000D02*
X215030000Y-60070000D01*
X216420000Y-45910000D02*
X216420000Y-38170000D01*
X216420000Y-38170000D02*
X213640000Y-38170000D01*
X213640000Y-38170000D02*
X213640000Y-45910000D01*
X213640000Y-45910000D02*
X216420000Y-45910000D01*
X216420000Y-47180000D02*
X216420000Y-48570000D01*
X216420000Y-48570000D02*
X215030000Y-48570000D01*
D10*
X199644000Y-96901000D02*
G75*
G03X199644000Y-96901000I0J0D01*
G01*
X199644000Y-96901000D02*
G75*
G02X199644000Y-96901000I0J0D01*
G01*
D12*
X131180000Y-101180000D02*
X131180000Y-102180000D01*
X132880000Y-102180000D02*
X132880000Y-101180000D01*
X132910000Y-97580000D02*
X132910000Y-98780000D01*
X131150000Y-98780000D02*
X131150000Y-97580000D01*
X140780000Y-93780000D02*
X141780000Y-93780000D01*
X141780000Y-92080000D02*
X140780000Y-92080000D01*
X141331400Y-91178000D02*
X141331400Y-90178000D01*
X142691400Y-90178000D02*
X142691400Y-91178000D01*
D13*
G36*
X182903894Y-95490358D02*
X182936419Y-95502936D01*
X182985993Y-95527912D01*
X183057174Y-95567076D01*
X183062716Y-95570188D01*
X183128274Y-95607676D01*
X183183598Y-95640519D01*
X183223255Y-95665405D01*
X183241812Y-95679020D01*
X183242331Y-95679687D01*
X183237848Y-95698590D01*
X183217286Y-95740805D01*
X183181983Y-95804032D01*
X183133280Y-95885972D01*
X183072518Y-95984322D01*
X183001036Y-96096785D01*
X182983245Y-96124365D01*
X182936893Y-96200899D01*
X182903142Y-96266756D01*
X182884953Y-96315982D01*
X182883086Y-96325707D01*
X182883915Y-96368512D01*
X182893194Y-96436409D01*
X182909768Y-96525043D01*
X182932480Y-96630059D01*
X182960173Y-96747102D01*
X182991690Y-96871816D01*
X183025875Y-96999845D01*
X183061571Y-97126834D01*
X183097621Y-97248428D01*
X183132868Y-97360272D01*
X183166156Y-97458010D01*
X183196328Y-97537287D01*
X183217361Y-97584322D01*
X183242137Y-97634425D01*
X183265530Y-97682368D01*
X183266797Y-97684993D01*
X183305499Y-97733420D01*
X183361984Y-97766028D01*
X183427739Y-97781654D01*
X183494251Y-97779137D01*
X183553005Y-97757314D01*
X183586058Y-97728582D01*
X183633659Y-97649783D01*
X183668539Y-97551578D01*
X183687677Y-97443979D01*
X183690388Y-97382980D01*
X183679470Y-97269135D01*
X183647424Y-97174860D01*
X183592526Y-97095579D01*
X183575407Y-97077933D01*
X183524461Y-97028435D01*
X183520963Y-96678562D01*
X183517464Y-96328689D01*
X183606618Y-96193731D01*
X183648454Y-96132645D01*
X183688745Y-96077693D01*
X183721743Y-96036536D01*
X183735926Y-96021392D01*
X183776081Y-95984010D01*
X183830465Y-96013298D01*
X183864839Y-96034284D01*
X183883646Y-96050578D01*
X183884849Y-96053507D01*
X183897703Y-96065928D01*
X183919696Y-96075177D01*
X183940950Y-96083513D01*
X183973494Y-96099349D01*
X184020122Y-96124233D01*
X184083629Y-96159709D01*
X184166808Y-96207323D01*
X184272453Y-96268622D01*
X184329862Y-96302132D01*
X184397394Y-96342271D01*
X184441685Y-96370859D01*
X184466655Y-96391239D01*
X184476223Y-96406753D01*
X184474308Y-96420746D01*
X184472711Y-96423996D01*
X184457176Y-96444466D01*
X184423936Y-96482865D01*
X184376862Y-96534896D01*
X184319828Y-96596266D01*
X184270500Y-96648290D01*
X184156830Y-96771767D01*
X184067905Y-96878791D01*
X184002934Y-96970440D01*
X183961121Y-97047788D01*
X183947017Y-97087066D01*
X183941192Y-97121449D01*
X183935175Y-97180099D01*
X183929496Y-97256317D01*
X183924684Y-97343402D01*
X183922419Y-97398468D01*
X183919259Y-97493664D01*
X183917869Y-97563262D01*
X183918658Y-97612609D01*
X183922035Y-97647054D01*
X183928408Y-97671943D01*
X183938187Y-97692625D01*
X183945867Y-97705253D01*
X183990221Y-97753926D01*
X184047374Y-97787845D01*
X184107508Y-97802638D01*
X184152573Y-97797286D01*
X184193376Y-97774130D01*
X184244524Y-97732662D01*
X184298842Y-97680112D01*
X184349157Y-97623716D01*
X184388294Y-97570705D01*
X184402705Y-97545089D01*
X184424291Y-97510014D01*
X184463553Y-97456589D01*
X184516902Y-97388989D01*
X184580752Y-97311390D01*
X184651515Y-97227968D01*
X184725604Y-97142898D01*
X184799432Y-97060355D01*
X184869411Y-96984516D01*
X184931955Y-96919556D01*
X184981060Y-96871869D01*
X185035579Y-96824232D01*
X185081442Y-96789108D01*
X185113611Y-96770149D01*
X185124289Y-96768064D01*
X185140653Y-96776474D01*
X185181471Y-96799046D01*
X185244386Y-96834424D01*
X185327044Y-96881254D01*
X185427089Y-96938181D01*
X185542166Y-97003849D01*
X185669919Y-97076903D01*
X185807994Y-97155988D01*
X185954034Y-97239748D01*
X186105684Y-97326829D01*
X186260590Y-97415876D01*
X186416395Y-97505532D01*
X186570744Y-97594443D01*
X186721282Y-97681254D01*
X186865654Y-97764609D01*
X187001504Y-97843154D01*
X187126477Y-97915533D01*
X187238217Y-97980390D01*
X187334370Y-98036371D01*
X187412579Y-98082120D01*
X187470489Y-98116283D01*
X187505746Y-98137504D01*
X187515965Y-98144163D01*
X187502202Y-98145480D01*
X187458904Y-98146759D01*
X187387514Y-98147996D01*
X187289473Y-98149183D01*
X187166222Y-98150315D01*
X187019203Y-98151386D01*
X186849857Y-98152389D01*
X186659626Y-98153319D01*
X186449951Y-98154168D01*
X186222273Y-98154932D01*
X185978035Y-98155603D01*
X185718677Y-98156176D01*
X185445641Y-98156644D01*
X185160368Y-98157002D01*
X184864300Y-98157242D01*
X184558879Y-98157359D01*
X184430724Y-98157371D01*
X181330770Y-98157371D01*
X181551853Y-97774047D01*
X181598656Y-97692880D01*
X181658902Y-97588366D01*
X181730578Y-97464001D01*
X181811669Y-97323282D01*
X181900162Y-97169703D01*
X181994040Y-97006762D01*
X182091291Y-96837954D01*
X182189900Y-96666775D01*
X182287853Y-96496721D01*
X182312625Y-96453712D01*
X182402952Y-96297057D01*
X182489089Y-96148003D01*
X182569742Y-96008768D01*
X182643616Y-95881571D01*
X182709417Y-95768632D01*
X182765850Y-95672168D01*
X182811621Y-95594400D01*
X182845435Y-95537546D01*
X182865998Y-95503825D01*
X182871753Y-95495240D01*
X182883858Y-95488389D01*
X182903894Y-95490358D01*
X182903894Y-95490358D01*
G37*
X182903894Y-95490358D02*
X182936419Y-95502936D01*
X182985993Y-95527912D01*
X183057174Y-95567076D01*
X183062716Y-95570188D01*
X183128274Y-95607676D01*
X183183598Y-95640519D01*
X183223255Y-95665405D01*
X183241812Y-95679020D01*
X183242331Y-95679687D01*
X183237848Y-95698590D01*
X183217286Y-95740805D01*
X183181983Y-95804032D01*
X183133280Y-95885972D01*
X183072518Y-95984322D01*
X183001036Y-96096785D01*
X182983245Y-96124365D01*
X182936893Y-96200899D01*
X182903142Y-96266756D01*
X182884953Y-96315982D01*
X182883086Y-96325707D01*
X182883915Y-96368512D01*
X182893194Y-96436409D01*
X182909768Y-96525043D01*
X182932480Y-96630059D01*
X182960173Y-96747102D01*
X182991690Y-96871816D01*
X183025875Y-96999845D01*
X183061571Y-97126834D01*
X183097621Y-97248428D01*
X183132868Y-97360272D01*
X183166156Y-97458010D01*
X183196328Y-97537287D01*
X183217361Y-97584322D01*
X183242137Y-97634425D01*
X183265530Y-97682368D01*
X183266797Y-97684993D01*
X183305499Y-97733420D01*
X183361984Y-97766028D01*
X183427739Y-97781654D01*
X183494251Y-97779137D01*
X183553005Y-97757314D01*
X183586058Y-97728582D01*
X183633659Y-97649783D01*
X183668539Y-97551578D01*
X183687677Y-97443979D01*
X183690388Y-97382980D01*
X183679470Y-97269135D01*
X183647424Y-97174860D01*
X183592526Y-97095579D01*
X183575407Y-97077933D01*
X183524461Y-97028435D01*
X183520963Y-96678562D01*
X183517464Y-96328689D01*
X183606618Y-96193731D01*
X183648454Y-96132645D01*
X183688745Y-96077693D01*
X183721743Y-96036536D01*
X183735926Y-96021392D01*
X183776081Y-95984010D01*
X183830465Y-96013298D01*
X183864839Y-96034284D01*
X183883646Y-96050578D01*
X183884849Y-96053507D01*
X183897703Y-96065928D01*
X183919696Y-96075177D01*
X183940950Y-96083513D01*
X183973494Y-96099349D01*
X184020122Y-96124233D01*
X184083629Y-96159709D01*
X184166808Y-96207323D01*
X184272453Y-96268622D01*
X184329862Y-96302132D01*
X184397394Y-96342271D01*
X184441685Y-96370859D01*
X184466655Y-96391239D01*
X184476223Y-96406753D01*
X184474308Y-96420746D01*
X184472711Y-96423996D01*
X184457176Y-96444466D01*
X184423936Y-96482865D01*
X184376862Y-96534896D01*
X184319828Y-96596266D01*
X184270500Y-96648290D01*
X184156830Y-96771767D01*
X184067905Y-96878791D01*
X184002934Y-96970440D01*
X183961121Y-97047788D01*
X183947017Y-97087066D01*
X183941192Y-97121449D01*
X183935175Y-97180099D01*
X183929496Y-97256317D01*
X183924684Y-97343402D01*
X183922419Y-97398468D01*
X183919259Y-97493664D01*
X183917869Y-97563262D01*
X183918658Y-97612609D01*
X183922035Y-97647054D01*
X183928408Y-97671943D01*
X183938187Y-97692625D01*
X183945867Y-97705253D01*
X183990221Y-97753926D01*
X184047374Y-97787845D01*
X184107508Y-97802638D01*
X184152573Y-97797286D01*
X184193376Y-97774130D01*
X184244524Y-97732662D01*
X184298842Y-97680112D01*
X184349157Y-97623716D01*
X184388294Y-97570705D01*
X184402705Y-97545089D01*
X184424291Y-97510014D01*
X184463553Y-97456589D01*
X184516902Y-97388989D01*
X184580752Y-97311390D01*
X184651515Y-97227968D01*
X184725604Y-97142898D01*
X184799432Y-97060355D01*
X184869411Y-96984516D01*
X184931955Y-96919556D01*
X184981060Y-96871869D01*
X185035579Y-96824232D01*
X185081442Y-96789108D01*
X185113611Y-96770149D01*
X185124289Y-96768064D01*
X185140653Y-96776474D01*
X185181471Y-96799046D01*
X185244386Y-96834424D01*
X185327044Y-96881254D01*
X185427089Y-96938181D01*
X185542166Y-97003849D01*
X185669919Y-97076903D01*
X185807994Y-97155988D01*
X185954034Y-97239748D01*
X186105684Y-97326829D01*
X186260590Y-97415876D01*
X186416395Y-97505532D01*
X186570744Y-97594443D01*
X186721282Y-97681254D01*
X186865654Y-97764609D01*
X187001504Y-97843154D01*
X187126477Y-97915533D01*
X187238217Y-97980390D01*
X187334370Y-98036371D01*
X187412579Y-98082120D01*
X187470489Y-98116283D01*
X187505746Y-98137504D01*
X187515965Y-98144163D01*
X187502202Y-98145480D01*
X187458904Y-98146759D01*
X187387514Y-98147996D01*
X187289473Y-98149183D01*
X187166222Y-98150315D01*
X187019203Y-98151386D01*
X186849857Y-98152389D01*
X186659626Y-98153319D01*
X186449951Y-98154168D01*
X186222273Y-98154932D01*
X185978035Y-98155603D01*
X185718677Y-98156176D01*
X185445641Y-98156644D01*
X185160368Y-98157002D01*
X184864300Y-98157242D01*
X184558879Y-98157359D01*
X184430724Y-98157371D01*
X181330770Y-98157371D01*
X181551853Y-97774047D01*
X181598656Y-97692880D01*
X181658902Y-97588366D01*
X181730578Y-97464001D01*
X181811669Y-97323282D01*
X181900162Y-97169703D01*
X181994040Y-97006762D01*
X182091291Y-96837954D01*
X182189900Y-96666775D01*
X182287853Y-96496721D01*
X182312625Y-96453712D01*
X182402952Y-96297057D01*
X182489089Y-96148003D01*
X182569742Y-96008768D01*
X182643616Y-95881571D01*
X182709417Y-95768632D01*
X182765850Y-95672168D01*
X182811621Y-95594400D01*
X182845435Y-95537546D01*
X182865998Y-95503825D01*
X182871753Y-95495240D01*
X182883858Y-95488389D01*
X182903894Y-95490358D01*
G36*
X186569328Y-95433819D02*
X186580708Y-95452893D01*
X186606288Y-95496621D01*
X186644802Y-95562819D01*
X186694986Y-95649302D01*
X186755575Y-95753885D01*
X186825303Y-95874383D01*
X186902907Y-96008612D01*
X186987120Y-96154387D01*
X187076679Y-96309523D01*
X187168798Y-96469200D01*
X187262876Y-96632317D01*
X187353202Y-96788909D01*
X187438465Y-96936706D01*
X187517357Y-97073440D01*
X187588569Y-97196842D01*
X187650791Y-97304644D01*
X187702713Y-97394577D01*
X187743028Y-97464373D01*
X187770424Y-97511764D01*
X187783307Y-97533986D01*
X187804307Y-97571530D01*
X187815725Y-97595031D01*
X187816351Y-97599120D01*
X187802436Y-97591442D01*
X187763741Y-97569403D01*
X187702287Y-97534171D01*
X187620098Y-97486911D01*
X187519196Y-97428789D01*
X187401605Y-97360971D01*
X187269346Y-97284624D01*
X187124442Y-97200914D01*
X186968917Y-97111006D01*
X186804792Y-97016067D01*
X186742349Y-96979932D01*
X186575287Y-96883283D01*
X186415874Y-96791138D01*
X186266155Y-96704675D01*
X186128176Y-96625071D01*
X186003985Y-96553505D01*
X185895627Y-96491155D01*
X185805148Y-96439198D01*
X185734596Y-96398813D01*
X185686015Y-96371178D01*
X185661454Y-96357472D01*
X185658885Y-96356174D01*
X185666369Y-96344420D01*
X185692414Y-96312995D01*
X185734359Y-96264794D01*
X185789546Y-96202710D01*
X185855317Y-96129639D01*
X185929012Y-96048476D01*
X186007973Y-95962116D01*
X186089540Y-95873453D01*
X186171054Y-95785382D01*
X186249857Y-95700799D01*
X186323290Y-95622597D01*
X186388693Y-95553672D01*
X186443408Y-95496919D01*
X186484777Y-95455232D01*
X186498964Y-95441563D01*
X186545980Y-95397401D01*
X186569328Y-95433819D01*
X186569328Y-95433819D01*
G37*
X186569328Y-95433819D02*
X186580708Y-95452893D01*
X186606288Y-95496621D01*
X186644802Y-95562819D01*
X186694986Y-95649302D01*
X186755575Y-95753885D01*
X186825303Y-95874383D01*
X186902907Y-96008612D01*
X186987120Y-96154387D01*
X187076679Y-96309523D01*
X187168798Y-96469200D01*
X187262876Y-96632317D01*
X187353202Y-96788909D01*
X187438465Y-96936706D01*
X187517357Y-97073440D01*
X187588569Y-97196842D01*
X187650791Y-97304644D01*
X187702713Y-97394577D01*
X187743028Y-97464373D01*
X187770424Y-97511764D01*
X187783307Y-97533986D01*
X187804307Y-97571530D01*
X187815725Y-97595031D01*
X187816351Y-97599120D01*
X187802436Y-97591442D01*
X187763741Y-97569403D01*
X187702287Y-97534171D01*
X187620098Y-97486911D01*
X187519196Y-97428789D01*
X187401605Y-97360971D01*
X187269346Y-97284624D01*
X187124442Y-97200914D01*
X186968917Y-97111006D01*
X186804792Y-97016067D01*
X186742349Y-96979932D01*
X186575287Y-96883283D01*
X186415874Y-96791138D01*
X186266155Y-96704675D01*
X186128176Y-96625071D01*
X186003985Y-96553505D01*
X185895627Y-96491155D01*
X185805148Y-96439198D01*
X185734596Y-96398813D01*
X185686015Y-96371178D01*
X185661454Y-96357472D01*
X185658885Y-96356174D01*
X185666369Y-96344420D01*
X185692414Y-96312995D01*
X185734359Y-96264794D01*
X185789546Y-96202710D01*
X185855317Y-96129639D01*
X185929012Y-96048476D01*
X186007973Y-95962116D01*
X186089540Y-95873453D01*
X186171054Y-95785382D01*
X186249857Y-95700799D01*
X186323290Y-95622597D01*
X186388693Y-95553672D01*
X186443408Y-95496919D01*
X186484777Y-95455232D01*
X186498964Y-95441563D01*
X186545980Y-95397401D01*
X186569328Y-95433819D01*
G36*
X184745843Y-92285035D02*
X184768865Y-92322445D01*
X184804334Y-92381714D01*
X184850796Y-92460318D01*
X184906796Y-92555738D01*
X184970881Y-92665450D01*
X185041596Y-92786934D01*
X185117487Y-92917668D01*
X185197099Y-93055130D01*
X185278978Y-93196798D01*
X185361670Y-93340151D01*
X185443721Y-93482667D01*
X185523676Y-93621824D01*
X185600081Y-93755101D01*
X185671482Y-93879976D01*
X185736424Y-93993927D01*
X185793453Y-94094433D01*
X185841115Y-94178972D01*
X185877955Y-94245022D01*
X185902520Y-94290062D01*
X185913354Y-94311570D01*
X185913751Y-94312914D01*
X185900301Y-94331165D01*
X185862914Y-94359082D01*
X185806035Y-94393925D01*
X185734112Y-94432954D01*
X185658815Y-94470043D01*
X185556360Y-94515017D01*
X185448617Y-94555426D01*
X185331873Y-94592169D01*
X185202418Y-94626142D01*
X185056540Y-94658244D01*
X184890526Y-94689373D01*
X184700666Y-94720427D01*
X184504269Y-94749345D01*
X184333634Y-94775000D01*
X184190345Y-94800398D01*
X184070808Y-94826802D01*
X183971430Y-94855473D01*
X183888618Y-94887673D01*
X183818778Y-94924665D01*
X183758318Y-94967712D01*
X183703645Y-95018075D01*
X183686014Y-95036783D01*
X183647800Y-95080339D01*
X183619532Y-95115882D01*
X183606418Y-95136783D01*
X183606068Y-95138497D01*
X183601480Y-95149006D01*
X183585558Y-95149124D01*
X183555066Y-95137454D01*
X183506768Y-95112596D01*
X183437427Y-95073152D01*
X183389239Y-95044787D01*
X183317383Y-95000447D01*
X183261542Y-94962479D01*
X183225467Y-94933616D01*
X183212913Y-94916588D01*
X183212921Y-94916464D01*
X183220706Y-94900237D01*
X183242692Y-94859600D01*
X183277603Y-94796767D01*
X183324163Y-94713952D01*
X183381095Y-94613372D01*
X183447123Y-94497240D01*
X183520972Y-94367771D01*
X183601364Y-94227180D01*
X183687024Y-94077682D01*
X183776676Y-93921492D01*
X183869043Y-93760824D01*
X183962849Y-93597893D01*
X184056818Y-93434913D01*
X184149674Y-93274100D01*
X184240140Y-93117668D01*
X184326941Y-92967833D01*
X184408800Y-92826808D01*
X184484441Y-92696809D01*
X184552587Y-92580049D01*
X184611963Y-92478745D01*
X184661293Y-92395111D01*
X184699300Y-92331362D01*
X184724707Y-92289711D01*
X184736240Y-92272375D01*
X184736723Y-92272005D01*
X184745843Y-92285035D01*
X184745843Y-92285035D01*
G37*
X184745843Y-92285035D02*
X184768865Y-92322445D01*
X184804334Y-92381714D01*
X184850796Y-92460318D01*
X184906796Y-92555738D01*
X184970881Y-92665450D01*
X185041596Y-92786934D01*
X185117487Y-92917668D01*
X185197099Y-93055130D01*
X185278978Y-93196798D01*
X185361670Y-93340151D01*
X185443721Y-93482667D01*
X185523676Y-93621824D01*
X185600081Y-93755101D01*
X185671482Y-93879976D01*
X185736424Y-93993927D01*
X185793453Y-94094433D01*
X185841115Y-94178972D01*
X185877955Y-94245022D01*
X185902520Y-94290062D01*
X185913354Y-94311570D01*
X185913751Y-94312914D01*
X185900301Y-94331165D01*
X185862914Y-94359082D01*
X185806035Y-94393925D01*
X185734112Y-94432954D01*
X185658815Y-94470043D01*
X185556360Y-94515017D01*
X185448617Y-94555426D01*
X185331873Y-94592169D01*
X185202418Y-94626142D01*
X185056540Y-94658244D01*
X184890526Y-94689373D01*
X184700666Y-94720427D01*
X184504269Y-94749345D01*
X184333634Y-94775000D01*
X184190345Y-94800398D01*
X184070808Y-94826802D01*
X183971430Y-94855473D01*
X183888618Y-94887673D01*
X183818778Y-94924665D01*
X183758318Y-94967712D01*
X183703645Y-95018075D01*
X183686014Y-95036783D01*
X183647800Y-95080339D01*
X183619532Y-95115882D01*
X183606418Y-95136783D01*
X183606068Y-95138497D01*
X183601480Y-95149006D01*
X183585558Y-95149124D01*
X183555066Y-95137454D01*
X183506768Y-95112596D01*
X183437427Y-95073152D01*
X183389239Y-95044787D01*
X183317383Y-95000447D01*
X183261542Y-94962479D01*
X183225467Y-94933616D01*
X183212913Y-94916588D01*
X183212921Y-94916464D01*
X183220706Y-94900237D01*
X183242692Y-94859600D01*
X183277603Y-94796767D01*
X183324163Y-94713952D01*
X183381095Y-94613372D01*
X183447123Y-94497240D01*
X183520972Y-94367771D01*
X183601364Y-94227180D01*
X183687024Y-94077682D01*
X183776676Y-93921492D01*
X183869043Y-93760824D01*
X183962849Y-93597893D01*
X184056818Y-93434913D01*
X184149674Y-93274100D01*
X184240140Y-93117668D01*
X184326941Y-92967833D01*
X184408800Y-92826808D01*
X184484441Y-92696809D01*
X184552587Y-92580049D01*
X184611963Y-92478745D01*
X184661293Y-92395111D01*
X184699300Y-92331362D01*
X184724707Y-92289711D01*
X184736240Y-92272375D01*
X184736723Y-92272005D01*
X184745843Y-92285035D01*
D11*
X133030000Y-64080000D02*
X133030000Y-59680000D01*
X133030000Y-59680000D02*
X134230000Y-59680000D01*
X134230000Y-69280000D02*
X134230000Y-79880000D01*
X199830000Y-69280000D02*
X199830000Y-79880000D01*
X199830000Y-59680000D02*
X201030000Y-59680000D01*
X201030000Y-59680000D02*
X201030000Y-64080000D01*
X134230000Y-49680000D02*
X131430000Y-49680000D01*
X131430000Y-49680000D02*
X131430000Y-61080000D01*
X131430000Y-61080000D02*
X131030000Y-61480000D01*
X131030000Y-61480000D02*
X131030000Y-72880000D01*
X131030000Y-72880000D02*
X129430000Y-78680000D01*
X129430000Y-78680000D02*
X129430000Y-79880000D01*
X129430000Y-79880000D02*
X134230000Y-79880000D01*
X199830000Y-49680000D02*
X202630000Y-49680000D01*
X202630000Y-49680000D02*
X202630000Y-61080000D01*
X202630000Y-61080000D02*
X203030000Y-61480000D01*
X203030000Y-61480000D02*
X203030000Y-73080000D01*
X203030000Y-73080000D02*
X204630000Y-78680000D01*
X204630000Y-78680000D02*
X204630000Y-79880000D01*
X204630000Y-79880000D02*
X199830000Y-79880000D01*
X198230000Y-49080000D02*
X199230000Y-49080000D01*
X199230000Y-49080000D02*
X199230000Y-50880000D01*
X164547744Y-43030857D02*
X165347744Y-44230857D01*
X165347744Y-43030857D02*
X164547744Y-44230857D01*
X166433458Y-44230857D02*
X165747743Y-44230857D01*
X166090601Y-44230857D02*
X166090601Y-43030857D01*
X165976315Y-43202286D01*
X165862029Y-43316571D01*
X165747743Y-43373714D01*
X167176315Y-43030857D02*
X167290600Y-43030857D01*
X167404886Y-43088000D01*
X167462029Y-43145143D01*
X167519172Y-43259429D01*
X167576315Y-43488000D01*
X167576315Y-43773714D01*
X167519172Y-44002286D01*
X167462029Y-44116571D01*
X167404886Y-44173714D01*
X167290600Y-44230857D01*
X167176315Y-44230857D01*
X167062029Y-44173714D01*
X167004886Y-44116571D01*
X166947743Y-44002286D01*
X166890600Y-43773714D01*
X166890600Y-43488000D01*
X166947743Y-43259429D01*
X167004886Y-43145143D01*
X167062029Y-43088000D01*
X167176315Y-43030857D01*
X162764743Y-89879466D02*
X162812362Y-89927085D01*
X162859981Y-90069942D01*
X162859981Y-90165180D01*
X162812362Y-90308038D01*
X162717124Y-90403276D01*
X162621886Y-90450895D01*
X162431410Y-90498514D01*
X162288552Y-90498514D01*
X162098076Y-90450895D01*
X162002838Y-90403276D01*
X161907600Y-90308038D01*
X161859981Y-90165180D01*
X161859981Y-90069942D01*
X161907600Y-89927085D01*
X161955219Y-89879466D01*
X162859981Y-88927085D02*
X162859981Y-89498514D01*
X162859981Y-89212800D02*
X161859981Y-89212800D01*
X162002838Y-89308038D01*
X162098076Y-89403276D01*
X162145695Y-89498514D01*
X124267934Y-52477943D02*
X124220315Y-52525562D01*
X124077458Y-52573181D01*
X123982220Y-52573181D01*
X123839362Y-52525562D01*
X123744124Y-52430324D01*
X123696505Y-52335086D01*
X123648886Y-52144610D01*
X123648886Y-52001752D01*
X123696505Y-51811276D01*
X123744124Y-51716038D01*
X123839362Y-51620800D01*
X123982220Y-51573181D01*
X124077458Y-51573181D01*
X124220315Y-51620800D01*
X124267934Y-51668419D01*
X124648886Y-51668419D02*
X124696505Y-51620800D01*
X124791743Y-51573181D01*
X125029839Y-51573181D01*
X125125077Y-51620800D01*
X125172696Y-51668419D01*
X125220315Y-51763657D01*
X125220315Y-51858895D01*
X125172696Y-52001752D01*
X124601267Y-52573181D01*
X125220315Y-52573181D01*
X160199343Y-89752466D02*
X160246962Y-89800085D01*
X160294581Y-89942942D01*
X160294581Y-90038180D01*
X160246962Y-90181038D01*
X160151724Y-90276276D01*
X160056486Y-90323895D01*
X159866010Y-90371514D01*
X159723152Y-90371514D01*
X159532676Y-90323895D01*
X159437438Y-90276276D01*
X159342200Y-90181038D01*
X159294581Y-90038180D01*
X159294581Y-89942942D01*
X159342200Y-89800085D01*
X159389819Y-89752466D01*
X159294581Y-89419133D02*
X159294581Y-88800085D01*
X159675533Y-89133419D01*
X159675533Y-88990561D01*
X159723152Y-88895323D01*
X159770771Y-88847704D01*
X159866010Y-88800085D01*
X160104105Y-88800085D01*
X160199343Y-88847704D01*
X160246962Y-88895323D01*
X160294581Y-88990561D01*
X160294581Y-89276276D01*
X160246962Y-89371514D01*
X160199343Y-89419133D01*
X156795743Y-90895466D02*
X156843362Y-90943085D01*
X156890981Y-91085942D01*
X156890981Y-91181180D01*
X156843362Y-91324038D01*
X156748124Y-91419276D01*
X156652886Y-91466895D01*
X156462410Y-91514514D01*
X156319552Y-91514514D01*
X156129076Y-91466895D01*
X156033838Y-91419276D01*
X155938600Y-91324038D01*
X155890981Y-91181180D01*
X155890981Y-91085942D01*
X155938600Y-90943085D01*
X155986219Y-90895466D01*
X156224314Y-90038323D02*
X156890981Y-90038323D01*
X155843362Y-90276419D02*
X156557648Y-90514514D01*
X156557648Y-89895466D01*
X125858543Y-38774666D02*
X125906162Y-38822285D01*
X125953781Y-38965142D01*
X125953781Y-39060380D01*
X125906162Y-39203238D01*
X125810924Y-39298476D01*
X125715686Y-39346095D01*
X125525210Y-39393714D01*
X125382352Y-39393714D01*
X125191876Y-39346095D01*
X125096638Y-39298476D01*
X125001400Y-39203238D01*
X124953781Y-39060380D01*
X124953781Y-38965142D01*
X125001400Y-38822285D01*
X125049019Y-38774666D01*
X124953781Y-37869904D02*
X124953781Y-38346095D01*
X125429971Y-38393714D01*
X125382352Y-38346095D01*
X125334733Y-38250857D01*
X125334733Y-38012761D01*
X125382352Y-37917523D01*
X125429971Y-37869904D01*
X125525210Y-37822285D01*
X125763305Y-37822285D01*
X125858543Y-37869904D01*
X125906162Y-37917523D01*
X125953781Y-38012761D01*
X125953781Y-38250857D01*
X125906162Y-38346095D01*
X125858543Y-38393714D01*
X150023534Y-89968343D02*
X149975915Y-90015962D01*
X149833058Y-90063581D01*
X149737820Y-90063581D01*
X149594962Y-90015962D01*
X149499724Y-89920724D01*
X149452105Y-89825486D01*
X149404486Y-89635010D01*
X149404486Y-89492152D01*
X149452105Y-89301676D01*
X149499724Y-89206438D01*
X149594962Y-89111200D01*
X149737820Y-89063581D01*
X149833058Y-89063581D01*
X149975915Y-89111200D01*
X150023534Y-89158819D01*
X150880677Y-89063581D02*
X150690200Y-89063581D01*
X150594962Y-89111200D01*
X150547343Y-89158819D01*
X150452105Y-89301676D01*
X150404486Y-89492152D01*
X150404486Y-89873105D01*
X150452105Y-89968343D01*
X150499724Y-90015962D01*
X150594962Y-90063581D01*
X150785439Y-90063581D01*
X150880677Y-90015962D01*
X150928296Y-89968343D01*
X150975915Y-89873105D01*
X150975915Y-89635010D01*
X150928296Y-89539771D01*
X150880677Y-89492152D01*
X150785439Y-89444533D01*
X150594962Y-89444533D01*
X150499724Y-89492152D01*
X150452105Y-89539771D01*
X150404486Y-89635010D01*
X124293334Y-81205343D02*
X124245715Y-81252962D01*
X124102858Y-81300581D01*
X124007620Y-81300581D01*
X123864762Y-81252962D01*
X123769524Y-81157724D01*
X123721905Y-81062486D01*
X123674286Y-80872010D01*
X123674286Y-80729152D01*
X123721905Y-80538676D01*
X123769524Y-80443438D01*
X123864762Y-80348200D01*
X124007620Y-80300581D01*
X124102858Y-80300581D01*
X124245715Y-80348200D01*
X124293334Y-80395819D01*
X124626667Y-80300581D02*
X125293334Y-80300581D01*
X124864762Y-81300581D01*
X138720534Y-47373943D02*
X138672915Y-47421562D01*
X138530058Y-47469181D01*
X138434820Y-47469181D01*
X138291962Y-47421562D01*
X138196724Y-47326324D01*
X138149105Y-47231086D01*
X138101486Y-47040610D01*
X138101486Y-46897752D01*
X138149105Y-46707276D01*
X138196724Y-46612038D01*
X138291962Y-46516800D01*
X138434820Y-46469181D01*
X138530058Y-46469181D01*
X138672915Y-46516800D01*
X138720534Y-46564419D01*
X139291962Y-46897752D02*
X139196724Y-46850133D01*
X139149105Y-46802514D01*
X139101486Y-46707276D01*
X139101486Y-46659657D01*
X139149105Y-46564419D01*
X139196724Y-46516800D01*
X139291962Y-46469181D01*
X139482439Y-46469181D01*
X139577677Y-46516800D01*
X139625296Y-46564419D01*
X139672915Y-46659657D01*
X139672915Y-46707276D01*
X139625296Y-46802514D01*
X139577677Y-46850133D01*
X139482439Y-46897752D01*
X139291962Y-46897752D01*
X139196724Y-46945371D01*
X139149105Y-46992990D01*
X139101486Y-47088229D01*
X139101486Y-47278705D01*
X139149105Y-47373943D01*
X139196724Y-47421562D01*
X139291962Y-47469181D01*
X139482439Y-47469181D01*
X139577677Y-47421562D01*
X139625296Y-47373943D01*
X139672915Y-47278705D01*
X139672915Y-47088229D01*
X139625296Y-46992990D01*
X139577677Y-46945371D01*
X139482439Y-46897752D01*
X150607734Y-94362543D02*
X150560115Y-94410162D01*
X150417258Y-94457781D01*
X150322020Y-94457781D01*
X150179162Y-94410162D01*
X150083924Y-94314924D01*
X150036305Y-94219686D01*
X149988686Y-94029210D01*
X149988686Y-93886352D01*
X150036305Y-93695876D01*
X150083924Y-93600638D01*
X150179162Y-93505400D01*
X150322020Y-93457781D01*
X150417258Y-93457781D01*
X150560115Y-93505400D01*
X150607734Y-93553019D01*
X151083924Y-94457781D02*
X151274400Y-94457781D01*
X151369639Y-94410162D01*
X151417258Y-94362543D01*
X151512496Y-94219686D01*
X151560115Y-94029210D01*
X151560115Y-93648257D01*
X151512496Y-93553019D01*
X151464877Y-93505400D01*
X151369639Y-93457781D01*
X151179162Y-93457781D01*
X151083924Y-93505400D01*
X151036305Y-93553019D01*
X150988686Y-93648257D01*
X150988686Y-93886352D01*
X151036305Y-93981590D01*
X151083924Y-94029210D01*
X151179162Y-94076829D01*
X151369639Y-94076829D01*
X151464877Y-94029210D01*
X151512496Y-93981590D01*
X151560115Y-93886352D01*
X128703343Y-38996857D02*
X128750962Y-39044476D01*
X128798581Y-39187333D01*
X128798581Y-39282571D01*
X128750962Y-39425429D01*
X128655724Y-39520667D01*
X128560486Y-39568286D01*
X128370010Y-39615905D01*
X128227152Y-39615905D01*
X128036676Y-39568286D01*
X127941438Y-39520667D01*
X127846200Y-39425429D01*
X127798581Y-39282571D01*
X127798581Y-39187333D01*
X127846200Y-39044476D01*
X127893819Y-38996857D01*
X128798581Y-38044476D02*
X128798581Y-38615905D01*
X128798581Y-38330191D02*
X127798581Y-38330191D01*
X127941438Y-38425429D01*
X128036676Y-38520667D01*
X128084295Y-38615905D01*
X127798581Y-37425429D02*
X127798581Y-37330190D01*
X127846200Y-37234952D01*
X127893819Y-37187333D01*
X127989057Y-37139714D01*
X128179533Y-37092095D01*
X128417629Y-37092095D01*
X128608105Y-37139714D01*
X128703343Y-37187333D01*
X128750962Y-37234952D01*
X128798581Y-37330190D01*
X128798581Y-37425429D01*
X128750962Y-37520667D01*
X128703343Y-37568286D01*
X128608105Y-37615905D01*
X128417629Y-37663524D01*
X128179533Y-37663524D01*
X127989057Y-37615905D01*
X127893819Y-37568286D01*
X127846200Y-37520667D01*
X127798581Y-37425429D01*
X159021543Y-99518743D02*
X158973924Y-99566362D01*
X158831067Y-99613981D01*
X158735829Y-99613981D01*
X158592971Y-99566362D01*
X158497733Y-99471124D01*
X158450114Y-99375886D01*
X158402495Y-99185410D01*
X158402495Y-99042552D01*
X158450114Y-98852076D01*
X158497733Y-98756838D01*
X158592971Y-98661600D01*
X158735829Y-98613981D01*
X158831067Y-98613981D01*
X158973924Y-98661600D01*
X159021543Y-98709219D01*
X159973924Y-99613981D02*
X159402495Y-99613981D01*
X159688209Y-99613981D02*
X159688209Y-98613981D01*
X159592971Y-98756838D01*
X159497733Y-98852076D01*
X159402495Y-98899695D01*
X160926305Y-99613981D02*
X160354876Y-99613981D01*
X160640590Y-99613981D02*
X160640590Y-98613981D01*
X160545352Y-98756838D01*
X160450114Y-98852076D01*
X160354876Y-98899695D01*
X161942543Y-99467943D02*
X161894924Y-99515562D01*
X161752067Y-99563181D01*
X161656829Y-99563181D01*
X161513971Y-99515562D01*
X161418733Y-99420324D01*
X161371114Y-99325086D01*
X161323495Y-99134610D01*
X161323495Y-98991752D01*
X161371114Y-98801276D01*
X161418733Y-98706038D01*
X161513971Y-98610800D01*
X161656829Y-98563181D01*
X161752067Y-98563181D01*
X161894924Y-98610800D01*
X161942543Y-98658419D01*
X162894924Y-99563181D02*
X162323495Y-99563181D01*
X162609209Y-99563181D02*
X162609209Y-98563181D01*
X162513971Y-98706038D01*
X162418733Y-98801276D01*
X162323495Y-98848895D01*
X163275876Y-98658419D02*
X163323495Y-98610800D01*
X163418733Y-98563181D01*
X163656829Y-98563181D01*
X163752067Y-98610800D01*
X163799686Y-98658419D01*
X163847305Y-98753657D01*
X163847305Y-98848895D01*
X163799686Y-98991752D01*
X163228257Y-99563181D01*
X163847305Y-99563181D01*
X156024343Y-99544143D02*
X155976724Y-99591762D01*
X155833867Y-99639381D01*
X155738629Y-99639381D01*
X155595771Y-99591762D01*
X155500533Y-99496524D01*
X155452914Y-99401286D01*
X155405295Y-99210810D01*
X155405295Y-99067952D01*
X155452914Y-98877476D01*
X155500533Y-98782238D01*
X155595771Y-98687000D01*
X155738629Y-98639381D01*
X155833867Y-98639381D01*
X155976724Y-98687000D01*
X156024343Y-98734619D01*
X156976724Y-99639381D02*
X156405295Y-99639381D01*
X156691009Y-99639381D02*
X156691009Y-98639381D01*
X156595771Y-98782238D01*
X156500533Y-98877476D01*
X156405295Y-98925095D01*
X157310057Y-98639381D02*
X157929105Y-98639381D01*
X157595771Y-99020333D01*
X157738629Y-99020333D01*
X157833867Y-99067952D01*
X157881486Y-99115571D01*
X157929105Y-99210810D01*
X157929105Y-99448905D01*
X157881486Y-99544143D01*
X157833867Y-99591762D01*
X157738629Y-99639381D01*
X157452914Y-99639381D01*
X157357676Y-99591762D01*
X157310057Y-99544143D01*
X129887143Y-90322857D02*
X129934762Y-90370476D01*
X129982381Y-90513333D01*
X129982381Y-90608571D01*
X129934762Y-90751429D01*
X129839524Y-90846667D01*
X129744286Y-90894286D01*
X129553810Y-90941905D01*
X129410952Y-90941905D01*
X129220476Y-90894286D01*
X129125238Y-90846667D01*
X129030000Y-90751429D01*
X128982381Y-90608571D01*
X128982381Y-90513333D01*
X129030000Y-90370476D01*
X129077619Y-90322857D01*
X129982381Y-89370476D02*
X129982381Y-89941905D01*
X129982381Y-89656191D02*
X128982381Y-89656191D01*
X129125238Y-89751429D01*
X129220476Y-89846667D01*
X129268095Y-89941905D01*
X129315714Y-88513333D02*
X129982381Y-88513333D01*
X128934762Y-88751429D02*
X129649048Y-88989524D01*
X129649048Y-88370476D01*
X119637143Y-83287143D02*
X119589524Y-83334762D01*
X119446667Y-83382381D01*
X119351429Y-83382381D01*
X119208571Y-83334762D01*
X119113333Y-83239524D01*
X119065714Y-83144286D01*
X119018095Y-82953810D01*
X119018095Y-82810952D01*
X119065714Y-82620476D01*
X119113333Y-82525238D01*
X119208571Y-82430000D01*
X119351429Y-82382381D01*
X119446667Y-82382381D01*
X119589524Y-82430000D01*
X119637143Y-82477619D01*
X120589524Y-83382381D02*
X120018095Y-83382381D01*
X120303809Y-83382381D02*
X120303809Y-82382381D01*
X120208571Y-82525238D01*
X120113333Y-82620476D01*
X120018095Y-82668095D01*
X121494286Y-82382381D02*
X121018095Y-82382381D01*
X120970476Y-82858571D01*
X121018095Y-82810952D01*
X121113333Y-82763333D01*
X121351429Y-82763333D01*
X121446667Y-82810952D01*
X121494286Y-82858571D01*
X121541905Y-82953810D01*
X121541905Y-83191905D01*
X121494286Y-83287143D01*
X121446667Y-83334762D01*
X121351429Y-83382381D01*
X121113333Y-83382381D01*
X121018095Y-83334762D01*
X120970476Y-83287143D01*
X147887143Y-97322857D02*
X147934762Y-97370476D01*
X147982381Y-97513333D01*
X147982381Y-97608571D01*
X147934762Y-97751429D01*
X147839524Y-97846667D01*
X147744286Y-97894286D01*
X147553810Y-97941905D01*
X147410952Y-97941905D01*
X147220476Y-97894286D01*
X147125238Y-97846667D01*
X147030000Y-97751429D01*
X146982381Y-97608571D01*
X146982381Y-97513333D01*
X147030000Y-97370476D01*
X147077619Y-97322857D01*
X147982381Y-96370476D02*
X147982381Y-96941905D01*
X147982381Y-96656191D02*
X146982381Y-96656191D01*
X147125238Y-96751429D01*
X147220476Y-96846667D01*
X147268095Y-96941905D01*
X146982381Y-95513333D02*
X146982381Y-95703810D01*
X147030000Y-95799048D01*
X147077619Y-95846667D01*
X147220476Y-95941905D01*
X147410952Y-95989524D01*
X147791905Y-95989524D01*
X147887143Y-95941905D01*
X147934762Y-95894286D01*
X147982381Y-95799048D01*
X147982381Y-95608571D01*
X147934762Y-95513333D01*
X147887143Y-95465714D01*
X147791905Y-95418095D01*
X147553810Y-95418095D01*
X147458571Y-95465714D01*
X147410952Y-95513333D01*
X147363333Y-95608571D01*
X147363333Y-95799048D01*
X147410952Y-95894286D01*
X147458571Y-95941905D01*
X147553810Y-95989524D01*
X143502143Y-99721943D02*
X143454524Y-99769562D01*
X143311667Y-99817181D01*
X143216429Y-99817181D01*
X143073571Y-99769562D01*
X142978333Y-99674324D01*
X142930714Y-99579086D01*
X142883095Y-99388610D01*
X142883095Y-99245752D01*
X142930714Y-99055276D01*
X142978333Y-98960038D01*
X143073571Y-98864800D01*
X143216429Y-98817181D01*
X143311667Y-98817181D01*
X143454524Y-98864800D01*
X143502143Y-98912419D01*
X144454524Y-99817181D02*
X143883095Y-99817181D01*
X144168809Y-99817181D02*
X144168809Y-98817181D01*
X144073571Y-98960038D01*
X143978333Y-99055276D01*
X143883095Y-99102895D01*
X144787857Y-98817181D02*
X145454524Y-98817181D01*
X145025952Y-99817181D01*
X140504943Y-99671143D02*
X140457324Y-99718762D01*
X140314467Y-99766381D01*
X140219229Y-99766381D01*
X140076371Y-99718762D01*
X139981133Y-99623524D01*
X139933514Y-99528286D01*
X139885895Y-99337810D01*
X139885895Y-99194952D01*
X139933514Y-99004476D01*
X139981133Y-98909238D01*
X140076371Y-98814000D01*
X140219229Y-98766381D01*
X140314467Y-98766381D01*
X140457324Y-98814000D01*
X140504943Y-98861619D01*
X141457324Y-99766381D02*
X140885895Y-99766381D01*
X141171609Y-99766381D02*
X141171609Y-98766381D01*
X141076371Y-98909238D01*
X140981133Y-99004476D01*
X140885895Y-99052095D01*
X142028752Y-99194952D02*
X141933514Y-99147333D01*
X141885895Y-99099714D01*
X141838276Y-99004476D01*
X141838276Y-98956857D01*
X141885895Y-98861619D01*
X141933514Y-98814000D01*
X142028752Y-98766381D01*
X142219229Y-98766381D01*
X142314467Y-98814000D01*
X142362086Y-98861619D01*
X142409705Y-98956857D01*
X142409705Y-99004476D01*
X142362086Y-99099714D01*
X142314467Y-99147333D01*
X142219229Y-99194952D01*
X142028752Y-99194952D01*
X141933514Y-99242571D01*
X141885895Y-99290190D01*
X141838276Y-99385429D01*
X141838276Y-99575905D01*
X141885895Y-99671143D01*
X141933514Y-99718762D01*
X142028752Y-99766381D01*
X142219229Y-99766381D01*
X142314467Y-99718762D01*
X142362086Y-99671143D01*
X142409705Y-99575905D01*
X142409705Y-99385429D01*
X142362086Y-99290190D01*
X142314467Y-99242571D01*
X142219229Y-99194952D01*
X187342543Y-64314343D02*
X187294924Y-64361962D01*
X187152067Y-64409581D01*
X187056829Y-64409581D01*
X186913971Y-64361962D01*
X186818733Y-64266724D01*
X186771114Y-64171486D01*
X186723495Y-63981010D01*
X186723495Y-63838152D01*
X186771114Y-63647676D01*
X186818733Y-63552438D01*
X186913971Y-63457200D01*
X187056829Y-63409581D01*
X187152067Y-63409581D01*
X187294924Y-63457200D01*
X187342543Y-63504819D01*
X188294924Y-64409581D02*
X187723495Y-64409581D01*
X188009209Y-64409581D02*
X188009209Y-63409581D01*
X187913971Y-63552438D01*
X187818733Y-63647676D01*
X187723495Y-63695295D01*
X188771114Y-64409581D02*
X188961590Y-64409581D01*
X189056829Y-64361962D01*
X189104448Y-64314343D01*
X189199686Y-64171486D01*
X189247305Y-63981010D01*
X189247305Y-63600057D01*
X189199686Y-63504819D01*
X189152067Y-63457200D01*
X189056829Y-63409581D01*
X188866352Y-63409581D01*
X188771114Y-63457200D01*
X188723495Y-63504819D01*
X188675876Y-63600057D01*
X188675876Y-63838152D01*
X188723495Y-63933390D01*
X188771114Y-63981010D01*
X188866352Y-64028629D01*
X189056829Y-64028629D01*
X189152067Y-63981010D01*
X189199686Y-63933390D01*
X189247305Y-63838152D01*
X129262143Y-50223657D02*
X129309762Y-50271276D01*
X129357381Y-50414133D01*
X129357381Y-50509371D01*
X129309762Y-50652229D01*
X129214524Y-50747467D01*
X129119286Y-50795086D01*
X128928810Y-50842705D01*
X128785952Y-50842705D01*
X128595476Y-50795086D01*
X128500238Y-50747467D01*
X128405000Y-50652229D01*
X128357381Y-50509371D01*
X128357381Y-50414133D01*
X128405000Y-50271276D01*
X128452619Y-50223657D01*
X128452619Y-49842705D02*
X128405000Y-49795086D01*
X128357381Y-49699848D01*
X128357381Y-49461752D01*
X128405000Y-49366514D01*
X128452619Y-49318895D01*
X128547857Y-49271276D01*
X128643095Y-49271276D01*
X128785952Y-49318895D01*
X129357381Y-49890324D01*
X129357381Y-49271276D01*
X128357381Y-48652229D02*
X128357381Y-48556990D01*
X128405000Y-48461752D01*
X128452619Y-48414133D01*
X128547857Y-48366514D01*
X128738333Y-48318895D01*
X128976429Y-48318895D01*
X129166905Y-48366514D01*
X129262143Y-48414133D01*
X129309762Y-48461752D01*
X129357381Y-48556990D01*
X129357381Y-48652229D01*
X129309762Y-48747467D01*
X129262143Y-48795086D01*
X129166905Y-48842705D01*
X128976429Y-48890324D01*
X128738333Y-48890324D01*
X128547857Y-48842705D01*
X128452619Y-48795086D01*
X128405000Y-48747467D01*
X128357381Y-48652229D01*
X145915143Y-62561743D02*
X145867524Y-62609362D01*
X145724667Y-62656981D01*
X145629429Y-62656981D01*
X145486571Y-62609362D01*
X145391333Y-62514124D01*
X145343714Y-62418886D01*
X145296095Y-62228410D01*
X145296095Y-62085552D01*
X145343714Y-61895076D01*
X145391333Y-61799838D01*
X145486571Y-61704600D01*
X145629429Y-61656981D01*
X145724667Y-61656981D01*
X145867524Y-61704600D01*
X145915143Y-61752219D01*
X146296095Y-61752219D02*
X146343714Y-61704600D01*
X146438952Y-61656981D01*
X146677048Y-61656981D01*
X146772286Y-61704600D01*
X146819905Y-61752219D01*
X146867524Y-61847457D01*
X146867524Y-61942695D01*
X146819905Y-62085552D01*
X146248476Y-62656981D01*
X146867524Y-62656981D01*
X147819905Y-62656981D02*
X147248476Y-62656981D01*
X147534190Y-62656981D02*
X147534190Y-61656981D01*
X147438952Y-61799838D01*
X147343714Y-61895076D01*
X147248476Y-61942695D01*
X145864343Y-65101743D02*
X145816724Y-65149362D01*
X145673867Y-65196981D01*
X145578629Y-65196981D01*
X145435771Y-65149362D01*
X145340533Y-65054124D01*
X145292914Y-64958886D01*
X145245295Y-64768410D01*
X145245295Y-64625552D01*
X145292914Y-64435076D01*
X145340533Y-64339838D01*
X145435771Y-64244600D01*
X145578629Y-64196981D01*
X145673867Y-64196981D01*
X145816724Y-64244600D01*
X145864343Y-64292219D01*
X146245295Y-64292219D02*
X146292914Y-64244600D01*
X146388152Y-64196981D01*
X146626248Y-64196981D01*
X146721486Y-64244600D01*
X146769105Y-64292219D01*
X146816724Y-64387457D01*
X146816724Y-64482695D01*
X146769105Y-64625552D01*
X146197676Y-65196981D01*
X146816724Y-65196981D01*
X147197676Y-64292219D02*
X147245295Y-64244600D01*
X147340533Y-64196981D01*
X147578629Y-64196981D01*
X147673867Y-64244600D01*
X147721486Y-64292219D01*
X147769105Y-64387457D01*
X147769105Y-64482695D01*
X147721486Y-64625552D01*
X147150057Y-65196981D01*
X147769105Y-65196981D01*
X122547143Y-48515543D02*
X122499524Y-48563162D01*
X122356667Y-48610781D01*
X122261429Y-48610781D01*
X122118571Y-48563162D01*
X122023333Y-48467924D01*
X121975714Y-48372686D01*
X121928095Y-48182210D01*
X121928095Y-48039352D01*
X121975714Y-47848876D01*
X122023333Y-47753638D01*
X122118571Y-47658400D01*
X122261429Y-47610781D01*
X122356667Y-47610781D01*
X122499524Y-47658400D01*
X122547143Y-47706019D01*
X122928095Y-47706019D02*
X122975714Y-47658400D01*
X123070952Y-47610781D01*
X123309048Y-47610781D01*
X123404286Y-47658400D01*
X123451905Y-47706019D01*
X123499524Y-47801257D01*
X123499524Y-47896495D01*
X123451905Y-48039352D01*
X122880476Y-48610781D01*
X123499524Y-48610781D01*
X123832857Y-47610781D02*
X124451905Y-47610781D01*
X124118571Y-47991733D01*
X124261429Y-47991733D01*
X124356667Y-48039352D01*
X124404286Y-48086971D01*
X124451905Y-48182210D01*
X124451905Y-48420305D01*
X124404286Y-48515543D01*
X124356667Y-48563162D01*
X124261429Y-48610781D01*
X123975714Y-48610781D01*
X123880476Y-48563162D01*
X123832857Y-48515543D01*
X197537343Y-95156257D02*
X197584962Y-95203876D01*
X197632581Y-95346733D01*
X197632581Y-95441971D01*
X197584962Y-95584829D01*
X197489724Y-95680067D01*
X197394486Y-95727686D01*
X197204010Y-95775305D01*
X197061152Y-95775305D01*
X196870676Y-95727686D01*
X196775438Y-95680067D01*
X196680200Y-95584829D01*
X196632581Y-95441971D01*
X196632581Y-95346733D01*
X196680200Y-95203876D01*
X196727819Y-95156257D01*
X196727819Y-94775305D02*
X196680200Y-94727686D01*
X196632581Y-94632448D01*
X196632581Y-94394352D01*
X196680200Y-94299114D01*
X196727819Y-94251495D01*
X196823057Y-94203876D01*
X196918295Y-94203876D01*
X197061152Y-94251495D01*
X197632581Y-94822924D01*
X197632581Y-94203876D01*
X196965914Y-93346733D02*
X197632581Y-93346733D01*
X196584962Y-93584829D02*
X197299248Y-93822924D01*
X197299248Y-93203876D01*
X196292743Y-95207057D02*
X196340362Y-95254676D01*
X196387981Y-95397533D01*
X196387981Y-95492771D01*
X196340362Y-95635629D01*
X196245124Y-95730867D01*
X196149886Y-95778486D01*
X195959410Y-95826105D01*
X195816552Y-95826105D01*
X195626076Y-95778486D01*
X195530838Y-95730867D01*
X195435600Y-95635629D01*
X195387981Y-95492771D01*
X195387981Y-95397533D01*
X195435600Y-95254676D01*
X195483219Y-95207057D01*
X195483219Y-94826105D02*
X195435600Y-94778486D01*
X195387981Y-94683248D01*
X195387981Y-94445152D01*
X195435600Y-94349914D01*
X195483219Y-94302295D01*
X195578457Y-94254676D01*
X195673695Y-94254676D01*
X195816552Y-94302295D01*
X196387981Y-94873724D01*
X196387981Y-94254676D01*
X195387981Y-93349914D02*
X195387981Y-93826105D01*
X195864171Y-93873724D01*
X195816552Y-93826105D01*
X195768933Y-93730867D01*
X195768933Y-93492771D01*
X195816552Y-93397533D01*
X195864171Y-93349914D01*
X195959410Y-93302295D01*
X196197505Y-93302295D01*
X196292743Y-93349914D01*
X196340362Y-93397533D01*
X196387981Y-93492771D01*
X196387981Y-93730867D01*
X196340362Y-93826105D01*
X196292743Y-93873724D01*
X212818743Y-105487743D02*
X212771124Y-105535362D01*
X212628267Y-105582981D01*
X212533029Y-105582981D01*
X212390171Y-105535362D01*
X212294933Y-105440124D01*
X212247314Y-105344886D01*
X212199695Y-105154410D01*
X212199695Y-105011552D01*
X212247314Y-104821076D01*
X212294933Y-104725838D01*
X212390171Y-104630600D01*
X212533029Y-104582981D01*
X212628267Y-104582981D01*
X212771124Y-104630600D01*
X212818743Y-104678219D01*
X213199695Y-104678219D02*
X213247314Y-104630600D01*
X213342552Y-104582981D01*
X213580648Y-104582981D01*
X213675886Y-104630600D01*
X213723505Y-104678219D01*
X213771124Y-104773457D01*
X213771124Y-104868695D01*
X213723505Y-105011552D01*
X213152076Y-105582981D01*
X213771124Y-105582981D01*
X214628267Y-104582981D02*
X214437790Y-104582981D01*
X214342552Y-104630600D01*
X214294933Y-104678219D01*
X214199695Y-104821076D01*
X214152076Y-105011552D01*
X214152076Y-105392505D01*
X214199695Y-105487743D01*
X214247314Y-105535362D01*
X214342552Y-105582981D01*
X214533029Y-105582981D01*
X214628267Y-105535362D01*
X214675886Y-105487743D01*
X214723505Y-105392505D01*
X214723505Y-105154410D01*
X214675886Y-105059171D01*
X214628267Y-105011552D01*
X214533029Y-104963933D01*
X214342552Y-104963933D01*
X214247314Y-105011552D01*
X214199695Y-105059171D01*
X214152076Y-105154410D01*
X172204143Y-44578543D02*
X172156524Y-44626162D01*
X172013667Y-44673781D01*
X171918429Y-44673781D01*
X171775571Y-44626162D01*
X171680333Y-44530924D01*
X171632714Y-44435686D01*
X171585095Y-44245210D01*
X171585095Y-44102352D01*
X171632714Y-43911876D01*
X171680333Y-43816638D01*
X171775571Y-43721400D01*
X171918429Y-43673781D01*
X172013667Y-43673781D01*
X172156524Y-43721400D01*
X172204143Y-43769019D01*
X172585095Y-43769019D02*
X172632714Y-43721400D01*
X172727952Y-43673781D01*
X172966048Y-43673781D01*
X173061286Y-43721400D01*
X173108905Y-43769019D01*
X173156524Y-43864257D01*
X173156524Y-43959495D01*
X173108905Y-44102352D01*
X172537476Y-44673781D01*
X173156524Y-44673781D01*
X173489857Y-43673781D02*
X174156524Y-43673781D01*
X173727952Y-44673781D01*
X143425943Y-42317943D02*
X143378324Y-42365562D01*
X143235467Y-42413181D01*
X143140229Y-42413181D01*
X142997371Y-42365562D01*
X142902133Y-42270324D01*
X142854514Y-42175086D01*
X142806895Y-41984610D01*
X142806895Y-41841752D01*
X142854514Y-41651276D01*
X142902133Y-41556038D01*
X142997371Y-41460800D01*
X143140229Y-41413181D01*
X143235467Y-41413181D01*
X143378324Y-41460800D01*
X143425943Y-41508419D01*
X143806895Y-41508419D02*
X143854514Y-41460800D01*
X143949752Y-41413181D01*
X144187848Y-41413181D01*
X144283086Y-41460800D01*
X144330705Y-41508419D01*
X144378324Y-41603657D01*
X144378324Y-41698895D01*
X144330705Y-41841752D01*
X143759276Y-42413181D01*
X144378324Y-42413181D01*
X144949752Y-41841752D02*
X144854514Y-41794133D01*
X144806895Y-41746514D01*
X144759276Y-41651276D01*
X144759276Y-41603657D01*
X144806895Y-41508419D01*
X144854514Y-41460800D01*
X144949752Y-41413181D01*
X145140229Y-41413181D01*
X145235467Y-41460800D01*
X145283086Y-41508419D01*
X145330705Y-41603657D01*
X145330705Y-41651276D01*
X145283086Y-41746514D01*
X145235467Y-41794133D01*
X145140229Y-41841752D01*
X144949752Y-41841752D01*
X144854514Y-41889371D01*
X144806895Y-41936990D01*
X144759276Y-42032229D01*
X144759276Y-42222705D01*
X144806895Y-42317943D01*
X144854514Y-42365562D01*
X144949752Y-42413181D01*
X145140229Y-42413181D01*
X145235467Y-42365562D01*
X145283086Y-42317943D01*
X145330705Y-42222705D01*
X145330705Y-42032229D01*
X145283086Y-41936990D01*
X145235467Y-41889371D01*
X145140229Y-41841752D01*
X150614143Y-37872943D02*
X150566524Y-37920562D01*
X150423667Y-37968181D01*
X150328429Y-37968181D01*
X150185571Y-37920562D01*
X150090333Y-37825324D01*
X150042714Y-37730086D01*
X149995095Y-37539610D01*
X149995095Y-37396752D01*
X150042714Y-37206276D01*
X150090333Y-37111038D01*
X150185571Y-37015800D01*
X150328429Y-36968181D01*
X150423667Y-36968181D01*
X150566524Y-37015800D01*
X150614143Y-37063419D01*
X150995095Y-37063419D02*
X151042714Y-37015800D01*
X151137952Y-36968181D01*
X151376048Y-36968181D01*
X151471286Y-37015800D01*
X151518905Y-37063419D01*
X151566524Y-37158657D01*
X151566524Y-37253895D01*
X151518905Y-37396752D01*
X150947476Y-37968181D01*
X151566524Y-37968181D01*
X152042714Y-37968181D02*
X152233190Y-37968181D01*
X152328429Y-37920562D01*
X152376048Y-37872943D01*
X152471286Y-37730086D01*
X152518905Y-37539610D01*
X152518905Y-37158657D01*
X152471286Y-37063419D01*
X152423667Y-37015800D01*
X152328429Y-36968181D01*
X152137952Y-36968181D01*
X152042714Y-37015800D01*
X151995095Y-37063419D01*
X151947476Y-37158657D01*
X151947476Y-37396752D01*
X151995095Y-37491990D01*
X152042714Y-37539610D01*
X152137952Y-37587229D01*
X152328429Y-37587229D01*
X152423667Y-37539610D01*
X152471286Y-37491990D01*
X152518905Y-37396752D01*
X195987943Y-43238657D02*
X196035562Y-43286276D01*
X196083181Y-43429133D01*
X196083181Y-43524371D01*
X196035562Y-43667229D01*
X195940324Y-43762467D01*
X195845086Y-43810086D01*
X195654610Y-43857705D01*
X195511752Y-43857705D01*
X195321276Y-43810086D01*
X195226038Y-43762467D01*
X195130800Y-43667229D01*
X195083181Y-43524371D01*
X195083181Y-43429133D01*
X195130800Y-43286276D01*
X195178419Y-43238657D01*
X195083181Y-42905324D02*
X195083181Y-42286276D01*
X195464133Y-42619610D01*
X195464133Y-42476752D01*
X195511752Y-42381514D01*
X195559371Y-42333895D01*
X195654610Y-42286276D01*
X195892705Y-42286276D01*
X195987943Y-42333895D01*
X196035562Y-42381514D01*
X196083181Y-42476752D01*
X196083181Y-42762467D01*
X196035562Y-42857705D01*
X195987943Y-42905324D01*
X195083181Y-41667229D02*
X195083181Y-41571990D01*
X195130800Y-41476752D01*
X195178419Y-41429133D01*
X195273657Y-41381514D01*
X195464133Y-41333895D01*
X195702229Y-41333895D01*
X195892705Y-41381514D01*
X195987943Y-41429133D01*
X196035562Y-41476752D01*
X196083181Y-41571990D01*
X196083181Y-41667229D01*
X196035562Y-41762467D01*
X195987943Y-41810086D01*
X195892705Y-41857705D01*
X195702229Y-41905324D01*
X195464133Y-41905324D01*
X195273657Y-41857705D01*
X195178419Y-41810086D01*
X195130800Y-41762467D01*
X195083181Y-41667229D01*
X211939143Y-85961457D02*
X211986762Y-86009076D01*
X212034381Y-86151933D01*
X212034381Y-86247171D01*
X211986762Y-86390029D01*
X211891524Y-86485267D01*
X211796286Y-86532886D01*
X211605810Y-86580505D01*
X211462952Y-86580505D01*
X211272476Y-86532886D01*
X211177238Y-86485267D01*
X211082000Y-86390029D01*
X211034381Y-86247171D01*
X211034381Y-86151933D01*
X211082000Y-86009076D01*
X211129619Y-85961457D01*
X211034381Y-85628124D02*
X211034381Y-85009076D01*
X211415333Y-85342410D01*
X211415333Y-85199552D01*
X211462952Y-85104314D01*
X211510571Y-85056695D01*
X211605810Y-85009076D01*
X211843905Y-85009076D01*
X211939143Y-85056695D01*
X211986762Y-85104314D01*
X212034381Y-85199552D01*
X212034381Y-85485267D01*
X211986762Y-85580505D01*
X211939143Y-85628124D01*
X212034381Y-84056695D02*
X212034381Y-84628124D01*
X212034381Y-84342410D02*
X211034381Y-84342410D01*
X211177238Y-84437648D01*
X211272476Y-84532886D01*
X211320095Y-84628124D01*
X210405743Y-74067943D02*
X210358124Y-74115562D01*
X210215267Y-74163181D01*
X210120029Y-74163181D01*
X209977171Y-74115562D01*
X209881933Y-74020324D01*
X209834314Y-73925086D01*
X209786695Y-73734610D01*
X209786695Y-73591752D01*
X209834314Y-73401276D01*
X209881933Y-73306038D01*
X209977171Y-73210800D01*
X210120029Y-73163181D01*
X210215267Y-73163181D01*
X210358124Y-73210800D01*
X210405743Y-73258419D01*
X210739076Y-73163181D02*
X211358124Y-73163181D01*
X211024790Y-73544133D01*
X211167648Y-73544133D01*
X211262886Y-73591752D01*
X211310505Y-73639371D01*
X211358124Y-73734610D01*
X211358124Y-73972705D01*
X211310505Y-74067943D01*
X211262886Y-74115562D01*
X211167648Y-74163181D01*
X210881933Y-74163181D01*
X210786695Y-74115562D01*
X210739076Y-74067943D01*
X211739076Y-73258419D02*
X211786695Y-73210800D01*
X211881933Y-73163181D01*
X212120029Y-73163181D01*
X212215267Y-73210800D01*
X212262886Y-73258419D01*
X212310505Y-73353657D01*
X212310505Y-73448895D01*
X212262886Y-73591752D01*
X211691457Y-74163181D01*
X212310505Y-74163181D01*
X210354943Y-63018943D02*
X210307324Y-63066562D01*
X210164467Y-63114181D01*
X210069229Y-63114181D01*
X209926371Y-63066562D01*
X209831133Y-62971324D01*
X209783514Y-62876086D01*
X209735895Y-62685610D01*
X209735895Y-62542752D01*
X209783514Y-62352276D01*
X209831133Y-62257038D01*
X209926371Y-62161800D01*
X210069229Y-62114181D01*
X210164467Y-62114181D01*
X210307324Y-62161800D01*
X210354943Y-62209419D01*
X210688276Y-62114181D02*
X211307324Y-62114181D01*
X210973990Y-62495133D01*
X211116848Y-62495133D01*
X211212086Y-62542752D01*
X211259705Y-62590371D01*
X211307324Y-62685610D01*
X211307324Y-62923705D01*
X211259705Y-63018943D01*
X211212086Y-63066562D01*
X211116848Y-63114181D01*
X210831133Y-63114181D01*
X210735895Y-63066562D01*
X210688276Y-63018943D01*
X211640657Y-62114181D02*
X212259705Y-62114181D01*
X211926371Y-62495133D01*
X212069229Y-62495133D01*
X212164467Y-62542752D01*
X212212086Y-62590371D01*
X212259705Y-62685610D01*
X212259705Y-62923705D01*
X212212086Y-63018943D01*
X212164467Y-63066562D01*
X212069229Y-63114181D01*
X211783514Y-63114181D01*
X211688276Y-63066562D01*
X211640657Y-63018943D01*
X209948543Y-51868343D02*
X209900924Y-51915962D01*
X209758067Y-51963581D01*
X209662829Y-51963581D01*
X209519971Y-51915962D01*
X209424733Y-51820724D01*
X209377114Y-51725486D01*
X209329495Y-51535010D01*
X209329495Y-51392152D01*
X209377114Y-51201676D01*
X209424733Y-51106438D01*
X209519971Y-51011200D01*
X209662829Y-50963581D01*
X209758067Y-50963581D01*
X209900924Y-51011200D01*
X209948543Y-51058819D01*
X210281876Y-50963581D02*
X210900924Y-50963581D01*
X210567590Y-51344533D01*
X210710448Y-51344533D01*
X210805686Y-51392152D01*
X210853305Y-51439771D01*
X210900924Y-51535010D01*
X210900924Y-51773105D01*
X210853305Y-51868343D01*
X210805686Y-51915962D01*
X210710448Y-51963581D01*
X210424733Y-51963581D01*
X210329495Y-51915962D01*
X210281876Y-51868343D01*
X211758067Y-51296914D02*
X211758067Y-51963581D01*
X211519971Y-50915962D02*
X211281876Y-51630248D01*
X211900924Y-51630248D01*
X210542143Y-85961457D02*
X210589762Y-86009076D01*
X210637381Y-86151933D01*
X210637381Y-86247171D01*
X210589762Y-86390029D01*
X210494524Y-86485267D01*
X210399286Y-86532886D01*
X210208810Y-86580505D01*
X210065952Y-86580505D01*
X209875476Y-86532886D01*
X209780238Y-86485267D01*
X209685000Y-86390029D01*
X209637381Y-86247171D01*
X209637381Y-86151933D01*
X209685000Y-86009076D01*
X209732619Y-85961457D01*
X209637381Y-85628124D02*
X209637381Y-85009076D01*
X210018333Y-85342410D01*
X210018333Y-85199552D01*
X210065952Y-85104314D01*
X210113571Y-85056695D01*
X210208810Y-85009076D01*
X210446905Y-85009076D01*
X210542143Y-85056695D01*
X210589762Y-85104314D01*
X210637381Y-85199552D01*
X210637381Y-85485267D01*
X210589762Y-85580505D01*
X210542143Y-85628124D01*
X209637381Y-84104314D02*
X209637381Y-84580505D01*
X210113571Y-84628124D01*
X210065952Y-84580505D01*
X210018333Y-84485267D01*
X210018333Y-84247171D01*
X210065952Y-84151933D01*
X210113571Y-84104314D01*
X210208810Y-84056695D01*
X210446905Y-84056695D01*
X210542143Y-84104314D01*
X210589762Y-84151933D01*
X210637381Y-84247171D01*
X210637381Y-84485267D01*
X210589762Y-84580505D01*
X210542143Y-84628124D01*
X210387143Y-68037143D02*
X210339524Y-68084762D01*
X210196667Y-68132381D01*
X210101429Y-68132381D01*
X209958571Y-68084762D01*
X209863333Y-67989524D01*
X209815714Y-67894286D01*
X209768095Y-67703810D01*
X209768095Y-67560952D01*
X209815714Y-67370476D01*
X209863333Y-67275238D01*
X209958571Y-67180000D01*
X210101429Y-67132381D01*
X210196667Y-67132381D01*
X210339524Y-67180000D01*
X210387143Y-67227619D01*
X210720476Y-67132381D02*
X211339524Y-67132381D01*
X211006190Y-67513333D01*
X211149048Y-67513333D01*
X211244286Y-67560952D01*
X211291905Y-67608571D01*
X211339524Y-67703810D01*
X211339524Y-67941905D01*
X211291905Y-68037143D01*
X211244286Y-68084762D01*
X211149048Y-68132381D01*
X210863333Y-68132381D01*
X210768095Y-68084762D01*
X210720476Y-68037143D01*
X212196667Y-67132381D02*
X212006190Y-67132381D01*
X211910952Y-67180000D01*
X211863333Y-67227619D01*
X211768095Y-67370476D01*
X211720476Y-67560952D01*
X211720476Y-67941905D01*
X211768095Y-68037143D01*
X211815714Y-68084762D01*
X211910952Y-68132381D01*
X212101429Y-68132381D01*
X212196667Y-68084762D01*
X212244286Y-68037143D01*
X212291905Y-67941905D01*
X212291905Y-67703810D01*
X212244286Y-67608571D01*
X212196667Y-67560952D01*
X212101429Y-67513333D01*
X211910952Y-67513333D01*
X211815714Y-67560952D01*
X211768095Y-67608571D01*
X211720476Y-67703810D01*
X210387143Y-57037143D02*
X210339524Y-57084762D01*
X210196667Y-57132381D01*
X210101429Y-57132381D01*
X209958571Y-57084762D01*
X209863333Y-56989524D01*
X209815714Y-56894286D01*
X209768095Y-56703810D01*
X209768095Y-56560952D01*
X209815714Y-56370476D01*
X209863333Y-56275238D01*
X209958571Y-56180000D01*
X210101429Y-56132381D01*
X210196667Y-56132381D01*
X210339524Y-56180000D01*
X210387143Y-56227619D01*
X210720476Y-56132381D02*
X211339524Y-56132381D01*
X211006190Y-56513333D01*
X211149048Y-56513333D01*
X211244286Y-56560952D01*
X211291905Y-56608571D01*
X211339524Y-56703810D01*
X211339524Y-56941905D01*
X211291905Y-57037143D01*
X211244286Y-57084762D01*
X211149048Y-57132381D01*
X210863333Y-57132381D01*
X210768095Y-57084762D01*
X210720476Y-57037143D01*
X211672857Y-56132381D02*
X212339524Y-56132381D01*
X211910952Y-57132381D01*
X210387143Y-46037143D02*
X210339524Y-46084762D01*
X210196667Y-46132381D01*
X210101429Y-46132381D01*
X209958571Y-46084762D01*
X209863333Y-45989524D01*
X209815714Y-45894286D01*
X209768095Y-45703810D01*
X209768095Y-45560952D01*
X209815714Y-45370476D01*
X209863333Y-45275238D01*
X209958571Y-45180000D01*
X210101429Y-45132381D01*
X210196667Y-45132381D01*
X210339524Y-45180000D01*
X210387143Y-45227619D01*
X210720476Y-45132381D02*
X211339524Y-45132381D01*
X211006190Y-45513333D01*
X211149048Y-45513333D01*
X211244286Y-45560952D01*
X211291905Y-45608571D01*
X211339524Y-45703810D01*
X211339524Y-45941905D01*
X211291905Y-46037143D01*
X211244286Y-46084762D01*
X211149048Y-46132381D01*
X210863333Y-46132381D01*
X210768095Y-46084762D01*
X210720476Y-46037143D01*
X211910952Y-45560952D02*
X211815714Y-45513333D01*
X211768095Y-45465714D01*
X211720476Y-45370476D01*
X211720476Y-45322857D01*
X211768095Y-45227619D01*
X211815714Y-45180000D01*
X211910952Y-45132381D01*
X212101429Y-45132381D01*
X212196667Y-45180000D01*
X212244286Y-45227619D01*
X212291905Y-45322857D01*
X212291905Y-45370476D01*
X212244286Y-45465714D01*
X212196667Y-45513333D01*
X212101429Y-45560952D01*
X211910952Y-45560952D01*
X211815714Y-45608571D01*
X211768095Y-45656190D01*
X211720476Y-45751429D01*
X211720476Y-45941905D01*
X211768095Y-46037143D01*
X211815714Y-46084762D01*
X211910952Y-46132381D01*
X212101429Y-46132381D01*
X212196667Y-46084762D01*
X212244286Y-46037143D01*
X212291905Y-45941905D01*
X212291905Y-45751429D01*
X212244286Y-45656190D01*
X212196667Y-45608571D01*
X212101429Y-45560952D01*
X118435381Y-59056495D02*
X117435381Y-59056495D01*
X117435381Y-58818400D01*
X117483000Y-58675542D01*
X117578238Y-58580304D01*
X117673476Y-58532685D01*
X117863952Y-58485066D01*
X118006810Y-58485066D01*
X118197286Y-58532685D01*
X118292524Y-58580304D01*
X118387762Y-58675542D01*
X118435381Y-58818400D01*
X118435381Y-59056495D01*
X118435381Y-57532685D02*
X118435381Y-58104114D01*
X118435381Y-57818400D02*
X117435381Y-57818400D01*
X117578238Y-57913638D01*
X117673476Y-58008876D01*
X117721095Y-58104114D01*
X187060381Y-84635095D02*
X186060381Y-84635095D01*
X186060381Y-84397000D01*
X186108000Y-84254142D01*
X186203238Y-84158904D01*
X186298476Y-84111285D01*
X186488952Y-84063666D01*
X186631810Y-84063666D01*
X186822286Y-84111285D01*
X186917524Y-84158904D01*
X187012762Y-84254142D01*
X187060381Y-84397000D01*
X187060381Y-84635095D01*
X186155619Y-83682714D02*
X186108000Y-83635095D01*
X186060381Y-83539857D01*
X186060381Y-83301761D01*
X186108000Y-83206523D01*
X186155619Y-83158904D01*
X186250857Y-83111285D01*
X186346095Y-83111285D01*
X186488952Y-83158904D01*
X187060381Y-83730333D01*
X187060381Y-83111285D01*
X135888505Y-98750381D02*
X135888505Y-97750381D01*
X136126600Y-97750381D01*
X136269458Y-97798000D01*
X136364696Y-97893238D01*
X136412315Y-97988476D01*
X136459934Y-98178952D01*
X136459934Y-98321810D01*
X136412315Y-98512286D01*
X136364696Y-98607524D01*
X136269458Y-98702762D01*
X136126600Y-98750381D01*
X135888505Y-98750381D01*
X136793267Y-97750381D02*
X137412315Y-97750381D01*
X137078981Y-98131333D01*
X137221839Y-98131333D01*
X137317077Y-98178952D01*
X137364696Y-98226571D01*
X137412315Y-98321810D01*
X137412315Y-98559905D01*
X137364696Y-98655143D01*
X137317077Y-98702762D01*
X137221839Y-98750381D01*
X136936124Y-98750381D01*
X136840886Y-98702762D01*
X136793267Y-98655143D01*
X154735305Y-81325981D02*
X154735305Y-80325981D01*
X154973400Y-80325981D01*
X155116258Y-80373600D01*
X155211496Y-80468838D01*
X155259115Y-80564076D01*
X155306734Y-80754552D01*
X155306734Y-80897410D01*
X155259115Y-81087886D01*
X155211496Y-81183124D01*
X155116258Y-81278362D01*
X154973400Y-81325981D01*
X154735305Y-81325981D01*
X156163877Y-80659314D02*
X156163877Y-81325981D01*
X155925781Y-80278362D02*
X155687686Y-80992648D01*
X156306734Y-80992648D01*
X143442181Y-45579295D02*
X142442181Y-45579295D01*
X142442181Y-45341200D01*
X142489800Y-45198342D01*
X142585038Y-45103104D01*
X142680276Y-45055485D01*
X142870752Y-45007866D01*
X143013610Y-45007866D01*
X143204086Y-45055485D01*
X143299324Y-45103104D01*
X143394562Y-45198342D01*
X143442181Y-45341200D01*
X143442181Y-45579295D01*
X142442181Y-44103104D02*
X142442181Y-44579295D01*
X142918371Y-44626914D01*
X142870752Y-44579295D01*
X142823133Y-44484057D01*
X142823133Y-44245961D01*
X142870752Y-44150723D01*
X142918371Y-44103104D01*
X143013610Y-44055485D01*
X143251705Y-44055485D01*
X143346943Y-44103104D01*
X143394562Y-44150723D01*
X143442181Y-44245961D01*
X143442181Y-44484057D01*
X143394562Y-44579295D01*
X143346943Y-44626914D01*
X125828467Y-65485971D02*
X125495133Y-65485971D01*
X125495133Y-66009781D02*
X125495133Y-65009781D01*
X125971324Y-65009781D01*
X126876086Y-66009781D02*
X126304657Y-66009781D01*
X126590371Y-66009781D02*
X126590371Y-65009781D01*
X126495133Y-65152638D01*
X126399895Y-65247876D01*
X126304657Y-65295495D01*
X116699581Y-43664190D02*
X115699581Y-43664190D01*
X116604343Y-42616571D02*
X116651962Y-42664190D01*
X116699581Y-42807047D01*
X116699581Y-42902285D01*
X116651962Y-43045143D01*
X116556724Y-43140381D01*
X116461486Y-43188000D01*
X116271010Y-43235619D01*
X116128152Y-43235619D01*
X115937676Y-43188000D01*
X115842438Y-43140381D01*
X115747200Y-43045143D01*
X115699581Y-42902285D01*
X115699581Y-42807047D01*
X115747200Y-42664190D01*
X115794819Y-42616571D01*
X116699581Y-41664190D02*
X116699581Y-42235619D01*
X116699581Y-41949905D02*
X115699581Y-41949905D01*
X115842438Y-42045143D01*
X115937676Y-42140381D01*
X115985295Y-42235619D01*
X152516010Y-90317581D02*
X152516010Y-89317581D01*
X153563629Y-90222343D02*
X153516010Y-90269962D01*
X153373153Y-90317581D01*
X153277915Y-90317581D01*
X153135057Y-90269962D01*
X153039819Y-90174724D01*
X152992200Y-90079486D01*
X152944581Y-89889010D01*
X152944581Y-89746152D01*
X152992200Y-89555676D01*
X153039819Y-89460438D01*
X153135057Y-89365200D01*
X153277915Y-89317581D01*
X153373153Y-89317581D01*
X153516010Y-89365200D01*
X153563629Y-89412819D01*
X153944581Y-89412819D02*
X153992200Y-89365200D01*
X154087438Y-89317581D01*
X154325534Y-89317581D01*
X154420772Y-89365200D01*
X154468391Y-89412819D01*
X154516010Y-89508057D01*
X154516010Y-89603295D01*
X154468391Y-89746152D01*
X153896962Y-90317581D01*
X154516010Y-90317581D01*
X135802810Y-39974781D02*
X135802810Y-38974781D01*
X136850429Y-39879543D02*
X136802810Y-39927162D01*
X136659953Y-39974781D01*
X136564715Y-39974781D01*
X136421857Y-39927162D01*
X136326619Y-39831924D01*
X136279000Y-39736686D01*
X136231381Y-39546210D01*
X136231381Y-39403352D01*
X136279000Y-39212876D01*
X136326619Y-39117638D01*
X136421857Y-39022400D01*
X136564715Y-38974781D01*
X136659953Y-38974781D01*
X136802810Y-39022400D01*
X136850429Y-39070019D01*
X137183762Y-38974781D02*
X137802810Y-38974781D01*
X137469476Y-39355733D01*
X137612334Y-39355733D01*
X137707572Y-39403352D01*
X137755191Y-39450971D01*
X137802810Y-39546210D01*
X137802810Y-39784305D01*
X137755191Y-39879543D01*
X137707572Y-39927162D01*
X137612334Y-39974781D01*
X137326619Y-39974781D01*
X137231381Y-39927162D01*
X137183762Y-39879543D01*
X135053810Y-86802381D02*
X135053810Y-85802381D01*
X136101429Y-86707143D02*
X136053810Y-86754762D01*
X135910953Y-86802381D01*
X135815715Y-86802381D01*
X135672857Y-86754762D01*
X135577619Y-86659524D01*
X135530000Y-86564286D01*
X135482381Y-86373810D01*
X135482381Y-86230952D01*
X135530000Y-86040476D01*
X135577619Y-85945238D01*
X135672857Y-85850000D01*
X135815715Y-85802381D01*
X135910953Y-85802381D01*
X136053810Y-85850000D01*
X136101429Y-85897619D01*
X136958572Y-86135714D02*
X136958572Y-86802381D01*
X136720476Y-85754762D02*
X136482381Y-86469048D01*
X137101429Y-86469048D01*
X212714010Y-96743781D02*
X212714010Y-95743781D01*
X213761629Y-96648543D02*
X213714010Y-96696162D01*
X213571153Y-96743781D01*
X213475915Y-96743781D01*
X213333057Y-96696162D01*
X213237819Y-96600924D01*
X213190200Y-96505686D01*
X213142581Y-96315210D01*
X213142581Y-96172352D01*
X213190200Y-95981876D01*
X213237819Y-95886638D01*
X213333057Y-95791400D01*
X213475915Y-95743781D01*
X213571153Y-95743781D01*
X213714010Y-95791400D01*
X213761629Y-95839019D01*
X214666391Y-95743781D02*
X214190200Y-95743781D01*
X214142581Y-96219971D01*
X214190200Y-96172352D01*
X214285438Y-96124733D01*
X214523534Y-96124733D01*
X214618772Y-96172352D01*
X214666391Y-96219971D01*
X214714010Y-96315210D01*
X214714010Y-96553305D01*
X214666391Y-96648543D01*
X214618772Y-96696162D01*
X214523534Y-96743781D01*
X214285438Y-96743781D01*
X214190200Y-96696162D01*
X214142581Y-96648543D01*
X146674010Y-42438581D02*
X146674010Y-41438581D01*
X147721629Y-42343343D02*
X147674010Y-42390962D01*
X147531153Y-42438581D01*
X147435915Y-42438581D01*
X147293057Y-42390962D01*
X147197819Y-42295724D01*
X147150200Y-42200486D01*
X147102581Y-42010010D01*
X147102581Y-41867152D01*
X147150200Y-41676676D01*
X147197819Y-41581438D01*
X147293057Y-41486200D01*
X147435915Y-41438581D01*
X147531153Y-41438581D01*
X147674010Y-41486200D01*
X147721629Y-41533819D01*
X148578772Y-41438581D02*
X148388295Y-41438581D01*
X148293057Y-41486200D01*
X148245438Y-41533819D01*
X148150200Y-41676676D01*
X148102581Y-41867152D01*
X148102581Y-42248105D01*
X148150200Y-42343343D01*
X148197819Y-42390962D01*
X148293057Y-42438581D01*
X148483534Y-42438581D01*
X148578772Y-42390962D01*
X148626391Y-42343343D01*
X148674010Y-42248105D01*
X148674010Y-42010010D01*
X148626391Y-41914771D01*
X148578772Y-41867152D01*
X148483534Y-41819533D01*
X148293057Y-41819533D01*
X148197819Y-41867152D01*
X148150200Y-41914771D01*
X148102581Y-42010010D01*
X208788781Y-43216390D02*
X207788781Y-43216390D01*
X208693543Y-42168771D02*
X208741162Y-42216390D01*
X208788781Y-42359247D01*
X208788781Y-42454485D01*
X208741162Y-42597343D01*
X208645924Y-42692581D01*
X208550686Y-42740200D01*
X208360210Y-42787819D01*
X208217352Y-42787819D01*
X208026876Y-42740200D01*
X207931638Y-42692581D01*
X207836400Y-42597343D01*
X207788781Y-42454485D01*
X207788781Y-42359247D01*
X207836400Y-42216390D01*
X207884019Y-42168771D01*
X207788781Y-41835438D02*
X207788781Y-41168771D01*
X208788781Y-41597343D01*
X178203267Y-97905181D02*
X178203267Y-98619467D01*
X178155647Y-98762324D01*
X178060409Y-98857562D01*
X177917552Y-98905181D01*
X177822314Y-98905181D01*
X179203267Y-98905181D02*
X178631838Y-98905181D01*
X178917552Y-98905181D02*
X178917552Y-97905181D01*
X178822314Y-98048038D01*
X178727076Y-98143276D01*
X178631838Y-98190895D01*
X180348781Y-45875533D02*
X181063067Y-45875533D01*
X181205924Y-45923153D01*
X181301162Y-46018391D01*
X181348781Y-46161248D01*
X181348781Y-46256486D01*
X180444019Y-45446962D02*
X180396400Y-45399343D01*
X180348781Y-45304105D01*
X180348781Y-45066009D01*
X180396400Y-44970771D01*
X180444019Y-44923152D01*
X180539257Y-44875533D01*
X180634495Y-44875533D01*
X180777352Y-44923152D01*
X181348781Y-45494581D01*
X181348781Y-44875533D01*
X143760867Y-89266781D02*
X143760867Y-89981067D01*
X143713247Y-90123924D01*
X143618009Y-90219162D01*
X143475152Y-90266781D01*
X143379914Y-90266781D01*
X144141819Y-89266781D02*
X144760867Y-89266781D01*
X144427533Y-89647733D01*
X144570391Y-89647733D01*
X144665629Y-89695352D01*
X144713248Y-89742971D01*
X144760867Y-89838210D01*
X144760867Y-90076305D01*
X144713248Y-90171543D01*
X144665629Y-90219162D01*
X144570391Y-90266781D01*
X144284676Y-90266781D01*
X144189438Y-90219162D01*
X144141819Y-90171543D01*
X176220381Y-92622666D02*
X176220381Y-93098857D01*
X175220381Y-93098857D01*
X176220381Y-91765523D02*
X176220381Y-92336952D01*
X176220381Y-92051238D02*
X175220381Y-92051238D01*
X175363238Y-92146476D01*
X175458476Y-92241714D01*
X175506095Y-92336952D01*
X130703581Y-93841866D02*
X130703581Y-94318057D01*
X129703581Y-94318057D01*
X129798819Y-93556152D02*
X129751200Y-93508533D01*
X129703581Y-93413295D01*
X129703581Y-93175199D01*
X129751200Y-93079961D01*
X129798819Y-93032342D01*
X129894057Y-92984723D01*
X129989295Y-92984723D01*
X130132152Y-93032342D01*
X130703581Y-93603771D01*
X130703581Y-92984723D01*
X183627734Y-88998981D02*
X183294400Y-88522790D01*
X183056305Y-88998981D02*
X183056305Y-87998981D01*
X183437258Y-87998981D01*
X183532496Y-88046600D01*
X183580115Y-88094219D01*
X183627734Y-88189457D01*
X183627734Y-88332314D01*
X183580115Y-88427552D01*
X183532496Y-88475171D01*
X183437258Y-88522790D01*
X183056305Y-88522790D01*
X184580115Y-88998981D02*
X184008686Y-88998981D01*
X184294400Y-88998981D02*
X184294400Y-87998981D01*
X184199162Y-88141838D01*
X184103924Y-88237076D01*
X184008686Y-88284695D01*
X143613334Y-86932381D02*
X143280000Y-86456190D01*
X143041905Y-86932381D02*
X143041905Y-85932381D01*
X143422858Y-85932381D01*
X143518096Y-85980000D01*
X143565715Y-86027619D01*
X143613334Y-86122857D01*
X143613334Y-86265714D01*
X143565715Y-86360952D01*
X143518096Y-86408571D01*
X143422858Y-86456190D01*
X143041905Y-86456190D01*
X143994286Y-86027619D02*
X144041905Y-85980000D01*
X144137143Y-85932381D01*
X144375239Y-85932381D01*
X144470477Y-85980000D01*
X144518096Y-86027619D01*
X144565715Y-86122857D01*
X144565715Y-86218095D01*
X144518096Y-86360952D01*
X143946667Y-86932381D01*
X144565715Y-86932381D01*
X183385381Y-84545466D02*
X182909190Y-84878800D01*
X183385381Y-85116895D02*
X182385381Y-85116895D01*
X182385381Y-84735942D01*
X182433000Y-84640704D01*
X182480619Y-84593085D01*
X182575857Y-84545466D01*
X182718714Y-84545466D01*
X182813952Y-84593085D01*
X182861571Y-84640704D01*
X182909190Y-84735942D01*
X182909190Y-85116895D01*
X182385381Y-84212133D02*
X182385381Y-83593085D01*
X182766333Y-83926419D01*
X182766333Y-83783561D01*
X182813952Y-83688323D01*
X182861571Y-83640704D01*
X182956810Y-83593085D01*
X183194905Y-83593085D01*
X183290143Y-83640704D01*
X183337762Y-83688323D01*
X183385381Y-83783561D01*
X183385381Y-84069276D01*
X183337762Y-84164514D01*
X183290143Y-84212133D01*
X162342534Y-85593181D02*
X162009200Y-85116990D01*
X161771105Y-85593181D02*
X161771105Y-84593181D01*
X162152058Y-84593181D01*
X162247296Y-84640800D01*
X162294915Y-84688419D01*
X162342534Y-84783657D01*
X162342534Y-84926514D01*
X162294915Y-85021752D01*
X162247296Y-85069371D01*
X162152058Y-85116990D01*
X161771105Y-85116990D01*
X163199677Y-84926514D02*
X163199677Y-85593181D01*
X162961581Y-84545562D02*
X162723486Y-85259848D01*
X163342534Y-85259848D01*
X123836134Y-69210181D02*
X123502800Y-68733990D01*
X123264705Y-69210181D02*
X123264705Y-68210181D01*
X123645658Y-68210181D01*
X123740896Y-68257800D01*
X123788515Y-68305419D01*
X123836134Y-68400657D01*
X123836134Y-68543514D01*
X123788515Y-68638752D01*
X123740896Y-68686371D01*
X123645658Y-68733990D01*
X123264705Y-68733990D01*
X124740896Y-68210181D02*
X124264705Y-68210181D01*
X124217086Y-68686371D01*
X124264705Y-68638752D01*
X124359943Y-68591133D01*
X124598039Y-68591133D01*
X124693277Y-68638752D01*
X124740896Y-68686371D01*
X124788515Y-68781610D01*
X124788515Y-69019705D01*
X124740896Y-69114943D01*
X124693277Y-69162562D01*
X124598039Y-69210181D01*
X124359943Y-69210181D01*
X124264705Y-69162562D01*
X124217086Y-69114943D01*
X119863334Y-69182381D02*
X119530000Y-68706190D01*
X119291905Y-69182381D02*
X119291905Y-68182381D01*
X119672858Y-68182381D01*
X119768096Y-68230000D01*
X119815715Y-68277619D01*
X119863334Y-68372857D01*
X119863334Y-68515714D01*
X119815715Y-68610952D01*
X119768096Y-68658571D01*
X119672858Y-68706190D01*
X119291905Y-68706190D01*
X120720477Y-68182381D02*
X120530000Y-68182381D01*
X120434762Y-68230000D01*
X120387143Y-68277619D01*
X120291905Y-68420476D01*
X120244286Y-68610952D01*
X120244286Y-68991905D01*
X120291905Y-69087143D01*
X120339524Y-69134762D01*
X120434762Y-69182381D01*
X120625239Y-69182381D01*
X120720477Y-69134762D01*
X120768096Y-69087143D01*
X120815715Y-68991905D01*
X120815715Y-68753810D01*
X120768096Y-68658571D01*
X120720477Y-68610952D01*
X120625239Y-68563333D01*
X120434762Y-68563333D01*
X120339524Y-68610952D01*
X120291905Y-68658571D01*
X120244286Y-68753810D01*
X200479581Y-91708266D02*
X200003390Y-92041600D01*
X200479581Y-92279695D02*
X199479581Y-92279695D01*
X199479581Y-91898742D01*
X199527200Y-91803504D01*
X199574819Y-91755885D01*
X199670057Y-91708266D01*
X199812914Y-91708266D01*
X199908152Y-91755885D01*
X199955771Y-91803504D01*
X200003390Y-91898742D01*
X200003390Y-92279695D01*
X199479581Y-91374933D02*
X199479581Y-90708266D01*
X200479581Y-91136838D01*
X132989581Y-82996066D02*
X132513390Y-83329400D01*
X132989581Y-83567495D02*
X131989581Y-83567495D01*
X131989581Y-83186542D01*
X132037200Y-83091304D01*
X132084819Y-83043685D01*
X132180057Y-82996066D01*
X132322914Y-82996066D01*
X132418152Y-83043685D01*
X132465771Y-83091304D01*
X132513390Y-83186542D01*
X132513390Y-83567495D01*
X132418152Y-82424638D02*
X132370533Y-82519876D01*
X132322914Y-82567495D01*
X132227676Y-82615114D01*
X132180057Y-82615114D01*
X132084819Y-82567495D01*
X132037200Y-82519876D01*
X131989581Y-82424638D01*
X131989581Y-82234161D01*
X132037200Y-82138923D01*
X132084819Y-82091304D01*
X132180057Y-82043685D01*
X132227676Y-82043685D01*
X132322914Y-82091304D01*
X132370533Y-82138923D01*
X132418152Y-82234161D01*
X132418152Y-82424638D01*
X132465771Y-82519876D01*
X132513390Y-82567495D01*
X132608629Y-82615114D01*
X132799105Y-82615114D01*
X132894343Y-82567495D01*
X132941962Y-82519876D01*
X132989581Y-82424638D01*
X132989581Y-82234161D01*
X132941962Y-82138923D01*
X132894343Y-82091304D01*
X132799105Y-82043685D01*
X132608629Y-82043685D01*
X132513390Y-82091304D01*
X132465771Y-82138923D01*
X132418152Y-82234161D01*
X131541781Y-84012066D02*
X131065590Y-84345400D01*
X131541781Y-84583495D02*
X130541781Y-84583495D01*
X130541781Y-84202542D01*
X130589400Y-84107304D01*
X130637019Y-84059685D01*
X130732257Y-84012066D01*
X130875114Y-84012066D01*
X130970352Y-84059685D01*
X131017971Y-84107304D01*
X131065590Y-84202542D01*
X131065590Y-84583495D01*
X131541781Y-83535876D02*
X131541781Y-83345400D01*
X131494162Y-83250161D01*
X131446543Y-83202542D01*
X131303686Y-83107304D01*
X131113210Y-83059685D01*
X130732257Y-83059685D01*
X130637019Y-83107304D01*
X130589400Y-83154923D01*
X130541781Y-83250161D01*
X130541781Y-83440638D01*
X130589400Y-83535876D01*
X130637019Y-83583495D01*
X130732257Y-83631114D01*
X130970352Y-83631114D01*
X131065590Y-83583495D01*
X131113210Y-83535876D01*
X131160829Y-83440638D01*
X131160829Y-83250161D01*
X131113210Y-83154923D01*
X131065590Y-83107304D01*
X130970352Y-83059685D01*
X140177781Y-87917257D02*
X139701590Y-88250591D01*
X140177781Y-88488686D02*
X139177781Y-88488686D01*
X139177781Y-88107733D01*
X139225400Y-88012495D01*
X139273019Y-87964876D01*
X139368257Y-87917257D01*
X139511114Y-87917257D01*
X139606352Y-87964876D01*
X139653971Y-88012495D01*
X139701590Y-88107733D01*
X139701590Y-88488686D01*
X140177781Y-86964876D02*
X140177781Y-87536305D01*
X140177781Y-87250591D02*
X139177781Y-87250591D01*
X139320638Y-87345829D01*
X139415876Y-87441067D01*
X139463495Y-87536305D01*
X139177781Y-86345829D02*
X139177781Y-86250590D01*
X139225400Y-86155352D01*
X139273019Y-86107733D01*
X139368257Y-86060114D01*
X139558733Y-86012495D01*
X139796829Y-86012495D01*
X139987305Y-86060114D01*
X140082543Y-86107733D01*
X140130162Y-86155352D01*
X140177781Y-86250590D01*
X140177781Y-86345829D01*
X140130162Y-86441067D01*
X140082543Y-86488686D01*
X139987305Y-86536305D01*
X139796829Y-86583924D01*
X139558733Y-86583924D01*
X139368257Y-86536305D01*
X139273019Y-86488686D01*
X139225400Y-86441067D01*
X139177781Y-86345829D01*
X152595343Y-98597981D02*
X152262009Y-98121790D01*
X152023914Y-98597981D02*
X152023914Y-97597981D01*
X152404867Y-97597981D01*
X152500105Y-97645600D01*
X152547724Y-97693219D01*
X152595343Y-97788457D01*
X152595343Y-97931314D01*
X152547724Y-98026552D01*
X152500105Y-98074171D01*
X152404867Y-98121790D01*
X152023914Y-98121790D01*
X153547724Y-98597981D02*
X152976295Y-98597981D01*
X153262009Y-98597981D02*
X153262009Y-97597981D01*
X153166771Y-97740838D01*
X153071533Y-97836076D01*
X152976295Y-97883695D01*
X154500105Y-98597981D02*
X153928676Y-98597981D01*
X154214390Y-98597981D02*
X154214390Y-97597981D01*
X154119152Y-97740838D01*
X154023914Y-97836076D01*
X153928676Y-97883695D01*
X149372581Y-96731057D02*
X148896390Y-97064391D01*
X149372581Y-97302486D02*
X148372581Y-97302486D01*
X148372581Y-96921533D01*
X148420200Y-96826295D01*
X148467819Y-96778676D01*
X148563057Y-96731057D01*
X148705914Y-96731057D01*
X148801152Y-96778676D01*
X148848771Y-96826295D01*
X148896390Y-96921533D01*
X148896390Y-97302486D01*
X149372581Y-95778676D02*
X149372581Y-96350105D01*
X149372581Y-96064391D02*
X148372581Y-96064391D01*
X148515438Y-96159629D01*
X148610676Y-96254867D01*
X148658295Y-96350105D01*
X148467819Y-95397724D02*
X148420200Y-95350105D01*
X148372581Y-95254867D01*
X148372581Y-95016771D01*
X148420200Y-94921533D01*
X148467819Y-94873914D01*
X148563057Y-94826295D01*
X148658295Y-94826295D01*
X148801152Y-94873914D01*
X149372581Y-95445343D01*
X149372581Y-94826295D01*
X134891543Y-82468981D02*
X134558209Y-81992790D01*
X134320114Y-82468981D02*
X134320114Y-81468981D01*
X134701067Y-81468981D01*
X134796305Y-81516600D01*
X134843924Y-81564219D01*
X134891543Y-81659457D01*
X134891543Y-81802314D01*
X134843924Y-81897552D01*
X134796305Y-81945171D01*
X134701067Y-81992790D01*
X134320114Y-81992790D01*
X135843924Y-82468981D02*
X135272495Y-82468981D01*
X135558209Y-82468981D02*
X135558209Y-81468981D01*
X135462971Y-81611838D01*
X135367733Y-81707076D01*
X135272495Y-81754695D01*
X136177257Y-81468981D02*
X136796305Y-81468981D01*
X136462971Y-81849933D01*
X136605829Y-81849933D01*
X136701067Y-81897552D01*
X136748686Y-81945171D01*
X136796305Y-82040410D01*
X136796305Y-82278505D01*
X136748686Y-82373743D01*
X136701067Y-82421362D01*
X136605829Y-82468981D01*
X136320114Y-82468981D01*
X136224876Y-82421362D01*
X136177257Y-82373743D01*
X138447543Y-82392781D02*
X138114209Y-81916590D01*
X137876114Y-82392781D02*
X137876114Y-81392781D01*
X138257067Y-81392781D01*
X138352305Y-81440400D01*
X138399924Y-81488019D01*
X138447543Y-81583257D01*
X138447543Y-81726114D01*
X138399924Y-81821352D01*
X138352305Y-81868971D01*
X138257067Y-81916590D01*
X137876114Y-81916590D01*
X139399924Y-82392781D02*
X138828495Y-82392781D01*
X139114209Y-82392781D02*
X139114209Y-81392781D01*
X139018971Y-81535638D01*
X138923733Y-81630876D01*
X138828495Y-81678495D01*
X140257067Y-81726114D02*
X140257067Y-82392781D01*
X140018971Y-81345162D02*
X139780876Y-82059448D01*
X140399924Y-82059448D01*
X127373143Y-88133181D02*
X127039809Y-87656990D01*
X126801714Y-88133181D02*
X126801714Y-87133181D01*
X127182667Y-87133181D01*
X127277905Y-87180800D01*
X127325524Y-87228419D01*
X127373143Y-87323657D01*
X127373143Y-87466514D01*
X127325524Y-87561752D01*
X127277905Y-87609371D01*
X127182667Y-87656990D01*
X126801714Y-87656990D01*
X128325524Y-88133181D02*
X127754095Y-88133181D01*
X128039809Y-88133181D02*
X128039809Y-87133181D01*
X127944571Y-87276038D01*
X127849333Y-87371276D01*
X127754095Y-87418895D01*
X129230286Y-87133181D02*
X128754095Y-87133181D01*
X128706476Y-87609371D01*
X128754095Y-87561752D01*
X128849333Y-87514133D01*
X129087429Y-87514133D01*
X129182667Y-87561752D01*
X129230286Y-87609371D01*
X129277905Y-87704610D01*
X129277905Y-87942705D01*
X129230286Y-88037943D01*
X129182667Y-88085562D01*
X129087429Y-88133181D01*
X128849333Y-88133181D01*
X128754095Y-88085562D01*
X128706476Y-88037943D01*
X127474743Y-83103981D02*
X127141409Y-82627790D01*
X126903314Y-83103981D02*
X126903314Y-82103981D01*
X127284267Y-82103981D01*
X127379505Y-82151600D01*
X127427124Y-82199219D01*
X127474743Y-82294457D01*
X127474743Y-82437314D01*
X127427124Y-82532552D01*
X127379505Y-82580171D01*
X127284267Y-82627790D01*
X126903314Y-82627790D01*
X128427124Y-83103981D02*
X127855695Y-83103981D01*
X128141409Y-83103981D02*
X128141409Y-82103981D01*
X128046171Y-82246838D01*
X127950933Y-82342076D01*
X127855695Y-82389695D01*
X129284267Y-82103981D02*
X129093790Y-82103981D01*
X128998552Y-82151600D01*
X128950933Y-82199219D01*
X128855695Y-82342076D01*
X128808076Y-82532552D01*
X128808076Y-82913505D01*
X128855695Y-83008743D01*
X128903314Y-83056362D01*
X128998552Y-83103981D01*
X129189029Y-83103981D01*
X129284267Y-83056362D01*
X129331886Y-83008743D01*
X129379505Y-82913505D01*
X129379505Y-82675410D01*
X129331886Y-82580171D01*
X129284267Y-82532552D01*
X129189029Y-82484933D01*
X128998552Y-82484933D01*
X128903314Y-82532552D01*
X128855695Y-82580171D01*
X128808076Y-82675410D01*
X124401343Y-83332581D02*
X124068009Y-82856390D01*
X123829914Y-83332581D02*
X123829914Y-82332581D01*
X124210867Y-82332581D01*
X124306105Y-82380200D01*
X124353724Y-82427819D01*
X124401343Y-82523057D01*
X124401343Y-82665914D01*
X124353724Y-82761152D01*
X124306105Y-82808771D01*
X124210867Y-82856390D01*
X123829914Y-82856390D01*
X125353724Y-83332581D02*
X124782295Y-83332581D01*
X125068009Y-83332581D02*
X125068009Y-82332581D01*
X124972771Y-82475438D01*
X124877533Y-82570676D01*
X124782295Y-82618295D01*
X125687057Y-82332581D02*
X126353724Y-82332581D01*
X125925152Y-83332581D01*
X120464343Y-87955381D02*
X120131009Y-87479190D01*
X119892914Y-87955381D02*
X119892914Y-86955381D01*
X120273867Y-86955381D01*
X120369105Y-87003000D01*
X120416724Y-87050619D01*
X120464343Y-87145857D01*
X120464343Y-87288714D01*
X120416724Y-87383952D01*
X120369105Y-87431571D01*
X120273867Y-87479190D01*
X119892914Y-87479190D01*
X121416724Y-87955381D02*
X120845295Y-87955381D01*
X121131009Y-87955381D02*
X121131009Y-86955381D01*
X121035771Y-87098238D01*
X120940533Y-87193476D01*
X120845295Y-87241095D01*
X121988152Y-87383952D02*
X121892914Y-87336333D01*
X121845295Y-87288714D01*
X121797676Y-87193476D01*
X121797676Y-87145857D01*
X121845295Y-87050619D01*
X121892914Y-87003000D01*
X121988152Y-86955381D01*
X122178629Y-86955381D01*
X122273867Y-87003000D01*
X122321486Y-87050619D01*
X122369105Y-87145857D01*
X122369105Y-87193476D01*
X122321486Y-87288714D01*
X122273867Y-87336333D01*
X122178629Y-87383952D01*
X121988152Y-87383952D01*
X121892914Y-87431571D01*
X121845295Y-87479190D01*
X121797676Y-87574429D01*
X121797676Y-87764905D01*
X121845295Y-87860143D01*
X121892914Y-87907762D01*
X121988152Y-87955381D01*
X122178629Y-87955381D01*
X122273867Y-87907762D01*
X122321486Y-87860143D01*
X122369105Y-87764905D01*
X122369105Y-87574429D01*
X122321486Y-87479190D01*
X122273867Y-87431571D01*
X122178629Y-87383952D01*
X166365181Y-63939657D02*
X165888990Y-64272991D01*
X166365181Y-64511086D02*
X165365181Y-64511086D01*
X165365181Y-64130133D01*
X165412800Y-64034895D01*
X165460419Y-63987276D01*
X165555657Y-63939657D01*
X165698514Y-63939657D01*
X165793752Y-63987276D01*
X165841371Y-64034895D01*
X165888990Y-64130133D01*
X165888990Y-64511086D01*
X166365181Y-62987276D02*
X166365181Y-63558705D01*
X166365181Y-63272991D02*
X165365181Y-63272991D01*
X165508038Y-63368229D01*
X165603276Y-63463467D01*
X165650895Y-63558705D01*
X166365181Y-62511086D02*
X166365181Y-62320610D01*
X166317562Y-62225371D01*
X166269943Y-62177752D01*
X166127086Y-62082514D01*
X165936610Y-62034895D01*
X165555657Y-62034895D01*
X165460419Y-62082514D01*
X165412800Y-62130133D01*
X165365181Y-62225371D01*
X165365181Y-62415848D01*
X165412800Y-62511086D01*
X165460419Y-62558705D01*
X165555657Y-62606324D01*
X165793752Y-62606324D01*
X165888990Y-62558705D01*
X165936610Y-62511086D01*
X165984229Y-62415848D01*
X165984229Y-62225371D01*
X165936610Y-62130133D01*
X165888990Y-62082514D01*
X165793752Y-62034895D01*
X189628543Y-43556181D02*
X189295209Y-43079990D01*
X189057114Y-43556181D02*
X189057114Y-42556181D01*
X189438067Y-42556181D01*
X189533305Y-42603800D01*
X189580924Y-42651419D01*
X189628543Y-42746657D01*
X189628543Y-42889514D01*
X189580924Y-42984752D01*
X189533305Y-43032371D01*
X189438067Y-43079990D01*
X189057114Y-43079990D01*
X190009495Y-42651419D02*
X190057114Y-42603800D01*
X190152352Y-42556181D01*
X190390448Y-42556181D01*
X190485686Y-42603800D01*
X190533305Y-42651419D01*
X190580924Y-42746657D01*
X190580924Y-42841895D01*
X190533305Y-42984752D01*
X189961876Y-43556181D01*
X190580924Y-43556181D01*
X191199971Y-42556181D02*
X191295210Y-42556181D01*
X191390448Y-42603800D01*
X191438067Y-42651419D01*
X191485686Y-42746657D01*
X191533305Y-42937133D01*
X191533305Y-43175229D01*
X191485686Y-43365705D01*
X191438067Y-43460943D01*
X191390448Y-43508562D01*
X191295210Y-43556181D01*
X191199971Y-43556181D01*
X191104733Y-43508562D01*
X191057114Y-43460943D01*
X191009495Y-43365705D01*
X190961876Y-43175229D01*
X190961876Y-42937133D01*
X191009495Y-42746657D01*
X191057114Y-42651419D01*
X191104733Y-42603800D01*
X191199971Y-42556181D01*
X206697343Y-104160581D02*
X206364009Y-103684390D01*
X206125914Y-104160581D02*
X206125914Y-103160581D01*
X206506867Y-103160581D01*
X206602105Y-103208200D01*
X206649724Y-103255819D01*
X206697343Y-103351057D01*
X206697343Y-103493914D01*
X206649724Y-103589152D01*
X206602105Y-103636771D01*
X206506867Y-103684390D01*
X206125914Y-103684390D01*
X207078295Y-103255819D02*
X207125914Y-103208200D01*
X207221152Y-103160581D01*
X207459248Y-103160581D01*
X207554486Y-103208200D01*
X207602105Y-103255819D01*
X207649724Y-103351057D01*
X207649724Y-103446295D01*
X207602105Y-103589152D01*
X207030676Y-104160581D01*
X207649724Y-104160581D01*
X208602105Y-104160581D02*
X208030676Y-104160581D01*
X208316390Y-104160581D02*
X208316390Y-103160581D01*
X208221152Y-103303438D01*
X208125914Y-103398676D01*
X208030676Y-103446295D01*
X198670943Y-104185981D02*
X198337609Y-103709790D01*
X198099514Y-104185981D02*
X198099514Y-103185981D01*
X198480467Y-103185981D01*
X198575705Y-103233600D01*
X198623324Y-103281219D01*
X198670943Y-103376457D01*
X198670943Y-103519314D01*
X198623324Y-103614552D01*
X198575705Y-103662171D01*
X198480467Y-103709790D01*
X198099514Y-103709790D01*
X199051895Y-103281219D02*
X199099514Y-103233600D01*
X199194752Y-103185981D01*
X199432848Y-103185981D01*
X199528086Y-103233600D01*
X199575705Y-103281219D01*
X199623324Y-103376457D01*
X199623324Y-103471695D01*
X199575705Y-103614552D01*
X199004276Y-104185981D01*
X199623324Y-104185981D01*
X200004276Y-103281219D02*
X200051895Y-103233600D01*
X200147133Y-103185981D01*
X200385229Y-103185981D01*
X200480467Y-103233600D01*
X200528086Y-103281219D01*
X200575705Y-103376457D01*
X200575705Y-103471695D01*
X200528086Y-103614552D01*
X199956657Y-104185981D01*
X200575705Y-104185981D01*
X198569343Y-105786181D02*
X198236009Y-105309990D01*
X197997914Y-105786181D02*
X197997914Y-104786181D01*
X198378867Y-104786181D01*
X198474105Y-104833800D01*
X198521724Y-104881419D01*
X198569343Y-104976657D01*
X198569343Y-105119514D01*
X198521724Y-105214752D01*
X198474105Y-105262371D01*
X198378867Y-105309990D01*
X197997914Y-105309990D01*
X198950295Y-104881419D02*
X198997914Y-104833800D01*
X199093152Y-104786181D01*
X199331248Y-104786181D01*
X199426486Y-104833800D01*
X199474105Y-104881419D01*
X199521724Y-104976657D01*
X199521724Y-105071895D01*
X199474105Y-105214752D01*
X198902676Y-105786181D01*
X199521724Y-105786181D01*
X199855057Y-104786181D02*
X200474105Y-104786181D01*
X200140771Y-105167133D01*
X200283629Y-105167133D01*
X200378867Y-105214752D01*
X200426486Y-105262371D01*
X200474105Y-105357610D01*
X200474105Y-105595705D01*
X200426486Y-105690943D01*
X200378867Y-105738562D01*
X200283629Y-105786181D01*
X199997914Y-105786181D01*
X199902676Y-105738562D01*
X199855057Y-105690943D01*
X194178181Y-69680057D02*
X193701990Y-70013391D01*
X194178181Y-70251486D02*
X193178181Y-70251486D01*
X193178181Y-69870533D01*
X193225800Y-69775295D01*
X193273419Y-69727676D01*
X193368657Y-69680057D01*
X193511514Y-69680057D01*
X193606752Y-69727676D01*
X193654371Y-69775295D01*
X193701990Y-69870533D01*
X193701990Y-70251486D01*
X193273419Y-69299105D02*
X193225800Y-69251486D01*
X193178181Y-69156248D01*
X193178181Y-68918152D01*
X193225800Y-68822914D01*
X193273419Y-68775295D01*
X193368657Y-68727676D01*
X193463895Y-68727676D01*
X193606752Y-68775295D01*
X194178181Y-69346724D01*
X194178181Y-68727676D01*
X193511514Y-67870533D02*
X194178181Y-67870533D01*
X193130562Y-68108629D02*
X193844848Y-68346724D01*
X193844848Y-67727676D01*
X196003943Y-99105981D02*
X195670609Y-98629790D01*
X195432514Y-99105981D02*
X195432514Y-98105981D01*
X195813467Y-98105981D01*
X195908705Y-98153600D01*
X195956324Y-98201219D01*
X196003943Y-98296457D01*
X196003943Y-98439314D01*
X195956324Y-98534552D01*
X195908705Y-98582171D01*
X195813467Y-98629790D01*
X195432514Y-98629790D01*
X196384895Y-98201219D02*
X196432514Y-98153600D01*
X196527752Y-98105981D01*
X196765848Y-98105981D01*
X196861086Y-98153600D01*
X196908705Y-98201219D01*
X196956324Y-98296457D01*
X196956324Y-98391695D01*
X196908705Y-98534552D01*
X196337276Y-99105981D01*
X196956324Y-99105981D01*
X197861086Y-98105981D02*
X197384895Y-98105981D01*
X197337276Y-98582171D01*
X197384895Y-98534552D01*
X197480133Y-98486933D01*
X197718229Y-98486933D01*
X197813467Y-98534552D01*
X197861086Y-98582171D01*
X197908705Y-98677410D01*
X197908705Y-98915505D01*
X197861086Y-99010743D01*
X197813467Y-99058362D01*
X197718229Y-99105981D01*
X197480133Y-99105981D01*
X197384895Y-99058362D01*
X197337276Y-99010743D01*
X168574981Y-63863457D02*
X168098790Y-64196791D01*
X168574981Y-64434886D02*
X167574981Y-64434886D01*
X167574981Y-64053933D01*
X167622600Y-63958695D01*
X167670219Y-63911076D01*
X167765457Y-63863457D01*
X167908314Y-63863457D01*
X168003552Y-63911076D01*
X168051171Y-63958695D01*
X168098790Y-64053933D01*
X168098790Y-64434886D01*
X167670219Y-63482505D02*
X167622600Y-63434886D01*
X167574981Y-63339648D01*
X167574981Y-63101552D01*
X167622600Y-63006314D01*
X167670219Y-62958695D01*
X167765457Y-62911076D01*
X167860695Y-62911076D01*
X168003552Y-62958695D01*
X168574981Y-63530124D01*
X168574981Y-62911076D01*
X167574981Y-62053933D02*
X167574981Y-62244410D01*
X167622600Y-62339648D01*
X167670219Y-62387267D01*
X167813076Y-62482505D01*
X168003552Y-62530124D01*
X168384505Y-62530124D01*
X168479743Y-62482505D01*
X168527362Y-62434886D01*
X168574981Y-62339648D01*
X168574981Y-62149171D01*
X168527362Y-62053933D01*
X168479743Y-62006314D01*
X168384505Y-61958695D01*
X168146410Y-61958695D01*
X168051171Y-62006314D01*
X168003552Y-62053933D01*
X167955933Y-62149171D01*
X167955933Y-62339648D01*
X168003552Y-62434886D01*
X168051171Y-62482505D01*
X168146410Y-62530124D01*
X139819143Y-43479981D02*
X139485809Y-43003790D01*
X139247714Y-43479981D02*
X139247714Y-42479981D01*
X139628667Y-42479981D01*
X139723905Y-42527600D01*
X139771524Y-42575219D01*
X139819143Y-42670457D01*
X139819143Y-42813314D01*
X139771524Y-42908552D01*
X139723905Y-42956171D01*
X139628667Y-43003790D01*
X139247714Y-43003790D01*
X140200095Y-42575219D02*
X140247714Y-42527600D01*
X140342952Y-42479981D01*
X140581048Y-42479981D01*
X140676286Y-42527600D01*
X140723905Y-42575219D01*
X140771524Y-42670457D01*
X140771524Y-42765695D01*
X140723905Y-42908552D01*
X140152476Y-43479981D01*
X140771524Y-43479981D01*
X141104857Y-42479981D02*
X141771524Y-42479981D01*
X141342952Y-43479981D01*
X206497181Y-88526857D02*
X206020990Y-88860191D01*
X206497181Y-89098286D02*
X205497181Y-89098286D01*
X205497181Y-88717333D01*
X205544800Y-88622095D01*
X205592419Y-88574476D01*
X205687657Y-88526857D01*
X205830514Y-88526857D01*
X205925752Y-88574476D01*
X205973371Y-88622095D01*
X206020990Y-88717333D01*
X206020990Y-89098286D01*
X205592419Y-88145905D02*
X205544800Y-88098286D01*
X205497181Y-88003048D01*
X205497181Y-87764952D01*
X205544800Y-87669714D01*
X205592419Y-87622095D01*
X205687657Y-87574476D01*
X205782895Y-87574476D01*
X205925752Y-87622095D01*
X206497181Y-88193524D01*
X206497181Y-87574476D01*
X205925752Y-87003048D02*
X205878133Y-87098286D01*
X205830514Y-87145905D01*
X205735276Y-87193524D01*
X205687657Y-87193524D01*
X205592419Y-87145905D01*
X205544800Y-87098286D01*
X205497181Y-87003048D01*
X205497181Y-86812571D01*
X205544800Y-86717333D01*
X205592419Y-86669714D01*
X205687657Y-86622095D01*
X205735276Y-86622095D01*
X205830514Y-86669714D01*
X205878133Y-86717333D01*
X205925752Y-86812571D01*
X205925752Y-87003048D01*
X205973371Y-87098286D01*
X206020990Y-87145905D01*
X206116229Y-87193524D01*
X206306705Y-87193524D01*
X206401943Y-87145905D01*
X206449562Y-87098286D01*
X206497181Y-87003048D01*
X206497181Y-86812571D01*
X206449562Y-86717333D01*
X206401943Y-86669714D01*
X206306705Y-86622095D01*
X206116229Y-86622095D01*
X206020990Y-86669714D01*
X205973371Y-86717333D01*
X205925752Y-86812571D01*
X215815943Y-98648781D02*
X215482609Y-98172590D01*
X215244514Y-98648781D02*
X215244514Y-97648781D01*
X215625467Y-97648781D01*
X215720705Y-97696400D01*
X215768324Y-97744019D01*
X215815943Y-97839257D01*
X215815943Y-97982114D01*
X215768324Y-98077352D01*
X215720705Y-98124971D01*
X215625467Y-98172590D01*
X215244514Y-98172590D01*
X216196895Y-97744019D02*
X216244514Y-97696400D01*
X216339752Y-97648781D01*
X216577848Y-97648781D01*
X216673086Y-97696400D01*
X216720705Y-97744019D01*
X216768324Y-97839257D01*
X216768324Y-97934495D01*
X216720705Y-98077352D01*
X216149276Y-98648781D01*
X216768324Y-98648781D01*
X217244514Y-98648781D02*
X217434990Y-98648781D01*
X217530229Y-98601162D01*
X217577848Y-98553543D01*
X217673086Y-98410686D01*
X217720705Y-98220210D01*
X217720705Y-97839257D01*
X217673086Y-97744019D01*
X217625467Y-97696400D01*
X217530229Y-97648781D01*
X217339752Y-97648781D01*
X217244514Y-97696400D01*
X217196895Y-97744019D01*
X217149276Y-97839257D01*
X217149276Y-98077352D01*
X217196895Y-98172590D01*
X217244514Y-98220210D01*
X217339752Y-98267829D01*
X217530229Y-98267829D01*
X217625467Y-98220210D01*
X217673086Y-98172590D01*
X217720705Y-98077352D01*
X215765143Y-100045781D02*
X215431809Y-99569590D01*
X215193714Y-100045781D02*
X215193714Y-99045781D01*
X215574667Y-99045781D01*
X215669905Y-99093400D01*
X215717524Y-99141019D01*
X215765143Y-99236257D01*
X215765143Y-99379114D01*
X215717524Y-99474352D01*
X215669905Y-99521971D01*
X215574667Y-99569590D01*
X215193714Y-99569590D01*
X216098476Y-99045781D02*
X216717524Y-99045781D01*
X216384190Y-99426733D01*
X216527048Y-99426733D01*
X216622286Y-99474352D01*
X216669905Y-99521971D01*
X216717524Y-99617210D01*
X216717524Y-99855305D01*
X216669905Y-99950543D01*
X216622286Y-99998162D01*
X216527048Y-100045781D01*
X216241333Y-100045781D01*
X216146095Y-99998162D01*
X216098476Y-99950543D01*
X217336571Y-99045781D02*
X217431810Y-99045781D01*
X217527048Y-99093400D01*
X217574667Y-99141019D01*
X217622286Y-99236257D01*
X217669905Y-99426733D01*
X217669905Y-99664829D01*
X217622286Y-99855305D01*
X217574667Y-99950543D01*
X217527048Y-99998162D01*
X217431810Y-100045781D01*
X217336571Y-100045781D01*
X217241333Y-99998162D01*
X217193714Y-99950543D01*
X217146095Y-99855305D01*
X217098476Y-99664829D01*
X217098476Y-99426733D01*
X217146095Y-99236257D01*
X217193714Y-99141019D01*
X217241333Y-99093400D01*
X217336571Y-99045781D01*
X216428581Y-94241857D02*
X215952390Y-94575191D01*
X216428581Y-94813286D02*
X215428581Y-94813286D01*
X215428581Y-94432333D01*
X215476200Y-94337095D01*
X215523819Y-94289476D01*
X215619057Y-94241857D01*
X215761914Y-94241857D01*
X215857152Y-94289476D01*
X215904771Y-94337095D01*
X215952390Y-94432333D01*
X215952390Y-94813286D01*
X215428581Y-93908524D02*
X215428581Y-93289476D01*
X215809533Y-93622810D01*
X215809533Y-93479952D01*
X215857152Y-93384714D01*
X215904771Y-93337095D01*
X216000010Y-93289476D01*
X216238105Y-93289476D01*
X216333343Y-93337095D01*
X216380962Y-93384714D01*
X216428581Y-93479952D01*
X216428581Y-93765667D01*
X216380962Y-93860905D01*
X216333343Y-93908524D01*
X216428581Y-92337095D02*
X216428581Y-92908524D01*
X216428581Y-92622810D02*
X215428581Y-92622810D01*
X215571438Y-92718048D01*
X215666676Y-92813286D01*
X215714295Y-92908524D01*
X217800181Y-94368857D02*
X217323990Y-94702191D01*
X217800181Y-94940286D02*
X216800181Y-94940286D01*
X216800181Y-94559333D01*
X216847800Y-94464095D01*
X216895419Y-94416476D01*
X216990657Y-94368857D01*
X217133514Y-94368857D01*
X217228752Y-94416476D01*
X217276371Y-94464095D01*
X217323990Y-94559333D01*
X217323990Y-94940286D01*
X216800181Y-94035524D02*
X216800181Y-93416476D01*
X217181133Y-93749810D01*
X217181133Y-93606952D01*
X217228752Y-93511714D01*
X217276371Y-93464095D01*
X217371610Y-93416476D01*
X217609705Y-93416476D01*
X217704943Y-93464095D01*
X217752562Y-93511714D01*
X217800181Y-93606952D01*
X217800181Y-93892667D01*
X217752562Y-93987905D01*
X217704943Y-94035524D01*
X216895419Y-93035524D02*
X216847800Y-92987905D01*
X216800181Y-92892667D01*
X216800181Y-92654571D01*
X216847800Y-92559333D01*
X216895419Y-92511714D01*
X216990657Y-92464095D01*
X217085895Y-92464095D01*
X217228752Y-92511714D01*
X217800181Y-93083143D01*
X217800181Y-92464095D01*
X208021181Y-88501457D02*
X207544990Y-88834791D01*
X208021181Y-89072886D02*
X207021181Y-89072886D01*
X207021181Y-88691933D01*
X207068800Y-88596695D01*
X207116419Y-88549076D01*
X207211657Y-88501457D01*
X207354514Y-88501457D01*
X207449752Y-88549076D01*
X207497371Y-88596695D01*
X207544990Y-88691933D01*
X207544990Y-89072886D01*
X207021181Y-88168124D02*
X207021181Y-87549076D01*
X207402133Y-87882410D01*
X207402133Y-87739552D01*
X207449752Y-87644314D01*
X207497371Y-87596695D01*
X207592610Y-87549076D01*
X207830705Y-87549076D01*
X207925943Y-87596695D01*
X207973562Y-87644314D01*
X208021181Y-87739552D01*
X208021181Y-88025267D01*
X207973562Y-88120505D01*
X207925943Y-88168124D01*
X207021181Y-87215743D02*
X207021181Y-86596695D01*
X207402133Y-86930029D01*
X207402133Y-86787171D01*
X207449752Y-86691933D01*
X207497371Y-86644314D01*
X207592610Y-86596695D01*
X207830705Y-86596695D01*
X207925943Y-86644314D01*
X207973562Y-86691933D01*
X208021181Y-86787171D01*
X208021181Y-87072886D01*
X207973562Y-87168124D01*
X207925943Y-87215743D01*
X209468981Y-88526857D02*
X208992790Y-88860191D01*
X209468981Y-89098286D02*
X208468981Y-89098286D01*
X208468981Y-88717333D01*
X208516600Y-88622095D01*
X208564219Y-88574476D01*
X208659457Y-88526857D01*
X208802314Y-88526857D01*
X208897552Y-88574476D01*
X208945171Y-88622095D01*
X208992790Y-88717333D01*
X208992790Y-89098286D01*
X208468981Y-88193524D02*
X208468981Y-87574476D01*
X208849933Y-87907810D01*
X208849933Y-87764952D01*
X208897552Y-87669714D01*
X208945171Y-87622095D01*
X209040410Y-87574476D01*
X209278505Y-87574476D01*
X209373743Y-87622095D01*
X209421362Y-87669714D01*
X209468981Y-87764952D01*
X209468981Y-88050667D01*
X209421362Y-88145905D01*
X209373743Y-88193524D01*
X208802314Y-86717333D02*
X209468981Y-86717333D01*
X208421362Y-86955429D02*
X209135648Y-87193524D01*
X209135648Y-86574476D01*
X202102981Y-89923857D02*
X201626790Y-90257191D01*
X202102981Y-90495286D02*
X201102981Y-90495286D01*
X201102981Y-90114333D01*
X201150600Y-90019095D01*
X201198219Y-89971476D01*
X201293457Y-89923857D01*
X201436314Y-89923857D01*
X201531552Y-89971476D01*
X201579171Y-90019095D01*
X201626790Y-90114333D01*
X201626790Y-90495286D01*
X201102981Y-89590524D02*
X201102981Y-88971476D01*
X201483933Y-89304810D01*
X201483933Y-89161952D01*
X201531552Y-89066714D01*
X201579171Y-89019095D01*
X201674410Y-88971476D01*
X201912505Y-88971476D01*
X202007743Y-89019095D01*
X202055362Y-89066714D01*
X202102981Y-89161952D01*
X202102981Y-89447667D01*
X202055362Y-89542905D01*
X202007743Y-89590524D01*
X201102981Y-88066714D02*
X201102981Y-88542905D01*
X201579171Y-88590524D01*
X201531552Y-88542905D01*
X201483933Y-88447667D01*
X201483933Y-88209571D01*
X201531552Y-88114333D01*
X201579171Y-88066714D01*
X201674410Y-88019095D01*
X201912505Y-88019095D01*
X202007743Y-88066714D01*
X202055362Y-88114333D01*
X202102981Y-88209571D01*
X202102981Y-88447667D01*
X202055362Y-88542905D01*
X202007743Y-88590524D01*
X204973181Y-88552257D02*
X204496990Y-88885591D01*
X204973181Y-89123686D02*
X203973181Y-89123686D01*
X203973181Y-88742733D01*
X204020800Y-88647495D01*
X204068419Y-88599876D01*
X204163657Y-88552257D01*
X204306514Y-88552257D01*
X204401752Y-88599876D01*
X204449371Y-88647495D01*
X204496990Y-88742733D01*
X204496990Y-89123686D01*
X203973181Y-88218924D02*
X203973181Y-87599876D01*
X204354133Y-87933210D01*
X204354133Y-87790352D01*
X204401752Y-87695114D01*
X204449371Y-87647495D01*
X204544610Y-87599876D01*
X204782705Y-87599876D01*
X204877943Y-87647495D01*
X204925562Y-87695114D01*
X204973181Y-87790352D01*
X204973181Y-88076067D01*
X204925562Y-88171305D01*
X204877943Y-88218924D01*
X203973181Y-86742733D02*
X203973181Y-86933210D01*
X204020800Y-87028448D01*
X204068419Y-87076067D01*
X204211276Y-87171305D01*
X204401752Y-87218924D01*
X204782705Y-87218924D01*
X204877943Y-87171305D01*
X204925562Y-87123686D01*
X204973181Y-87028448D01*
X204973181Y-86837971D01*
X204925562Y-86742733D01*
X204877943Y-86695114D01*
X204782705Y-86647495D01*
X204544610Y-86647495D01*
X204449371Y-86695114D01*
X204401752Y-86742733D01*
X204354133Y-86837971D01*
X204354133Y-87028448D01*
X204401752Y-87123686D01*
X204449371Y-87171305D01*
X204544610Y-87218924D01*
X215815943Y-102738181D02*
X215482609Y-102261990D01*
X215244514Y-102738181D02*
X215244514Y-101738181D01*
X215625467Y-101738181D01*
X215720705Y-101785800D01*
X215768324Y-101833419D01*
X215815943Y-101928657D01*
X215815943Y-102071514D01*
X215768324Y-102166752D01*
X215720705Y-102214371D01*
X215625467Y-102261990D01*
X215244514Y-102261990D01*
X216149276Y-101738181D02*
X216768324Y-101738181D01*
X216434990Y-102119133D01*
X216577848Y-102119133D01*
X216673086Y-102166752D01*
X216720705Y-102214371D01*
X216768324Y-102309610D01*
X216768324Y-102547705D01*
X216720705Y-102642943D01*
X216673086Y-102690562D01*
X216577848Y-102738181D01*
X216292133Y-102738181D01*
X216196895Y-102690562D01*
X216149276Y-102642943D01*
X217101657Y-101738181D02*
X217768324Y-101738181D01*
X217339752Y-102738181D01*
X189961781Y-69553057D02*
X189485590Y-69886391D01*
X189961781Y-70124486D02*
X188961781Y-70124486D01*
X188961781Y-69743533D01*
X189009400Y-69648295D01*
X189057019Y-69600676D01*
X189152257Y-69553057D01*
X189295114Y-69553057D01*
X189390352Y-69600676D01*
X189437971Y-69648295D01*
X189485590Y-69743533D01*
X189485590Y-70124486D01*
X188961781Y-69219724D02*
X188961781Y-68600676D01*
X189342733Y-68934010D01*
X189342733Y-68791152D01*
X189390352Y-68695914D01*
X189437971Y-68648295D01*
X189533210Y-68600676D01*
X189771305Y-68600676D01*
X189866543Y-68648295D01*
X189914162Y-68695914D01*
X189961781Y-68791152D01*
X189961781Y-69076867D01*
X189914162Y-69172105D01*
X189866543Y-69219724D01*
X189390352Y-68029248D02*
X189342733Y-68124486D01*
X189295114Y-68172105D01*
X189199876Y-68219724D01*
X189152257Y-68219724D01*
X189057019Y-68172105D01*
X189009400Y-68124486D01*
X188961781Y-68029248D01*
X188961781Y-67838771D01*
X189009400Y-67743533D01*
X189057019Y-67695914D01*
X189152257Y-67648295D01*
X189199876Y-67648295D01*
X189295114Y-67695914D01*
X189342733Y-67743533D01*
X189390352Y-67838771D01*
X189390352Y-68029248D01*
X189437971Y-68124486D01*
X189485590Y-68172105D01*
X189580829Y-68219724D01*
X189771305Y-68219724D01*
X189866543Y-68172105D01*
X189914162Y-68124486D01*
X189961781Y-68029248D01*
X189961781Y-67838771D01*
X189914162Y-67743533D01*
X189866543Y-67695914D01*
X189771305Y-67648295D01*
X189580829Y-67648295D01*
X189485590Y-67695914D01*
X189437971Y-67743533D01*
X189390352Y-67838771D01*
X170505381Y-63812657D02*
X170029190Y-64145991D01*
X170505381Y-64384086D02*
X169505381Y-64384086D01*
X169505381Y-64003133D01*
X169553000Y-63907895D01*
X169600619Y-63860276D01*
X169695857Y-63812657D01*
X169838714Y-63812657D01*
X169933952Y-63860276D01*
X169981571Y-63907895D01*
X170029190Y-64003133D01*
X170029190Y-64384086D01*
X169505381Y-63479324D02*
X169505381Y-62860276D01*
X169886333Y-63193610D01*
X169886333Y-63050752D01*
X169933952Y-62955514D01*
X169981571Y-62907895D01*
X170076810Y-62860276D01*
X170314905Y-62860276D01*
X170410143Y-62907895D01*
X170457762Y-62955514D01*
X170505381Y-63050752D01*
X170505381Y-63336467D01*
X170457762Y-63431705D01*
X170410143Y-63479324D01*
X170505381Y-62384086D02*
X170505381Y-62193610D01*
X170457762Y-62098371D01*
X170410143Y-62050752D01*
X170267286Y-61955514D01*
X170076810Y-61907895D01*
X169695857Y-61907895D01*
X169600619Y-61955514D01*
X169553000Y-62003133D01*
X169505381Y-62098371D01*
X169505381Y-62288848D01*
X169553000Y-62384086D01*
X169600619Y-62431705D01*
X169695857Y-62479324D01*
X169933952Y-62479324D01*
X170029190Y-62431705D01*
X170076810Y-62384086D01*
X170124429Y-62288848D01*
X170124429Y-62098371D01*
X170076810Y-62003133D01*
X170029190Y-61955514D01*
X169933952Y-61907895D01*
X191993781Y-69553057D02*
X191517590Y-69886391D01*
X191993781Y-70124486D02*
X190993781Y-70124486D01*
X190993781Y-69743533D01*
X191041400Y-69648295D01*
X191089019Y-69600676D01*
X191184257Y-69553057D01*
X191327114Y-69553057D01*
X191422352Y-69600676D01*
X191469971Y-69648295D01*
X191517590Y-69743533D01*
X191517590Y-70124486D01*
X191327114Y-68695914D02*
X191993781Y-68695914D01*
X190946162Y-68934010D02*
X191660448Y-69172105D01*
X191660448Y-68553057D01*
X190993781Y-67981629D02*
X190993781Y-67886390D01*
X191041400Y-67791152D01*
X191089019Y-67743533D01*
X191184257Y-67695914D01*
X191374733Y-67648295D01*
X191612829Y-67648295D01*
X191803305Y-67695914D01*
X191898543Y-67743533D01*
X191946162Y-67791152D01*
X191993781Y-67886390D01*
X191993781Y-67981629D01*
X191946162Y-68076867D01*
X191898543Y-68124486D01*
X191803305Y-68172105D01*
X191612829Y-68219724D01*
X191374733Y-68219724D01*
X191184257Y-68172105D01*
X191089019Y-68124486D01*
X191041400Y-68076867D01*
X190993781Y-67981629D01*
X172588181Y-63965057D02*
X172111990Y-64298391D01*
X172588181Y-64536486D02*
X171588181Y-64536486D01*
X171588181Y-64155533D01*
X171635800Y-64060295D01*
X171683419Y-64012676D01*
X171778657Y-63965057D01*
X171921514Y-63965057D01*
X172016752Y-64012676D01*
X172064371Y-64060295D01*
X172111990Y-64155533D01*
X172111990Y-64536486D01*
X171921514Y-63107914D02*
X172588181Y-63107914D01*
X171540562Y-63346010D02*
X172254848Y-63584105D01*
X172254848Y-62965057D01*
X172588181Y-62060295D02*
X172588181Y-62631724D01*
X172588181Y-62346010D02*
X171588181Y-62346010D01*
X171731038Y-62441248D01*
X171826276Y-62536486D01*
X171873895Y-62631724D01*
X158137781Y-45079457D02*
X157661590Y-45412791D01*
X158137781Y-45650886D02*
X157137781Y-45650886D01*
X157137781Y-45269933D01*
X157185400Y-45174695D01*
X157233019Y-45127076D01*
X157328257Y-45079457D01*
X157471114Y-45079457D01*
X157566352Y-45127076D01*
X157613971Y-45174695D01*
X157661590Y-45269933D01*
X157661590Y-45650886D01*
X157471114Y-44222314D02*
X158137781Y-44222314D01*
X157090162Y-44460410D02*
X157804448Y-44698505D01*
X157804448Y-44079457D01*
X157233019Y-43746124D02*
X157185400Y-43698505D01*
X157137781Y-43603267D01*
X157137781Y-43365171D01*
X157185400Y-43269933D01*
X157233019Y-43222314D01*
X157328257Y-43174695D01*
X157423495Y-43174695D01*
X157566352Y-43222314D01*
X158137781Y-43793743D01*
X158137781Y-43174695D01*
X149702781Y-47582057D02*
X149226590Y-47915391D01*
X149702781Y-48153486D02*
X148702781Y-48153486D01*
X148702781Y-47772533D01*
X148750400Y-47677295D01*
X148798019Y-47629676D01*
X148893257Y-47582057D01*
X149036114Y-47582057D01*
X149131352Y-47629676D01*
X149178971Y-47677295D01*
X149226590Y-47772533D01*
X149226590Y-48153486D01*
X149036114Y-46724914D02*
X149702781Y-46724914D01*
X148655162Y-46963010D02*
X149369448Y-47201105D01*
X149369448Y-46582057D01*
X148702781Y-46296343D02*
X148702781Y-45677295D01*
X149083733Y-46010629D01*
X149083733Y-45867771D01*
X149131352Y-45772533D01*
X149178971Y-45724914D01*
X149274210Y-45677295D01*
X149512305Y-45677295D01*
X149607543Y-45724914D01*
X149655162Y-45772533D01*
X149702781Y-45867771D01*
X149702781Y-46153486D01*
X149655162Y-46248724D01*
X149607543Y-46296343D01*
X151810981Y-46489857D02*
X151334790Y-46823191D01*
X151810981Y-47061286D02*
X150810981Y-47061286D01*
X150810981Y-46680333D01*
X150858600Y-46585095D01*
X150906219Y-46537476D01*
X151001457Y-46489857D01*
X151144314Y-46489857D01*
X151239552Y-46537476D01*
X151287171Y-46585095D01*
X151334790Y-46680333D01*
X151334790Y-47061286D01*
X151144314Y-45632714D02*
X151810981Y-45632714D01*
X150763362Y-45870810D02*
X151477648Y-46108905D01*
X151477648Y-45489857D01*
X151144314Y-44680333D02*
X151810981Y-44680333D01*
X150763362Y-44918429D02*
X151477648Y-45156524D01*
X151477648Y-44537476D01*
X128902381Y-59689905D02*
X128902381Y-59118476D01*
X129902381Y-59404191D02*
X128902381Y-59404191D01*
X129902381Y-58261333D02*
X129902381Y-58832762D01*
X129902381Y-58547048D02*
X128902381Y-58547048D01*
X129045238Y-58642286D01*
X129140476Y-58737524D01*
X129188095Y-58832762D01*
X191212095Y-80052381D02*
X191783524Y-80052381D01*
X191497809Y-81052381D02*
X191497809Y-80052381D01*
X192069238Y-80147619D02*
X192116857Y-80100000D01*
X192212095Y-80052381D01*
X192450191Y-80052381D01*
X192545429Y-80100000D01*
X192593048Y-80147619D01*
X192640667Y-80242857D01*
X192640667Y-80338095D01*
X192593048Y-80480952D01*
X192021619Y-81052381D01*
X192640667Y-81052381D01*
X185786781Y-71170705D02*
X185786781Y-70599276D01*
X186786781Y-70884991D02*
X185786781Y-70884991D01*
X186120114Y-69837371D02*
X186786781Y-69837371D01*
X185739162Y-70075467D02*
X186453448Y-70313562D01*
X186453448Y-69694514D01*
X181214781Y-65481105D02*
X181214781Y-64909676D01*
X182214781Y-65195391D02*
X181214781Y-65195391D01*
X181214781Y-64100152D02*
X181214781Y-64576343D01*
X181690971Y-64623962D01*
X181643352Y-64576343D01*
X181595733Y-64481105D01*
X181595733Y-64243009D01*
X181643352Y-64147771D01*
X181690971Y-64100152D01*
X181786210Y-64052533D01*
X182024305Y-64052533D01*
X182119543Y-64100152D01*
X182167162Y-64147771D01*
X182214781Y-64243009D01*
X182214781Y-64481105D01*
X182167162Y-64576343D01*
X182119543Y-64623962D01*
X153390695Y-45858181D02*
X153962124Y-45858181D01*
X153676409Y-46858181D02*
X153676409Y-45858181D01*
X154724029Y-45858181D02*
X154533552Y-45858181D01*
X154438314Y-45905800D01*
X154390695Y-45953419D01*
X154295457Y-46096276D01*
X154247838Y-46286752D01*
X154247838Y-46667705D01*
X154295457Y-46762943D01*
X154343076Y-46810562D01*
X154438314Y-46858181D01*
X154628791Y-46858181D01*
X154724029Y-46810562D01*
X154771648Y-46762943D01*
X154819267Y-46667705D01*
X154819267Y-46429610D01*
X154771648Y-46334371D01*
X154724029Y-46286752D01*
X154628791Y-46239133D01*
X154438314Y-46239133D01*
X154343076Y-46286752D01*
X154295457Y-46334371D01*
X154247838Y-46429610D01*
X138531695Y-38187381D02*
X139103124Y-38187381D01*
X138817409Y-39187381D02*
X138817409Y-38187381D01*
X139341219Y-38187381D02*
X140007886Y-38187381D01*
X139579314Y-39187381D01*
X187872381Y-103759524D02*
X188872381Y-103092857D01*
X187872381Y-103092857D02*
X188872381Y-103759524D01*
X187967619Y-102759524D02*
X187920000Y-102711905D01*
X187872381Y-102616667D01*
X187872381Y-102378571D01*
X187920000Y-102283333D01*
X187967619Y-102235714D01*
X188062857Y-102188095D01*
X188158095Y-102188095D01*
X188300952Y-102235714D01*
X188872381Y-102807143D01*
X188872381Y-102188095D01*
X195380076Y-104506781D02*
X196046743Y-105506781D01*
X196046743Y-104506781D02*
X195380076Y-105506781D01*
X196332457Y-104506781D02*
X196951505Y-104506781D01*
X196618171Y-104887733D01*
X196761029Y-104887733D01*
X196856267Y-104935352D01*
X196903886Y-104982971D01*
X196951505Y-105078210D01*
X196951505Y-105316305D01*
X196903886Y-105411543D01*
X196856267Y-105459162D01*
X196761029Y-105506781D01*
X196475314Y-105506781D01*
X196380076Y-105459162D01*
X196332457Y-105411543D01*
X114836676Y-69279381D02*
X115503343Y-70279381D01*
X115503343Y-69279381D02*
X114836676Y-70279381D01*
X116312867Y-69612714D02*
X116312867Y-70279381D01*
X116074771Y-69231762D02*
X115836676Y-69946048D01*
X116455724Y-69946048D01*
X118570476Y-102500181D02*
X119237143Y-103500181D01*
X119237143Y-102500181D02*
X118570476Y-103500181D01*
X120094286Y-102500181D02*
X119618095Y-102500181D01*
X119570476Y-102976371D01*
X119618095Y-102928752D01*
X119713333Y-102881133D01*
X119951429Y-102881133D01*
X120046667Y-102928752D01*
X120094286Y-102976371D01*
X120141905Y-103071610D01*
X120141905Y-103309705D01*
X120094286Y-103404943D01*
X120046667Y-103452562D01*
X119951429Y-103500181D01*
X119713333Y-103500181D01*
X119618095Y-103452562D01*
X119570476Y-103404943D01*
X201501476Y-80628381D02*
X202168143Y-81628381D01*
X202168143Y-80628381D02*
X201501476Y-81628381D01*
X202977667Y-80628381D02*
X202787190Y-80628381D01*
X202691952Y-80676000D01*
X202644333Y-80723619D01*
X202549095Y-80866476D01*
X202501476Y-81056952D01*
X202501476Y-81437905D01*
X202549095Y-81533143D01*
X202596714Y-81580762D01*
X202691952Y-81628381D01*
X202882429Y-81628381D01*
X202977667Y-81580762D01*
X203025286Y-81533143D01*
X203072905Y-81437905D01*
X203072905Y-81199810D01*
X203025286Y-81104571D01*
X202977667Y-81056952D01*
X202882429Y-81009333D01*
X202691952Y-81009333D01*
X202596714Y-81056952D01*
X202549095Y-81104571D01*
X202501476Y-81199810D01*
X198072476Y-80628381D02*
X198739143Y-81628381D01*
X198739143Y-80628381D02*
X198072476Y-81628381D01*
X199024857Y-80628381D02*
X199691524Y-80628381D01*
X199262952Y-81628381D01*
X117529076Y-84516981D02*
X118195743Y-85516981D01*
X118195743Y-84516981D02*
X117529076Y-85516981D01*
X118719552Y-84945552D02*
X118624314Y-84897933D01*
X118576695Y-84850314D01*
X118529076Y-84755076D01*
X118529076Y-84707457D01*
X118576695Y-84612219D01*
X118624314Y-84564600D01*
X118719552Y-84516981D01*
X118910029Y-84516981D01*
X119005267Y-84564600D01*
X119052886Y-84612219D01*
X119100505Y-84707457D01*
X119100505Y-84755076D01*
X119052886Y-84850314D01*
X119005267Y-84897933D01*
X118910029Y-84945552D01*
X118719552Y-84945552D01*
X118624314Y-84993171D01*
X118576695Y-85040790D01*
X118529076Y-85136029D01*
X118529076Y-85326505D01*
X118576695Y-85421743D01*
X118624314Y-85469362D01*
X118719552Y-85516981D01*
X118910029Y-85516981D01*
X119005267Y-85469362D01*
X119052886Y-85421743D01*
X119100505Y-85326505D01*
X119100505Y-85136029D01*
X119052886Y-85040790D01*
X119005267Y-84993171D01*
X118910029Y-84945552D01*
X176939676Y-41438581D02*
X177606343Y-42438581D01*
X177606343Y-41438581D02*
X176939676Y-42438581D01*
X178034914Y-42438581D02*
X178225390Y-42438581D01*
X178320629Y-42390962D01*
X178368248Y-42343343D01*
X178463486Y-42200486D01*
X178511105Y-42010010D01*
X178511105Y-41629057D01*
X178463486Y-41533819D01*
X178415867Y-41486200D01*
X178320629Y-41438581D01*
X178130152Y-41438581D01*
X178034914Y-41486200D01*
X177987295Y-41533819D01*
X177939676Y-41629057D01*
X177939676Y-41867152D01*
X177987295Y-41962390D01*
X178034914Y-42010010D01*
X178130152Y-42057629D01*
X178320629Y-42057629D01*
X178415867Y-42010010D01*
X178463486Y-41962390D01*
X178511105Y-41867152D01*
X210423286Y-77709781D02*
X211089953Y-78709781D01*
X211089953Y-77709781D02*
X210423286Y-78709781D01*
X211994715Y-78709781D02*
X211423286Y-78709781D01*
X211709000Y-78709781D02*
X211709000Y-77709781D01*
X211613762Y-77852638D01*
X211518524Y-77947876D01*
X211423286Y-77995495D01*
X212947096Y-78709781D02*
X212375667Y-78709781D01*
X212661381Y-78709781D02*
X212661381Y-77709781D01*
X212566143Y-77852638D01*
X212470905Y-77947876D01*
X212375667Y-77995495D01*
X209864486Y-65238381D02*
X210531153Y-66238381D01*
X210531153Y-65238381D02*
X209864486Y-66238381D01*
X211435915Y-66238381D02*
X210864486Y-66238381D01*
X211150200Y-66238381D02*
X211150200Y-65238381D01*
X211054962Y-65381238D01*
X210959724Y-65476476D01*
X210864486Y-65524095D01*
X211816867Y-65333619D02*
X211864486Y-65286000D01*
X211959724Y-65238381D01*
X212197820Y-65238381D01*
X212293058Y-65286000D01*
X212340677Y-65333619D01*
X212388296Y-65428857D01*
X212388296Y-65524095D01*
X212340677Y-65666952D01*
X211769248Y-66238381D01*
X212388296Y-66238381D01*
X209788286Y-53401981D02*
X210454953Y-54401981D01*
X210454953Y-53401981D02*
X209788286Y-54401981D01*
X211359715Y-54401981D02*
X210788286Y-54401981D01*
X211074000Y-54401981D02*
X211074000Y-53401981D01*
X210978762Y-53544838D01*
X210883524Y-53640076D01*
X210788286Y-53687695D01*
X211693048Y-53401981D02*
X212312096Y-53401981D01*
X211978762Y-53782933D01*
X212121620Y-53782933D01*
X212216858Y-53830552D01*
X212264477Y-53878171D01*
X212312096Y-53973410D01*
X212312096Y-54211505D01*
X212264477Y-54306743D01*
X212216858Y-54354362D01*
X212121620Y-54401981D01*
X211835905Y-54401981D01*
X211740667Y-54354362D01*
X211693048Y-54306743D01*
X210474086Y-41565581D02*
X211140753Y-42565581D01*
X211140753Y-41565581D02*
X210474086Y-42565581D01*
X212045515Y-42565581D02*
X211474086Y-42565581D01*
X211759800Y-42565581D02*
X211759800Y-41565581D01*
X211664562Y-41708438D01*
X211569324Y-41803676D01*
X211474086Y-41851295D01*
X212902658Y-41898914D02*
X212902658Y-42565581D01*
X212664562Y-41517962D02*
X212426467Y-42232248D01*
X213045515Y-42232248D01*
X196856409Y-96953390D02*
X196856409Y-97429581D01*
X196523076Y-96429581D02*
X196856409Y-96953390D01*
X197189743Y-96429581D01*
X198046886Y-97429581D02*
X197475457Y-97429581D01*
X197761171Y-97429581D02*
X197761171Y-96429581D01*
X197665933Y-96572438D01*
X197570695Y-96667676D01*
X197475457Y-96715295D01*
X130887143Y-102322857D02*
X130934762Y-102370476D01*
X130982381Y-102513333D01*
X130982381Y-102608571D01*
X130934762Y-102751429D01*
X130839524Y-102846667D01*
X130744286Y-102894286D01*
X130553810Y-102941905D01*
X130410952Y-102941905D01*
X130220476Y-102894286D01*
X130125238Y-102846667D01*
X130030000Y-102751429D01*
X129982381Y-102608571D01*
X129982381Y-102513333D01*
X130030000Y-102370476D01*
X130077619Y-102322857D01*
X129982381Y-101989524D02*
X129982381Y-101370476D01*
X130363333Y-101703810D01*
X130363333Y-101560952D01*
X130410952Y-101465714D01*
X130458571Y-101418095D01*
X130553810Y-101370476D01*
X130791905Y-101370476D01*
X130887143Y-101418095D01*
X130934762Y-101465714D01*
X130982381Y-101560952D01*
X130982381Y-101846667D01*
X130934762Y-101941905D01*
X130887143Y-101989524D01*
X130982381Y-100894286D02*
X130982381Y-100703810D01*
X130934762Y-100608571D01*
X130887143Y-100560952D01*
X130744286Y-100465714D01*
X130553810Y-100418095D01*
X130172857Y-100418095D01*
X130077619Y-100465714D01*
X130030000Y-100513333D01*
X129982381Y-100608571D01*
X129982381Y-100799048D01*
X130030000Y-100894286D01*
X130077619Y-100941905D01*
X130172857Y-100989524D01*
X130410952Y-100989524D01*
X130506190Y-100941905D01*
X130553810Y-100894286D01*
X130601429Y-100799048D01*
X130601429Y-100608571D01*
X130553810Y-100513333D01*
X130506190Y-100465714D01*
X130410952Y-100418095D01*
X130832381Y-98822857D02*
X130356190Y-99156191D01*
X130832381Y-99394286D02*
X129832381Y-99394286D01*
X129832381Y-99013333D01*
X129880000Y-98918095D01*
X129927619Y-98870476D01*
X130022857Y-98822857D01*
X130165714Y-98822857D01*
X130260952Y-98870476D01*
X130308571Y-98918095D01*
X130356190Y-99013333D01*
X130356190Y-99394286D01*
X130165714Y-97965714D02*
X130832381Y-97965714D01*
X129784762Y-98203810D02*
X130499048Y-98441905D01*
X130499048Y-97822857D01*
X129832381Y-96965714D02*
X129832381Y-97441905D01*
X130308571Y-97489524D01*
X130260952Y-97441905D01*
X130213333Y-97346667D01*
X130213333Y-97108571D01*
X130260952Y-97013333D01*
X130308571Y-96965714D01*
X130403810Y-96918095D01*
X130641905Y-96918095D01*
X130737143Y-96965714D01*
X130784762Y-97013333D01*
X130832381Y-97108571D01*
X130832381Y-97346667D01*
X130784762Y-97441905D01*
X130737143Y-97489524D01*
X196161067Y-101357181D02*
X196161067Y-102071467D01*
X196113447Y-102214324D01*
X196018209Y-102309562D01*
X195875352Y-102357181D01*
X195780114Y-102357181D01*
X197065829Y-101690514D02*
X197065829Y-102357181D01*
X196827733Y-101309562D02*
X196589638Y-102023848D01*
X197208686Y-102023848D01*
X143433895Y-83355181D02*
X144005324Y-83355181D01*
X143719609Y-84355181D02*
X143719609Y-83355181D01*
X144243419Y-83355181D02*
X144862467Y-83355181D01*
X144529133Y-83736133D01*
X144671991Y-83736133D01*
X144767229Y-83783752D01*
X144814848Y-83831371D01*
X144862467Y-83926610D01*
X144862467Y-84164705D01*
X144814848Y-84259943D01*
X144767229Y-84307562D01*
X144671991Y-84355181D01*
X144386276Y-84355181D01*
X144291038Y-84307562D01*
X144243419Y-84259943D01*
X137329943Y-93473543D02*
X137282324Y-93521162D01*
X137139467Y-93568781D01*
X137044229Y-93568781D01*
X136901371Y-93521162D01*
X136806133Y-93425924D01*
X136758514Y-93330686D01*
X136710895Y-93140210D01*
X136710895Y-92997352D01*
X136758514Y-92806876D01*
X136806133Y-92711638D01*
X136901371Y-92616400D01*
X137044229Y-92568781D01*
X137139467Y-92568781D01*
X137282324Y-92616400D01*
X137329943Y-92664019D01*
X138187086Y-92902114D02*
X138187086Y-93568781D01*
X137948990Y-92521162D02*
X137710895Y-93235448D01*
X138329943Y-93235448D01*
X138901371Y-92568781D02*
X138996610Y-92568781D01*
X139091848Y-92616400D01*
X139139467Y-92664019D01*
X139187086Y-92759257D01*
X139234705Y-92949733D01*
X139234705Y-93187829D01*
X139187086Y-93378305D01*
X139139467Y-93473543D01*
X139091848Y-93521162D01*
X138996610Y-93568781D01*
X138901371Y-93568781D01*
X138806133Y-93521162D01*
X138758514Y-93473543D01*
X138710895Y-93378305D01*
X138663276Y-93187829D01*
X138663276Y-92949733D01*
X138710895Y-92759257D01*
X138758514Y-92664019D01*
X138806133Y-92616400D01*
X138901371Y-92568781D01*
X140914381Y-90914457D02*
X140438190Y-91247791D01*
X140914381Y-91485886D02*
X139914381Y-91485886D01*
X139914381Y-91104933D01*
X139962000Y-91009695D01*
X140009619Y-90962076D01*
X140104857Y-90914457D01*
X140247714Y-90914457D01*
X140342952Y-90962076D01*
X140390571Y-91009695D01*
X140438190Y-91104933D01*
X140438190Y-91485886D01*
X140247714Y-90057314D02*
X140914381Y-90057314D01*
X139866762Y-90295410D02*
X140581048Y-90533505D01*
X140581048Y-89914457D01*
X139914381Y-89104933D02*
X139914381Y-89295410D01*
X139962000Y-89390648D01*
X140009619Y-89438267D01*
X140152476Y-89533505D01*
X140342952Y-89581124D01*
X140723905Y-89581124D01*
X140819143Y-89533505D01*
X140866762Y-89485886D01*
X140914381Y-89390648D01*
X140914381Y-89200171D01*
X140866762Y-89104933D01*
X140819143Y-89057314D01*
X140723905Y-89009695D01*
X140485810Y-89009695D01*
X140390571Y-89057314D01*
X140342952Y-89104933D01*
X140295333Y-89200171D01*
X140295333Y-89390648D01*
X140342952Y-89485886D01*
X140390571Y-89533505D01*
X140485810Y-89581124D01*
M02*
