G04 #@! TF.FileFunction,Soldermask,Bot*
%FSLAX46Y46*%
G04 Gerber Fmt 4.6, Leading zero omitted, Abs format (unit mm)*
G04 Created by KiCad (PCBNEW 4.0.6) date 05/08/17 11:25:49*
%MOMM*%
%LPD*%
G01*
G04 APERTURE LIST*
%ADD10C,0.100000*%
%ADD11R,2.000000X2.000000*%
%ADD12C,2.000000*%
%ADD13R,2.100000X2.100000*%
%ADD14O,2.100000X2.100000*%
%ADD15C,1.200000*%
G04 APERTURE END LIST*
D10*
D11*
X124530000Y-75680000D03*
D12*
X121030000Y-75680000D03*
D13*
X178536600Y-96062800D03*
D14*
X178536600Y-93522800D03*
D13*
X183286400Y-45542200D03*
D14*
X185826400Y-45542200D03*
X188366400Y-45542200D03*
D13*
X145030000Y-91680000D03*
D14*
X147570000Y-91680000D03*
D13*
X186030000Y-101680000D03*
D14*
X186030000Y-104220000D03*
X183490000Y-101680000D03*
X183490000Y-104220000D03*
X180950000Y-101680000D03*
X180950000Y-104220000D03*
X178410000Y-101680000D03*
X178410000Y-104220000D03*
X175870000Y-101680000D03*
X175870000Y-104220000D03*
X173330000Y-101680000D03*
X173330000Y-104220000D03*
X170790000Y-101680000D03*
X170790000Y-104220000D03*
X168250000Y-101680000D03*
X168250000Y-104220000D03*
X165710000Y-101680000D03*
X165710000Y-104220000D03*
X163170000Y-101680000D03*
X163170000Y-104220000D03*
X160630000Y-101680000D03*
X160630000Y-104220000D03*
X158090000Y-101680000D03*
X158090000Y-104220000D03*
X155550000Y-101680000D03*
X155550000Y-104220000D03*
X153010000Y-101680000D03*
X153010000Y-104220000D03*
X150470000Y-101680000D03*
X150470000Y-104220000D03*
X147930000Y-101680000D03*
X147930000Y-104220000D03*
X145390000Y-101680000D03*
X145390000Y-104220000D03*
X142850000Y-101680000D03*
X142850000Y-104220000D03*
X140310000Y-101680000D03*
X140310000Y-104220000D03*
X137770000Y-101680000D03*
X137770000Y-104220000D03*
D13*
X193421000Y-104140000D03*
D14*
X190881000Y-104140000D03*
X193421000Y-101600000D03*
X190881000Y-101600000D03*
X193421000Y-99060000D03*
X190881000Y-99060000D03*
X193421000Y-96520000D03*
X190881000Y-96520000D03*
X193421000Y-93980000D03*
X190881000Y-93980000D03*
X193421000Y-91440000D03*
X190881000Y-91440000D03*
X193421000Y-88900000D03*
X190881000Y-88900000D03*
X193421000Y-86360000D03*
X190881000Y-86360000D03*
D13*
X115646200Y-67437000D03*
D14*
X115646200Y-64897000D03*
X115646200Y-62357000D03*
X115646200Y-59817000D03*
X115646200Y-57277000D03*
D13*
X115780000Y-104050000D03*
D14*
X115780000Y-101510000D03*
X115780000Y-98970000D03*
X115780000Y-96430000D03*
X115780000Y-93890000D03*
X115780000Y-91350000D03*
X115780000Y-88810000D03*
D13*
X202311000Y-83566000D03*
D14*
X202311000Y-86106000D03*
D13*
X198882000Y-83566000D03*
D14*
X198882000Y-86106000D03*
D13*
X115530000Y-84680000D03*
D14*
X115530000Y-82140000D03*
X115530000Y-79600000D03*
X115530000Y-77060000D03*
D13*
X171958000Y-39370000D03*
D14*
X174498000Y-39370000D03*
X177038000Y-39370000D03*
X179578000Y-39370000D03*
X182118000Y-39370000D03*
X184658000Y-39370000D03*
X187198000Y-39370000D03*
X189738000Y-39370000D03*
X192278000Y-39370000D03*
D13*
X215030000Y-81680000D03*
D14*
X215030000Y-79140000D03*
X215030000Y-76600000D03*
X215030000Y-74060000D03*
D13*
X215030000Y-70180000D03*
D14*
X215030000Y-67640000D03*
X215030000Y-65100000D03*
X215030000Y-62560000D03*
D13*
X215030000Y-58680000D03*
D14*
X215030000Y-56140000D03*
X215030000Y-53600000D03*
X215030000Y-51060000D03*
D13*
X215030000Y-47180000D03*
D14*
X215030000Y-44640000D03*
X215030000Y-42100000D03*
X215030000Y-39560000D03*
D15*
X200144000Y-96901000D03*
X199144000Y-96901000D03*
M02*
