G04 #@! TF.FileFunction,Copper,L1,Top,Signal*
%FSLAX46Y46*%
G04 Gerber Fmt 4.6, Leading zero omitted, Abs format (unit mm)*
G04 Created by KiCad (PCBNEW 4.0.6) date 05/08/17 11:25:49*
%MOMM*%
%LPD*%
G01*
G04 APERTURE LIST*
%ADD10C,0.100000*%
%ADD11C,0.600000*%
%ADD12C,1.200000*%
%ADD13C,0.800000*%
%ADD14R,0.250000X1.000000*%
%ADD15R,1.000000X1.340000*%
%ADD16R,1.250000X1.000000*%
%ADD17R,1.000000X1.250000*%
%ADD18R,0.750000X0.800000*%
%ADD19R,1.600000X1.600000*%
%ADD20C,1.600000*%
%ADD21R,0.800000X0.750000*%
%ADD22R,2.300000X2.500000*%
%ADD23R,0.450000X0.700000*%
%ADD24R,2.500000X1.800000*%
%ADD25R,3.500000X2.000000*%
%ADD26R,7.000000X7.000000*%
%ADD27R,0.650000X1.060000*%
%ADD28R,1.600000X3.500000*%
%ADD29R,3.800000X2.000000*%
%ADD30R,1.500000X2.000000*%
%ADD31R,1.060000X0.400000*%
%ADD32R,0.730000X0.300000*%
%ADD33R,0.300000X0.730000*%
%ADD34R,1.250000X1.250000*%
%ADD35R,0.600000X1.200000*%
%ADD36R,1.200000X0.600000*%
%ADD37R,0.800000X0.900000*%
%ADD38R,0.600000X1.500000*%
%ADD39R,1.700000X1.700000*%
%ADD40O,1.700000X1.700000*%
%ADD41R,3.200000X2.500000*%
%ADD42R,0.500000X0.900000*%
%ADD43R,0.900000X0.500000*%
%ADD44R,1.300000X0.700000*%
%ADD45R,0.650000X1.220000*%
%ADD46R,0.700000X0.450000*%
%ADD47C,1.500000*%
%ADD48R,0.350000X2.000000*%
%ADD49R,4.500000X4.600000*%
%ADD50C,0.482600*%
%ADD51C,0.900000*%
%ADD52C,0.254000*%
%ADD53C,0.812800*%
%ADD54C,0.508000*%
%ADD55C,1.270000*%
%ADD56C,0.381000*%
%ADD57C,2.540000*%
%ADD58C,1.016000*%
%ADD59C,0.250000*%
%ADD60C,0.152400*%
%ADD61C,0.152000*%
G04 APERTURE END LIST*
D10*
D11*
X158648400Y-95427800D03*
X161061400Y-95402400D03*
X161061400Y-93522800D03*
X162712400Y-94361000D03*
X161645600Y-94411800D03*
X160705800Y-94386400D03*
X159639000Y-94437200D03*
X158572200Y-94538800D03*
X158521400Y-93726000D03*
X157632400Y-93726000D03*
X157632400Y-94462600D03*
X156743400Y-94437200D03*
X156743400Y-93573600D03*
X136093200Y-90449400D03*
X136042400Y-88900000D03*
X136093200Y-89687400D03*
X135382000Y-89687400D03*
X136804400Y-89662000D03*
X136804400Y-90474800D03*
X135356600Y-90474800D03*
X136779000Y-88925400D03*
D12*
X144043400Y-83820000D03*
X144805400Y-82651600D03*
D11*
X157988000Y-87909400D03*
X157988000Y-86918800D03*
X157962600Y-85979000D03*
X157962600Y-85140800D03*
X157962600Y-84201000D03*
X157962600Y-83286600D03*
X157962600Y-82346800D03*
X160731200Y-79806800D03*
X159969200Y-79806800D03*
X159156400Y-79806800D03*
X158419800Y-79806800D03*
D13*
X166090600Y-90424000D03*
X164947600Y-91490800D03*
X166090600Y-91490800D03*
X166090600Y-92481400D03*
X164947600Y-92481400D03*
D11*
X156641800Y-92278200D03*
D14*
X165885000Y-41598000D03*
X165385000Y-41598000D03*
X164885000Y-41598000D03*
X164385000Y-41598000D03*
X163885000Y-41598000D03*
X163385000Y-41598000D03*
X162885000Y-41598000D03*
X162385000Y-41598000D03*
X161885000Y-41598000D03*
X161385000Y-41598000D03*
X160885000Y-41598000D03*
X160385000Y-41598000D03*
X159885000Y-41598000D03*
X159385000Y-41598000D03*
X158885000Y-41598000D03*
X158385000Y-41598000D03*
X157885000Y-41598000D03*
X157385000Y-41598000D03*
X156885000Y-41598000D03*
X156385000Y-41598000D03*
D15*
X168275000Y-39878000D03*
X153995000Y-39878000D03*
D16*
X162306000Y-91456000D03*
X162306000Y-93456000D03*
D17*
X125688600Y-50266600D03*
X123688600Y-50266600D03*
D16*
X159766000Y-91456000D03*
X159766000Y-93456000D03*
D18*
X157734000Y-92952000D03*
X157734000Y-91452000D03*
D16*
X125747200Y-42688000D03*
X125747200Y-40688000D03*
D18*
X150368000Y-90944000D03*
X150368000Y-92444000D03*
D19*
X124530000Y-75680000D03*
D20*
X121030000Y-75680000D03*
D17*
X139887200Y-45516800D03*
X137887200Y-45516800D03*
D21*
X153912000Y-94767400D03*
X152412000Y-94767400D03*
D16*
X128247200Y-42688000D03*
X128247200Y-40688000D03*
X159766000Y-97520000D03*
X159766000Y-95520000D03*
X162306000Y-97520000D03*
X162306000Y-95520000D03*
X157480000Y-97520000D03*
X157480000Y-95520000D03*
D18*
X131030000Y-90430000D03*
X131030000Y-88930000D03*
D17*
X121280000Y-81430000D03*
X119280000Y-81430000D03*
D16*
X146030000Y-95680000D03*
X146030000Y-97680000D03*
X144030000Y-95680000D03*
X144030000Y-97680000D03*
X142030000Y-95680000D03*
X142030000Y-97680000D03*
D17*
X189030000Y-62180000D03*
X187030000Y-62180000D03*
D16*
X128247200Y-45188000D03*
X128247200Y-47188000D03*
D17*
X142030000Y-62180000D03*
X144030000Y-62180000D03*
X142030000Y-64680000D03*
X144030000Y-64680000D03*
D16*
X125747200Y-45188000D03*
X125747200Y-47188000D03*
D18*
X200279000Y-95365000D03*
X200279000Y-93865000D03*
X198501000Y-95365000D03*
X198501000Y-93865000D03*
D21*
X211189000Y-105156000D03*
X209689000Y-105156000D03*
D17*
X171770800Y-42316400D03*
X173770800Y-42316400D03*
D18*
X145008600Y-40475600D03*
X145008600Y-38975600D03*
X151409400Y-38886000D03*
X151409400Y-40386000D03*
X195707000Y-40120000D03*
X195707000Y-38620000D03*
D16*
X215530000Y-86680000D03*
X215530000Y-84680000D03*
D17*
X210030000Y-71680000D03*
X212030000Y-71680000D03*
X210030000Y-60680000D03*
X212030000Y-60680000D03*
X210030000Y-49680000D03*
X212030000Y-49680000D03*
D16*
X213530000Y-86680000D03*
X213530000Y-84680000D03*
D17*
X210030000Y-69180000D03*
X212030000Y-69180000D03*
X210030000Y-58180000D03*
X212030000Y-58180000D03*
X210030000Y-47180000D03*
X212030000Y-47180000D03*
D22*
X120954800Y-60519200D03*
X120954800Y-56219200D03*
D23*
X185308000Y-82947000D03*
X184008000Y-82947000D03*
X184658000Y-84947000D03*
D24*
X139030000Y-95680000D03*
X135030000Y-95680000D03*
D25*
X147580000Y-83140000D03*
X147580000Y-87720000D03*
D26*
X154980000Y-85440000D03*
D27*
X144939800Y-45941200D03*
X145889800Y-45941200D03*
X146839800Y-45941200D03*
X146839800Y-43741200D03*
X144939800Y-43741200D03*
X145889800Y-43741200D03*
D28*
X123928200Y-65430400D03*
X119048200Y-65430400D03*
D29*
X120747200Y-39538000D03*
D30*
X120747200Y-45838000D03*
X123047200Y-45838000D03*
X118447200Y-45838000D03*
D31*
X154770000Y-92928000D03*
X154770000Y-92278000D03*
X154770000Y-91618000D03*
X154770000Y-90968000D03*
X152570000Y-90968000D03*
X152570000Y-91618000D03*
X152570000Y-92278000D03*
X152570000Y-92928000D03*
D29*
X133247200Y-39538000D03*
D30*
X133247200Y-45838000D03*
X135547200Y-45838000D03*
X130947200Y-45838000D03*
D32*
X134065000Y-88680000D03*
X134065000Y-89180000D03*
X134065000Y-89680000D03*
X134065000Y-90180000D03*
X134065000Y-90680000D03*
D33*
X135030000Y-91645000D03*
X135530000Y-91645000D03*
X136030000Y-91645000D03*
X136530000Y-91645000D03*
X137030000Y-91645000D03*
D32*
X137995000Y-90680000D03*
X137995000Y-90180000D03*
X137995000Y-89680000D03*
X137995000Y-89180000D03*
X137995000Y-88680000D03*
D33*
X137030000Y-87715000D03*
X136530000Y-87715000D03*
X136030000Y-87715000D03*
X135530000Y-87715000D03*
X135030000Y-87715000D03*
D34*
X136655000Y-90305000D03*
X136655000Y-89055000D03*
X135405000Y-90305000D03*
X135405000Y-89055000D03*
D35*
X204230000Y-101930000D03*
X205030000Y-101930000D03*
X205830000Y-101930000D03*
X206630000Y-101930000D03*
X207430000Y-101930000D03*
X208230000Y-101930000D03*
X209030000Y-101930000D03*
X209830000Y-101930000D03*
D36*
X211280000Y-100480000D03*
X211280000Y-99680000D03*
X211280000Y-98880000D03*
X211280000Y-98080000D03*
X211280000Y-97280000D03*
X211280000Y-96480000D03*
X211280000Y-95680000D03*
X211280000Y-94880000D03*
D35*
X209830000Y-93430000D03*
X209030000Y-93430000D03*
X208230000Y-93430000D03*
X207430000Y-93430000D03*
X206630000Y-93430000D03*
X205830000Y-93430000D03*
X205030000Y-93430000D03*
X204230000Y-93430000D03*
D36*
X202780000Y-94880000D03*
X202780000Y-95680000D03*
X202780000Y-96480000D03*
X202780000Y-97280000D03*
X202780000Y-98080000D03*
X202780000Y-98880000D03*
X202780000Y-99680000D03*
X202780000Y-100480000D03*
D37*
X147309800Y-40395400D03*
X149209800Y-40395400D03*
X148259800Y-38395400D03*
D38*
X206781400Y-39540200D03*
X205511400Y-39540200D03*
X204241400Y-39540200D03*
X202971400Y-39540200D03*
X201701400Y-39540200D03*
X200431400Y-39540200D03*
X199161400Y-39540200D03*
X197891400Y-39540200D03*
X197891400Y-44940200D03*
X199161400Y-44940200D03*
X200431400Y-44940200D03*
X201701400Y-44940200D03*
X202971400Y-44940200D03*
X204241400Y-44940200D03*
X205511400Y-44940200D03*
X206781400Y-44940200D03*
D39*
X178536600Y-96062800D03*
D40*
X178536600Y-93522800D03*
D39*
X183286400Y-45542200D03*
D40*
X185826400Y-45542200D03*
X188366400Y-45542200D03*
D39*
X145030000Y-91680000D03*
D40*
X147570000Y-91680000D03*
D41*
X169418000Y-88406000D03*
X169418000Y-96506000D03*
X124030000Y-97730000D03*
X124030000Y-89630000D03*
D42*
X184544400Y-87096600D03*
X183044400Y-87096600D03*
X143030000Y-87930000D03*
X144530000Y-87930000D03*
D43*
X181483000Y-83628800D03*
X181483000Y-85128800D03*
X162306000Y-86372000D03*
X162306000Y-87872000D03*
D42*
X122780000Y-70180000D03*
X124280000Y-70180000D03*
X119280000Y-70180000D03*
X120780000Y-70180000D03*
D43*
X198577200Y-90791600D03*
X198577200Y-92291600D03*
X132530000Y-85930000D03*
X132530000Y-84430000D03*
X131030000Y-86930000D03*
X131030000Y-85430000D03*
X141198600Y-87414800D03*
X141198600Y-85914800D03*
D42*
X152412000Y-96520000D03*
X153912000Y-96520000D03*
D43*
X150368000Y-95262000D03*
X150368000Y-96762000D03*
X136530000Y-83430000D03*
X136530000Y-84930000D03*
X138030000Y-83430000D03*
X138030000Y-84930000D03*
D42*
X127280000Y-86180000D03*
X128780000Y-86180000D03*
X127280000Y-84180000D03*
X128780000Y-84180000D03*
D44*
X124530000Y-84230000D03*
X124530000Y-86130000D03*
X122030000Y-84230000D03*
X122030000Y-86130000D03*
D43*
X165963600Y-65429000D03*
X165963600Y-66929000D03*
D42*
X187897200Y-42926000D03*
X186397200Y-42926000D03*
X208153000Y-105156000D03*
X206653000Y-105156000D03*
X202934000Y-103680000D03*
X201434000Y-103680000D03*
X202934000Y-105180000D03*
X201434000Y-105180000D03*
D43*
X193802000Y-65467800D03*
X193802000Y-66967800D03*
D42*
X198894000Y-98680000D03*
X200394000Y-98680000D03*
D43*
X168046400Y-66942400D03*
X168046400Y-65442400D03*
D42*
X139585000Y-41300400D03*
X141085000Y-41300400D03*
D43*
X206019400Y-91428000D03*
X206019400Y-89928000D03*
D42*
X214280000Y-98180000D03*
X212780000Y-98180000D03*
X214280000Y-99680000D03*
X212780000Y-99680000D03*
D43*
X213030000Y-92930000D03*
X213030000Y-94430000D03*
X214530000Y-92930000D03*
X214530000Y-94430000D03*
X207530000Y-89930000D03*
X207530000Y-91430000D03*
X209030000Y-89930000D03*
X209030000Y-91430000D03*
X203030000Y-89930000D03*
X203030000Y-91430000D03*
X204530000Y-89930000D03*
X204530000Y-91430000D03*
D42*
X212928200Y-102235000D03*
X214428200Y-102235000D03*
D43*
X189530000Y-65430000D03*
X189530000Y-66930000D03*
X170030000Y-65430000D03*
X170030000Y-66930000D03*
X191530000Y-65430000D03*
X191530000Y-66930000D03*
X172030000Y-65430000D03*
X172030000Y-66930000D03*
X156235400Y-43686600D03*
X156235400Y-45186600D03*
X149148800Y-43268200D03*
X149148800Y-44768200D03*
X151384000Y-42201400D03*
X151384000Y-43701400D03*
D45*
X127950000Y-57618000D03*
X127000000Y-57618000D03*
X126050000Y-57618000D03*
X126050000Y-60238000D03*
X127000000Y-60238000D03*
X127950000Y-60238000D03*
D46*
X191024000Y-81900000D03*
X191024000Y-83200000D03*
X193024000Y-82550000D03*
D23*
X187111400Y-66513200D03*
X185811400Y-66513200D03*
X186461400Y-68513200D03*
X182336200Y-66538600D03*
X181036200Y-66538600D03*
X181686200Y-68538600D03*
X154711400Y-42926000D03*
X153411400Y-42926000D03*
X154061400Y-44926000D03*
D46*
X141138400Y-38313600D03*
X141138400Y-39613600D03*
X143138400Y-38963600D03*
D39*
X186030000Y-101680000D03*
D40*
X186030000Y-104220000D03*
X183490000Y-101680000D03*
X183490000Y-104220000D03*
X180950000Y-101680000D03*
X180950000Y-104220000D03*
X178410000Y-101680000D03*
X178410000Y-104220000D03*
X175870000Y-101680000D03*
X175870000Y-104220000D03*
X173330000Y-101680000D03*
X173330000Y-104220000D03*
X170790000Y-101680000D03*
X170790000Y-104220000D03*
X168250000Y-101680000D03*
X168250000Y-104220000D03*
X165710000Y-101680000D03*
X165710000Y-104220000D03*
X163170000Y-101680000D03*
X163170000Y-104220000D03*
X160630000Y-101680000D03*
X160630000Y-104220000D03*
X158090000Y-101680000D03*
X158090000Y-104220000D03*
X155550000Y-101680000D03*
X155550000Y-104220000D03*
X153010000Y-101680000D03*
X153010000Y-104220000D03*
X150470000Y-101680000D03*
X150470000Y-104220000D03*
X147930000Y-101680000D03*
X147930000Y-104220000D03*
X145390000Y-101680000D03*
X145390000Y-104220000D03*
X142850000Y-101680000D03*
X142850000Y-104220000D03*
X140310000Y-101680000D03*
X140310000Y-104220000D03*
X137770000Y-101680000D03*
X137770000Y-104220000D03*
D39*
X193421000Y-104140000D03*
D40*
X190881000Y-104140000D03*
X193421000Y-101600000D03*
X190881000Y-101600000D03*
X193421000Y-99060000D03*
X190881000Y-99060000D03*
X193421000Y-96520000D03*
X190881000Y-96520000D03*
X193421000Y-93980000D03*
X190881000Y-93980000D03*
X193421000Y-91440000D03*
X190881000Y-91440000D03*
X193421000Y-88900000D03*
X190881000Y-88900000D03*
X193421000Y-86360000D03*
X190881000Y-86360000D03*
D39*
X115646200Y-67437000D03*
D40*
X115646200Y-64897000D03*
X115646200Y-62357000D03*
X115646200Y-59817000D03*
X115646200Y-57277000D03*
D39*
X115780000Y-104050000D03*
D40*
X115780000Y-101510000D03*
X115780000Y-98970000D03*
X115780000Y-96430000D03*
X115780000Y-93890000D03*
X115780000Y-91350000D03*
X115780000Y-88810000D03*
D39*
X202311000Y-83566000D03*
D40*
X202311000Y-86106000D03*
D39*
X198882000Y-83566000D03*
D40*
X198882000Y-86106000D03*
D39*
X115530000Y-84680000D03*
D40*
X115530000Y-82140000D03*
X115530000Y-79600000D03*
X115530000Y-77060000D03*
D39*
X171958000Y-39370000D03*
D40*
X174498000Y-39370000D03*
X177038000Y-39370000D03*
X179578000Y-39370000D03*
X182118000Y-39370000D03*
X184658000Y-39370000D03*
X187198000Y-39370000D03*
X189738000Y-39370000D03*
X192278000Y-39370000D03*
D39*
X215030000Y-81680000D03*
D40*
X215030000Y-79140000D03*
X215030000Y-76600000D03*
X215030000Y-74060000D03*
D39*
X215030000Y-70180000D03*
D40*
X215030000Y-67640000D03*
X215030000Y-65100000D03*
X215030000Y-62560000D03*
D39*
X215030000Y-58680000D03*
D40*
X215030000Y-56140000D03*
X215030000Y-53600000D03*
X215030000Y-51060000D03*
D39*
X215030000Y-47180000D03*
D40*
X215030000Y-44640000D03*
X215030000Y-42100000D03*
X215030000Y-39560000D03*
D13*
X200144000Y-96901000D03*
X199144000Y-96901000D03*
D16*
X132030000Y-102680000D03*
X132030000Y-100680000D03*
D44*
X132030000Y-99130000D03*
X132030000Y-97230000D03*
D47*
X198755000Y-101981000D03*
X144195800Y-85902800D03*
D17*
X142280000Y-92930000D03*
X140280000Y-92930000D03*
D43*
X142011400Y-89928000D03*
X142011400Y-91428000D03*
D13*
X164947600Y-90398600D03*
D11*
X155930600Y-92278200D03*
X157657800Y-79806800D03*
D12*
X143230600Y-82651600D03*
D11*
X135356600Y-88925400D03*
D48*
X183080000Y-50580000D03*
X198680000Y-50580000D03*
D49*
X199580000Y-66680000D03*
X134480000Y-66680000D03*
D48*
X198380000Y-58779999D03*
X198080000Y-50580000D03*
X197780000Y-58779999D03*
X197480000Y-50580000D03*
X197180000Y-58779999D03*
X196880000Y-50580000D03*
X196580000Y-58779999D03*
X196280000Y-50580000D03*
X195980000Y-58779999D03*
X195680000Y-50580000D03*
X195380000Y-58779999D03*
X195080000Y-50580000D03*
X194780000Y-58779999D03*
X194480000Y-50580000D03*
X194180000Y-58779999D03*
X193880000Y-50580000D03*
X193580000Y-58779999D03*
X193280000Y-50580000D03*
X192980000Y-58779999D03*
X192680000Y-50580000D03*
X192380000Y-58779999D03*
X192080000Y-50580000D03*
X191780000Y-58779999D03*
X191480000Y-50580000D03*
X191180000Y-58779999D03*
X190880000Y-50580000D03*
X190580000Y-58779999D03*
X190280000Y-50580000D03*
X189980000Y-58779999D03*
X189680000Y-50580000D03*
X189380000Y-58779999D03*
X189080000Y-50580000D03*
X188780000Y-58779999D03*
X188480000Y-50580000D03*
X188180000Y-58779999D03*
X187880000Y-50580000D03*
X187580000Y-58779999D03*
X187280000Y-50580000D03*
X186980000Y-58779999D03*
X182780000Y-58779999D03*
X182480000Y-50580000D03*
X182180000Y-58779999D03*
X181880000Y-50580000D03*
X181580000Y-58779999D03*
X181280000Y-50580000D03*
X180980000Y-58779999D03*
X180680000Y-50580000D03*
X180380000Y-58779999D03*
X180080000Y-50580000D03*
X179780000Y-58779999D03*
X179480000Y-50580000D03*
X179180000Y-58779999D03*
X178880000Y-50580000D03*
X178580000Y-58779999D03*
X178280000Y-50580000D03*
X177980000Y-58779999D03*
X177680000Y-50580000D03*
X177380000Y-58779999D03*
X177080000Y-50580000D03*
X176780000Y-58779999D03*
X176480000Y-50580000D03*
X176180000Y-58779999D03*
X175880000Y-50580000D03*
X175580000Y-58779999D03*
X175280000Y-50580000D03*
X174980000Y-58779999D03*
X174680000Y-50580000D03*
X174380000Y-58779999D03*
X174080000Y-50580000D03*
X173780000Y-58779999D03*
X173480000Y-50580000D03*
X173180000Y-58779999D03*
X172880000Y-50580000D03*
X172580000Y-58779999D03*
X172280000Y-50580000D03*
X171980000Y-58779999D03*
X171680000Y-50580000D03*
X171380000Y-58779999D03*
X171080000Y-50580000D03*
X170780000Y-58779999D03*
X170480000Y-50580000D03*
X170180000Y-58779999D03*
X169880000Y-50580000D03*
X169580000Y-58779999D03*
X169280000Y-50580000D03*
X168980000Y-58779999D03*
X168680000Y-50580000D03*
X168380000Y-58779999D03*
X168080000Y-50580000D03*
X167780000Y-58779999D03*
X167480000Y-50580000D03*
X167180000Y-58779999D03*
X166880000Y-50580000D03*
X166580000Y-58779999D03*
X166280000Y-50580000D03*
X165980000Y-58779999D03*
X165680000Y-50580000D03*
X165380000Y-58779999D03*
X165080000Y-50580000D03*
X164780000Y-58779999D03*
X164480000Y-50580000D03*
X164180000Y-58779999D03*
X163880000Y-50580000D03*
X163580000Y-58779999D03*
X163280000Y-50580000D03*
X162980000Y-58779999D03*
X162680000Y-50580000D03*
X162380000Y-58779999D03*
X162080000Y-50580000D03*
X161780000Y-58779999D03*
X161480000Y-50580000D03*
X161180000Y-58779999D03*
X160880000Y-50580000D03*
X160580000Y-58779999D03*
X160280000Y-50580000D03*
X159980000Y-58779999D03*
X159680000Y-50580000D03*
X159380000Y-58779999D03*
X159080000Y-50580000D03*
X158780000Y-58779999D03*
X158480000Y-50580000D03*
X158180000Y-58779999D03*
X157880000Y-50580000D03*
X157580000Y-58779999D03*
X157280000Y-50580000D03*
X156980000Y-58779999D03*
X156680000Y-50580000D03*
X156380000Y-58779999D03*
X156080000Y-50580000D03*
X155780000Y-58779999D03*
X155480000Y-50580000D03*
X155180000Y-58779999D03*
X154880000Y-50580000D03*
X154580000Y-58779999D03*
X154280000Y-50580000D03*
X153980000Y-58779999D03*
X153680000Y-50580000D03*
X153380000Y-58779999D03*
X153080000Y-50580000D03*
X152780000Y-58779999D03*
X152480000Y-50580000D03*
X152180000Y-58779999D03*
X151880000Y-50580000D03*
X151580000Y-58779999D03*
X151280000Y-50580000D03*
X150980000Y-58779999D03*
X150680000Y-50580000D03*
X150380000Y-58779999D03*
X150080000Y-50580000D03*
X149780000Y-58779999D03*
X149480000Y-50580000D03*
X149180000Y-58779999D03*
X148880000Y-50580000D03*
X148580000Y-58779999D03*
X148280000Y-50580000D03*
X147980000Y-58779999D03*
X147680000Y-50580000D03*
X147380000Y-58779999D03*
X147080000Y-50580000D03*
X146780000Y-58779999D03*
X146480000Y-50580000D03*
X146180000Y-58779999D03*
X145880000Y-50580000D03*
X145580000Y-58779999D03*
X145280000Y-50580000D03*
X144980000Y-58779999D03*
X144680000Y-50580000D03*
X144380000Y-58779999D03*
X144080000Y-50580000D03*
X143780000Y-58779999D03*
X143480000Y-50580000D03*
X143180000Y-58779999D03*
X142880000Y-50580000D03*
X142580000Y-58779999D03*
X142280000Y-50580000D03*
X141980000Y-58779999D03*
X141680000Y-50580000D03*
X141380000Y-58779999D03*
X141080000Y-50580000D03*
X140780000Y-58779999D03*
X140480000Y-50580000D03*
X140180000Y-58779999D03*
X139880000Y-50580000D03*
X139580000Y-58779999D03*
X139280000Y-50580000D03*
X138980000Y-58779999D03*
X138680000Y-50580000D03*
X138380000Y-58779999D03*
X138080000Y-50580000D03*
X137780000Y-58779999D03*
X137480000Y-50580000D03*
X137180000Y-58779999D03*
X136880000Y-50580000D03*
X136580000Y-58779999D03*
X136280000Y-50580000D03*
X135980000Y-58779999D03*
X135680000Y-50580000D03*
X135380000Y-58779999D03*
D50*
X135953000Y-52324000D03*
X135636000Y-60071000D03*
D11*
X149733000Y-79781400D03*
X153593800Y-37693600D03*
X146100800Y-38395400D03*
X140462000Y-64643000D03*
X188290200Y-52349400D03*
D50*
X150368000Y-93802200D03*
X183642000Y-67310000D03*
X132080000Y-104521000D03*
D11*
X178832187Y-52721187D03*
D50*
X132588000Y-85217000D03*
X136530000Y-80894000D03*
X189353000Y-60452000D03*
X191180000Y-61060000D03*
X152908879Y-41775000D03*
X157284800Y-45186600D03*
D11*
X151434800Y-37211000D03*
X201599800Y-41079800D03*
X146151600Y-47167800D03*
D51*
X143637000Y-99009200D03*
X142036800Y-99009200D03*
D50*
X133883400Y-92354400D03*
X142494000Y-85902800D03*
X143103600Y-89839800D03*
D11*
X182854600Y-84099400D03*
X165806814Y-61078902D03*
X130937000Y-47371000D03*
X116078000Y-45847000D03*
X128270000Y-39370000D03*
X125730000Y-39370000D03*
X200914000Y-100457000D03*
X212344000Y-105156000D03*
X211074000Y-102108000D03*
X215392000Y-102235000D03*
X201295000Y-96393000D03*
X195707000Y-41275000D03*
X206756000Y-37846000D03*
X128270000Y-48514000D03*
X125688600Y-48539400D03*
X139877800Y-44069000D03*
X146126200Y-40487600D03*
X164871400Y-40335200D03*
X163398200Y-40335200D03*
X161925000Y-40335200D03*
X159867600Y-40360600D03*
X136906000Y-52705000D03*
X139192000Y-52705000D03*
X144653000Y-52705000D03*
X141097000Y-52705000D03*
X146431000Y-52705000D03*
X148336000Y-52705000D03*
X150114000Y-52705000D03*
X151892000Y-52705000D03*
X153670000Y-52705000D03*
X155448000Y-52705000D03*
X157353000Y-52705000D03*
X159131000Y-52705000D03*
X160782000Y-52705000D03*
X162687000Y-52705000D03*
X164465000Y-52705000D03*
X166243000Y-52705000D03*
X168021000Y-52705000D03*
X169926000Y-52705000D03*
X171704000Y-52705000D03*
X173482000Y-52705000D03*
X175260000Y-52705000D03*
X177080000Y-52663000D03*
X180721000Y-52705000D03*
X182499000Y-52705000D03*
X189738000Y-52705000D03*
X191516000Y-52705000D03*
X193167000Y-52705000D03*
X195072000Y-52705000D03*
X196850000Y-52705000D03*
X198755000Y-52705000D03*
X138938000Y-60579000D03*
X140843000Y-60579000D03*
X145034000Y-60579000D03*
X146177000Y-61087000D03*
X149733000Y-61087000D03*
X151638000Y-61087000D03*
X153416000Y-61087000D03*
X155194000Y-61087000D03*
X158750000Y-61087000D03*
X160528000Y-61087000D03*
X162433000Y-61087000D03*
X164211000Y-61087000D03*
X167767000Y-61087000D03*
X169545000Y-61087000D03*
X171450000Y-61087000D03*
X173228000Y-61087000D03*
X175006000Y-61087000D03*
X176784000Y-61087000D03*
X178562000Y-61087000D03*
X180340000Y-61087000D03*
X182118000Y-61087000D03*
X187579000Y-60325000D03*
X192913000Y-61087000D03*
X196596000Y-61087000D03*
X194818000Y-61087000D03*
X189611000Y-67818000D03*
X191516000Y-67818000D03*
X172085000Y-67945000D03*
X170053000Y-67945000D03*
X145161000Y-64643000D03*
X145161000Y-62230000D03*
X136607000Y-61221231D03*
X118491000Y-70485000D03*
X124968000Y-57658000D03*
X216916000Y-86614000D03*
X210058000Y-51054000D03*
X210058000Y-61976000D03*
X210058000Y-73152000D03*
D50*
X210489800Y-90830400D03*
X193802000Y-67691000D03*
X186944000Y-63500000D03*
X187311700Y-52070000D03*
X183134000Y-52070000D03*
X137795000Y-52070000D03*
D11*
X137871200Y-44094400D03*
X181508400Y-86715600D03*
X123047200Y-48260000D03*
X205867000Y-103251000D03*
X208280000Y-103251000D03*
X208788000Y-105156000D03*
X202057000Y-93853000D03*
X183515000Y-59309000D03*
X186182000Y-59309000D03*
X137780000Y-61326000D03*
X140462000Y-61849000D03*
X150317200Y-38862000D03*
X145008600Y-47599600D03*
X141376400Y-47193200D03*
X150342600Y-40395400D03*
X205486000Y-46208179D03*
X204216000Y-46208179D03*
D50*
X155905200Y-90170000D03*
X185343800Y-80492600D03*
X184544400Y-85979000D03*
X195402200Y-83820000D03*
X143731515Y-45402915D03*
D11*
X146812000Y-42240200D03*
X154482802Y-41783000D03*
X143891000Y-43053000D03*
X133159442Y-88425558D03*
X134280000Y-85879997D03*
X134280000Y-86680000D03*
X133780000Y-87430000D03*
X199136000Y-43357800D03*
X201599800Y-43332400D03*
D50*
X183642000Y-56134000D03*
X153035000Y-55880000D03*
D11*
X153136600Y-44983400D03*
X144094200Y-47752000D03*
X142189200Y-47752000D03*
X195757800Y-85115400D03*
D50*
X198780003Y-74828400D03*
X199414606Y-74828400D03*
X200048419Y-74796759D03*
X195834000Y-55651321D03*
X185689580Y-53847774D03*
X200685400Y-74828400D03*
X185055104Y-53860885D03*
X195297541Y-56590311D03*
X198145400Y-74828400D03*
X194183000Y-57023000D03*
X184404000Y-53848000D03*
X197459600Y-74803000D03*
X193548000Y-55651321D03*
X193548397Y-53340661D03*
X202007987Y-48791613D03*
X197789800Y-47853600D03*
X197332600Y-77317600D03*
X192405000Y-55651321D03*
X192405000Y-53810161D03*
X202895200Y-48641000D03*
X196824600Y-47447200D03*
X201193400Y-76911200D03*
X186944000Y-55651321D03*
X186944000Y-53848000D03*
X203784200Y-48793400D03*
X195961000Y-46812200D03*
X201498200Y-77470000D03*
X204393800Y-49352200D03*
X195148198Y-46507400D03*
X201932230Y-77932966D03*
X205232000Y-49352200D03*
X194259200Y-45821600D03*
X201168000Y-79248000D03*
X187960000Y-63500000D03*
X205956679Y-49352200D03*
X195503800Y-45262800D03*
X197636263Y-80110463D03*
X185928000Y-62738000D03*
X181902863Y-52264377D03*
X181609603Y-62738000D03*
X181431759Y-52915595D03*
X180975000Y-62738000D03*
X180086000Y-51943000D03*
X167030400Y-73939400D03*
X179832000Y-62738000D03*
X179543878Y-52928648D03*
X170764200Y-69570600D03*
X170789600Y-70815200D03*
X166116000Y-73939400D03*
X179197000Y-62738000D03*
X178308000Y-51943000D03*
X178054000Y-62738000D03*
X172262801Y-71170800D03*
X172313600Y-69037200D03*
X164185600Y-73914000D03*
X177688891Y-53085823D03*
X177419000Y-62738000D03*
X170078400Y-71272400D03*
X170591248Y-68454722D03*
X163093400Y-73888600D03*
X176504600Y-52120800D03*
X176149000Y-62738000D03*
X175895661Y-53086397D03*
X175514000Y-62738000D03*
X174675800Y-52095400D03*
X174370603Y-62738000D03*
X151688800Y-77724000D03*
X159740600Y-73888600D03*
X174133820Y-53058069D03*
X173736000Y-62738000D03*
X158648400Y-73914000D03*
X172897800Y-52095400D03*
X172592603Y-62738000D03*
X157454600Y-73888600D03*
X172389800Y-53086000D03*
X171958000Y-62738000D03*
X159105600Y-75615800D03*
X160375600Y-75615800D03*
X153136600Y-73888600D03*
X166751000Y-46761400D03*
X154228800Y-73914000D03*
X166725600Y-47599600D03*
X165455600Y-48514000D03*
X156387800Y-73914000D03*
X168681400Y-53187600D03*
X160883600Y-44043600D03*
X159512000Y-44069000D03*
X160301829Y-45601899D03*
X163216771Y-43989171D03*
X159833301Y-45133371D03*
X162665229Y-43437629D03*
X164134800Y-42849800D03*
X158976109Y-46347510D03*
X163525589Y-43205533D03*
X158507581Y-45878982D03*
X166074200Y-43840400D03*
D11*
X156765171Y-47672171D03*
D50*
X165294200Y-43840400D03*
D11*
X156213629Y-47120629D03*
D50*
X138988800Y-91744800D03*
X140360400Y-91744800D03*
X139700000Y-91744800D03*
D52*
X136280000Y-50580000D02*
X136280000Y-51997000D01*
X136280000Y-51997000D02*
X135953000Y-52324000D01*
X135680000Y-50580000D02*
X135680000Y-52051000D01*
X135680000Y-52051000D02*
X135953000Y-52324000D01*
D53*
X205303800Y-37769800D02*
X200406000Y-37769800D01*
X200406000Y-37769800D02*
X195910200Y-37769800D01*
D54*
X200431400Y-39540200D02*
X200431400Y-37795200D01*
X200431400Y-37795200D02*
X200406000Y-37769800D01*
D52*
X145008600Y-38975600D02*
X145520600Y-38975600D01*
X145520600Y-38975600D02*
X146100800Y-38395400D01*
D54*
X135380000Y-58779999D02*
X135380000Y-59815000D01*
X135380000Y-59815000D02*
X135636000Y-60071000D01*
X135380000Y-58779999D02*
X135950999Y-58779999D01*
D53*
X149733000Y-79781400D02*
X150157264Y-79781400D01*
X150157264Y-79781400D02*
X150182664Y-79806800D01*
X150182664Y-79806800D02*
X160883600Y-79806800D01*
X169697400Y-37693600D02*
X153593800Y-37693600D01*
X169773600Y-37769800D02*
X169697400Y-37693600D01*
X195910200Y-37769800D02*
X169773600Y-37769800D01*
X205511400Y-39540200D02*
X205511400Y-37977400D01*
X205511400Y-37977400D02*
X205303800Y-37769800D01*
X195910200Y-37769800D02*
X195707000Y-37973000D01*
X195707000Y-37973000D02*
X195707000Y-38620000D01*
D52*
X146456400Y-38395400D02*
X148259800Y-38395400D01*
X146456400Y-38395400D02*
X146100800Y-38395400D01*
X140462000Y-64643000D02*
X142067000Y-64643000D01*
X142067000Y-64643000D02*
X142030000Y-64680000D01*
X173180000Y-58779999D02*
X173180000Y-61039000D01*
X173180000Y-61039000D02*
X173228000Y-61087000D01*
X187990201Y-52049401D02*
X188290200Y-52349400D01*
X187880000Y-51939200D02*
X187990201Y-52049401D01*
X187880000Y-50580000D02*
X187880000Y-51939200D01*
X150368000Y-93802200D02*
X150368000Y-92444000D01*
X150368000Y-94758000D02*
X150368000Y-93802200D01*
X150368000Y-95262000D02*
X150368000Y-94758000D01*
X181036200Y-66538600D02*
X181036200Y-66663600D01*
X181036200Y-66663600D02*
X181682600Y-67310000D01*
X181682600Y-67310000D02*
X181943998Y-67310000D01*
X181943998Y-67310000D02*
X183642000Y-67310000D01*
X132030000Y-102680000D02*
X132030000Y-104471000D01*
X132030000Y-104471000D02*
X132080000Y-104521000D01*
X178880000Y-50580000D02*
X178880000Y-52673374D01*
X178880000Y-52673374D02*
X178832187Y-52721187D01*
D54*
X131030000Y-85430000D02*
X131243000Y-85217000D01*
X131243000Y-85217000D02*
X132588000Y-85217000D01*
X138030000Y-83430000D02*
X136530000Y-83430000D01*
X136530000Y-83430000D02*
X136530000Y-80894000D01*
D52*
X189380000Y-60425000D02*
X189353000Y-60452000D01*
X151409400Y-37236400D02*
X151434800Y-37211000D01*
X151409400Y-38886000D02*
X151409400Y-37236400D01*
X201701400Y-39540200D02*
X201701400Y-40978200D01*
X201701400Y-40978200D02*
X201599800Y-41079800D01*
D54*
X145889800Y-45941200D02*
X145889800Y-46906000D01*
X145889800Y-46906000D02*
X146151600Y-47167800D01*
D53*
X144030000Y-97680000D02*
X144030000Y-98616200D01*
X144030000Y-98616200D02*
X143637000Y-99009200D01*
X142030000Y-97680000D02*
X142030000Y-99002400D01*
X142030000Y-99002400D02*
X142036800Y-99009200D01*
X144030000Y-97680000D02*
X142030000Y-97680000D01*
X146030000Y-97680000D02*
X144030000Y-97680000D01*
D52*
X135030000Y-91645000D02*
X134592800Y-91645000D01*
X134592800Y-91645000D02*
X133883400Y-92354400D01*
X142011400Y-89928000D02*
X140526200Y-89928000D01*
X140526200Y-89928000D02*
X139774200Y-90680000D01*
X139774200Y-90680000D02*
X137995000Y-90680000D01*
X143103600Y-89839800D02*
X142099600Y-89839800D01*
X142099600Y-89839800D02*
X142011400Y-89928000D01*
X131216000Y-84430000D02*
X131030000Y-84616000D01*
X131030000Y-84616000D02*
X131030000Y-85430000D01*
X132530000Y-84430000D02*
X131216000Y-84430000D01*
X141198600Y-85914800D02*
X142482000Y-85914800D01*
X142482000Y-85914800D02*
X142494000Y-85902800D01*
X201295000Y-96393000D02*
X201295000Y-95968736D01*
X201269600Y-94437200D02*
X200697400Y-93865000D01*
X201295000Y-95968736D02*
X201269600Y-95943336D01*
X201269600Y-95943336D02*
X201269600Y-94437200D01*
X200697400Y-93865000D02*
X200279000Y-93865000D01*
X198501000Y-93865000D02*
X200279000Y-93865000D01*
X189520600Y-84099400D02*
X182854600Y-84099400D01*
X191024000Y-83200000D02*
X190420000Y-83200000D01*
X190420000Y-83200000D02*
X189520600Y-84099400D01*
X165980000Y-58779999D02*
X165980000Y-60905716D01*
X165980000Y-60905716D02*
X165806814Y-61078902D01*
X189030000Y-62180000D02*
X189030000Y-60775000D01*
X189030000Y-60775000D02*
X189353000Y-60452000D01*
D55*
X130947200Y-45838000D02*
X130947200Y-47360800D01*
X130947200Y-47360800D02*
X130937000Y-47371000D01*
X118447200Y-45838000D02*
X116087000Y-45838000D01*
X116087000Y-45838000D02*
X116078000Y-45847000D01*
D53*
X128247200Y-40688000D02*
X128247200Y-39392800D01*
X128247200Y-39392800D02*
X128270000Y-39370000D01*
X125747200Y-40688000D02*
X125747200Y-39387200D01*
X125747200Y-39387200D02*
X125730000Y-39370000D01*
D52*
X202780000Y-99680000D02*
X201825066Y-99680000D01*
X201825066Y-99680000D02*
X201048066Y-100457000D01*
X201048066Y-100457000D02*
X200914000Y-100457000D01*
X211189000Y-105156000D02*
X212344000Y-105156000D01*
X209830000Y-101930000D02*
X210896000Y-101930000D01*
X210896000Y-101930000D02*
X211074000Y-102108000D01*
X209030000Y-101930000D02*
X209830000Y-101930000D01*
X214428200Y-102235000D02*
X215392000Y-102235000D01*
X202780000Y-97280000D02*
X202780000Y-96480000D01*
X202780000Y-96480000D02*
X201382000Y-96480000D01*
X201382000Y-96480000D02*
X201295000Y-96393000D01*
D54*
X195707000Y-40120000D02*
X195707000Y-41275000D01*
D56*
X206781400Y-39540200D02*
X206781400Y-37871400D01*
X206781400Y-37871400D02*
X206756000Y-37846000D01*
D53*
X128247200Y-47188000D02*
X128247200Y-48491200D01*
X128247200Y-48491200D02*
X128270000Y-48514000D01*
X125688600Y-48539400D02*
X125688600Y-47246600D01*
X125688600Y-50266600D02*
X125688600Y-48539400D01*
X125688600Y-47246600D02*
X125747200Y-47188000D01*
X139887200Y-45516800D02*
X139887200Y-44078400D01*
X139887200Y-44078400D02*
X139877800Y-44069000D01*
D55*
X115530000Y-79600000D02*
X117450000Y-79600000D01*
X117450000Y-79600000D02*
X119280000Y-81430000D01*
D52*
X187897200Y-42926000D02*
X187897200Y-45073000D01*
X187897200Y-45073000D02*
X188366400Y-45542200D01*
D54*
X173770800Y-42316400D02*
X173770800Y-40097200D01*
X173770800Y-40097200D02*
X174498000Y-39370000D01*
D52*
X153411400Y-42926000D02*
X153411400Y-42277521D01*
X153411400Y-42277521D02*
X152908879Y-41775000D01*
X156235400Y-45186600D02*
X157284800Y-45186600D01*
X147309800Y-40395400D02*
X146218400Y-40395400D01*
X146218400Y-40395400D02*
X146126200Y-40487600D01*
X145008600Y-40475600D02*
X146114200Y-40475600D01*
X146114200Y-40475600D02*
X146126200Y-40487600D01*
X164885000Y-41598000D02*
X164885000Y-40348800D01*
X164885000Y-40348800D02*
X164871400Y-40335200D01*
X163385000Y-41598000D02*
X163385000Y-40348400D01*
X163385000Y-40348400D02*
X163398200Y-40335200D01*
X161885000Y-41598000D02*
X161885000Y-40375200D01*
X161885000Y-40375200D02*
X161925000Y-40335200D01*
X159885000Y-41598000D02*
X159885000Y-40378000D01*
X159885000Y-40378000D02*
X159867600Y-40360600D01*
X159885000Y-41598000D02*
X160385000Y-41598000D01*
X136880000Y-50580000D02*
X136880000Y-52679000D01*
X136880000Y-52679000D02*
X136906000Y-52705000D01*
X139280000Y-50580000D02*
X139280000Y-52617000D01*
X139280000Y-52617000D02*
X139192000Y-52705000D01*
X144680000Y-50580000D02*
X144680000Y-52678000D01*
X144680000Y-52678000D02*
X144653000Y-52705000D01*
X141080000Y-50580000D02*
X141080000Y-52688000D01*
X141080000Y-52688000D02*
X141097000Y-52705000D01*
X146480000Y-50580000D02*
X146480000Y-52656000D01*
X146480000Y-52656000D02*
X146431000Y-52705000D01*
X148280000Y-50580000D02*
X148280000Y-52649000D01*
X148280000Y-52649000D02*
X148336000Y-52705000D01*
X150080000Y-50580000D02*
X150080000Y-52671000D01*
X150080000Y-52671000D02*
X150114000Y-52705000D01*
X151880000Y-50580000D02*
X151880000Y-52693000D01*
X151880000Y-52693000D02*
X151892000Y-52705000D01*
X153680000Y-50580000D02*
X153680000Y-52695000D01*
X153680000Y-52695000D02*
X153670000Y-52705000D01*
X155480000Y-50580000D02*
X155480000Y-52673000D01*
X155480000Y-52673000D02*
X155448000Y-52705000D01*
X157280000Y-50580000D02*
X157280000Y-52632000D01*
X157280000Y-52632000D02*
X157353000Y-52705000D01*
X159080000Y-50580000D02*
X159080000Y-52654000D01*
X159080000Y-52654000D02*
X159131000Y-52705000D01*
X160880000Y-50580000D02*
X160880000Y-52607000D01*
X160880000Y-52607000D02*
X160782000Y-52705000D01*
X162680000Y-50580000D02*
X162680000Y-52698000D01*
X162680000Y-52698000D02*
X162687000Y-52705000D01*
X164480000Y-50580000D02*
X164480000Y-52690000D01*
X164480000Y-52690000D02*
X164465000Y-52705000D01*
X166280000Y-50580000D02*
X166280000Y-52668000D01*
X166280000Y-52668000D02*
X166243000Y-52705000D01*
X168080000Y-50580000D02*
X168080000Y-52646000D01*
X168080000Y-52646000D02*
X168021000Y-52705000D01*
X169880000Y-50580000D02*
X169880000Y-52659000D01*
X169880000Y-52659000D02*
X169926000Y-52705000D01*
X171680000Y-50580000D02*
X171680000Y-52681000D01*
X171680000Y-52681000D02*
X171704000Y-52705000D01*
X173480000Y-50580000D02*
X173480000Y-52703000D01*
X173480000Y-52703000D02*
X173482000Y-52705000D01*
X175280000Y-50580000D02*
X175280000Y-52685000D01*
X175280000Y-52685000D02*
X175260000Y-52705000D01*
X177080000Y-50580000D02*
X177080000Y-52663000D01*
X180680000Y-50580000D02*
X180680000Y-52664000D01*
X180680000Y-52664000D02*
X180721000Y-52705000D01*
X182480000Y-50580000D02*
X182480000Y-52686000D01*
X182480000Y-52686000D02*
X182499000Y-52705000D01*
X189680000Y-50580000D02*
X189680000Y-52647000D01*
X189680000Y-52647000D02*
X189738000Y-52705000D01*
X191480000Y-50580000D02*
X191480000Y-52669000D01*
X191480000Y-52669000D02*
X191516000Y-52705000D01*
X193280000Y-50580000D02*
X193280000Y-52592000D01*
X193280000Y-52592000D02*
X193167000Y-52705000D01*
X195080000Y-50580000D02*
X195080000Y-52697000D01*
X195080000Y-52697000D02*
X195072000Y-52705000D01*
X196880000Y-50580000D02*
X196880000Y-52675000D01*
X196880000Y-52675000D02*
X196850000Y-52705000D01*
X198680000Y-50580000D02*
X198680000Y-52630000D01*
X198680000Y-52630000D02*
X198755000Y-52705000D01*
X138980000Y-58779999D02*
X138980000Y-60537000D01*
X138980000Y-60537000D02*
X138938000Y-60579000D01*
X140780000Y-58779999D02*
X140780000Y-60516000D01*
X140780000Y-60516000D02*
X140843000Y-60579000D01*
X144380000Y-58779999D02*
X144380000Y-59925000D01*
X144380000Y-59925000D02*
X145034000Y-60579000D01*
X144980000Y-58779999D02*
X144980000Y-60525000D01*
X144980000Y-60525000D02*
X145034000Y-60579000D01*
X146180000Y-58779999D02*
X146180000Y-61084000D01*
X146180000Y-61084000D02*
X146177000Y-61087000D01*
X149780000Y-58779999D02*
X149780000Y-61040000D01*
X149780000Y-61040000D02*
X149733000Y-61087000D01*
X151580000Y-58779999D02*
X151580000Y-61029000D01*
X151580000Y-61029000D02*
X151638000Y-61087000D01*
X153380000Y-58779999D02*
X153380000Y-61051000D01*
X153380000Y-61051000D02*
X153416000Y-61087000D01*
X155180000Y-58779999D02*
X155180000Y-61073000D01*
X155180000Y-61073000D02*
X155194000Y-61087000D01*
X158780000Y-58779999D02*
X158780000Y-61057000D01*
X158780000Y-61057000D02*
X158750000Y-61087000D01*
X160580000Y-58779999D02*
X160580000Y-61035000D01*
X160580000Y-61035000D02*
X160528000Y-61087000D01*
X162380000Y-58779999D02*
X162380000Y-61034000D01*
X162380000Y-61034000D02*
X162433000Y-61087000D01*
X164180000Y-58779999D02*
X164180000Y-61056000D01*
X164180000Y-61056000D02*
X164211000Y-61087000D01*
X167780000Y-58779999D02*
X167780000Y-61074000D01*
X167780000Y-61074000D02*
X167767000Y-61087000D01*
X169580000Y-58779999D02*
X169580000Y-61052000D01*
X169580000Y-61052000D02*
X169545000Y-61087000D01*
X171380000Y-58779999D02*
X171380000Y-61017000D01*
X171380000Y-61017000D02*
X171450000Y-61087000D01*
X174980000Y-58779999D02*
X174980000Y-61061000D01*
X174980000Y-61061000D02*
X175006000Y-61087000D01*
X176780000Y-58779999D02*
X176780000Y-61083000D01*
X176780000Y-61083000D02*
X176784000Y-61087000D01*
X178580000Y-58779999D02*
X178580000Y-61069000D01*
X178580000Y-61069000D02*
X178562000Y-61087000D01*
X180380000Y-58779999D02*
X180380000Y-61047000D01*
X180380000Y-61047000D02*
X180340000Y-61087000D01*
X182180000Y-58779999D02*
X182180000Y-61025000D01*
X182180000Y-61025000D02*
X182118000Y-61087000D01*
X187580000Y-58779999D02*
X187580000Y-60324000D01*
X187580000Y-60324000D02*
X187579000Y-60325000D01*
X189380000Y-58779999D02*
X189380000Y-60425000D01*
X191180000Y-58779999D02*
X191180000Y-61060000D01*
X191180000Y-61060000D02*
X191207000Y-61087000D01*
X192980000Y-58779999D02*
X192980000Y-61020000D01*
X192980000Y-61020000D02*
X192913000Y-61087000D01*
X196580000Y-58779999D02*
X196580000Y-61071000D01*
X196580000Y-61071000D02*
X196596000Y-61087000D01*
X194780000Y-58779999D02*
X194780000Y-61049000D01*
X194780000Y-61049000D02*
X194818000Y-61087000D01*
X189530000Y-66930000D02*
X189530000Y-67737000D01*
X189530000Y-67737000D02*
X189611000Y-67818000D01*
X191530000Y-66930000D02*
X191530000Y-67804000D01*
X191530000Y-67804000D02*
X191516000Y-67818000D01*
X172030000Y-66930000D02*
X172030000Y-67890000D01*
X172030000Y-67890000D02*
X172085000Y-67945000D01*
X170030000Y-66930000D02*
X170030000Y-67922000D01*
X170030000Y-67922000D02*
X170053000Y-67945000D01*
X144030000Y-64680000D02*
X145124000Y-64680000D01*
X145124000Y-64680000D02*
X145161000Y-64643000D01*
X144030000Y-62180000D02*
X145111000Y-62180000D01*
X145111000Y-62180000D02*
X145161000Y-62230000D01*
X136580000Y-58779999D02*
X136580000Y-61194231D01*
X136580000Y-61194231D02*
X136607000Y-61221231D01*
X119280000Y-70180000D02*
X118796000Y-70180000D01*
X118796000Y-70180000D02*
X118491000Y-70485000D01*
X126050000Y-57618000D02*
X125008000Y-57618000D01*
X125008000Y-57618000D02*
X124968000Y-57658000D01*
D57*
X120954800Y-56219200D02*
X116704000Y-56219200D01*
X116704000Y-56219200D02*
X115646200Y-57277000D01*
D58*
X215530000Y-86680000D02*
X216850000Y-86680000D01*
X216850000Y-86680000D02*
X216916000Y-86614000D01*
X213530000Y-86680000D02*
X215530000Y-86680000D01*
X210030000Y-49680000D02*
X210030000Y-51026000D01*
X210030000Y-51026000D02*
X210058000Y-51054000D01*
X210030000Y-47180000D02*
X210030000Y-49680000D01*
X210030000Y-60680000D02*
X210030000Y-61948000D01*
X210030000Y-61948000D02*
X210058000Y-61976000D01*
X210030000Y-58180000D02*
X210030000Y-60680000D01*
X210030000Y-71680000D02*
X210030000Y-73124000D01*
X210030000Y-73124000D02*
X210058000Y-73152000D01*
X210030000Y-69180000D02*
X210030000Y-71680000D01*
D52*
X206806800Y-90515400D02*
X210174800Y-90515400D01*
X210174800Y-90515400D02*
X210489800Y-90830400D01*
X206019400Y-89928000D02*
X206219400Y-89928000D01*
X206219400Y-89928000D02*
X206806800Y-90515400D01*
X193802000Y-66967800D02*
X193802000Y-67691000D01*
X187030000Y-62180000D02*
X187030000Y-63414000D01*
X187030000Y-63414000D02*
X186944000Y-63500000D01*
X187280000Y-50580000D02*
X187280000Y-52038300D01*
X187280000Y-52038300D02*
X187311700Y-52070000D01*
X183080000Y-50580000D02*
X183080000Y-52016000D01*
X183080000Y-52016000D02*
X183134000Y-52070000D01*
X138080000Y-50580000D02*
X138080000Y-51785000D01*
X138080000Y-51785000D02*
X137795000Y-52070000D01*
X137480000Y-50580000D02*
X137480000Y-51755000D01*
X137480000Y-51755000D02*
X137795000Y-52070000D01*
D54*
X137887200Y-45516800D02*
X137887200Y-44110400D01*
X137887200Y-44110400D02*
X137871200Y-44094400D01*
D52*
X198577200Y-92291600D02*
X199281200Y-92291600D01*
X199281200Y-92291600D02*
X199293200Y-92303600D01*
X200990200Y-92786200D02*
X202057000Y-93853000D01*
X199293200Y-92303600D02*
X200507600Y-92303600D01*
X200507600Y-92303600D02*
X200990200Y-92786200D01*
X181508400Y-86715600D02*
X181889400Y-87096600D01*
X181889400Y-87096600D02*
X183044400Y-87096600D01*
X181508400Y-85658200D02*
X181508400Y-86715600D01*
X181483000Y-85128800D02*
X181483000Y-85632800D01*
X181483000Y-85632800D02*
X181508400Y-85658200D01*
D53*
X123047200Y-48260000D02*
X123047200Y-49625200D01*
X123047200Y-45838000D02*
X123047200Y-48260000D01*
D52*
X205830000Y-101930000D02*
X205830000Y-103214000D01*
X205830000Y-103214000D02*
X205867000Y-103251000D01*
X208230000Y-101930000D02*
X208230000Y-103201000D01*
X208230000Y-103201000D02*
X208280000Y-103251000D01*
X208788000Y-105156000D02*
X208153000Y-105156000D01*
X209689000Y-105156000D02*
X208788000Y-105156000D01*
X202780000Y-94880000D02*
X202780000Y-94576000D01*
X202780000Y-94576000D02*
X202057000Y-93853000D01*
X202780000Y-94880000D02*
X202780000Y-95680000D01*
D53*
X123047200Y-49625200D02*
X123688600Y-50266600D01*
X137887200Y-45516800D02*
X135868400Y-45516800D01*
X135868400Y-45516800D02*
X135547200Y-45838000D01*
X135585200Y-42113200D02*
X136398000Y-41300400D01*
X136398000Y-41300400D02*
X139585000Y-41300400D01*
X135585200Y-45550000D02*
X135585200Y-42113200D01*
X135547200Y-45838000D02*
X135547200Y-45588000D01*
X135547200Y-45588000D02*
X135585200Y-45550000D01*
D54*
X171958000Y-39370000D02*
X171958000Y-42129200D01*
X171958000Y-42129200D02*
X171770800Y-42316400D01*
D52*
X182780000Y-58779999D02*
X182985999Y-58779999D01*
X182985999Y-58779999D02*
X183515000Y-59309000D01*
X186980000Y-58779999D02*
X186711001Y-58779999D01*
X186711001Y-58779999D02*
X186182000Y-59309000D01*
X137780000Y-58779999D02*
X137780000Y-61087000D01*
X137780000Y-61087000D02*
X137780000Y-61326000D01*
X140945000Y-61849000D02*
X140462000Y-61849000D01*
X137795000Y-61341000D02*
X137180000Y-60726000D01*
X137780000Y-61326000D02*
X137795000Y-61341000D01*
X142030000Y-62180000D02*
X141276000Y-62180000D01*
X141276000Y-62180000D02*
X140945000Y-61849000D01*
X137180000Y-60726000D02*
X137180000Y-58779999D01*
X138380000Y-56388000D02*
X138380000Y-58779999D01*
X138380000Y-52589038D02*
X138380000Y-56388000D01*
X138680000Y-50580000D02*
X138680000Y-52289038D01*
X138680000Y-52289038D02*
X138380000Y-52589038D01*
X138680000Y-50580000D02*
X138680000Y-49326000D01*
X138680000Y-49326000D02*
X138633200Y-49279200D01*
X138633200Y-49279200D02*
X138633200Y-48615600D01*
D54*
X129463800Y-48615600D02*
X138633200Y-48615600D01*
X126212600Y-51866800D02*
X129463800Y-48615600D01*
X122453400Y-51866800D02*
X126212600Y-51866800D01*
X121920000Y-51333400D02*
X122453400Y-51866800D01*
X121920000Y-48518800D02*
X121920000Y-51333400D01*
X120747200Y-45838000D02*
X120747200Y-47346000D01*
X120747200Y-47346000D02*
X121920000Y-48518800D01*
D53*
X120751600Y-43637200D02*
X121700800Y-42688000D01*
X121700800Y-42688000D02*
X125747200Y-42688000D01*
X120751600Y-44020800D02*
X120751600Y-43637200D01*
X120747200Y-45838000D02*
X120747200Y-44025200D01*
X120747200Y-44025200D02*
X120751600Y-44020800D01*
X125747200Y-45188000D02*
X125747200Y-42688000D01*
D52*
X150368000Y-90944000D02*
X152546000Y-90944000D01*
X152546000Y-90944000D02*
X152570000Y-90968000D01*
X153670000Y-93896400D02*
X153670000Y-92594000D01*
X153670000Y-92594000D02*
X153986000Y-92278000D01*
X153986000Y-92278000D02*
X154770000Y-92278000D01*
X153912000Y-94767400D02*
X153912000Y-94138400D01*
X153912000Y-94138400D02*
X153670000Y-93896400D01*
D59*
X152412000Y-94767400D02*
X152412000Y-93086000D01*
X152412000Y-93086000D02*
X152570000Y-92928000D01*
D52*
X165963600Y-66929000D02*
X146177000Y-66929000D01*
X146177000Y-66929000D02*
X145923000Y-66675000D01*
X145923000Y-66675000D02*
X145923000Y-61976000D01*
X145923000Y-61976000D02*
X145153001Y-61206001D01*
X140180000Y-60843962D02*
X140180000Y-58779999D01*
X145153001Y-61206001D02*
X140542039Y-61206001D01*
X140542039Y-61206001D02*
X140180000Y-60843962D01*
X168046400Y-66942400D02*
X165977000Y-66942400D01*
X165977000Y-66942400D02*
X165963600Y-66929000D01*
X139580000Y-53993400D02*
X139580000Y-56540400D01*
X139580000Y-56540400D02*
X139580000Y-58779999D01*
X140180000Y-58779999D02*
X140180000Y-57525999D01*
X139580000Y-56925999D02*
X139580000Y-56540400D01*
X140180000Y-57525999D02*
X139580000Y-56925999D01*
X139880000Y-53693400D02*
X139580000Y-53993400D01*
X139880000Y-50580000D02*
X139880000Y-53693400D01*
X139909001Y-48412400D02*
X140480000Y-48983399D01*
X140480000Y-48983399D02*
X140480000Y-50580000D01*
X139880000Y-50580000D02*
X139880000Y-49326000D01*
X139880000Y-49326000D02*
X139909001Y-49296999D01*
X139909001Y-49296999D02*
X139909001Y-48412400D01*
D54*
X139909001Y-47961001D02*
X139909001Y-48412400D01*
X139700000Y-47752000D02*
X139909001Y-47961001D01*
X133653200Y-47752000D02*
X139700000Y-47752000D01*
X133247200Y-45838000D02*
X133247200Y-47346000D01*
X133247200Y-47346000D02*
X133653200Y-47752000D01*
D53*
X133248400Y-43256200D02*
X132680200Y-42688000D01*
X132680200Y-42688000D02*
X128247200Y-42688000D01*
X133248400Y-44024000D02*
X133248400Y-43256200D01*
X133247200Y-45838000D02*
X133247200Y-44025200D01*
X133247200Y-44025200D02*
X133248400Y-44024000D01*
X128247200Y-45188000D02*
X128247200Y-42688000D01*
D52*
X153912000Y-96520000D02*
X153912000Y-97447800D01*
X154101800Y-97637600D02*
X155981400Y-97637600D01*
X153912000Y-97447800D02*
X154101800Y-97637600D01*
D59*
X134065000Y-90680000D02*
X131280000Y-90680000D01*
X131280000Y-90680000D02*
X131030000Y-90430000D01*
X131030000Y-90430000D02*
X130280000Y-90430000D01*
X128780000Y-88930000D02*
X128780000Y-86180000D01*
X130280000Y-90430000D02*
X128780000Y-88930000D01*
X134065000Y-90180000D02*
X132079998Y-90180000D01*
X132079998Y-90180000D02*
X131030000Y-89130002D01*
X131030000Y-89130002D02*
X131030000Y-88930000D01*
X131030000Y-88930000D02*
X131030000Y-88680000D01*
X131030000Y-88680000D02*
X130030000Y-87680000D01*
X129530000Y-84180000D02*
X128780000Y-84180000D01*
X130030000Y-84680000D02*
X129530000Y-84180000D01*
X130030000Y-87680000D02*
X130030000Y-84680000D01*
X131030000Y-88930000D02*
X131280000Y-88930000D01*
D55*
X122030000Y-84230000D02*
X115980000Y-84230000D01*
X115980000Y-84230000D02*
X115530000Y-84680000D01*
X115530000Y-84680000D02*
X115530000Y-83678400D01*
X115530000Y-83678400D02*
X115468400Y-83616800D01*
X115468400Y-83616800D02*
X115530000Y-83616800D01*
X124530000Y-84230000D02*
X122030000Y-84230000D01*
X115530000Y-82140000D02*
X115530000Y-83616800D01*
X115530000Y-83616800D02*
X115530000Y-84680000D01*
D58*
X124530000Y-84230000D02*
X124530000Y-83180000D01*
X124530000Y-83180000D02*
X124530000Y-82680000D01*
D52*
X126030000Y-83180000D02*
X124530000Y-83180000D01*
X126280000Y-82930000D02*
X126030000Y-83180000D01*
X127780000Y-82930000D02*
X126280000Y-82930000D01*
X128030000Y-83180000D02*
X127780000Y-82930000D01*
X128030000Y-85230000D02*
X128030000Y-83180000D01*
X127280000Y-86180000D02*
X127280000Y-85980000D01*
X127280000Y-85980000D02*
X128030000Y-85230000D01*
D58*
X124530000Y-82680000D02*
X123280000Y-81430000D01*
X123280000Y-81430000D02*
X121280000Y-81430000D01*
D55*
X115530000Y-84680000D02*
X117650000Y-84680000D01*
X117650000Y-84680000D02*
X118161200Y-85191200D01*
X118161200Y-85191200D02*
X119280000Y-86310000D01*
X118070000Y-93890000D02*
X115780000Y-93890000D01*
X119280000Y-92680000D02*
X118070000Y-93890000D01*
X119280000Y-86310000D02*
X119280000Y-92680000D01*
D52*
X136530000Y-91645000D02*
X136530000Y-93680000D01*
X136530000Y-93680000D02*
X137030000Y-94180000D01*
X137030000Y-94180000D02*
X138684000Y-94180000D01*
X138684000Y-94180000D02*
X139030000Y-94526000D01*
X139030000Y-94526000D02*
X139030000Y-95680000D01*
X200279000Y-95365000D02*
X200279000Y-96766000D01*
X200279000Y-96766000D02*
X200144000Y-96901000D01*
X200144000Y-96901000D02*
X200144000Y-97466685D01*
X199898000Y-99568000D02*
X201295000Y-99568000D01*
X201676000Y-99130000D02*
X201926000Y-98880000D01*
X200144000Y-97466685D02*
X199644000Y-97966685D01*
X199644000Y-97966685D02*
X199644000Y-99314000D01*
X201926000Y-98880000D02*
X202780000Y-98880000D01*
X199644000Y-99314000D02*
X199898000Y-99568000D01*
X201295000Y-99568000D02*
X201676000Y-99187000D01*
X201676000Y-99187000D02*
X201676000Y-99130000D01*
X198501000Y-95365000D02*
X198501000Y-96258000D01*
X198501000Y-96258000D02*
X199144000Y-96901000D01*
X199144000Y-96901000D02*
X199144000Y-98430000D01*
X199144000Y-98430000D02*
X198894000Y-98680000D01*
X141138400Y-38313600D02*
X141742400Y-38313600D01*
X141742400Y-38313600D02*
X142616400Y-37439600D01*
X142616400Y-37439600D02*
X149580600Y-37439600D01*
X149580600Y-37439600D02*
X150017201Y-37876201D01*
X150017201Y-37876201D02*
X150017201Y-38562001D01*
X150017201Y-38562001D02*
X150317200Y-38862000D01*
X145008600Y-47599600D02*
X145008600Y-46010000D01*
X145008600Y-46010000D02*
X144939800Y-45941200D01*
X141401800Y-43180000D02*
X141401800Y-47167800D01*
X141401800Y-47167800D02*
X141376400Y-47193200D01*
X141138400Y-38313600D02*
X140534400Y-38313600D01*
X140534400Y-38313600D02*
X140341600Y-38506400D01*
X140341600Y-38506400D02*
X140341600Y-42119800D01*
X140341600Y-42119800D02*
X141401800Y-43180000D01*
X141138400Y-38313600D02*
X141263400Y-38313600D01*
D54*
X141138400Y-38313600D02*
X141144202Y-38313600D01*
D52*
X149209800Y-40395400D02*
X150342600Y-40395400D01*
X150342600Y-40395400D02*
X151400000Y-40395400D01*
X156385000Y-41598000D02*
X155935000Y-41148000D01*
X152450800Y-40386000D02*
X151409400Y-40386000D01*
X155935000Y-41148000D02*
X152781000Y-41148000D01*
X152781000Y-41148000D02*
X152628600Y-40995600D01*
X152628600Y-40995600D02*
X152628600Y-40563800D01*
X152628600Y-40563800D02*
X152450800Y-40386000D01*
X151384000Y-42201400D02*
X151384000Y-40411400D01*
X151384000Y-40411400D02*
X151409400Y-40386000D01*
X149148800Y-43268200D02*
X149148800Y-42764200D01*
X149148800Y-42764200D02*
X149711600Y-42201400D01*
X149711600Y-42201400D02*
X150680000Y-42201400D01*
X150680000Y-42201400D02*
X151384000Y-42201400D01*
X149909400Y-40441000D02*
X149863800Y-40395400D01*
X149863800Y-40395400D02*
X149209800Y-40395400D01*
X151400000Y-40395400D02*
X151409400Y-40386000D01*
X156885000Y-41598000D02*
X156385000Y-41598000D01*
X157385000Y-41598000D02*
X156885000Y-41598000D01*
D56*
X205511400Y-46182779D02*
X205486000Y-46208179D01*
X205511400Y-44940200D02*
X205511400Y-46182779D01*
D58*
X215530000Y-84680000D02*
X215530000Y-82180000D01*
X215530000Y-82180000D02*
X215030000Y-81680000D01*
X213530000Y-84680000D02*
X213530000Y-83180000D01*
X213530000Y-83180000D02*
X215030000Y-81680000D01*
D56*
X204241400Y-44940200D02*
X204241400Y-46182779D01*
X204241400Y-46182779D02*
X204216000Y-46208179D01*
D58*
X212030000Y-71680000D02*
X213530000Y-71680000D01*
X213530000Y-71680000D02*
X215030000Y-70180000D01*
X212030000Y-69180000D02*
X214030000Y-69180000D01*
X214030000Y-69180000D02*
X215030000Y-70180000D01*
D56*
X200431400Y-44940200D02*
X200431400Y-44490200D01*
X217297000Y-57644000D02*
X216261000Y-58680000D01*
X200431400Y-44490200D02*
X200406000Y-44464800D01*
X200787000Y-42494200D02*
X207822800Y-42494200D01*
X209296000Y-37338000D02*
X216789000Y-37338000D01*
X217297000Y-37846000D02*
X217297000Y-57644000D01*
X200406000Y-44464800D02*
X200406000Y-42875200D01*
X200406000Y-42875200D02*
X200787000Y-42494200D01*
X207822800Y-42494200D02*
X208534000Y-41783000D01*
X208534000Y-41783000D02*
X208534000Y-38100000D01*
X216789000Y-37338000D02*
X217297000Y-37846000D01*
X208534000Y-38100000D02*
X209296000Y-37338000D01*
X216261000Y-58680000D02*
X215030000Y-58680000D01*
D58*
X212030000Y-60680000D02*
X213030000Y-60680000D01*
X213030000Y-60680000D02*
X215030000Y-58680000D01*
X212030000Y-58180000D02*
X214530000Y-58180000D01*
X214530000Y-58180000D02*
X215030000Y-58680000D01*
D56*
X199161400Y-45390200D02*
X199161400Y-44940200D01*
X216535000Y-38227000D02*
X209931000Y-38227000D01*
X206518677Y-46850689D02*
X200621889Y-46850689D01*
X200621889Y-46850689D02*
X199161400Y-45390200D01*
X209169000Y-38989000D02*
X209169000Y-44200366D01*
X209931000Y-38227000D02*
X209169000Y-38989000D01*
X216662000Y-38354000D02*
X216535000Y-38227000D01*
X216261000Y-47180000D02*
X216662000Y-46779000D01*
X215030000Y-47180000D02*
X216261000Y-47180000D01*
X209169000Y-44200366D02*
X206518677Y-46850689D01*
X216662000Y-46779000D02*
X216662000Y-38354000D01*
D58*
X212030000Y-47180000D02*
X213868000Y-47180000D01*
X213868000Y-47180000D02*
X215030000Y-47180000D01*
X212030000Y-49590000D02*
X213868000Y-47752000D01*
X213868000Y-47752000D02*
X213868000Y-47180000D01*
X212030000Y-49680000D02*
X212030000Y-49590000D01*
D52*
X182676800Y-82753200D02*
X182702200Y-82727800D01*
X182702200Y-79756000D02*
X184023000Y-78435200D01*
X184456201Y-83576001D02*
X183559799Y-83576001D01*
X185308000Y-82947000D02*
X185023000Y-82947000D01*
X185023000Y-82947000D02*
X184658000Y-83312000D01*
X184658000Y-83312000D02*
X184658000Y-83362800D01*
X184023000Y-78435200D02*
X194945000Y-78435200D01*
X184658000Y-83362800D02*
X184512001Y-83508799D01*
X184512001Y-83508799D02*
X184512001Y-83520201D01*
X182736998Y-82753200D02*
X182676800Y-82753200D01*
X184512001Y-83520201D02*
X184456201Y-83576001D01*
X194945000Y-78435200D02*
X195767237Y-77612963D01*
X183559799Y-83576001D02*
X182736998Y-82753200D01*
X198834001Y-60003200D02*
X198834001Y-57556798D01*
X195767237Y-63992093D02*
X198592020Y-61167310D01*
X142240000Y-51874000D02*
X142280000Y-51834000D01*
X182702200Y-82727800D02*
X182702200Y-79756000D01*
X196408214Y-55131011D02*
X142888010Y-55131010D01*
X142888010Y-55131010D02*
X142240000Y-54483000D01*
X195767237Y-77612963D02*
X195767237Y-63992093D01*
X198592020Y-61167310D02*
X198592020Y-60245181D01*
X198592020Y-60245181D02*
X198834001Y-60003200D01*
X198834001Y-57556798D02*
X196408214Y-55131011D01*
X142240000Y-54483000D02*
X142240000Y-51874000D01*
X142280000Y-51834000D02*
X142280000Y-50580000D01*
X182600600Y-82753200D02*
X181787800Y-82753200D01*
X181787800Y-82753200D02*
X181483000Y-83058000D01*
X181483000Y-83058000D02*
X181483000Y-83628800D01*
X186623200Y-82947000D02*
X187670200Y-81900000D01*
X187670200Y-81900000D02*
X191024000Y-81900000D01*
X185308000Y-82947000D02*
X186623200Y-82947000D01*
X185308000Y-82947000D02*
X185308000Y-83072000D01*
X185419000Y-83058000D02*
X185308000Y-82947000D01*
X184008000Y-82947000D02*
X184008000Y-81498200D01*
X195503800Y-106172000D02*
X205133000Y-106172000D01*
X184008000Y-81498200D02*
X184480200Y-81026000D01*
X205133000Y-106172000D02*
X206149000Y-105156000D01*
X184480200Y-81026000D02*
X191287400Y-81026000D01*
X191287400Y-81026000D02*
X191770000Y-81508600D01*
X191770000Y-81508600D02*
X191770000Y-84099400D01*
X191770000Y-84099400D02*
X192760600Y-85090000D01*
X192760600Y-85090000D02*
X194437000Y-85090000D01*
X194437000Y-85090000D02*
X194868800Y-85521800D01*
X194868800Y-85521800D02*
X194868800Y-105537000D01*
X194868800Y-105537000D02*
X195503800Y-106172000D01*
X206149000Y-105156000D02*
X206653000Y-105156000D01*
X206653000Y-105156000D02*
X206653000Y-101953000D01*
X206653000Y-101953000D02*
X206630000Y-101930000D01*
X154770000Y-90968000D02*
X155107200Y-90968000D01*
X155107200Y-90968000D02*
X155905200Y-90170000D01*
X191328184Y-80492600D02*
X185685049Y-80492600D01*
X192176400Y-82880200D02*
X192176400Y-81340816D01*
X193116200Y-83820000D02*
X192176400Y-82880200D01*
X192176400Y-81340816D02*
X191328184Y-80492600D01*
X195402200Y-83820000D02*
X193116200Y-83820000D01*
X185685049Y-80492600D02*
X185343800Y-80492600D01*
X184544400Y-87096600D02*
X184544400Y-85979000D01*
X184544400Y-85979000D02*
X184544400Y-85060600D01*
X184544400Y-85060600D02*
X184658000Y-84947000D01*
X135530000Y-95180000D02*
X135030000Y-95680000D01*
X146839800Y-45941200D02*
X146839800Y-45157200D01*
X146839800Y-45157200D02*
X146488200Y-44805600D01*
X146488200Y-44805600D02*
X143510000Y-44805600D01*
X149148800Y-44768200D02*
X147807800Y-44768200D01*
X147807800Y-44768200D02*
X146839800Y-45736200D01*
X146839800Y-45736200D02*
X146839800Y-45941200D01*
X149148800Y-44768200D02*
X151676800Y-44768200D01*
X151676800Y-44768200D02*
X152120600Y-45212000D01*
X152120600Y-45212000D02*
X152146000Y-45212000D01*
X152146000Y-45212000D02*
X152882600Y-45948600D01*
X157911800Y-45643800D02*
X157911800Y-44094400D01*
X152882600Y-45948600D02*
X157607000Y-45948600D01*
X157607000Y-45948600D02*
X157911800Y-45643800D01*
X157911800Y-44094400D02*
X158885000Y-43121200D01*
X158885000Y-43121200D02*
X158885000Y-42613200D01*
X158885000Y-42613200D02*
X158885000Y-41598000D01*
X143510000Y-44805600D02*
X142880000Y-45435600D01*
X142880000Y-45435600D02*
X142880000Y-50580000D01*
X146812000Y-42240200D02*
X146812000Y-43713400D01*
X146812000Y-43713400D02*
X146839800Y-43741200D01*
X143480000Y-50580000D02*
X143480000Y-45654430D01*
X143480000Y-45654430D02*
X143731515Y-45402915D01*
X158385000Y-41598000D02*
X158385000Y-42478200D01*
X158385000Y-42478200D02*
X157327600Y-43535600D01*
X157327600Y-43535600D02*
X157327600Y-44119800D01*
X154420000Y-43701400D02*
X151384000Y-43701400D01*
X157327600Y-44119800D02*
X157022800Y-44424600D01*
X155143200Y-44424600D02*
X154420000Y-43701400D01*
X157022800Y-44424600D02*
X155143200Y-44424600D01*
X150363200Y-44018200D02*
X147695800Y-44018200D01*
X147695800Y-44018200D02*
X147418800Y-43741200D01*
X147418800Y-43741200D02*
X146839800Y-43741200D01*
X151384000Y-43701400D02*
X150680000Y-43701400D01*
X150680000Y-43701400D02*
X150363200Y-44018200D01*
X154482802Y-41783000D02*
X154482802Y-42697402D01*
X154482802Y-42697402D02*
X154711400Y-42926000D01*
X144939800Y-43741200D02*
X144579200Y-43741200D01*
X144579200Y-43741200D02*
X143891000Y-43053000D01*
X155368200Y-42748200D02*
X156235400Y-42748200D01*
X156235400Y-42748200D02*
X157488800Y-42748200D01*
X156235400Y-43686600D02*
X156235400Y-43182600D01*
X156235400Y-43182600D02*
X156235400Y-42748200D01*
X154711400Y-42926000D02*
X155190400Y-42926000D01*
X155190400Y-42926000D02*
X155368200Y-42748200D01*
X157488800Y-42748200D02*
X157885000Y-42352000D01*
X157885000Y-42352000D02*
X157885000Y-41598000D01*
X146481800Y-41478200D02*
X146380200Y-41376600D01*
X146380200Y-41376600D02*
X144399000Y-41376600D01*
X143138400Y-40116000D02*
X143138400Y-38963600D01*
X144399000Y-41376600D02*
X143138400Y-40116000D01*
X159385000Y-41598000D02*
X159385000Y-40844000D01*
X146583400Y-41376600D02*
X146481800Y-41478200D01*
X159385000Y-40844000D02*
X158927000Y-40386000D01*
X156718000Y-40386000D02*
X155016200Y-38684200D01*
X158927000Y-40386000D02*
X156718000Y-40386000D01*
X148564600Y-39446200D02*
X148183600Y-39827200D01*
X155016200Y-38684200D02*
X153162000Y-38684200D01*
X153162000Y-38684200D02*
X152146000Y-39700200D01*
X152146000Y-39700200D02*
X150164800Y-39700200D01*
X147929600Y-41376600D02*
X146583400Y-41376600D01*
X150164800Y-39700200D02*
X149910800Y-39446200D01*
X149910800Y-39446200D02*
X148564600Y-39446200D01*
X148183600Y-39827200D02*
X148183600Y-41122600D01*
X148183600Y-41122600D02*
X147929600Y-41376600D01*
X146481800Y-41478200D02*
X145889800Y-42070200D01*
X145889800Y-42070200D02*
X145889800Y-43741200D01*
X152570000Y-91618000D02*
X151460000Y-91618000D01*
X151155400Y-91922600D02*
X151155400Y-96762000D01*
X151460000Y-91618000D02*
X151155400Y-91922600D01*
D59*
X152412000Y-96520000D02*
X151511000Y-96520000D01*
X151269000Y-96762000D02*
X151155400Y-96762000D01*
X151155400Y-96762000D02*
X150368000Y-96762000D01*
X151511000Y-96520000D02*
X151269000Y-96762000D01*
D52*
X162306000Y-86372000D02*
X162306000Y-81991200D01*
X153340000Y-92278000D02*
X152570000Y-92278000D01*
X153720800Y-91897200D02*
X153340000Y-92278000D01*
X153720800Y-89966800D02*
X153720800Y-91897200D01*
X153339800Y-89585800D02*
X153720800Y-89966800D01*
X151003000Y-89585800D02*
X153339800Y-89585800D01*
X150622000Y-89204800D02*
X151003000Y-89585800D01*
X150622000Y-81864200D02*
X150622000Y-89204800D01*
X151180800Y-81305400D02*
X150622000Y-81864200D01*
X161620200Y-81305400D02*
X151180800Y-81305400D01*
X162306000Y-81991200D02*
X161620200Y-81305400D01*
D59*
X134065000Y-88680000D02*
X133413884Y-88680000D01*
X133413884Y-88680000D02*
X133159442Y-88425558D01*
X132530000Y-85930000D02*
X132530000Y-86180000D01*
X134065000Y-89180000D02*
X133030000Y-89180000D01*
X132530000Y-88680000D02*
X132530000Y-86180000D01*
X133030000Y-89180000D02*
X132530000Y-88680000D01*
X134065000Y-89680000D02*
X132530000Y-89680000D01*
X132030000Y-88180000D02*
X131030000Y-87180000D01*
X132030000Y-89180000D02*
X132030000Y-88180000D01*
X132530000Y-89680000D02*
X132030000Y-89180000D01*
X131030000Y-87180000D02*
X131030000Y-86930000D01*
D52*
X144195800Y-85902800D02*
X143445801Y-86652799D01*
X140388190Y-89126210D02*
X139334400Y-90180000D01*
X139334400Y-90180000D02*
X137995000Y-90180000D01*
X143445801Y-86652799D02*
X143445801Y-86845801D01*
X143445801Y-86845801D02*
X143764000Y-87164000D01*
X143764000Y-87164000D02*
X143764000Y-88798400D01*
X143764000Y-88798400D02*
X143436190Y-89126210D01*
X143436190Y-89126210D02*
X140388190Y-89126210D01*
D59*
X137995000Y-89680000D02*
X139123200Y-89680000D01*
X139123200Y-89680000D02*
X140081000Y-88722200D01*
X140081000Y-88722200D02*
X142987800Y-88722200D01*
X142987800Y-88722200D02*
X143030000Y-88680000D01*
X143030000Y-88680000D02*
X143030000Y-87930000D01*
D52*
X138912600Y-86233000D02*
X138912600Y-86283800D01*
X138912600Y-86283800D02*
X139242800Y-86614000D01*
X139242800Y-86614000D02*
X141909800Y-86614000D01*
X141909800Y-86614000D02*
X142138400Y-86842600D01*
X142138400Y-86842600D02*
X142138400Y-88011000D01*
X142138400Y-88011000D02*
X141935200Y-88214200D01*
X141935200Y-88214200D02*
X139446000Y-88214200D01*
X139446000Y-88214200D02*
X139065000Y-88595200D01*
X139065000Y-88595200D02*
X139065000Y-88950800D01*
X139065000Y-88950800D02*
X138835800Y-89180000D01*
X138835800Y-89180000D02*
X137995000Y-89180000D01*
D59*
X126504700Y-79209900D02*
X124294900Y-79209900D01*
X121742200Y-73406000D02*
X121742200Y-70180000D01*
X122809000Y-74472800D02*
X121742200Y-73406000D01*
X122809000Y-77724000D02*
X122809000Y-74472800D01*
X124294900Y-79209900D02*
X122809000Y-77724000D01*
X138912600Y-84480400D02*
X138912600Y-86233000D01*
X138582400Y-84150200D02*
X138912600Y-84480400D01*
X135001000Y-84150200D02*
X138582400Y-84150200D01*
X132181600Y-81330800D02*
X135001000Y-84150200D01*
X128625600Y-81330800D02*
X132181600Y-81330800D01*
X126504700Y-79209900D02*
X128625600Y-81330800D01*
X120780000Y-70180000D02*
X121742200Y-70180000D01*
X121742200Y-70180000D02*
X121945600Y-70180000D01*
X121945600Y-70180000D02*
X122780000Y-70180000D01*
D52*
X141198600Y-87414800D02*
X138492800Y-87414800D01*
X138492800Y-87414800D02*
X137995000Y-87912600D01*
X137995000Y-87912600D02*
X137995000Y-88680000D01*
D59*
X137030000Y-87715000D02*
X137030000Y-87680000D01*
X137030000Y-87680000D02*
X138030000Y-86680000D01*
X138030000Y-86680000D02*
X138030000Y-84930000D01*
X136530000Y-84930000D02*
X136530000Y-87715000D01*
X136030000Y-87715000D02*
X136030000Y-86963590D01*
X136030000Y-86963590D02*
X134946407Y-85879997D01*
X134946407Y-85879997D02*
X134280000Y-85879997D01*
X135110000Y-86680000D02*
X134280000Y-86680000D01*
X135530000Y-87715000D02*
X135530000Y-87100000D01*
X135530000Y-87100000D02*
X135110000Y-86680000D01*
X135030000Y-87715000D02*
X134065000Y-87715000D01*
X134065000Y-87715000D02*
X133780000Y-87430000D01*
D52*
X197637400Y-42011600D02*
X197312399Y-42336601D01*
X207645000Y-95631000D02*
X207645000Y-99441000D01*
X201396989Y-88858825D02*
X201396990Y-91795990D01*
X204470000Y-94996000D02*
X204597000Y-95123000D01*
X204393798Y-94996000D02*
X204470000Y-94996000D01*
X199379016Y-48006000D02*
X206375000Y-48006000D01*
X207645000Y-99441000D02*
X208684000Y-100480000D01*
X199644000Y-41783000D02*
X199415400Y-42011600D01*
X208684000Y-100480000D02*
X211280000Y-100480000D01*
X204622790Y-95097210D02*
X207111210Y-95097210D01*
X206476989Y-83778825D02*
X201396989Y-88858825D01*
X197312399Y-45939383D02*
X199379016Y-48006000D01*
X201422000Y-91821000D02*
X201422000Y-92024202D01*
X201422000Y-92024202D02*
X204393798Y-94996000D01*
X199415400Y-42011600D02*
X197637400Y-42011600D01*
X206476989Y-48107989D02*
X206476989Y-83778825D01*
X204597000Y-95123000D02*
X204622790Y-95097210D01*
X207111210Y-95097210D02*
X207645000Y-95631000D01*
X201396990Y-91795990D02*
X201422000Y-91821000D01*
X206375000Y-48006000D02*
X206476989Y-48107989D01*
X197312399Y-42336601D02*
X197312399Y-45939383D01*
X202971400Y-39540200D02*
X202971400Y-41503600D01*
X202971400Y-41503600D02*
X202692000Y-41783000D01*
X202692000Y-41783000D02*
X199644000Y-41783000D01*
X199644000Y-41275000D02*
X199644000Y-41783000D01*
X211280000Y-100480000D02*
X211280000Y-101034000D01*
X211280000Y-101034000D02*
X211465000Y-101219000D01*
X211465000Y-101219000D02*
X211465000Y-101275800D01*
X212743200Y-101346000D02*
X212928200Y-101531000D01*
X211465000Y-101275800D02*
X211535200Y-101346000D01*
X211535200Y-101346000D02*
X212743200Y-101346000D01*
X212928200Y-101531000D02*
X212928200Y-102235000D01*
X202971400Y-39540200D02*
X204241400Y-39540200D01*
X199161400Y-40792400D02*
X199644000Y-41275000D01*
X199161400Y-39540200D02*
X199161400Y-40792400D01*
X197891400Y-39540200D02*
X199161400Y-39540200D01*
X206502000Y-47498000D02*
X207137000Y-48133000D01*
X205472990Y-86981990D02*
X203681980Y-88773000D01*
X202057000Y-88773000D02*
X201803000Y-89027000D01*
X203681980Y-88773000D02*
X202057000Y-88773000D01*
X197891400Y-44940200D02*
X197891400Y-45944200D01*
X201803000Y-89027000D02*
X201803000Y-90297000D01*
X206019400Y-90924000D02*
X206019400Y-91428000D01*
X197891400Y-45944200D02*
X199445200Y-47498000D01*
X202184000Y-90678000D02*
X205773400Y-90678000D01*
X199445200Y-47498000D02*
X206502000Y-47498000D01*
X207137000Y-48133000D02*
X207137000Y-86487000D01*
X207137000Y-86487000D02*
X206642010Y-86981990D01*
X206642010Y-86981990D02*
X205472990Y-86981990D01*
X201803000Y-90297000D02*
X202184000Y-90678000D01*
X205773400Y-90678000D02*
X206019400Y-90924000D01*
X197891400Y-44940200D02*
X197891400Y-44297600D01*
X197891400Y-44297600D02*
X198831200Y-43357800D01*
X198831200Y-43357800D02*
X199136000Y-43357800D01*
X202024064Y-43332400D02*
X201599800Y-43332400D01*
X202971400Y-43408600D02*
X202895200Y-43332400D01*
X202895200Y-43332400D02*
X202024064Y-43332400D01*
X203073000Y-43307000D02*
X202971400Y-43408600D01*
X209423000Y-99695000D02*
X209042000Y-99314000D01*
X209042000Y-99314000D02*
X209042000Y-96139000D01*
X210411000Y-99695000D02*
X209423000Y-99695000D01*
X211280000Y-99680000D02*
X210426000Y-99680000D01*
X210426000Y-99680000D02*
X210411000Y-99695000D01*
X209042000Y-96139000D02*
X209383000Y-96480000D01*
X209383000Y-96480000D02*
X211280000Y-96480000D01*
X209042000Y-95377000D02*
X209042000Y-96139000D01*
X209030000Y-95365000D02*
X209042000Y-95377000D01*
X209030000Y-94398400D02*
X209030000Y-95365000D01*
X208737200Y-94691200D02*
X209030000Y-94398400D01*
X209030000Y-94398400D02*
X209030000Y-93430000D01*
X205830000Y-93430000D02*
X205830000Y-94284000D01*
X205830000Y-94284000D02*
X206237200Y-94691200D01*
X206237200Y-94691200D02*
X208737200Y-94691200D01*
X206019400Y-92176600D02*
X205830000Y-92366000D01*
X205830000Y-92366000D02*
X205830000Y-93430000D01*
X206019400Y-91428000D02*
X206019400Y-92176600D01*
X202971400Y-43408600D02*
X202971400Y-44940200D01*
X206152200Y-43307000D02*
X203073000Y-43307000D01*
X206781400Y-44940200D02*
X206781400Y-43936200D01*
X206781400Y-43936200D02*
X206152200Y-43307000D01*
X202971400Y-44940200D02*
X201701400Y-44940200D01*
X200394000Y-98680000D02*
X200898000Y-98680000D01*
X200898000Y-98680000D02*
X201498000Y-98080000D01*
X201498000Y-98080000D02*
X201926000Y-98080000D01*
X201926000Y-98080000D02*
X202780000Y-98080000D01*
X201833000Y-101981000D02*
X198755000Y-101981000D01*
X202780000Y-100480000D02*
X202780000Y-101034000D01*
X202780000Y-101034000D02*
X201833000Y-101981000D01*
X183642000Y-57404000D02*
X183642000Y-56134000D01*
X187111400Y-66513200D02*
X187111400Y-66388200D01*
X187111400Y-66388200D02*
X186944000Y-66220800D01*
X186944000Y-66220800D02*
X186944000Y-64516000D01*
X186944000Y-64516000D02*
X186309000Y-63881000D01*
X186309000Y-63881000D02*
X185547000Y-63881000D01*
X185547000Y-63881000D02*
X184404000Y-62738000D01*
X184404000Y-62738000D02*
X184404000Y-58166000D01*
X184404000Y-58166000D02*
X183642000Y-57404000D01*
X186397200Y-42926000D02*
X186397200Y-44971400D01*
X186397200Y-44971400D02*
X185826400Y-45542200D01*
X125780000Y-84880000D02*
X124530000Y-86130000D01*
X127280000Y-84180000D02*
X126480000Y-84180000D01*
X126480000Y-84180000D02*
X125780000Y-84880000D01*
X139530000Y-98180000D02*
X141067990Y-96642010D01*
X113780000Y-93430000D02*
X113780000Y-94930000D01*
X115780000Y-91350000D02*
X114930001Y-92199999D01*
X128030000Y-99930000D02*
X129780000Y-98180000D01*
X147780000Y-94930000D02*
X146280000Y-93430000D01*
X147492010Y-96642010D02*
X147780000Y-96354020D01*
X114930001Y-92199999D02*
X114930001Y-92279999D01*
X146280000Y-93430000D02*
X146280000Y-90430000D01*
X114930001Y-92279999D02*
X113780000Y-93430000D01*
X145030000Y-89930000D02*
X144530000Y-89430000D01*
X117780000Y-99180000D02*
X118530000Y-99930000D01*
X113780000Y-94930000D02*
X114030000Y-95180000D01*
X114030000Y-95180000D02*
X117030000Y-95180000D01*
X117030000Y-95180000D02*
X117780000Y-95930000D01*
X117780000Y-95930000D02*
X117780000Y-99180000D01*
X118530000Y-99930000D02*
X128030000Y-99930000D01*
X129780000Y-98180000D02*
X139530000Y-98180000D01*
X141067990Y-96642010D02*
X147492010Y-96642010D01*
X147780000Y-96354020D02*
X147780000Y-94930000D01*
X146280000Y-90430000D02*
X145780000Y-89930000D01*
X145780000Y-89930000D02*
X145030000Y-89930000D01*
X144530000Y-89430000D02*
X144530000Y-87930000D01*
X200295000Y-88569800D02*
X200295000Y-83875000D01*
X200295000Y-83875000D02*
X199986000Y-83566000D01*
X199986000Y-83566000D02*
X198882000Y-83566000D01*
X198577200Y-90791600D02*
X198577200Y-90287600D01*
X198577200Y-90287600D02*
X200295000Y-88569800D01*
X165963600Y-65429000D02*
X165963600Y-63423800D01*
X167919400Y-62915800D02*
X168394001Y-62441199D01*
X165963600Y-63423800D02*
X166471600Y-62915800D01*
X166471600Y-62915800D02*
X167919400Y-62915800D01*
X168394001Y-62441199D02*
X168394001Y-60048000D01*
X168394001Y-60048000D02*
X168380000Y-60033999D01*
X168380000Y-60033999D02*
X168380000Y-58779999D01*
X182336200Y-66538600D02*
X182336200Y-65623200D01*
X165963600Y-65760600D02*
X165963600Y-65429000D01*
X166243000Y-66040000D02*
X165963600Y-65760600D01*
X179451000Y-66040000D02*
X166243000Y-66040000D01*
X180340000Y-65151000D02*
X179451000Y-66040000D01*
X181864000Y-65151000D02*
X180340000Y-65151000D01*
X182336200Y-65623200D02*
X181864000Y-65151000D01*
X197609000Y-61001962D02*
X197780000Y-60830962D01*
X197780000Y-60830962D02*
X197780000Y-58779999D01*
X193802000Y-65467800D02*
X193802000Y-64963800D01*
X193802000Y-64963800D02*
X193979800Y-64786000D01*
X193979800Y-64786000D02*
X193979800Y-62915800D01*
X197180000Y-60451800D02*
X197180000Y-58779999D01*
X193979800Y-62915800D02*
X195072000Y-61823600D01*
X195072000Y-61823600D02*
X196787362Y-61823600D01*
X197609000Y-61001962D02*
X197609000Y-60880800D01*
X196787362Y-61823600D02*
X197609000Y-61001962D01*
X197609000Y-60880800D02*
X197180000Y-60451800D01*
X168186020Y-55537020D02*
X168980000Y-56331000D01*
X168980000Y-56331000D02*
X168980000Y-58779999D01*
X153035000Y-55880000D02*
X153377980Y-55537020D01*
X153377980Y-55537020D02*
X168186020Y-55537020D01*
X168046400Y-65442400D02*
X168046400Y-64287400D01*
X168046400Y-64287400D02*
X168917999Y-63415801D01*
X168917999Y-63415801D02*
X168917999Y-60096000D01*
X168917999Y-60096000D02*
X168980000Y-60033999D01*
X168980000Y-60033999D02*
X168980000Y-58779999D01*
X154061400Y-44926000D02*
X153194000Y-44926000D01*
X153194000Y-44926000D02*
X153136600Y-44983400D01*
X144094200Y-47752000D02*
X144094200Y-50565800D01*
X144094200Y-50565800D02*
X144080000Y-50580000D01*
X142290800Y-43210200D02*
X142290800Y-47650400D01*
X142290800Y-47650400D02*
X142189200Y-47752000D01*
X141085000Y-41300400D02*
X141085000Y-42004400D01*
X141085000Y-42004400D02*
X142290800Y-43210200D01*
X141138400Y-39613600D02*
X141138400Y-41247000D01*
X141138400Y-41247000D02*
X141085000Y-41300400D01*
X189530000Y-65430000D02*
X189530000Y-64216000D01*
X189530000Y-64216000D02*
X189980000Y-63766000D01*
X189980000Y-63766000D02*
X189980000Y-58779999D01*
X170030000Y-65430000D02*
X170030000Y-64926000D01*
X170030000Y-64926000D02*
X170180000Y-64776000D01*
X170180000Y-64776000D02*
X170180000Y-60033999D01*
X170180000Y-60033999D02*
X170180000Y-58779999D01*
X191530000Y-64657000D02*
X190580000Y-63707000D01*
X190580000Y-63707000D02*
X190580000Y-58779999D01*
X191530000Y-65430000D02*
X191530000Y-64657000D01*
X172030000Y-65430000D02*
X172030000Y-64926000D01*
X172030000Y-64926000D02*
X170780000Y-63676000D01*
X170780000Y-63676000D02*
X170780000Y-60033999D01*
X170780000Y-60033999D02*
X170780000Y-58779999D01*
X193024000Y-82550000D02*
X195834000Y-82550000D01*
X195834000Y-82550000D02*
X196062600Y-82778600D01*
X196062600Y-82778600D02*
X196062600Y-84810600D01*
X196062600Y-84810600D02*
X195757800Y-85115400D01*
X181686200Y-68538600D02*
X184597800Y-68538600D01*
X184597800Y-68538600D02*
X184988200Y-68148200D01*
X184988200Y-68148200D02*
X184988200Y-66649600D01*
X184988200Y-66649600D02*
X185124600Y-66513200D01*
X185124600Y-66513200D02*
X185811400Y-66513200D01*
X186461400Y-68513200D02*
X194326000Y-68513200D01*
X198186010Y-60999136D02*
X198186010Y-60051191D01*
X194326000Y-68513200D02*
X195199000Y-67640200D01*
X198234001Y-59829999D02*
X198380000Y-59684000D01*
X195199000Y-67640200D02*
X195199000Y-62865000D01*
X195199000Y-62865000D02*
X195834390Y-62229610D01*
X196955536Y-62229610D02*
X198186010Y-60999136D01*
X195834390Y-62229610D02*
X196955536Y-62229610D01*
X198186010Y-60051191D02*
X198234001Y-60003200D01*
X198234001Y-60003200D02*
X198234001Y-59829999D01*
X198380000Y-59684000D02*
X198380000Y-58779999D01*
D60*
X198080000Y-50580000D02*
X198080000Y-49427600D01*
X198080000Y-49427600D02*
X198203801Y-49303799D01*
X198203801Y-49303799D02*
X200332199Y-49303799D01*
X200332199Y-49303799D02*
X202793600Y-51765200D01*
X202793600Y-51765200D02*
X202793600Y-69367400D01*
X202793600Y-69367400D02*
X202438390Y-69722610D01*
X202438390Y-69722610D02*
X199034790Y-69722610D01*
X199034790Y-69722610D02*
X198780003Y-69977397D01*
X198780003Y-69977397D02*
X198780003Y-74828400D01*
X197480000Y-50580000D02*
X197480000Y-49427600D01*
X199822580Y-70027020D02*
X199414606Y-70434994D01*
X197480000Y-49427600D02*
X197908211Y-48999389D01*
X197908211Y-48999389D02*
X200484989Y-48999389D01*
X200484989Y-48999389D02*
X203174600Y-51689000D01*
X203174600Y-69416900D02*
X202564480Y-70027020D01*
X203174600Y-51689000D02*
X203174600Y-69416900D01*
X202564480Y-70027020D02*
X199822580Y-70027020D01*
X199414606Y-70434994D02*
X199414606Y-74828400D01*
X196280000Y-50580000D02*
X196280000Y-49427600D01*
X196280000Y-49427600D02*
X197012723Y-48694878D01*
X197012723Y-48694878D02*
X200688478Y-48694878D01*
X202689400Y-70332600D02*
X200558400Y-70332600D01*
X200688478Y-48694878D02*
X203555600Y-51562000D01*
X203555600Y-51562000D02*
X203555600Y-69466400D01*
X203555600Y-69466400D02*
X202689400Y-70332600D01*
X200558400Y-70332600D02*
X200557230Y-70331430D01*
X200557230Y-70331430D02*
X200407170Y-70331430D01*
X200407170Y-70331430D02*
X200050400Y-70688200D01*
X200050400Y-70688200D02*
X200050400Y-74794778D01*
X200050400Y-74794778D02*
X200048419Y-74796759D01*
X195980000Y-58779999D02*
X195980000Y-55797321D01*
X195980000Y-55797321D02*
X195834000Y-55651321D01*
X185689580Y-53506525D02*
X185689580Y-53847774D01*
X184443789Y-41695789D02*
X184443789Y-46394789D01*
X184443789Y-46394789D02*
X185689580Y-47640580D01*
X182118000Y-39370000D02*
X184443789Y-41695789D01*
X185689580Y-47640580D02*
X185689580Y-53506525D01*
X195680000Y-50580000D02*
X195680000Y-49427600D01*
X195680000Y-49427600D02*
X196717132Y-48390468D01*
X196717132Y-48390468D02*
X200942868Y-48390468D01*
X203987400Y-69465100D02*
X202815490Y-70637010D01*
X200942868Y-48390468D02*
X203987400Y-51435000D01*
X203987400Y-51435000D02*
X203987400Y-69465100D01*
X202815490Y-70637010D02*
X201066790Y-70637010D01*
X200685400Y-71018400D02*
X200685400Y-74828400D01*
X201066790Y-70637010D02*
X200685400Y-71018400D01*
X182486238Y-46939200D02*
X184404000Y-46939200D01*
X185369200Y-47904400D02*
X185369200Y-53313302D01*
X184404000Y-46939200D02*
X185369200Y-47904400D01*
X185055104Y-53627398D02*
X185055104Y-53860885D01*
X185369200Y-53313302D02*
X185055104Y-53627398D01*
X181762400Y-46215362D02*
X182486238Y-46939200D01*
X181762400Y-41554400D02*
X181762400Y-46215362D01*
X179578000Y-39370000D02*
X181762400Y-41554400D01*
X195380000Y-58779999D02*
X195380000Y-56672770D01*
X195380000Y-56672770D02*
X195297541Y-56590311D01*
X198170800Y-70027800D02*
X198170800Y-74803000D01*
X198170800Y-74803000D02*
X198145400Y-74828400D01*
X194480000Y-50580000D02*
X194480000Y-52965778D01*
X194795423Y-53281201D02*
X201836399Y-53281201D01*
X194480000Y-52965778D02*
X194795423Y-53281201D01*
X201836399Y-53281201D02*
X202412600Y-53857402D01*
X202412600Y-53857402D02*
X202412600Y-69164200D01*
X202412600Y-69164200D02*
X202158600Y-69418200D01*
X202158600Y-69418200D02*
X198780400Y-69418200D01*
X198780400Y-69418200D02*
X198170800Y-70027800D01*
X181432200Y-42011600D02*
X181432200Y-46355000D01*
X180314600Y-40894000D02*
X181432200Y-42011600D01*
X182448200Y-47371000D02*
X184302400Y-47371000D01*
X177038000Y-39370000D02*
X178562000Y-40894000D01*
X178562000Y-40894000D02*
X180314600Y-40894000D01*
X181432200Y-46355000D02*
X182448200Y-47371000D01*
X184302400Y-47371000D02*
X185013600Y-48082200D01*
X185013600Y-48082200D02*
X185013600Y-53238400D01*
X185013600Y-53238400D02*
X184404000Y-53848000D01*
X194183000Y-57023000D02*
X194183000Y-58776999D01*
X194183000Y-58776999D02*
X194180000Y-58779999D01*
X197434200Y-74429536D02*
X197434200Y-74777600D01*
X197434200Y-74777600D02*
X197459600Y-74803000D01*
X199797233Y-61324312D02*
X196824600Y-64296945D01*
X196824600Y-69164200D02*
X197434200Y-69773800D01*
X194017898Y-53454298D02*
X194215399Y-53651799D01*
X194017898Y-51870298D02*
X194017898Y-53454298D01*
X193880000Y-51732400D02*
X194017898Y-51870298D01*
X193880000Y-50580000D02*
X193880000Y-51732400D01*
X199797233Y-57157815D02*
X199797233Y-61324312D01*
X194215399Y-53651799D02*
X196291217Y-53651799D01*
X197434200Y-69773800D02*
X197434200Y-74429536D01*
X196291217Y-53651799D02*
X199797233Y-57157815D01*
X196824600Y-64296945D02*
X196824600Y-69164200D01*
X193580000Y-55683321D02*
X193548000Y-55651321D01*
X193580000Y-58779999D02*
X193580000Y-55683321D01*
X189738000Y-39370000D02*
X187375800Y-41732200D01*
X187370999Y-43596961D02*
X187375800Y-43601762D01*
X187375800Y-41732200D02*
X187375800Y-42250238D01*
X187375800Y-44866022D02*
X187240199Y-45001623D01*
X187375800Y-42250238D02*
X187370999Y-42255039D01*
X193547736Y-53340000D02*
X193548397Y-53340661D01*
X187370999Y-42255039D02*
X187370999Y-43596961D01*
X187375800Y-43601762D02*
X187375800Y-44866022D01*
X187240199Y-46668401D02*
X186715400Y-47193200D01*
X186715400Y-52440178D02*
X187615222Y-53340000D01*
X187615222Y-53340000D02*
X193547736Y-53340000D01*
X187240199Y-45001623D02*
X187240199Y-46668401D01*
X186715400Y-47193200D02*
X186715400Y-52440178D01*
X197448551Y-47853600D02*
X197789800Y-47853600D01*
X192680000Y-49427600D02*
X194127000Y-47980600D01*
X197321551Y-47980600D02*
X197448551Y-47853600D01*
X192680000Y-50580000D02*
X192680000Y-49427600D01*
X194127000Y-47980600D02*
X197321551Y-47980600D01*
X197383400Y-77266800D02*
X197332600Y-77317600D01*
X202007987Y-48791613D02*
X204393800Y-51177426D01*
X204393800Y-51177426D02*
X204393800Y-69489200D01*
X204393800Y-69489200D02*
X202915400Y-70967600D01*
X201498200Y-70967600D02*
X201320003Y-71145797D01*
X202915400Y-70967600D02*
X201498200Y-70967600D01*
X201320003Y-71145797D02*
X201320003Y-76089735D01*
X201320003Y-76089735D02*
X200422338Y-76987400D01*
X200422338Y-76987400D02*
X197662800Y-76987400D01*
X197662800Y-76987400D02*
X197383400Y-77266800D01*
X192380000Y-55676321D02*
X192405000Y-55651321D01*
X192380000Y-58779999D02*
X192380000Y-55676321D01*
X187198000Y-39370000D02*
X186893200Y-39674800D01*
X186893200Y-39674800D02*
X186893200Y-45013262D01*
X186893200Y-45013262D02*
X186904601Y-45024663D01*
X186904601Y-45024663D02*
X186904601Y-46059737D01*
X186904601Y-46059737D02*
X186359800Y-46604538D01*
X186359800Y-46604538D02*
X186359800Y-52515078D01*
X186359800Y-52515078D02*
X187565722Y-53721000D01*
X187565722Y-53721000D02*
X192315839Y-53721000D01*
X192315839Y-53721000D02*
X192405000Y-53810161D01*
X196483351Y-47447200D02*
X196824600Y-47447200D01*
X194060400Y-47447200D02*
X196483351Y-47447200D01*
X192080000Y-49427600D02*
X194060400Y-47447200D01*
X192080000Y-50580000D02*
X192080000Y-49427600D01*
X201879200Y-76225400D02*
X201193400Y-76911200D01*
X201752200Y-71475600D02*
X201879200Y-71602600D01*
X201879200Y-71602600D02*
X201879200Y-76225400D01*
X203041490Y-71272010D02*
X201955790Y-71272010D01*
X201955790Y-71272010D02*
X201752200Y-71475600D01*
X204698600Y-65303400D02*
X204698600Y-69614900D01*
X204698600Y-69614900D02*
X203041490Y-71272010D01*
X204698600Y-54000400D02*
X204698600Y-65303400D01*
X204698600Y-53924200D02*
X204698600Y-54000400D01*
X204698600Y-51051726D02*
X204698600Y-53924200D01*
X202895200Y-49248326D02*
X204698600Y-51051726D01*
X202895200Y-48641000D02*
X202895200Y-49248326D01*
X191780000Y-58779999D02*
X191780000Y-57627599D01*
X191780000Y-57627599D02*
X189803722Y-55651321D01*
X189803722Y-55651321D02*
X187285249Y-55651321D01*
X187285249Y-55651321D02*
X186944000Y-55651321D01*
X186055000Y-52640778D02*
X186055000Y-52959000D01*
X186055000Y-52959000D02*
X186944000Y-53848000D01*
X184658000Y-39370000D02*
X185343800Y-40055800D01*
X185597800Y-46913800D02*
X186055000Y-47371000D01*
X185343800Y-40055800D02*
X185343800Y-44463999D01*
X185308863Y-44463999D02*
X184748199Y-45024663D01*
X185597800Y-46909338D02*
X185597800Y-46913800D01*
X185343800Y-44463999D02*
X185308863Y-44463999D01*
X184748199Y-45024663D02*
X184748199Y-46059737D01*
X184748199Y-46059737D02*
X185597800Y-46909338D01*
X186055000Y-47371000D02*
X186055000Y-52640778D01*
X195719701Y-47053499D02*
X195961000Y-46812200D01*
X195656200Y-47117000D02*
X195719701Y-47053499D01*
X193190600Y-47117000D02*
X195656200Y-47117000D01*
X190880000Y-49427600D02*
X193190600Y-47117000D01*
X190880000Y-50580000D02*
X190880000Y-49427600D01*
X202184000Y-72034400D02*
X202184000Y-76784200D01*
X202184000Y-76784200D02*
X201498200Y-77470000D01*
X202539600Y-71678800D02*
X202184000Y-72034400D01*
X203065200Y-71678800D02*
X202539600Y-71678800D01*
X205003009Y-69740991D02*
X203065200Y-71678800D01*
X205003010Y-52577610D02*
X205003009Y-69740991D01*
X205003010Y-50925636D02*
X205003010Y-52577610D01*
X203784200Y-48793400D02*
X203784200Y-49706826D01*
X203784200Y-49706826D02*
X205003010Y-50925636D01*
X194806949Y-46507400D02*
X195148198Y-46507400D01*
X193200200Y-46507400D02*
X194806949Y-46507400D01*
X195364097Y-46723299D02*
X195148198Y-46507400D01*
X190280000Y-49427600D02*
X193200200Y-46507400D01*
X190280000Y-50580000D02*
X190280000Y-49427600D01*
X202665690Y-71983210D02*
X202665690Y-77199506D01*
X202665690Y-77199506D02*
X201932230Y-77932966D01*
X205307420Y-51663600D02*
X205307418Y-69867082D01*
X205307418Y-69867082D02*
X203191290Y-71983210D01*
X203191290Y-71983210D02*
X202665690Y-71983210D01*
X205307420Y-50799546D02*
X205307420Y-51663600D01*
X204393800Y-49885926D02*
X205307420Y-50799546D01*
X204393800Y-49352200D02*
X204393800Y-49885926D01*
X193917951Y-45821600D02*
X194259200Y-45821600D01*
X192686000Y-45821600D02*
X193917951Y-45821600D01*
X189080000Y-49427600D02*
X192686000Y-45821600D01*
X189080000Y-50580000D02*
X189080000Y-49427600D01*
X202970100Y-72634900D02*
X202970100Y-77589958D01*
X202970100Y-77589958D02*
X201312058Y-79248000D01*
X201312058Y-79248000D02*
X201168000Y-79248000D01*
X205613000Y-51663600D02*
X205613000Y-69992000D01*
X205613000Y-69992000D02*
X202970100Y-72634900D01*
X205232000Y-49352200D02*
X205232000Y-50293626D01*
X205232000Y-50293626D02*
X205613000Y-50674626D01*
X205613000Y-50674626D02*
X205613000Y-51663600D01*
X188780000Y-58779999D02*
X188780000Y-59932399D01*
X188776799Y-60457976D02*
X187960000Y-61274775D01*
X188780000Y-59932399D02*
X188776799Y-59935600D01*
X188776799Y-59935600D02*
X188776799Y-60457976D01*
X187960000Y-61274775D02*
X187960000Y-63500000D01*
X197636263Y-80110463D02*
X201194537Y-80110463D01*
X205956679Y-49693449D02*
X205956679Y-49352200D01*
X201194537Y-80110463D02*
X205956679Y-75348321D01*
X205956679Y-75348321D02*
X205956679Y-49693449D01*
X195162551Y-45262800D02*
X195503800Y-45262800D01*
X192644800Y-45262800D02*
X195162551Y-45262800D01*
X188480000Y-50580000D02*
X188480000Y-49427600D01*
X188480000Y-49427600D02*
X192644800Y-45262800D01*
X185928000Y-61341000D02*
X185928000Y-62738000D01*
X186309000Y-60960000D02*
X185928000Y-61341000D01*
X187796778Y-60960000D02*
X186309000Y-60960000D01*
X188180000Y-58779999D02*
X188180000Y-60576778D01*
X188180000Y-60576778D02*
X187796778Y-60960000D01*
X181880000Y-50580000D02*
X181880000Y-52241514D01*
X181880000Y-52241514D02*
X181902863Y-52264377D01*
D61*
X181580000Y-58779999D02*
X181580000Y-59931999D01*
X181580000Y-59931999D02*
X181541999Y-59970000D01*
X181541999Y-59970000D02*
X181541999Y-62670396D01*
X181541999Y-62670396D02*
X181609603Y-62738000D01*
D60*
X181280000Y-50580000D02*
X181280000Y-51732400D01*
X181431759Y-51884159D02*
X181431759Y-52915595D01*
X181280000Y-51732400D02*
X181431759Y-51884159D01*
D61*
X180980000Y-58779999D02*
X180980000Y-62733000D01*
X180980000Y-62733000D02*
X180975000Y-62738000D01*
D60*
X180080000Y-51937000D02*
X180086000Y-51943000D01*
X180080000Y-50580000D02*
X180080000Y-51937000D01*
X188168001Y-102763599D02*
X188168001Y-94442001D01*
X178410000Y-104220000D02*
X178913800Y-104220000D01*
X178913800Y-104220000D02*
X180035200Y-103098600D01*
X180314600Y-103098600D02*
X180319401Y-103093799D01*
X180035200Y-103098600D02*
X180314600Y-103098600D01*
X181533800Y-88163400D02*
X180756799Y-87386399D01*
X180319401Y-103093799D02*
X187837801Y-103093799D01*
X188168001Y-94442001D02*
X188163200Y-94437200D01*
X187837801Y-103093799D02*
X188168001Y-102763599D01*
X188163200Y-94437200D02*
X188163200Y-89230200D01*
X180756799Y-87386399D02*
X180756799Y-87360999D01*
X188163200Y-89230200D02*
X187096400Y-88163400D01*
X180238400Y-70561200D02*
X179832000Y-70154800D01*
X187096400Y-88163400D02*
X181533800Y-88163400D01*
X180756799Y-87360999D02*
X180238400Y-86842600D01*
X180238400Y-86842600D02*
X180238400Y-70561200D01*
X179832000Y-70154800D02*
X167462200Y-70154800D01*
X167462200Y-70154800D02*
X167030400Y-70586600D01*
X167030400Y-70586600D02*
X167030400Y-73939400D01*
D61*
X179780000Y-58779999D02*
X179780000Y-59931999D01*
X179780000Y-59931999D02*
X179763999Y-59948000D01*
X179763999Y-59948000D02*
X179763999Y-62669999D01*
X179763999Y-62669999D02*
X179832000Y-62738000D01*
D60*
X179480000Y-50580000D02*
X179480000Y-52864770D01*
X179480000Y-52864770D02*
X179543878Y-52928648D01*
X170422951Y-69570600D02*
X170764200Y-69570600D01*
X166420800Y-69570600D02*
X170422951Y-69570600D01*
X166116000Y-69875400D02*
X166420800Y-69570600D01*
X166116000Y-73939400D02*
X166116000Y-69875400D01*
X171030899Y-70573901D02*
X170789600Y-70815200D01*
X171081699Y-70523101D02*
X171030899Y-70573901D01*
X179743101Y-70523101D02*
X171081699Y-70523101D01*
X179857400Y-70637400D02*
X179743101Y-70523101D01*
X186690000Y-88544400D02*
X181484300Y-88544400D01*
X187858400Y-89712800D02*
X186690000Y-88544400D01*
X187452000Y-100304600D02*
X187858400Y-99898200D01*
X185208238Y-100304600D02*
X187452000Y-100304600D01*
X179857400Y-86917500D02*
X179857400Y-70637400D01*
X184734200Y-102362000D02*
X184734200Y-100778638D01*
X184734200Y-100778638D02*
X185208238Y-100304600D01*
X184327800Y-102768400D02*
X184734200Y-102362000D01*
X177321600Y-102768400D02*
X184327800Y-102768400D01*
X175870000Y-104220000D02*
X177321600Y-102768400D01*
X187858400Y-99898200D02*
X187858400Y-89712800D01*
X181484300Y-88544400D02*
X179857400Y-86917500D01*
D61*
X179180000Y-58779999D02*
X179180000Y-62721000D01*
X179180000Y-62721000D02*
X179197000Y-62738000D01*
D60*
X178280000Y-51915000D02*
X178308000Y-51943000D01*
X178280000Y-50580000D02*
X178280000Y-51915000D01*
D61*
X177980000Y-58779999D02*
X177980000Y-62664000D01*
X177980000Y-62664000D02*
X178054000Y-62738000D01*
D60*
X172504100Y-70929501D02*
X172262801Y-71170800D01*
X172605700Y-70827901D02*
X172504100Y-70929501D01*
X179311301Y-70827901D02*
X172605700Y-70827901D01*
X181434800Y-88925400D02*
X179501800Y-86992400D01*
X179501800Y-71018400D02*
X179311301Y-70827901D01*
X174456201Y-100553799D02*
X184528539Y-100553799D01*
X184528539Y-100553799D02*
X185184138Y-99898200D01*
X186486800Y-88925400D02*
X181434800Y-88925400D01*
X187553990Y-99593010D02*
X187553990Y-89992590D01*
X187248800Y-99898200D02*
X187553990Y-99593010D01*
X173330000Y-101680000D02*
X174456201Y-100553799D01*
X187553990Y-89992590D02*
X186486800Y-88925400D01*
X179501800Y-86992400D02*
X179501800Y-71018400D01*
X185184138Y-99898200D02*
X187248800Y-99898200D01*
X165023800Y-69545200D02*
X164185600Y-70383400D01*
X164185600Y-70383400D02*
X164185600Y-73914000D01*
X166015700Y-69545200D02*
X165023800Y-69545200D01*
X172313600Y-69037200D02*
X166523700Y-69037200D01*
X166523700Y-69037200D02*
X166015700Y-69545200D01*
X177680000Y-50580000D02*
X177680000Y-53076932D01*
X177680000Y-53076932D02*
X177688891Y-53085823D01*
X177419000Y-62738000D02*
X177419000Y-58818999D01*
X173330000Y-104220000D02*
X172059600Y-102949600D01*
X184375619Y-100249389D02*
X185057008Y-99568000D01*
X172059600Y-102949600D02*
X172059600Y-101354662D01*
X173532800Y-71145400D02*
X172897800Y-71780400D01*
X187248800Y-90373200D02*
X186258200Y-89382600D01*
X172059600Y-101354662D02*
X173164873Y-100249389D01*
X181330600Y-89382600D02*
X179095400Y-87147400D01*
X173164873Y-100249389D02*
X184375619Y-100249389D01*
X185057008Y-99568000D02*
X187071000Y-99568000D01*
X178866800Y-71145400D02*
X173532800Y-71145400D01*
X187071000Y-99568000D02*
X187248800Y-99390200D01*
X179095400Y-87147400D02*
X179095400Y-71374000D01*
X187248800Y-99390200D02*
X187248800Y-90373200D01*
X186258200Y-89382600D02*
X181330600Y-89382600D01*
X170586400Y-71780400D02*
X170078400Y-71272400D01*
X179095400Y-71374000D02*
X178866800Y-71145400D01*
X172897800Y-71780400D02*
X170586400Y-71780400D01*
X170591248Y-68454722D02*
X170313180Y-68732790D01*
X170313180Y-68732790D02*
X165405710Y-68732790D01*
X165405710Y-68732790D02*
X163093400Y-71045100D01*
X163093400Y-73547351D02*
X163093400Y-73888600D01*
X163093400Y-71045100D02*
X163093400Y-73547351D01*
X176480000Y-50580000D02*
X176480000Y-52096200D01*
X176480000Y-52096200D02*
X176504600Y-52120800D01*
X176180000Y-58779999D02*
X176180000Y-62707000D01*
X176180000Y-62707000D02*
X176149000Y-62738000D01*
X175880000Y-50580000D02*
X175880000Y-53070736D01*
X175880000Y-53070736D02*
X175895661Y-53086397D01*
D61*
X175580000Y-58779999D02*
X175580000Y-59931999D01*
X175580000Y-59931999D02*
X175582001Y-59934000D01*
X175582001Y-59934000D02*
X175582001Y-62328750D01*
X175582001Y-62328750D02*
X175514000Y-62396751D01*
X175514000Y-62396751D02*
X175514000Y-62738000D01*
X175582001Y-62669999D02*
X175514000Y-62738000D01*
D60*
X174680000Y-50580000D02*
X174680000Y-52091200D01*
X174680000Y-52091200D02*
X174675800Y-52095400D01*
D61*
X174380000Y-58779999D02*
X174380000Y-62728603D01*
X174380000Y-62728603D02*
X174370603Y-62738000D01*
D60*
X159283400Y-77749400D02*
X159740600Y-77292200D01*
X159740600Y-77292200D02*
X159740600Y-73888600D01*
X152055449Y-77749400D02*
X159283400Y-77749400D01*
X151688800Y-77724000D02*
X152030049Y-77724000D01*
X152030049Y-77724000D02*
X152055449Y-77749400D01*
X174080000Y-50580000D02*
X174080000Y-53004249D01*
X174080000Y-53004249D02*
X174133820Y-53058069D01*
X173736000Y-62738000D02*
X173736000Y-62396751D01*
X173736000Y-62396751D02*
X173804201Y-62328550D01*
X173804201Y-62328550D02*
X173804201Y-59956600D01*
X173804201Y-59956600D02*
X173780000Y-59932399D01*
X173780000Y-59932399D02*
X173780000Y-58779999D01*
D61*
X173804001Y-62669999D02*
X173736000Y-62738000D01*
D60*
X185495420Y-89991420D02*
X180899319Y-89991419D01*
X169328201Y-100601799D02*
X171941501Y-100601799D01*
X168250000Y-101680000D02*
X169328201Y-100601799D01*
X186334400Y-98958400D02*
X186537990Y-98754810D01*
X171941501Y-100601799D02*
X172902731Y-99640569D01*
X186537990Y-91033990D02*
X185495420Y-89991420D01*
X172902731Y-99640569D02*
X183925031Y-99640569D01*
X183925031Y-99640569D02*
X183946800Y-99618800D01*
X183946800Y-99618800D02*
X184145208Y-99618800D01*
X180899319Y-89991419D02*
X178282600Y-87374700D01*
X184145208Y-99618800D02*
X184805608Y-98958400D01*
X184805608Y-98958400D02*
X186334400Y-98958400D01*
X186537990Y-98754810D02*
X186537990Y-91033990D01*
X161823400Y-70129400D02*
X160730810Y-69036810D01*
X178282600Y-87374700D02*
X178282600Y-75488800D01*
X178282600Y-75488800D02*
X177723800Y-74930000D01*
X158953590Y-69036810D02*
X158648400Y-69342000D01*
X177723800Y-74930000D02*
X162560000Y-74930000D01*
X162560000Y-74930000D02*
X161823400Y-74193400D01*
X161823400Y-74193400D02*
X161823400Y-70129400D01*
X160730810Y-69036810D02*
X158953590Y-69036810D01*
X158648400Y-69342000D02*
X158648400Y-73914000D01*
X172880000Y-50580000D02*
X172880000Y-52077600D01*
X172880000Y-52077600D02*
X172897800Y-52095400D01*
D61*
X172580000Y-58779999D02*
X172580000Y-62725397D01*
X172580000Y-62725397D02*
X172592603Y-62738000D01*
D60*
X168250000Y-104220000D02*
X168250000Y-103017919D01*
X172824200Y-99288600D02*
X184044908Y-99288600D01*
X159515239Y-73419099D02*
X159258000Y-73676338D01*
X161493200Y-74293700D02*
X160840562Y-74293700D01*
X159258000Y-74422000D02*
X159105600Y-74574400D01*
X180136800Y-89659400D02*
X177977800Y-87500400D01*
X171815411Y-100297389D02*
X172824200Y-99288600D01*
X185978800Y-98628200D02*
X186207400Y-98399600D01*
X186207400Y-98399600D02*
X186207400Y-91135200D01*
X159965961Y-73419099D02*
X159515239Y-73419099D01*
X168250000Y-103017919D02*
X168152881Y-102920800D01*
X180770629Y-90295829D02*
X180136800Y-89662000D01*
X168152881Y-102920800D02*
X167563800Y-102920800D01*
X175488600Y-75260200D02*
X162459700Y-75260200D01*
X167563800Y-102920800D02*
X167157400Y-102514400D01*
X167494811Y-100297389D02*
X171815411Y-100297389D01*
X157632400Y-74574400D02*
X157454600Y-74396600D01*
X185368029Y-90295829D02*
X180770629Y-90295829D01*
X167157400Y-102514400D02*
X167157400Y-100634800D01*
X186207400Y-91135200D02*
X185368029Y-90295829D01*
X162459700Y-75260200D02*
X161493200Y-74293700D01*
X159258000Y-73676338D02*
X159258000Y-74422000D01*
X167157400Y-100634800D02*
X167494811Y-100297389D01*
X160840562Y-74293700D02*
X159965961Y-73419099D01*
X184044908Y-99288600D02*
X184705308Y-98628200D01*
X184705308Y-98628200D02*
X185978800Y-98628200D01*
X180136800Y-89662000D02*
X180136800Y-89659400D01*
X177977800Y-87500400D02*
X177977800Y-75717400D01*
X177977800Y-75717400D02*
X177571400Y-75311000D01*
X177571400Y-75311000D02*
X175539400Y-75311000D01*
X175539400Y-75311000D02*
X175488600Y-75260200D01*
X159105600Y-74574400D02*
X157632400Y-74574400D01*
X157454600Y-74396600D02*
X157454600Y-73888600D01*
X172280000Y-52172462D02*
X172349350Y-52241812D01*
X172349350Y-52241812D02*
X172349350Y-53045550D01*
X172349350Y-53045550D02*
X172389800Y-53086000D01*
X172280000Y-50580000D02*
X172280000Y-52172462D01*
X172280000Y-52172462D02*
X172288200Y-52180662D01*
D61*
X171980000Y-58779999D02*
X171980000Y-59931999D01*
X171980000Y-59931999D02*
X172026001Y-59978000D01*
X172026001Y-59978000D02*
X172026001Y-62669999D01*
X172026001Y-62669999D02*
X171958000Y-62738000D01*
D60*
X153339800Y-69062600D02*
X153136600Y-69265800D01*
X153136600Y-69265800D02*
X153136600Y-73888600D01*
X155651200Y-69062600D02*
X153339800Y-69062600D01*
X155803600Y-68910200D02*
X155651200Y-69062600D01*
X155803600Y-74024662D02*
X155803600Y-68910200D01*
X158027751Y-74879200D02*
X156658138Y-74879200D01*
X156658138Y-74879200D02*
X155803600Y-74024662D01*
X159105600Y-75615800D02*
X158764351Y-75615800D01*
X158764351Y-75615800D02*
X158027751Y-74879200D01*
X177444010Y-75615410D02*
X160375990Y-75615410D01*
X160375990Y-75615410D02*
X160375600Y-75615800D01*
X177647600Y-85394800D02*
X177647600Y-75819000D01*
X177647600Y-75819000D02*
X177444010Y-75615410D01*
X177673390Y-85420590D02*
X177647600Y-85394800D01*
X180213000Y-90170000D02*
X177673390Y-87630390D01*
X177673390Y-87630390D02*
X177673390Y-85420590D01*
X180214300Y-90170000D02*
X180213000Y-90170000D01*
X185140600Y-90601800D02*
X180646100Y-90601800D01*
X180646100Y-90601800D02*
X180214300Y-90170000D01*
X185902990Y-91364190D02*
X185140600Y-90601800D01*
X185902990Y-93242492D02*
X185902990Y-91364190D01*
X165710000Y-104220000D02*
X166852990Y-103077010D01*
X166852990Y-103077010D02*
X166852990Y-100508708D01*
X185902990Y-93242492D02*
X185902990Y-93218000D01*
X166852990Y-100508708D02*
X167368720Y-99992978D01*
X184579608Y-98323400D02*
X185775600Y-98323400D01*
X167368720Y-99992978D02*
X171689320Y-99992978D01*
X171689320Y-99992978D02*
X172698109Y-98984189D01*
X172698109Y-98984189D02*
X183918819Y-98984189D01*
X183918819Y-98984189D02*
X184579608Y-98323400D01*
X185775600Y-98323400D02*
X185902990Y-98196010D01*
X185902990Y-98196010D02*
X185902990Y-93242492D01*
X171080000Y-50580000D02*
X171080000Y-48245600D01*
X171080000Y-48245600D02*
X169595800Y-46761400D01*
X169595800Y-46761400D02*
X166751000Y-46761400D01*
X160630000Y-104220000D02*
X161503222Y-104220000D01*
X176961800Y-87350600D02*
X176961800Y-76022200D01*
X183870600Y-98553300D02*
X183919208Y-98553300D01*
X161503222Y-104220000D02*
X162751622Y-102971600D01*
X184988200Y-90932000D02*
X182803800Y-90932000D01*
X162751622Y-102971600D02*
X164312600Y-102971600D01*
X185496200Y-97993200D02*
X185598580Y-97890820D01*
X164312600Y-102971600D02*
X164312600Y-101410622D01*
X164312600Y-101410622D02*
X166053622Y-99669600D01*
X166053622Y-99669600D02*
X171582200Y-99669600D01*
X171582200Y-99669600D02*
X172572020Y-98679780D01*
X150786701Y-78193501D02*
X150368000Y-77774800D01*
X185598580Y-97890820D02*
X185598580Y-91542380D01*
X159372699Y-78193501D02*
X150786701Y-78193501D01*
X150368000Y-77774800D02*
X150368000Y-77216000D01*
X172572020Y-98679780D02*
X183744120Y-98679780D01*
X184479308Y-97993200D02*
X185496200Y-97993200D01*
X183744120Y-98679780D02*
X183870600Y-98553300D01*
X180520010Y-90906210D02*
X180088210Y-90474410D01*
X152882600Y-76936600D02*
X154228800Y-75590400D01*
X183919208Y-98553300D02*
X184479308Y-97993200D01*
X185598580Y-91542380D02*
X184988200Y-90932000D01*
X182803800Y-90932000D02*
X182778010Y-90906210D01*
X154228800Y-75590400D02*
X154228800Y-73914000D01*
X182778010Y-90906210D02*
X180520010Y-90906210D01*
X180088210Y-90474410D02*
X180085610Y-90474410D01*
X180085610Y-90474410D02*
X176961800Y-87350600D01*
X176961800Y-76022200D02*
X176859420Y-75919820D01*
X150647400Y-76936600D02*
X152882600Y-76936600D01*
X176859420Y-75919820D02*
X161646380Y-75919820D01*
X161646380Y-75919820D02*
X159372699Y-78193501D01*
X150368000Y-77216000D02*
X150647400Y-76936600D01*
X170480000Y-50580000D02*
X170480000Y-49017200D01*
X170480000Y-49017200D02*
X169062400Y-47599600D01*
X169062400Y-47599600D02*
X166725600Y-47599600D01*
X169280000Y-50580000D02*
X169280000Y-48934800D01*
X169280000Y-48934800D02*
X168427400Y-48082200D01*
X168427400Y-48082200D02*
X165887400Y-48082200D01*
X165887400Y-48082200D02*
X165455600Y-48514000D01*
X170790000Y-101680000D02*
X170811600Y-101701600D01*
X186842400Y-90754200D02*
X185851800Y-89763600D01*
X170811600Y-101701600D02*
X171272200Y-101701600D01*
X186842400Y-99263200D02*
X186842400Y-90754200D01*
X171272200Y-101701600D02*
X173028821Y-99944979D01*
X185800610Y-89687010D02*
X181025410Y-89687010D01*
X173028821Y-99944979D02*
X184249529Y-99944979D01*
X184249529Y-99944979D02*
X184931308Y-99263200D01*
X162179000Y-70027800D02*
X160883600Y-68732400D01*
X184931308Y-99263200D02*
X186842400Y-99263200D01*
X185851800Y-89763600D02*
X185851800Y-89738200D01*
X185851800Y-89738200D02*
X185800610Y-89687010D01*
X156768800Y-68732400D02*
X156387800Y-69113400D01*
X178689000Y-85471000D02*
X178638200Y-85420200D01*
X181025410Y-89687010D02*
X178689000Y-87350600D01*
X178689000Y-87350600D02*
X178689000Y-85471000D01*
X178638200Y-85420200D02*
X178638200Y-75057000D01*
X178638200Y-75057000D02*
X178079400Y-74498200D01*
X178079400Y-74498200D02*
X162737800Y-74498200D01*
X160883600Y-68732400D02*
X156768800Y-68732400D01*
X162737800Y-74498200D02*
X162179000Y-73939400D01*
X162179000Y-73939400D02*
X162179000Y-70027800D01*
X156387800Y-69113400D02*
X156387800Y-73914000D01*
X168680000Y-50580000D02*
X168680000Y-53186200D01*
X168680000Y-53186200D02*
X168681400Y-53187600D01*
D61*
X160885000Y-41598000D02*
X160885000Y-42348000D01*
X160885000Y-42348000D02*
X160969000Y-42432000D01*
X160969000Y-42432000D02*
X160969000Y-43264419D01*
X160969000Y-43264419D02*
X160113381Y-43264419D01*
X160113381Y-43264419D02*
X159715200Y-43662600D01*
X162080000Y-50580000D02*
X162080000Y-49080000D01*
X161946000Y-48712797D02*
X162574600Y-48084199D01*
X162080000Y-49080000D02*
X161946000Y-48946000D01*
X161946000Y-48946000D02*
X161946000Y-48712797D01*
X164516325Y-45466525D02*
X163566972Y-44517172D01*
X162574600Y-48084199D02*
X162574600Y-48056959D01*
X162574600Y-48056959D02*
X164516325Y-46115234D01*
X163566972Y-44517172D02*
X161331772Y-44517172D01*
X164516325Y-46115234D02*
X164516325Y-45466525D01*
X161331772Y-44517172D02*
X160883600Y-44069000D01*
D60*
X160909000Y-44069000D02*
X160883600Y-44043600D01*
X159512000Y-44069000D02*
X159512000Y-43727751D01*
X159512000Y-43727751D02*
X159586380Y-43653371D01*
X159586380Y-43653371D02*
X159711619Y-43653371D01*
X160324800Y-44348400D02*
X160324800Y-43907834D01*
X160324800Y-43907834D02*
X160658335Y-43574299D01*
X160477200Y-44500800D02*
X160324800Y-44348400D01*
D61*
X161480000Y-50580000D02*
X161480000Y-48709293D01*
X161480000Y-48709293D02*
X162242609Y-47946684D01*
X162242609Y-47946684D02*
X162242609Y-47919434D01*
X162242609Y-47919434D02*
X164184325Y-45977718D01*
X164184325Y-45977718D02*
X164184325Y-45564461D01*
X164184325Y-45564461D02*
X163464767Y-44844903D01*
X163464767Y-44844903D02*
X160821303Y-44844903D01*
X160821303Y-44844903D02*
X160477200Y-44500800D01*
X161115535Y-43574299D02*
X160658335Y-43574299D01*
X161385000Y-41598000D02*
X161385000Y-43304834D01*
X161385000Y-43304834D02*
X161115535Y-43574299D01*
X160083001Y-49821503D02*
X160145989Y-49758515D01*
X160280000Y-50580000D02*
X160083001Y-50383001D01*
X160011999Y-45657960D02*
X160068060Y-45601899D01*
X160068060Y-45601899D02*
X160301829Y-45601899D01*
X160083001Y-50383001D02*
X160083001Y-49821503D01*
X160145989Y-49758515D02*
X160145989Y-49483485D01*
X160145989Y-49483485D02*
X160011999Y-49349495D01*
X160011999Y-49349495D02*
X160011999Y-45657960D01*
D60*
X162385000Y-41598000D02*
X162385000Y-42936120D01*
X162385000Y-42936120D02*
X162137028Y-43184092D01*
X162137028Y-43184092D02*
X162137028Y-43691166D01*
X162137028Y-43691166D02*
X162435033Y-43989171D01*
X162435033Y-43989171D02*
X162792507Y-43989171D01*
X162792507Y-43989171D02*
X163216771Y-43989171D01*
D61*
X160280000Y-49755000D02*
X160146000Y-49621000D01*
X160280000Y-50580000D02*
X160280000Y-49755000D01*
X159680000Y-50580000D02*
X159680000Y-45520441D01*
X159680000Y-45520441D02*
X159804547Y-45395894D01*
X159804547Y-45395894D02*
X159804547Y-45363203D01*
X159804547Y-45363203D02*
X159833301Y-45334449D01*
X159833301Y-45334449D02*
X159833301Y-45133371D01*
D60*
X162665229Y-43437629D02*
X162890200Y-43212658D01*
X162890200Y-43212658D02*
X162890200Y-41603200D01*
X162890200Y-41603200D02*
X162885000Y-41598000D01*
D61*
X159680000Y-49755000D02*
X159814000Y-49621000D01*
X159680000Y-50580000D02*
X159680000Y-49755000D01*
D60*
X164134800Y-42849800D02*
X163885000Y-42600000D01*
X163885000Y-42600000D02*
X163885000Y-41598000D01*
D61*
X158480000Y-50580000D02*
X158480000Y-49080000D01*
X158346000Y-46743850D02*
X158742340Y-46347510D01*
X158742340Y-46347510D02*
X158976109Y-46347510D01*
X158480000Y-49080000D02*
X158346000Y-48946000D01*
X158346000Y-48946000D02*
X158346000Y-46743850D01*
X158480000Y-50580000D02*
X158470600Y-50570600D01*
D60*
X163525589Y-43205533D02*
X163639357Y-43319301D01*
X163639357Y-43319301D02*
X164360161Y-43319301D01*
X164360161Y-43319301D02*
X164604301Y-43075161D01*
X164604301Y-43075161D02*
X164604301Y-42469701D01*
X164604301Y-42469701D02*
X164385000Y-42250400D01*
X164385000Y-42250400D02*
X164385000Y-41598000D01*
X163681265Y-43209065D02*
X163529121Y-43209065D01*
X163529121Y-43209065D02*
X163525589Y-43205533D01*
D61*
X157880000Y-50580000D02*
X157880000Y-49080000D01*
X158507581Y-46112751D02*
X158507581Y-45878982D01*
X157880000Y-49080000D02*
X158014000Y-48946000D01*
X158014000Y-48946000D02*
X158014000Y-46606332D01*
X158014000Y-46606332D02*
X158507581Y-46112751D01*
X157880000Y-50580000D02*
X157886400Y-50573600D01*
D60*
X165385000Y-41598000D02*
X165385000Y-42250400D01*
X165385000Y-42250400D02*
X165506400Y-42371800D01*
X165506400Y-42371800D02*
X165506400Y-42701594D01*
X164938990Y-43413872D02*
X164765999Y-43586863D01*
X165506400Y-42701594D02*
X164938990Y-43269004D01*
X164938990Y-43269004D02*
X164938990Y-43413872D01*
X165938200Y-43967400D02*
X165947200Y-43967400D01*
X164765999Y-43586863D02*
X164765999Y-44141399D01*
X164765999Y-44141399D02*
X164993201Y-44368601D01*
X164993201Y-44368601D02*
X165704401Y-44368601D01*
X165704401Y-44368601D02*
X165938200Y-44134802D01*
X165938200Y-44134802D02*
X165938200Y-43967400D01*
X165947200Y-43967400D02*
X166074200Y-43840400D01*
D61*
X156448388Y-47672171D02*
X156765171Y-47672171D01*
X156483001Y-50383001D02*
X156483001Y-49397599D01*
X156411999Y-47708560D02*
X156448388Y-47672171D01*
X156680000Y-50580000D02*
X156483001Y-50383001D01*
X156483001Y-49397599D02*
X156411999Y-49326597D01*
X156411999Y-49326597D02*
X156411999Y-47708560D01*
X156680000Y-50580000D02*
X156692600Y-50567400D01*
X156692600Y-50567400D02*
X156692600Y-49607198D01*
D60*
X165885000Y-41598000D02*
X165885000Y-43249600D01*
X165885000Y-43249600D02*
X165294200Y-43840400D01*
D61*
X156080000Y-50580000D02*
X156080000Y-47571041D01*
X156080000Y-47571041D02*
X156209189Y-47441852D01*
X156209189Y-47441852D02*
X156209189Y-47405299D01*
X156209189Y-47405299D02*
X156213629Y-47400859D01*
X156213629Y-47400859D02*
X156213629Y-47120629D01*
D52*
X124280000Y-75430000D02*
X124530000Y-75680000D01*
D57*
X147580000Y-83140000D02*
X143320000Y-83140000D01*
X143320000Y-83140000D02*
X143280000Y-83180000D01*
X119048200Y-65430400D02*
X117041600Y-67437000D01*
X117041600Y-67437000D02*
X115646200Y-67437000D01*
D58*
X132030000Y-99430000D02*
X132030000Y-100680000D01*
D54*
X142011400Y-91428000D02*
X142011400Y-92661400D01*
X142011400Y-92661400D02*
X142280000Y-92930000D01*
D61*
X204230000Y-101930000D02*
X204230000Y-102830000D01*
X204230000Y-102830000D02*
X204464000Y-103064000D01*
X204464000Y-103064000D02*
X204464000Y-103180482D01*
X204464000Y-103180482D02*
X203964482Y-103680000D01*
X203964482Y-103680000D02*
X202934000Y-103680000D01*
X205030000Y-101930000D02*
X205030000Y-102830000D01*
X205030000Y-102830000D02*
X204796000Y-103064000D01*
X204796000Y-103064000D02*
X204796000Y-103318000D01*
X204796000Y-103318000D02*
X204199241Y-103914759D01*
X204199241Y-103914759D02*
X202934000Y-105180000D01*
X211610482Y-98880000D02*
X211280000Y-98880000D01*
X212580000Y-99680000D02*
X211996000Y-99096000D01*
X212780000Y-99680000D02*
X212580000Y-99680000D01*
X211996000Y-99096000D02*
X211826482Y-99096000D01*
X211826482Y-99096000D02*
X211610482Y-98880000D01*
X212780000Y-98180000D02*
X212580000Y-98180000D01*
X212580000Y-98180000D02*
X212408001Y-98351999D01*
X212408001Y-98351999D02*
X211551999Y-98351999D01*
X211551999Y-98351999D02*
X211280000Y-98080000D01*
X211551999Y-95408001D02*
X211280000Y-95680000D01*
X214530000Y-94430000D02*
X214198000Y-94762000D01*
X212351999Y-94862401D02*
X212351999Y-94762000D01*
X214198000Y-94762000D02*
X213808402Y-94762000D01*
X213808402Y-94762000D02*
X213662401Y-94908001D01*
X212108001Y-95362401D02*
X212062401Y-95408001D01*
X213662401Y-94908001D02*
X212397599Y-94908001D01*
X212397599Y-94908001D02*
X212351999Y-94862401D01*
X212062401Y-95408001D02*
X211551999Y-95408001D01*
X212351999Y-94762000D02*
X212198000Y-94762000D01*
X212198000Y-94762000D02*
X212108001Y-94851999D01*
X212108001Y-94851999D02*
X212108001Y-95362401D01*
X213030000Y-94430000D02*
X212060482Y-94430000D01*
X212060482Y-94430000D02*
X211610482Y-94880000D01*
X211610482Y-94880000D02*
X211280000Y-94880000D01*
X208446000Y-92883518D02*
X208230000Y-93099518D01*
X209030000Y-91430000D02*
X209030000Y-92105000D01*
X209030000Y-92105000D02*
X208446000Y-92689000D01*
X208446000Y-92689000D02*
X208446000Y-92883518D01*
X208230000Y-93099518D02*
X208230000Y-93430000D01*
X207530000Y-91430000D02*
X207530000Y-92105000D01*
X207530000Y-92105000D02*
X207701999Y-92276999D01*
X207701999Y-92276999D02*
X207701999Y-93158001D01*
X207701999Y-93158001D02*
X207430000Y-93430000D01*
X204201999Y-92601999D02*
X204712401Y-92601999D01*
X204758001Y-92647599D02*
X204758001Y-93158001D01*
X204530000Y-91430000D02*
X204530000Y-91630000D01*
X204530000Y-91630000D02*
X203946000Y-92214000D01*
X203946000Y-92214000D02*
X203946000Y-92346000D01*
X203946000Y-92346000D02*
X204201999Y-92601999D01*
X204712401Y-92601999D02*
X204758001Y-92647599D01*
X204758001Y-93158001D02*
X205030000Y-93430000D01*
X203030000Y-91430000D02*
X203030000Y-91630000D01*
X203030000Y-91630000D02*
X203614000Y-92214000D01*
X203614000Y-92214000D02*
X203614000Y-92483518D01*
X203614000Y-92483518D02*
X204230000Y-93099518D01*
X204230000Y-93099518D02*
X204230000Y-93430000D01*
X145746000Y-53817242D02*
X146372758Y-54444000D01*
X201032000Y-103680000D02*
X201434000Y-103680000D01*
X200759000Y-103680000D02*
X201032000Y-103680000D01*
X200175000Y-104264000D02*
X200759000Y-103680000D01*
X198224758Y-104264000D02*
X200175000Y-104264000D01*
X199493022Y-57283823D02*
X199493022Y-61198304D01*
X196762000Y-102801242D02*
X198224758Y-104264000D01*
X196653200Y-54444000D02*
X199493022Y-57283823D01*
X196762000Y-69531819D02*
X196762000Y-102801242D01*
X196520389Y-69290208D02*
X196762000Y-69531819D01*
X146372758Y-54444000D02*
X196653200Y-54444000D01*
X196520389Y-64170937D02*
X196520389Y-69290208D01*
X199493022Y-61198304D02*
X196520389Y-64170937D01*
X145746000Y-52214000D02*
X145746000Y-53817242D01*
X145880000Y-52080000D02*
X145746000Y-52214000D01*
X145880000Y-50580000D02*
X145880000Y-52080000D01*
X196216378Y-69416133D02*
X196430000Y-69629754D01*
X196430000Y-102938758D02*
X198671242Y-105180000D01*
X146235242Y-54776000D02*
X196555264Y-54776000D01*
X145280000Y-53820758D02*
X146235242Y-54776000D01*
X199189011Y-60150251D02*
X198947030Y-60392230D01*
X196430000Y-69629754D02*
X196430000Y-102938758D01*
X145280000Y-50580000D02*
X145280000Y-53820758D01*
X196555264Y-54776000D02*
X199189011Y-57409748D01*
X199189011Y-57409748D02*
X199189011Y-60150251D01*
X198947030Y-60392230D02*
X198947030Y-61314360D01*
X198947030Y-61314360D02*
X196216378Y-64045012D01*
X196216378Y-64045012D02*
X196216378Y-69416133D01*
X198671242Y-105180000D02*
X201032000Y-105180000D01*
X201032000Y-105180000D02*
X201434000Y-105180000D01*
X216038800Y-92016758D02*
X216038800Y-97451682D01*
X216038800Y-97451682D02*
X215310482Y-98180000D01*
X215310482Y-98180000D02*
X214280000Y-98180000D01*
X211492200Y-87470158D02*
X216038800Y-92016758D01*
X211492200Y-78823642D02*
X211492200Y-87470158D01*
X212611841Y-77704001D02*
X211492200Y-78823642D01*
X215030000Y-76600000D02*
X213925999Y-77704001D01*
X213925999Y-77704001D02*
X212611841Y-77704001D01*
X216370800Y-91879242D02*
X216370800Y-97589200D01*
X216370800Y-97589200D02*
X215545241Y-98414759D01*
X215545241Y-98414759D02*
X214280000Y-99680000D01*
X211824200Y-87332642D02*
X216370800Y-91879242D01*
X211824200Y-78961158D02*
X211824200Y-87332642D01*
X212749359Y-78035999D02*
X211824200Y-78961158D01*
X215030000Y-79140000D02*
X213925999Y-78035999D01*
X213925999Y-78035999D02*
X212749359Y-78035999D01*
X208913999Y-68204693D02*
X208913999Y-71216001D01*
X208913999Y-71216001D02*
X208852400Y-71277600D01*
X215030000Y-65100000D02*
X212182991Y-67947009D01*
X209171683Y-67947009D02*
X208913999Y-68204693D01*
X212182991Y-67947009D02*
X209171683Y-67947009D01*
X208852400Y-87721918D02*
X213030000Y-91899518D01*
X208852400Y-71277600D02*
X208852400Y-87721918D01*
X213030000Y-91899518D02*
X213030000Y-92930000D01*
X215030000Y-65100000D02*
X214698000Y-65432000D01*
X209184400Y-71415118D02*
X209184400Y-87584400D01*
X209245990Y-68342208D02*
X209245990Y-71353528D01*
X215030000Y-67640000D02*
X212959518Y-67640000D01*
X212959518Y-67640000D02*
X212320519Y-68278999D01*
X212320519Y-68278999D02*
X209309199Y-68278999D01*
X209309199Y-68278999D02*
X209245990Y-68342208D01*
X209245990Y-71353528D02*
X209184400Y-71415118D01*
X209184400Y-87584400D02*
X213264759Y-91664759D01*
X213264759Y-91664759D02*
X214530000Y-92930000D01*
X208114000Y-56928842D02*
X210338841Y-54704001D01*
X210338841Y-54704001D02*
X213925999Y-54704001D01*
X213925999Y-54704001D02*
X215030000Y-53600000D01*
X207530000Y-89930000D02*
X207530000Y-89255000D01*
X207530000Y-89255000D02*
X208114000Y-88671000D01*
X208114000Y-88671000D02*
X208114000Y-56928842D01*
X208446000Y-57066358D02*
X210476359Y-55035999D01*
X210476359Y-55035999D02*
X213925999Y-55035999D01*
X213925999Y-55035999D02*
X215030000Y-56140000D01*
X208446000Y-88671000D02*
X208446000Y-57066358D01*
X209030000Y-89255000D02*
X208446000Y-88671000D01*
X209030000Y-89930000D02*
X209030000Y-89255000D01*
X207492011Y-86634050D02*
X207492011Y-47365431D01*
X206789060Y-87337001D02*
X207492011Y-86634050D01*
X207492011Y-47365431D02*
X212757442Y-42100000D01*
X203030000Y-89930000D02*
X203230000Y-89930000D01*
X212757442Y-42100000D02*
X213827919Y-42100000D01*
X205822999Y-87337001D02*
X206789060Y-87337001D01*
X203230000Y-89930000D02*
X205822999Y-87337001D01*
X213827919Y-42100000D02*
X215030000Y-42100000D01*
X213827919Y-44640000D02*
X215030000Y-44640000D01*
X210686958Y-44640000D02*
X213827919Y-44640000D01*
X207796021Y-47530937D02*
X210686958Y-44640000D01*
X207796021Y-86863979D02*
X207796021Y-47530937D01*
X204530000Y-89930000D02*
X204730000Y-89930000D01*
X204730000Y-89930000D02*
X207796021Y-86863979D01*
D52*
G36*
X140614400Y-93496509D02*
X137173032Y-93472443D01*
X137007600Y-93251867D01*
X137007600Y-92038671D01*
X137013406Y-92010000D01*
X137013406Y-91414600D01*
X140614400Y-91414600D01*
X140614400Y-93496509D01*
X140614400Y-93496509D01*
G37*
X140614400Y-93496509D02*
X137173032Y-93472443D01*
X137007600Y-93251867D01*
X137007600Y-92038671D01*
X137013406Y-92010000D01*
X137013406Y-91414600D01*
X140614400Y-91414600D01*
X140614400Y-93496509D01*
G36*
X145745200Y-94488000D02*
X145755206Y-94537410D01*
X145783647Y-94579035D01*
X145826041Y-94606315D01*
X145872200Y-94615000D01*
X146688479Y-94615000D01*
X146732173Y-96188010D01*
X141067990Y-96188010D01*
X141058991Y-96189800D01*
X140284200Y-96189800D01*
X140234790Y-96199806D01*
X140193165Y-96228247D01*
X140165885Y-96270641D01*
X140157200Y-96316800D01*
X140157200Y-96467898D01*
X137922000Y-96445090D01*
X137922000Y-94615000D01*
X143916400Y-94615000D01*
X143965810Y-94604994D01*
X144007435Y-94576553D01*
X144034715Y-94534159D01*
X144043400Y-94488000D01*
X144043400Y-90957400D01*
X145745200Y-90957400D01*
X145745200Y-94488000D01*
X145745200Y-94488000D01*
G37*
X145745200Y-94488000D02*
X145755206Y-94537410D01*
X145783647Y-94579035D01*
X145826041Y-94606315D01*
X145872200Y-94615000D01*
X146688479Y-94615000D01*
X146732173Y-96188010D01*
X141067990Y-96188010D01*
X141058991Y-96189800D01*
X140284200Y-96189800D01*
X140234790Y-96199806D01*
X140193165Y-96228247D01*
X140165885Y-96270641D01*
X140157200Y-96316800D01*
X140157200Y-96467898D01*
X137922000Y-96445090D01*
X137922000Y-94615000D01*
X143916400Y-94615000D01*
X143965810Y-94604994D01*
X144007435Y-94576553D01*
X144034715Y-94534159D01*
X144043400Y-94488000D01*
X144043400Y-90957400D01*
X145745200Y-90957400D01*
X145745200Y-94488000D01*
G36*
X136042400Y-96467394D02*
X135049994Y-97459800D01*
X129362200Y-97459800D01*
X129312790Y-97469806D01*
X129277241Y-97492402D01*
X127789724Y-98831167D01*
X122631200Y-98806603D01*
X122631200Y-96518021D01*
X127356576Y-96443800D01*
X130937000Y-96443800D01*
X130986410Y-96433794D01*
X131031478Y-96401670D01*
X132339832Y-94945200D01*
X133858000Y-94945200D01*
X133907410Y-94935194D01*
X133956113Y-94898841D01*
X135480113Y-93044641D01*
X135503756Y-93000116D01*
X135509000Y-92964000D01*
X135509000Y-92031757D01*
X135513406Y-92010000D01*
X135513406Y-91414600D01*
X136042400Y-91414600D01*
X136042400Y-96467394D01*
X136042400Y-96467394D01*
G37*
X136042400Y-96467394D02*
X135049994Y-97459800D01*
X129362200Y-97459800D01*
X129312790Y-97469806D01*
X129277241Y-97492402D01*
X127789724Y-98831167D01*
X122631200Y-98806603D01*
X122631200Y-96518021D01*
X127356576Y-96443800D01*
X130937000Y-96443800D01*
X130986410Y-96433794D01*
X131031478Y-96401670D01*
X132339832Y-94945200D01*
X133858000Y-94945200D01*
X133907410Y-94935194D01*
X133956113Y-94898841D01*
X135480113Y-93044641D01*
X135503756Y-93000116D01*
X135509000Y-92964000D01*
X135509000Y-92031757D01*
X135513406Y-92010000D01*
X135513406Y-91414600D01*
X136042400Y-91414600D01*
X136042400Y-96467394D01*
G36*
X125044200Y-86461600D02*
X125055583Y-86514153D01*
X125425200Y-87327310D01*
X125425200Y-88417400D01*
X125425207Y-88418751D01*
X125449242Y-90678000D01*
X122604442Y-90678000D01*
X122580393Y-88441434D01*
X122569856Y-88392135D01*
X122546244Y-88356146D01*
X121514466Y-87250669D01*
X121536829Y-85953600D01*
X125044200Y-85953600D01*
X125044200Y-86461600D01*
X125044200Y-86461600D01*
G37*
X125044200Y-86461600D02*
X125055583Y-86514153D01*
X125425200Y-87327310D01*
X125425200Y-88417400D01*
X125425207Y-88418751D01*
X125449242Y-90678000D01*
X122604442Y-90678000D01*
X122580393Y-88441434D01*
X122569856Y-88392135D01*
X122546244Y-88356146D01*
X121514466Y-87250669D01*
X121536829Y-85953600D01*
X125044200Y-85953600D01*
X125044200Y-86461600D01*
G36*
X148617015Y-90099011D02*
X148615423Y-90116758D01*
X148567050Y-92632172D01*
X146862800Y-92610039D01*
X146862800Y-90119200D01*
X146857273Y-90082141D01*
X145992925Y-87249000D01*
X149075915Y-87249000D01*
X148617015Y-90099011D01*
X148617015Y-90099011D01*
G37*
X148617015Y-90099011D02*
X148615423Y-90116758D01*
X148567050Y-92632172D01*
X146862800Y-92610039D01*
X146862800Y-90119200D01*
X146857273Y-90082141D01*
X145992925Y-87249000D01*
X149075915Y-87249000D01*
X148617015Y-90099011D01*
G36*
X176657000Y-94996000D02*
X176667006Y-95045410D01*
X176695447Y-95087035D01*
X176737841Y-95114315D01*
X176784000Y-95123000D01*
X179959000Y-95123000D01*
X179959000Y-98196400D01*
X155829000Y-98196400D01*
X155829000Y-96901000D01*
X167132000Y-96901000D01*
X167181410Y-96890994D01*
X167223035Y-96862553D01*
X167250315Y-96820159D01*
X167259000Y-96774000D01*
X167259000Y-94869000D01*
X176657000Y-94869000D01*
X176657000Y-94996000D01*
X176657000Y-94996000D01*
G37*
X176657000Y-94996000D02*
X176667006Y-95045410D01*
X176695447Y-95087035D01*
X176737841Y-95114315D01*
X176784000Y-95123000D01*
X179959000Y-95123000D01*
X179959000Y-98196400D01*
X155829000Y-98196400D01*
X155829000Y-96901000D01*
X167132000Y-96901000D01*
X167181410Y-96890994D01*
X167223035Y-96862553D01*
X167250315Y-96820159D01*
X167259000Y-96774000D01*
X167259000Y-94869000D01*
X176657000Y-94869000D01*
X176657000Y-94996000D01*
G36*
X171323000Y-90043000D02*
X166624000Y-90043000D01*
X166574590Y-90053006D01*
X166532965Y-90081447D01*
X166505685Y-90123841D01*
X166497000Y-90170000D01*
X166497000Y-92837000D01*
X164465000Y-92837000D01*
X164465000Y-86995000D01*
X171323000Y-86995000D01*
X171323000Y-90043000D01*
X171323000Y-90043000D01*
G37*
X171323000Y-90043000D02*
X166624000Y-90043000D01*
X166574590Y-90053006D01*
X166532965Y-90081447D01*
X166505685Y-90123841D01*
X166497000Y-90170000D01*
X166497000Y-92837000D01*
X164465000Y-92837000D01*
X164465000Y-86995000D01*
X171323000Y-86995000D01*
X171323000Y-90043000D01*
G36*
X156845000Y-92379800D02*
X154330400Y-92379800D01*
X154330400Y-92176600D01*
X156845000Y-92176600D01*
X156845000Y-92379800D01*
X156845000Y-92379800D01*
G37*
X156845000Y-92379800D02*
X154330400Y-92379800D01*
X154330400Y-92176600D01*
X156845000Y-92176600D01*
X156845000Y-92379800D01*
G36*
X163194102Y-96012000D02*
X156362400Y-96012000D01*
X156362400Y-93599000D01*
X156352394Y-93549590D01*
X156323953Y-93507965D01*
X156281559Y-93480685D01*
X156238574Y-93472040D01*
X154330400Y-93424336D01*
X154330400Y-92837000D01*
X155641353Y-92837000D01*
X155805335Y-92905091D01*
X156054771Y-92905309D01*
X156220091Y-92837000D01*
X156352553Y-92837000D01*
X156516535Y-92905091D01*
X156765971Y-92905309D01*
X156931291Y-92837000D01*
X157251400Y-92837000D01*
X157300810Y-92826994D01*
X157342435Y-92798553D01*
X157369715Y-92756159D01*
X157378400Y-92710000D01*
X157378400Y-92659200D01*
X163170491Y-92659200D01*
X163194102Y-96012000D01*
X163194102Y-96012000D01*
G37*
X163194102Y-96012000D02*
X156362400Y-96012000D01*
X156362400Y-93599000D01*
X156352394Y-93549590D01*
X156323953Y-93507965D01*
X156281559Y-93480685D01*
X156238574Y-93472040D01*
X154330400Y-93424336D01*
X154330400Y-92837000D01*
X155641353Y-92837000D01*
X155805335Y-92905091D01*
X156054771Y-92905309D01*
X156220091Y-92837000D01*
X156352553Y-92837000D01*
X156516535Y-92905091D01*
X156765971Y-92905309D01*
X156931291Y-92837000D01*
X157251400Y-92837000D01*
X157300810Y-92826994D01*
X157342435Y-92798553D01*
X157369715Y-92756159D01*
X157378400Y-92710000D01*
X157378400Y-92659200D01*
X163170491Y-92659200D01*
X163194102Y-96012000D01*
G36*
X161163000Y-87503000D02*
X161173006Y-87552410D01*
X161201447Y-87594035D01*
X161243841Y-87621315D01*
X161288372Y-87629990D01*
X163144906Y-87653792D01*
X163168880Y-91897200D01*
X157378400Y-91897200D01*
X157378400Y-91846400D01*
X157368394Y-91796990D01*
X157339953Y-91755365D01*
X157297559Y-91728085D01*
X157251400Y-91719400D01*
X156931047Y-91719400D01*
X156767065Y-91651309D01*
X156517629Y-91651091D01*
X156352309Y-91719400D01*
X156219847Y-91719400D01*
X156055865Y-91651309D01*
X155806429Y-91651091D01*
X155641109Y-91719400D01*
X154330400Y-91719400D01*
X154330400Y-91516200D01*
X157251400Y-91516200D01*
X157300810Y-91506194D01*
X157342435Y-91477753D01*
X157369715Y-91435359D01*
X157378400Y-91389200D01*
X157378400Y-81889600D01*
X161163000Y-81889600D01*
X161163000Y-87503000D01*
X161163000Y-87503000D01*
G37*
X161163000Y-87503000D02*
X161173006Y-87552410D01*
X161201447Y-87594035D01*
X161243841Y-87621315D01*
X161288372Y-87629990D01*
X163144906Y-87653792D01*
X163168880Y-91897200D01*
X157378400Y-91897200D01*
X157378400Y-91846400D01*
X157368394Y-91796990D01*
X157339953Y-91755365D01*
X157297559Y-91728085D01*
X157251400Y-91719400D01*
X156931047Y-91719400D01*
X156767065Y-91651309D01*
X156517629Y-91651091D01*
X156352309Y-91719400D01*
X156219847Y-91719400D01*
X156055865Y-91651309D01*
X155806429Y-91651091D01*
X155641109Y-91719400D01*
X154330400Y-91719400D01*
X154330400Y-91516200D01*
X157251400Y-91516200D01*
X157300810Y-91506194D01*
X157342435Y-91477753D01*
X157369715Y-91435359D01*
X157378400Y-91389200D01*
X157378400Y-81889600D01*
X161163000Y-81889600D01*
X161163000Y-87503000D01*
G36*
X128397000Y-60833000D02*
X126746000Y-60833000D01*
X126746000Y-59182000D01*
X126735994Y-59132590D01*
X126707553Y-59090965D01*
X126665159Y-59063685D01*
X126619000Y-59055000D01*
X125095000Y-59055000D01*
X125045590Y-59065006D01*
X125003965Y-59093447D01*
X124976685Y-59135841D01*
X124968000Y-59182000D01*
X124968000Y-67310000D01*
X122936000Y-67310000D01*
X122936000Y-64008000D01*
X122925994Y-63958590D01*
X122910600Y-63931800D01*
X121386600Y-61899800D01*
X121348949Y-61866275D01*
X121285000Y-61849000D01*
X119761000Y-61849000D01*
X119761000Y-59182000D01*
X122301000Y-59182000D01*
X122350410Y-59171994D01*
X122374817Y-59158344D01*
X123230699Y-58547000D01*
X125653862Y-58547000D01*
X125725000Y-58561406D01*
X126375000Y-58561406D01*
X126451563Y-58547000D01*
X126619000Y-58547000D01*
X126668410Y-58536994D01*
X126710035Y-58508553D01*
X126737315Y-58466159D01*
X126746000Y-58420000D01*
X126746000Y-57023000D01*
X128397000Y-57023000D01*
X128397000Y-60833000D01*
X128397000Y-60833000D01*
G37*
X128397000Y-60833000D02*
X126746000Y-60833000D01*
X126746000Y-59182000D01*
X126735994Y-59132590D01*
X126707553Y-59090965D01*
X126665159Y-59063685D01*
X126619000Y-59055000D01*
X125095000Y-59055000D01*
X125045590Y-59065006D01*
X125003965Y-59093447D01*
X124976685Y-59135841D01*
X124968000Y-59182000D01*
X124968000Y-67310000D01*
X122936000Y-67310000D01*
X122936000Y-64008000D01*
X122925994Y-63958590D01*
X122910600Y-63931800D01*
X121386600Y-61899800D01*
X121348949Y-61866275D01*
X121285000Y-61849000D01*
X119761000Y-61849000D01*
X119761000Y-59182000D01*
X122301000Y-59182000D01*
X122350410Y-59171994D01*
X122374817Y-59158344D01*
X123230699Y-58547000D01*
X125653862Y-58547000D01*
X125725000Y-58561406D01*
X126375000Y-58561406D01*
X126451563Y-58547000D01*
X126619000Y-58547000D01*
X126668410Y-58536994D01*
X126710035Y-58508553D01*
X126737315Y-58466159D01*
X126746000Y-58420000D01*
X126746000Y-57023000D01*
X128397000Y-57023000D01*
X128397000Y-60833000D01*
G36*
X126238000Y-61214000D02*
X126248006Y-61263410D01*
X126276447Y-61305035D01*
X126318841Y-61332315D01*
X126365000Y-61341000D01*
X128651000Y-61341000D01*
X128651000Y-73107752D01*
X125793341Y-76710888D01*
X123317000Y-76828809D01*
X123317000Y-73042008D01*
X123693525Y-71661416D01*
X123698000Y-71628000D01*
X123698000Y-68886606D01*
X124131606Y-68453000D01*
X125603000Y-68453000D01*
X125652410Y-68442994D01*
X125694035Y-68414553D01*
X125721315Y-68372159D01*
X125730000Y-68326000D01*
X125730000Y-61214000D01*
X125719994Y-61164590D01*
X125691553Y-61122965D01*
X125649159Y-61095685D01*
X125603000Y-61087000D01*
X125603000Y-59690000D01*
X126238000Y-59690000D01*
X126238000Y-61214000D01*
X126238000Y-61214000D01*
G37*
X126238000Y-61214000D02*
X126248006Y-61263410D01*
X126276447Y-61305035D01*
X126318841Y-61332315D01*
X126365000Y-61341000D01*
X128651000Y-61341000D01*
X128651000Y-73107752D01*
X125793341Y-76710888D01*
X123317000Y-76828809D01*
X123317000Y-73042008D01*
X123693525Y-71661416D01*
X123698000Y-71628000D01*
X123698000Y-68886606D01*
X124131606Y-68453000D01*
X125603000Y-68453000D01*
X125652410Y-68442994D01*
X125694035Y-68414553D01*
X125721315Y-68372159D01*
X125730000Y-68326000D01*
X125730000Y-61214000D01*
X125719994Y-61164590D01*
X125691553Y-61122965D01*
X125649159Y-61095685D01*
X125603000Y-61087000D01*
X125603000Y-59690000D01*
X126238000Y-59690000D01*
X126238000Y-61214000D01*
M02*
